<?xml version="1.0" encoding="UTF-8" standalone="no"?>
<!-- Creator: CorelDRAW -->

<svg
   xmlns:dc="http://purl.org/dc/elements/1.1/"
   xmlns:cc="http://creativecommons.org/ns#"
   xmlns:rdf="http://www.w3.org/1999/02/22-rdf-syntax-ns#"
   xmlns:svg="http://www.w3.org/2000/svg"
   xmlns="http://www.w3.org/2000/svg"
   xmlns:sodipodi="http://sodipodi.sourceforge.net/DTD/sodipodi-0.dtd"
   xmlns:inkscape="http://www.inkscape.org/namespaces/inkscape"
   xml:space="preserve"
   width="297mm"
   height="210mm"
   style="shape-rendering:geometricPrecision; text-rendering:geometricPrecision; image-rendering:optimizeQuality; fill-rule:evenodd; clip-rule:evenodd"
   viewBox="0 0 297 210"
   id="svg4136"
   version="1.1"
   inkscape:version="0.91 r13725"
   sodipodi:docname="smok_wektor3.svg"><metadata
     id="metadata4244"><rdf:RDF><cc:Work
         rdf:about=""><dc:format>image/svg+xml</dc:format><dc:type
           rdf:resource="http://purl.org/dc/dcmitype/StillImage" /><dc:title></dc:title></cc:Work></rdf:RDF></metadata><sodipodi:namedview
     pagecolor="#ffffff"
     bordercolor="#666666"
     borderopacity="1"
     objecttolerance="10"
     gridtolerance="10"
     guidetolerance="10"
     inkscape:pageopacity="0"
     inkscape:pageshadow="2"
     inkscape:window-width="1685"
     inkscape:window-height="1006"
     id="namedview4242"
     showgrid="false"
     inkscape:zoom="1.0737884"
     inkscape:cx="526.1811"
     inkscape:cy="372.04724"
     inkscape:window-x="0"
     inkscape:window-y="0"
     inkscape:window-maximized="0"
     inkscape:current-layer="svg4136" /><defs
     id="defs4138"><style
       type="text/css"
       id="style4140"><![CDATA[
    .fil3 {}
    .fil0 {}
    .fil1 {}
    .fil2 {}
    .fil4 {}
   ]]></style></defs><path
     style="fill:#0c3b6b"
     inkscape:connector-curvature="0"
     id="path4144"
     d="m 245.42,130.665 c 0,0.0546 0,0.1087 0,0.1627 3.8796,7.025 18.0374,4.6089 15.2859,17.7255 -1.0735,3.2628 -3.3437,5.329 -6.6672,6.3421 -0.6135,-0.2096 -3.6744,0.6862 -4.5245,0.3354 -2.9022,-1.1979 -4.3992,-4.2183 -5.6578,-5.3498 1.0857,-0.1068 6.2772,0.5133 7.0925,0.1359 2.6372,-0.1645 4.535,-2.0082 3.7406,-4.7162 -1.6618,-5.6625 -15.6414,-5.9809 -15.415,-14.1858 1.9013,-0.1144 4.1732,0.1334 6.1455,-0.4498 z M 7.376,33.2684 c 1.5396,-0.8147 3.0765,-1.9353 4.5522,-2.9352 0.6947,-0.4707 4.7443,-1.5572 5.7806,-1.5572 0.6496,0 1.6096,0.7488 2.6956,0.7488 0.0916,0 2.0405,-0.9394 2.2463,-1.0483 3.0097,0.7012 6.1407,1.7617 9.2228,2.4578 1.6624,0.3755 1.0841,0.5074 2.0272,0.9678 0.6141,0.2998 1.3558,0.5396 2.0321,0.8131 1.3168,0.5323 3.0254,1.0305 4.1194,1.721 2.3815,1.5029 4.8959,2.8963 7.3566,4.3239 1.0655,0.6182 2.8293,1.4315 3.5176,2.3228 0.7502,0.9712 1.7777,2.2018 2.5734,3.1172 l -2.6057,3.6596 -10.5691,0.727 0.6222,-0.4432 -8.5613,0.2817 c -0.7591,0.4752 -2.2138,1.6651 -3.0851,1.9756 -1.3061,0.4653 -2.4264,0.7456 -3.7532,1.1885 -0.936,0.3123 -5.1156,2.9395 -6.2513,3.6323 -1.8471,1.1267 -4.673,2.4372 -6.2619,3.6217 -0.402,0.2998 -4.2107,5.1978 -4.3107,5.5727 0.5133,-0.137 3.1196,-2.335 3.7686,-2.8204 1.3809,-1.0328 2.0415,-2.1213 4.318,-2.1213 1.9352,-1.2958 4.3983,-2.6258 6.4935,-3.8394 0.3826,-0.2217 8.0309,-1.252 8.931,-1.252 l 0.4492,0 c 1.6103,0 9.3866,1.2347 10.0335,1.797 l -0.7488,0 c 0.6102,0.8327 8.7442,3.1819 9.969,4.1077 0.1475,0.1115 0.3885,0.5592 0.8492,0.9478 0.3582,0.3021 0.662,0.5243 1.0133,0.7837 0.6142,0.4534 1.357,1.0174 1.9506,1.4936 1.0453,0.8385 1.7923,3.0477 1.7923,5.0962 l 0,0.7488 c 0,1.6014 -5.9912,4.4934 -7.4878,5.2412 -1.431,0.715 -7.3979,3.6138 -8.2363,4.3426 l 1.4925,-0.1876 c -1.2794,1.9559 -3.413,3.2754 -4.5867,5.6291 -0.6853,1.3737 -3.0831,5.713 -3.3452,6.8379 0.8236,-0.5515 3.8606,-4.8398 5.0544,-6.0272 2.2405,-2.2284 3.4521,-3.0182 6.4261,-4.5057 0.8359,-0.418 2.9811,-1.6533 3.795,-1.7458 1.3994,-0.1588 3.2992,-0.5873 4.6786,-0.8622 0.975,-0.1943 3.8621,-0.8463 4.7506,-0.7925 1.5421,0.0932 3.2122,0.6058 4.7966,0.6058 l 4.8434,3.9808 -0.147,0.0801 0.5787,3.1207 c -2.1537,0.5723 -10.2333,6.8484 -11.904,8.5022 -3.6701,3.633 -6.3827,6.6338 -9.335,11.0311 -4.9945,7.4395 -9.4941,18.8652 -9.4941,31.2375 l 0,3.7437 c 0,18.0304 9.6304,33.7936 18.903,42.6441 9.7888,9.3435 25.0113,17.4047 44.1429,17.4047 l 7.3379,0 c 5.8191,0 14.7813,-2.2536 19.1085,-3.9532 6.2275,-2.446 9.9231,-4.589 15.0644,-7.9972 2.0369,-1.3503 4.555,-3.5097 6.3713,-5.1594 0.9293,-0.8441 2.2118,-1.8478 3.2114,-2.6289 0.8583,-0.6708 2.0139,-2.0042 2.855,-2.8355 1.1906,-1.177 4.2638,-4.9407 5.1438,-6.3869 0.9392,-1.5434 1.321,-2.0746 2.7528,-3.0874 0.6258,-0.4426 3.0682,-1.663 4.1957,-1.495 l 4.7857,0.6417 c 0.7199,0.0636 1.8033,-0.4814 1.8033,-1.0909 l 0,-0.2995 c 0,-1.2814 -1.906,-2.4348 -2.6557,-3.1845 -0.7785,-0.7785 -1.8739,-2.3825 -2.388,-3.4523 -0.9017,-1.8762 -1.2458,-7.3775 -1.2458,-10.2847 0,-3.7208 0.1026,-7.9036 -0.289,-11.2416 -0.2367,-2.0178 -0.1296,-3.4085 -0.5175,-5.3226 -0.2081,-1.0268 -0.9335,-3.8741 -0.8408,-4.8497 l 0.3021,-3.5937 0.6296,1.4853 0.2662,0.0119 c 0,-1.2057 0.4617,-3.9639 0.6887,-5.3013 0.3711,-2.1869 0.2452,-2.9515 1.1564,-4.6837 0.7352,-1.3976 4.1956,-6.0673 5.6426,-6.1878 l 0.8252,2.1262 0.0733,-3.0246 c 0.8607,-0.2299 2.7597,-1.6472 3.7438,-1.6472 l 0.2995,0 c 2.5446,0 4.0456,0.5343 5.3541,1.834 0.4262,0.4233 1.4161,1.43 1.5712,2.0228 0.1836,0.7017 0.4864,2.042 0.862,2.5824 l 0.2842,-1.6505 c 1.8754,1.2488 1.3149,4.2881 2.1117,5.5439 l 0,-1.198 c 0.418,0.4809 3.0302,7.3387 3.5322,8.5975 0.612,1.5343 1.1407,2.8654 1.7549,4.3848 0.6433,1.5914 0.8171,3.0574 2.2006,3.7895 -1.021,-4.3825 -2.7348,-8.5975 -3.8033,-12.9688 -0.5411,-2.2138 -1.4364,-4.2206 -1.9202,-6.4657 -0.2583,-1.199 -1.914,-5.596 -1.914,-6.4719 l 0,-0.599 c 4.8048,0.3998 11.2245,6.0297 14.7058,8.3559 4.0114,2.6805 10.9878,5.4208 17.6408,5.4208 l 3.7439,0 c 4.207,0 10.1435,-2.1029 13.0811,-3.5411 3.7868,-1.854 6.6806,-4.1649 9.4942,-6.9784 2.9996,-2.9994 4.794,-5.7389 6.7771,-9.6953 0.8038,-1.6034 1.6966,-4.0867 2.1861,-6.0502 0.2867,-1.1492 0.511,-2.3037 0.6936,-3.4992 0.069,-0.4512 0.2535,-3.3759 0.4138,-3.6293 l 0,-3.7441 c -0.0329,-0.0571 -0.9551,-6.2857 -1.2834,-7.252 -0.8315,-2.4471 -1.2345,-4.0796 -2.3095,-6.2262 -1.9967,-3.987 -4.2143,-6.8321 -7.2264,-9.845 -5.214,-5.2155 -13.9482,-9.7709 -24.3725,-9.7709 l -1.4974,0 c -4.0621,0 -10.0257,1.6357 -12.7291,2.995 -1.9627,0.9869 -3.3223,1.6159 -5.1215,2.8153 -0.6581,0.4386 -4.3142,3.2848 -4.4626,3.3243 l -0.1858,-0.8912 c -1.963,-1.0649 -3.4291,-3.5768 -4.781,-5.3732 -1.4037,-1.8656 -3.0561,-3.8313 -4.3178,-5.7154 l -0.1788,-1.7936 -0.57,-0.0033 c -0.5341,0 -1.3881,-2.2055 -1.6473,-2.6956 -2.4708,0 -6.3227,-2.2605 -8.2869,-3.2438 -1.2544,-0.6281 -2.5417,-1.3675 -3.8229,-1.8678 -1.9497,-0.7616 -2.0424,-0.8769 -3.4272,-2.2632 -1.105,-1.1059 -2.1325,-1.3734 -3.8409,-1.8497 -1.8648,-0.52 -2.5362,-0.8334 -4.0828,-1.6077 -1.9681,-0.9854 -5.6811,-3.244 -8.137,-3.244 -1.353,-0.9059 -0.9893,-2.1028 -2.9048,-2.6361 -1.45,-0.4039 -2.908,-0.6551 -4.3734,-1.0176 -1.2057,-0.2982 -8.1434,-1.8996 -8.5957,-2.1865 l -0.5989,0 c -0.3321,0.2107 -5.2687,1.295 -6.022,1.4657 -1.1045,0.2502 -2.0304,0.4081 -3.0799,0.6638 -1.7062,0.4156 -1.4926,-0.1624 -2.3381,1.256 -0.9357,1.5698 -6.3254,7.3779 -6.5303,8.1451 l 8.9836,-6.2917 c 2.2382,0.0023 4.5042,-0.4509 6.4372,-0.4506 3.2688,5e-4 3.039,-0.0712 5.825,0.7714 2.6587,0.8041 6.7709,2.9811 9.354,4.2732 3.2911,1.646 5.7606,3.0608 8.7806,4.8469 1.5333,0.9069 6.2941,5.2607 6.2941,7.3332 0,0.3974 -0.0862,1.1228 -0.3612,1.286 -0.1588,0.0942 -1.2029,0.3612 -1.2861,0.3612 -2.7805,0 -3.9623,1.9401 -5.6535,3.6311 -1.0944,1.0944 -4.1779,3.5869 -4.5297,4.9045 l -4.0235,-0.9772 -0.0199,-0.2208 1.2286,-0.536 -4.9505,0.8188 c 1.532,-2.4535 3.9747,-2.5289 7.7653,-2.5289 l 5.4782,-5.9001 2.4714,-0.0925 c -2.5269,-0.1471 -3.9008,-0.8768 -5.5152,0.4904 -1.0389,0.8799 -2.4617,2.4225 -3.4827,3.1061 -2.5956,0 -5.1917,0.0054 -7.7872,0 -2.2728,-0.0047 -1.5057,0.1286 -2.7339,1.1595 -0.6958,0.5838 -1.3497,1.2114 -2.0581,1.6858 0.1572,-0.6749 1.7103,-3.6351 2.1803,-3.9594 0.6379,-0.4402 3.2393,-2.2248 3.5104,-2.6295 l -5.5345,1.8167 -1.3306,4.1809 -4.067,-0.0077 c -0.9174,0.6143 -1.6075,2.1545 -2.3618,2.7295 -0.7523,0.5734 -2.2524,1.2281 -3.1487,1.7932 -1.0113,0.6375 -5.5083,3.1717 -6.6192,3.2641 l -1.7155,4.466 c 1.4245,-0.2895 7.0548,-2.2814 7.8553,-2.2197 l 5.0856,0.3757 c -0.3825,0.2613 -5.2068,2.5226 -6.0401,2.8628 -1.1007,0.4494 -2.792,0.1808 -4.1053,0.3873 -2.0877,0.3281 -2.2371,-0.2971 -3.7756,-0.3314 l 5.3483,4.3961 c 0.0428,-2.2825 -0.3563,-2.0023 1.8397,-2.0001 1.1981,0.0011 2.396,0 3.5941,0 l 2.709,-1.4723 2.5296,0.4395 c -0.1379,1.674 -6.7188,7.1744 -8.1772,7.9776 -0.5292,0.2914 -1.1159,0.3314 -1.5517,0.5562 -0.7047,0.3636 0.3666,0.2121 -0.6212,1.0135 -0.6896,0.5596 -1.6387,1.1546 -2.3741,1.6704 -0.4659,0.327 -4.5489,3.2924 -4.6443,3.2924 -0.3584,0 -3.15,-0.9185 -4.1571,-1.0842 -1.3235,-0.2177 -2.8028,-0.6893 -4.3743,-0.8669 -3.0778,-0.3478 -6.0242,-0.8941 -9.5887,-0.8941 l -2.6955,0 -4.9459,0.2282 -9.8891,-12.2004 0.4622,-1.0545 C 85.8309,62.6562 85.5974,62.4475 85.3635,60.8556 85.0382,58.6399 85.6192,59.3233 83.1434,59.0323 82.123,58.9125 82.585,56.7217 82.7334,55.7626 82.8897,54.75 83.0009,53.1989 83.0009,51.9869 82.4288,51.8342 71.5367,42.4236 70.2322,41.2448 69.0188,40.1482 65.0913,36.398 63.982,35.8146 c -1.681,-0.884 -6.5126,-2.3504 -8.6289,-3.0517 -2.9924,-0.9915 -5.8649,-2.1138 -8.7607,-3.0698 -2.7421,-0.9052 -6.0731,-1.9414 -8.667,-3.0136 -3.2487,-1.3428 -5.1533,-1.9467 -9.7339,-1.9466 -3.8016,0 -7.5012,-0.2995 -11.3812,-0.2995 l -9.4343,8.5355 0,0.2995 z m 175.21,133.575 c -1.4503,0 -3.7439,-0.7714 -3.7439,0.8985 l 0,0.1498 c 0,0.528 1.4061,1.588 1.5004,2.9922 0.0955,1.4225 -0.1526,2.896 -0.1526,4.4952 0,6.6748 4.8719,11.6803 11.5309,11.6803 5.5513,0 10.7823,-5.0922 10.7823,-10.6321 l 0,-0.7487 c 0,-5.691 -5.0404,-10.9316 -10.4827,-10.9316 l -1.0483,0 c -3.4789,0 -5.2399,2.0964 -8.3861,2.0964 z M 164.9152,51.8374 c -2.4191,0 -1.8599,-0.1541 -3.2947,0.8983 -0.3012,0.2209 -2.0877,1.7306 -2.2462,1.9469 1.6512,0.1374 5.0673,0.6965 6.2289,1.4085 0.7602,0.466 4.5928,2.5792 4.8528,2.9342 -1.0546,-0.2457 -3.5709,-1.7439 -4.8122,-2.226 -2.0901,-0.8116 -3.3387,-0.9745 -5.6704,-1.5177 -0.2584,0.173 -1.1981,1.4855 -1.1981,1.6472 0,0.4474 1.3286,2.3926 1.6694,2.6734 0.7313,0.6026 1.7872,1.3239 2.6116,1.8809 1.9635,1.3263 3.2637,2.5031 4.5544,4.4306 -0.3522,-0.0941 -3.047,-2.5215 -3.484,-2.9552 -0.6288,-0.624 -3.2395,-2.2859 -4.1533,-2.2859 -0.4751,0 -2.6753,1.0401 -3.1972,1.2954 -1.0575,0.5173 -1.258,1.7334 -1.7448,2.7477 1.0188,0.6821 2.1576,2.2541 3.1835,3.1061 1.0712,0.8894 1.7121,2.8964 2.0579,4.3813 -0.942,-0.6901 -1.4215,-2.7167 -2.9347,-3.8039 -1.365,-0.9806 -2.5842,-1.8678 -3.9538,-2.785 -1.6576,1.4406 -3.922,0.3096 -4.8759,4.5585 -0.226,1.0068 -1.4645,1.8563 -2.1253,2.5169 -1.4916,1.4909 -0.7627,2.1425 -1.72,3.0719 -1.1128,1.0806 -9.2492,8.8649 -9.2492,9.6194 0,0.1599 2.4939,1.6473 2.8454,1.6473 0.2799,0 2.2105,-1.5892 2.6076,-1.885 1.7792,-1.3251 1.5785,-0.4712 3.7719,-0.8703 1.3902,-0.2529 2.9371,-0.0447 4.1675,-0.4749 1.08,-0.3776 2.5379,-0.6985 3.6522,-0.9901 0.9341,-0.2445 5.4819,-2.3041 6.4378,-2.8468 1.9701,-1.1182 3.8477,-2.2833 5.8083,-3.4761 1.9526,-1.1879 3.7992,-2.2211 5.7215,-3.4134 2.3747,-1.4729 2.6691,-2.8109 4.0217,-5.2627 1.0539,-1.9101 2.2299,-4.0924 3.3763,-5.9082 0.8229,-1.3033 1.3175,-5.8117 1.3175,-7.9668 -1.8046,-0.4204 -9.6322,-4.6422 -10.4826,-4.6422 -1.5437,0 -3.0656,1.5329 -3.7438,2.5457 z m 77.375,72.3987 c 4.2425,-2.8742 14.2632,-2.2317 18.2529,-0.0754 -0.7856,1.6539 -1.3676,3.5106 -2.1143,5.2036 -3.1882,-1.3523 -11.1005,-3.8722 -13.0096,0.5758 -0.0541,0 0.0543,-0.2503 2e-4,-0.2503 -0.643,-2.0681 -2.3781,-3.4945 -3.1292,-5.4537 z"
     class="fil0" /><path
     style="fill:#134d87"
     inkscape:connector-curvature="0"
     id="path4146"
     d="m 151.915,57.6499 c -1.1637,-0.028 -1.7313,0.6634 -2.7645,1.1382 0.9784,0.4858 3.0873,-0.1598 4.0654,0.3255 -3.9886,0.1402 -7.3765,-0.3204 -10.7325,-0.8132 1.3934,-0.5038 3.2664,-0.528 4.7157,-0.9754 2.1378,-0.1933 4.071,-0.5914 6.0168,-0.9759 -0.2794,0.5916 -1.7844,0.8119 -1.6263,1.3008 0.1087,0 0.2172,0 0.3254,0 z"
     class="fil1" /><path
     style="fill:#134d87"
     inkscape:connector-curvature="0"
     id="path4148"
     d="m 173.705,83.0185 c 2.2461,4.042 4.3446,8.2307 6.3422,12.5212 -1.9272,0.133 -3.62,0.5 -5.3668,0.8131 -0.0349,-4.0877 -0.7596,-8.886 -0.9754,-13.3343 z"
     class="fil1" /><path
     style="fill:#134d87"
     inkscape:connector-curvature="0"
     id="path4150"
     d="m 169.477,110.013 c -0.3915,-1.0717 -0.5584,-2.3681 -0.9755,-3.4151 -1.6718,0.6598 -3.9342,2.1365 -5.6912,3.2523 -1.5902,-2.5843 -3.2919,-5.0558 -6.1798,-6.3422 0.3256,0 0.6508,0 0.976,0 -0.2931,-1.2245 -0.9006,-2.1357 -1.4641,-3.0894 2.6192,-0.179 5.6603,0.6276 8.6187,0.6503 0.5094,1.9844 0.9827,4.0046 1.3017,6.1797 0.2147,-1.7886 -0.6209,-3.9325 -0.6508,-6.0169 2.2449,0.1403 4.3384,0.4314 6.5044,0.65 -0.7623,2.7613 -1.2138,5.8333 -2.4394,8.1313 z"
     class="fil1" /><path
     style="fill:#0c3b6b"
     inkscape:connector-curvature="0"
     id="path4152"
     d="m 287.376,146.44 c 0,-4.2823 0,-8.5648 0,-12.8469 2.1571,0.3364 4.1473,0.8391 6.1793,1.3008 0,2.6563 0,5.3121 0,7.9684 -2.1036,1.1492 -3.9197,2.5851 -6.1793,3.5777 z"
     class="fil0" /><path
     style="fill:#2160a1"
     inkscape:connector-curvature="0"
     id="path4154"
     d="m 138.743,65.1303 c 0.613,-0.1247 0.7772,0.1987 1.3008,0.1629 0.005,-0.6588 -1.3972,-1.3103 -1.7886,-2.1144 1.8081,0.4687 3.5169,1.037 5.3668,1.4638 0.3996,-0.5697 -0.3734,-1.356 -0.3254,-2.1138 0,-0.163 0,-0.3253 0,-0.4884 0.4938,0.1023 1.4004,-0.2076 1.6261,0.1631 -0.1707,1.6719 -0.8054,2.8809 -0.9762,4.553 -1.995,0.8774 -3.9909,1.7546 -6.179,2.4391 -0.3099,0.0702 -0.4088,0.3506 -0.8131,0.3255 0.3834,-1.0256 0.8219,-1.9968 1.463,-2.7646 -3.6838,3.905 -8.1779,8.4091 -12.196,12.5217 -1.0143,0.8286 -2.004,1.6822 -2.9268,2.6018 -0.9218,0.1082 -1.0911,0.9693 -2.1144,0.9759 -0.0862,-0.131 -0.1697,-0.264 -0.1623,-0.4882 0,-0.0541 0,-0.1081 0,-0.1623 3.4975,-0.4982 6.636,-5.3884 7.155,-7.1553 0.4545,-0.4623 0.9416,-0.828 0.8132,-1.4637 4.1297,-1.8344 7.9944,-4.7954 9.7569,-8.4561 z m 14.4729,-5.0406 c -0.3403,0.1471 -0.4958,0.4794 -0.488,0.9753 2.1977,-1.3842 3.7585,-4.8033 6.505,-6.1793 0.2192,0.3764 1.2229,-0.0309 1.3004,0.4879 -0.2827,0.0122 -0.5053,-0.0366 -0.65,-0.1631 -0.2333,0.6348 -0.5726,1.1623 -0.976,1.6264 1.6829,4.3342 7.5157,5.3854 8.9443,9.432 -2.3962,-1.8325 -4.1131,-4.3434 -7.3183,-5.3661 -2.2866,-0.4602 -5.0477,1.3195 -5.5289,3.7398 -1.3247,-1.0598 -2.1051,-2.6651 -4.3902,-2.7645 -0.0263,-0.1907 -0.2966,-0.1373 -0.4878,-0.1623 0.3846,-0.3745 1.4597,-0.0583 2.1138,-0.1631 -3.2222,-0.7977 -7.7697,-2.6595 -10.8951,-1.9514 -3.0214,-0.7083 -6.5092,-0.5559 -9.432,0.6506 0.1362,-0.6258 1.5107,-1.4147 2.1136,-2.1137 2.2219,-0.7608 4.8419,-1.9883 6.9931,-2.2768 -0.0912,0.9412 -0.9631,1.9594 -0.6511,2.7646 0.5521,-0.2621 1.2933,-0.3335 2.1147,-0.3256 3.3561,0.4929 6.7439,0.9534 10.7325,0.8133 0.1621,0 0.3251,0 0.4881,0 -0.1556,0.3322 -0.3326,0.6433 -0.4881,0.976 z m 9.2693,-15.2867 c 0.2784,-0.3721 1.2409,-0.0592 1.7887,-0.1622 -4.1873,-0.8803 -4.8358,3.1863 -7.3175,4.5529 -1.3816,-0.2117 -3.3134,-0.5795 -4.553,0 -1.6752,-0.3166 -4.2558,1.5539 -5.0415,0 -2.6656,1.834 -5.1465,3.8524 -8.4562,5.0415 0.3547,-0.5127 0.8566,-0.878 1.1381,-1.4638 0.3341,-0.0453 0.3248,-0.434 0.4883,-0.6504 -0.8896,-0.52 -1.3479,-0.825 -2.4131,-1.169 -0.6586,0.5002 -1.7376,1.9408 -3.0156,2.5057 1.0047,-0.8924 1.6653,-2.064 2.501,-3.1257 1.3556,0 2.7104,0 4.0659,0 0.8187,-1.1327 0.8977,-3.0046 1.6263,-4.2275 1.9927,-0.6094 3.9267,-1.2773 5.8538,-1.9515 -2.1127,2.0061 -4.9541,3.2846 -5.8538,6.5045 0.8728,-0.3754 2.0644,-1.837 3.0893,-2.6023 3.0355,0 6.0704,0 9.1066,0 2.5897,-2.1842 5.4049,-5.4862 9.7573,-3.2522 -0.9218,0 -1.8437,0 -2.7646,0 z m -13.3348,10.5706 c 1.7097,-0.7308 4.8769,-0.8678 6.9923,-0.6509 -0.7258,0.8462 -1.0403,2.1036 -1.7885,2.9272 -0.8132,0 -1.6263,0 -2.4392,0 -0.1082,0 -0.2167,0 -0.3255,0 -0.158,-0.4889 1.347,-0.7093 1.6264,-1.3008 -1.9459,0.3845 -3.879,0.7826 -6.0168,0.976 0,-0.0547 0,-0.1088 0,-0.1629 0.6587,-0.5882 1.1059,-1.3875 1.9513,-1.7886 z"
     class="fil2" /><path
     style="fill:#134d87"
     inkscape:connector-curvature="0"
     id="path4156"
     d="m 120.042,79.1155 c 0.6001,0.105 1.2424,0.167 1.626,0.4882 2.0153,-1.6711 4.1912,-3.1818 6.5049,-4.5536 -0.5189,1.7668 -3.6574,6.6571 -7.1549,7.1553 0,0.0541 0,0.1081 0,0.1622 -0.776,-0.8765 0.3093,-1.858 0.8127,-2.439 -0.2463,-0.6208 -1.398,-0.3362 -1.7887,-0.8131 z"
     class="fil1" /><path
     style="fill:#134d87"
     inkscape:connector-curvature="0"
     id="path4158"
     d="m 157.118,27.5656 c -0.7591,-0.5418 -1.0689,-1.5327 -1.7884,-2.114 -1.5948,1.1699 -2.9591,2.5705 -4.3908,3.9032 -1.4555,-0.3895 -3.3558,-1.1963 -4.7162,-1.1386 -3.7863,-2.0323 -9.1161,-1.4992 -14.3101,-0.976 -3.2342,1.9157 -5.9376,4.3618 -9.2694,6.1798 2.2152,-3.26 5.2481,-5.7017 7.1553,-9.2692 3.9076,-0.6457 7.5327,-1.5738 11.2207,-2.4396 4.8275,1.081 9.4351,2.3819 14.3105,3.4153 0.5893,0.8196 1.2367,1.5818 1.7884,2.4391 z"
     class="fil1" /><path
     style="fill:#134d87"
     inkscape:connector-curvature="0"
     id="path4160"
     d="m 147.199,57.1621 c 0.0578,-0.2136 0.2864,-0.2558 0.325,-0.4879 -1.9611,-0.4779 -4.3487,-0.5294 -6.342,-0.9755 3.1502,-1.458 6.2841,-2.9316 9.5947,-4.2281 -0.5291,0.4465 -1.3311,0.62 -1.6263,1.3008 1.7028,0.3459 3.6547,-0.4635 5.2038,-0.8131 -0.1968,0.5624 -0.8195,0.6981 -1.4636,0.8131 1.1716,0.5165 3.6132,1.8257 4.3909,0.3252 -0.2767,0.3192 -0.3804,0.8126 -0.8132,0.976 -2.1892,0.0991 -6.8029,-0.4222 -7.3179,1.301 -0.8455,0.401 -1.2927,1.2004 -1.9514,1.7885 z"
     class="fil1" /><path
     style="fill:#134d87"
     inkscape:connector-curvature="0"
     id="path4162"
     d="m 158.745,51.4706 c 2.6213,-2.78 5.4569,-6.4072 9.5941,-6.6676 0.1155,0.6032 -0.2773,0.6981 -0.1623,1.3015 1.3687,-0.6916 2.0984,-2.0217 4.2285,-1.9515 4.9148,-1.6556 9.6171,-1.5622 14.9602,-2.6022 0.7236,-0.1274 0.9759,0.2166 1.6263,0.1628 0.4148,0.941 0.9776,1.7325 1.3011,2.7642 -1.9102,0.3123 -3.9659,0.4793 -5.8541,0.8134 -1.9543,-0.0031 -3.3354,0.5673 -5.204,0.6504 -3.7855,0.4964 -7.5609,1.0038 -11.3831,1.4636 0.5623,0.4283 3.4136,-0.4696 4.5536,0 -1.3671,0.4218 -2.5403,1.0375 -3.7406,1.6263 0.4497,0.4169 1.1879,0.5463 1.6257,0.9753 -0.6322,-0.1799 -1.176,-0.4496 -1.6257,-0.8131 -1.4329,0.7351 -3.1319,1.2045 -3.7404,2.7646 -2.8198,-0.4931 -3.7034,1.3568 -5.2034,2.6022 4.9036,0.2453 7.8282,2.4709 11.0576,4.3905 -3.1506,-0.8067 -6.2374,-3.0858 -10.2451,-3.5774 -0.0776,-0.5189 -1.0813,-0.1114 -1.3005,-0.488 -2.7464,1.3761 -4.3073,4.7951 -6.5049,6.1794 -0.008,-0.496 0.1477,-0.8282 0.4879,-0.9754 2.0889,-2.844 3.7777,-6.088 6.017,-8.7816 -0.2242,-0.0071 -0.3572,0.0764 -0.4879,0.1626 z"
     class="fil1" /><path
     style="fill:#134d87"
     inkscape:connector-curvature="0"
     id="path4164"
     d="m 154.029,82.0428 c -4.2914,2.7016 -8.2672,5.7184 -12.0344,8.9439 -0.9983,4.4329 -0.1903,7.8367 1.1385,11.3835 1.0482,0.3066 2.0323,0.6781 3.0896,0.9756 -0.5453,-3.7371 -1.9191,-6.645 -3.2521,-9.5947 1.5231,-1.6749 4.0572,-2.339 6.017,-3.5776 2.7046,-1.198 5.4173,-2.3881 8.1305,-3.5777 0.0654,0.5337 0.9794,2.3244 1.7886,2.1141 -0.6504,0.7589 -1.2961,1.5224 -1.9509,2.2768 0.7518,2.248 -1.8459,3.5817 -2.4394,5.529 -0.866,-0.9775 -1.2661,-2.4195 -1.9513,-3.5777 -1.588,1.9896 -2.6666,4.4889 -4.2283,6.5048 0.4899,0.8658 0.8114,1.8992 1.3013,2.7645 -0.7491,0.0351 -2.9713,0.6235 -2.9276,1.4637 -1.3532,-0.1099 -2.5534,-0.3734 -3.7399,-0.6507 -1.0084,0.6723 -1.9967,1.3643 -2.7646,2.2769 -0.054,0 -0.1081,0 -0.1628,0 0.1468,-0.2868 0.364,-0.5038 0.6505,-0.6509 -0.9815,-0.9277 -2.4922,-2.152 -3.5776,-2.439 3.024,-2.8322 2.1811,-7.5016 1.3008,-12.1961 3.8256,-1.1616 6.1613,-3.8132 9.1066,-5.8545 -0.8672,0 -1.7342,0 -2.6015,0 3.5085,-0.2313 6.4412,-1.0393 9.107,-2.1139 z"
     class="fil1" /><path
     style="fill:#134d87"
     inkscape:connector-curvature="0"
     id="path4166"
     d="m 179.56,63.6673 c -2.2145,3.6933 -2.8366,10.3893 -8.4563,11.2205 2.162,-3.0987 5.841,-7.493 8.4563,-11.2205 z"
     class="fil1" /><path
     style="fill:#07284b"
     inkscape:connector-curvature="0"
     id="path4168"
     d="m 138.417,54.0725 c 0.6622,-0.3138 1.0494,-0.9026 1.6264,-1.3011 -0.2815,0.5858 -0.7834,0.9511 -1.1381,1.4638 3.3097,-1.1891 5.7906,-3.2075 8.4562,-5.0415 0.7857,1.5539 3.3663,-0.3166 5.0415,0 -5.5644,0.4898 -8.3283,5.9329 -14.6359,5.692 0.1095,-0.3779 0.5402,-0.4356 0.6499,-0.8132 z m 30.8975,68.2997 c 0.4288,2.0149 -0.4323,4.1096 -0.3251,6.3422 -1.2409,0.1525 -3.6375,-0.5426 -5.0417,0.1623 -0.9997,-1.222 -0.2603,-4.184 -0.4873,-6.1792 1.5765,-0.7357 4.0803,-0.6064 5.8541,-0.3253 z m 31.8731,-61.6328 c 1.6511,3.0111 3.9495,5.3748 5.2038,8.7817 -0.364,0.1939 -1.1742,-0.5543 -1.789,-0.6503 0.1637,1.191 0.4507,2.2601 0.4885,3.5776 -0.2141,-0.0577 -0.2558,-0.2865 -0.4885,-0.3254 -0.2981,-0.1896 -0.5506,-0.4252 -0.8132,-0.6506 -0.8627,-3.5815 -1.7238,-7.1653 -2.6016,-10.733 z m -59.1928,30.2473 c 0.6956,0.5517 0.4588,2.0349 0.976,2.7644 1.3329,2.9498 2.7068,5.8576 3.252,9.5947 -1.0573,-0.2974 -2.0414,-0.6689 -3.0894,-0.9755 -1.3289,-3.5468 -2.137,-6.9507 -1.1386,-11.3836 z m -21.3027,9.5946 c 0.3672,-0.9336 1.1388,-1.4628 1.6264,-2.277 2.2749,0.4762 3.8337,-0.9974 5.5289,-1.626 -0.0129,-1.151 0.4721,-1.8041 0.4877,-2.9272 1.3152,1.1691 0.1467,4.277 0.1628,6.1794 -0.6984,-0.2226 -1.0709,-0.7722 -1.7891,-0.9754 -2.8166,0.761 -3.4536,3.7013 -4.7159,6.0167 -0.7574,-1.14 -0.8142,-2.9801 -1.3008,-4.3905 z m 10.4074,-13.66 c 0.6388,3.9322 2.0887,8.1722 1.6263,12.1961 -1.1673,-3.7251 -3.8416,-8.3781 -1.6263,-12.1961 z m 9.2688,-17.7257 c 0.3181,0.3871 0.4102,0.9998 0.6511,1.4637 -1.9134,4.7001 -6.1196,7.1068 -9.5944,10.2453 1.7431,-3.8417 7.8656,-6.1185 8.9433,-11.709 z M 127.8037,67.778 c -1.6096,-1.3172 -3.1434,-2.7084 -4.8186,-3.9607 0.8828,-0.0625 1.5381,0.2933 2.0977,0.3376 1.4915,0.0213 3.3827,-0.3022 5.2037,-0.1628 -0.9282,1.0357 -2.2255,2.6172 -2.4828,3.7859 z M 113.049,90.499 c 0.3703,-1.256 1.3487,-1.9036 1.9515,-2.9276 0.242,0.2468 0.262,0.7141 0.3253,1.1386 -0.6318,3.1893 -0.1807,6.1322 0.4877,9.4319 2.7253,1.1772 3.7618,4.0437 5.3663,6.3422 -1.8053,-1.5016 -2.5391,-4.0736 -4.8785,-5.0412 -0.6399,-0.0977 0.0414,1.1255 -0.6507,0.9759 -0.7558,-3.4182 -1.643,-6.7046 -2.6016,-9.9198 z m 10.0822,17.8881 c 0.6367,0.7724 1.3416,1.477 2.114,2.1137 0.3062,-0.4525 1.1472,-0.3704 1.6261,-0.6505 0.0251,-0.7883 0.3133,-1.3127 0.6506,-1.7885 -0.0825,0.9472 -0.1716,1.8877 -0.4876,2.6017 -0.4877,0 -0.976,0 -1.4637,0 0.7599,2.7196 4.5467,2.0861 5.2035,-0.3249 -0.1851,1.7116 -0.5922,3.2017 -2.1137,3.5777 0.8723,1.1873 3.3843,0.7349 5.3659,0.8131 -0.009,0.2076 -0.2082,0.2245 -0.1622,0.4877 -4.7066,1.0165 -7.6196,-2.0264 -10.8953,-2.4394 -1.4692,0.3197 -2.6854,0.8919 -4.2281,1.1386 0.0789,-0.9514 0.6815,-1.3787 0.6505,-2.4397 0.0541,0 0.1083,0 0.1622,0 0,-0.2708 0,-0.5421 0,-0.8131 0.3977,-0.5784 1.4038,-0.5482 1.7891,-1.1386 -0.1607,-0.1288 -0.6193,-0.7641 -0.325,-0.8129 0.2361,-0.2514 0.8319,-0.1429 1.301,-0.1625 0.459,0.1347 0.421,-0.2287 0.8127,-0.1624 z m -8.2936,16.5866 c 2.4475,0.2702 6.0091,0.2702 8.4566,0 -0.3986,0.5776 -0.9875,0.9641 -1.3013,1.6263 -0.905,1.2095 -1.7138,2.5139 -2.2762,4.0653 -1.7618,-0.7393 -3.8423,-2.5484 -5.5293,-3.9025 0.3042,-0.5088 0.3327,-1.2935 0.6502,-1.7891 z m 23.4172,10.5706 c -4.499,0 -8.9985,0 -13.4973,0 -1.1457,-9.9384 15.0059,-11.0495 13.4973,0 z M 167.038,31.7933 c 4.2893,0.5893 6.4931,3.2639 9.757,4.8786 -1.0386,0.4794 -3.2442,-0.2083 -4.0657,0.4876 0.9856,1.0752 1.8466,2.2736 2.6022,3.5777 -0.8717,-0.215 -2.7217,-0.3102 -3.5777,0 0.2256,0.9715 1.6032,2.8269 0.651,3.4153 -2.1302,-0.0702 -2.8598,1.2599 -4.2285,1.9515 -0.1151,-0.6034 0.2777,-0.6982 0.1622,-1.3015 0.8716,-1.562 -0.8306,-2.5341 -1.1378,-3.9026 1.015,-0.5566 2.7483,-0.3957 4.228,-0.4881 -0.0303,-1.2353 -1.0019,-2.8866 -1.3011,-4.3906 -1.3508,-0.3837 -2.8637,-0.6056 -4.0651,-1.1383 0.2535,-1.1013 0.4227,-2.2871 0.9755,-3.0896 z m 12.1963,14.1478 c 1.8685,-0.0831 3.2497,-0.6535 5.2039,-0.6504 2.1035,2.0702 4.091,4.2561 6.5043,6.0168 0.4796,-1.3095 -0.2079,-3.7858 0.4881,-4.8789 2.002,2.7684 4.0893,5.4514 6.1793,8.1314 0.3646,0.5022 0.6576,1.0769 1.1388,1.4631 -1.5637,-0.605 -3.5493,-2.1963 -5.3667,-3.0892 -1.3782,0.5728 -2.3504,1.5523 -3.74,2.1139 -0.4238,1.589 0.372,5.9255 -0.6508,5.8545 -0.0574,-0.2142 -0.2862,-0.2559 -0.3251,-0.4884 -1.42,-2.049 -3.6144,-3.3241 -6.017,-4.3908 -0.7213,2.2062 -1.4454,4.4094 -2.2766,6.5052 0.3906,-2.4286 0.8261,-4.8122 1.3011,-7.1552 -0.0592,-0.2817 -1.0209,-0.4764 -0.6509,-0.6509 2.8682,0.0046 5.5984,0.1481 8.2936,0.3256 -2.6749,-3.0709 -7.0324,-5.8686 -10.082,-9.1067 z m 22.4412,38.0529 c -0.1735,0.5227 -0.9647,-0.5234 -1.1383,0 1.6697,1.8533 3.2368,4.6768 4.8782,6.0167 -3.0006,-7.3527 -5.1944,-15.5121 -9.9197,-21.1404 -0.0705,-0.8505 -0.4165,-1.4264 -0.4874,-2.2769 2.5065,2.1552 3.7354,5.5885 5.2033,8.7817 3.4774,5.6295 4.22,13.9933 7.8062,19.5141 -0.3303,6.4534 1.0209,12.928 -2.7647,16.0989 3.9643,-1.8576 6.7738,-7.6903 4.716,-13.8221 0.9534,-0.3626 0.3618,-1.0903 0.1622,-1.9513 1.8135,1.1134 3.5016,2.3525 5.204,3.5774 0.003,4.2252 0.3578,8.0982 0.3251,12.3591 6.3163,2.3565 13.1711,4.1747 19.6768,6.3416 -0.0401,0.1769 -0.3228,0.1107 -0.3252,0.3254 -4.7081,1.606 -11.2632,1.9689 -17.0745,1.1383 -11.3117,-1.8065 -16.1672,-10.0688 -26.1817,-13.1721 -0.0241,-0.3005 -0.5506,-0.0995 -0.6508,-0.3255 0.1177,-3.4813 1.0964,-6.8972 0.976,-10.0819 0.4884,-1.0837 0.8181,-2.3264 1.464,-3.2523 -1.1587,-1.3896 -2.5386,-2.5569 -3.903,-3.7402 -2.7798,-3.1832 -6.2233,-5.7023 -9.9197,-7.9682 2.854,0.5605 5.2631,2.9753 9.2689,2.9269 0.8565,1.2574 1.6692,2.5588 2.6023,3.7402 0.8024,1.2576 1.691,2.4287 2.4393,3.7403 1.7289,-1.0353 2.5949,-2.9339 5.8537,-2.4392 3.0175,1.2642 5.2568,3.3081 6.993,5.8543 -2.2721,-6.4558 -7.2049,-10.2502 -13.6598,-12.5216 -3.7924,-2.0083 -8.6036,-2.9971 -13.4974,-3.903 3.6233,-0.0455 7.6512,0.9125 11.546,1.1386 3.7568,1.3922 6.753,3.5461 10.4072,5.0412 z m -25.5309,-2.6021 c 1.8646,1.8208 4.0882,3.2837 6.0165,5.0412 -2.8642,-1.2014 -5.6541,-2.4762 -8.4558,-3.7405 -0.0547,0 -0.1082,0 -0.1629,0 -0.4638,-0.6744 -1.1551,-1.1208 -1.6263,-1.7885 1.2218,-0.2976 2.7617,0.4891 4.2285,0.4878 z m -10.8952,0 c -0.0546,0 -0.1081,0 -0.1629,0 -0.0998,-0.0475 -0.626,-0.405 -0.6502,0 -2.4608,1.7138 -4.9198,3.4275 -7.318,5.2035 -2.7132,1.1895 -5.426,2.3797 -8.1305,3.5776 7.1805,-4.5817 14.4077,-9.1168 21.7902,-13.497 0.6388,0.174 1.5906,0.0354 2.1142,0.3251 -2.5681,1.443 -5.1492,2.8737 -7.6428,4.3908 z m 13.4974,-7.6431 c -1.9565,-7.1068 3.7146,-10.9081 5.6914,-16.0994 -1.197,3.0315 -2.2749,6.1817 -3.5776,9.1066 -1.0683,1.9675 -2.1402,3.9314 -2.1138,6.9928 z"
     class="fil3" /><path
     style="fill:#134d87"
     inkscape:connector-curvature="0"
     id="path4170"
     d="m 180.861,66.7565 c 0.7218,-0.3346 1.1489,0.8661 1.9514,0.976 1.8782,-1.32 3.8735,-2.5222 6.017,-3.5776 -0.0823,-1.1865 -0.6734,-3.5255 -0.4881,-3.903 0.163,-7e-4 0.1934,0.132 0.3252,0.1626 0.0389,0.2324 0.2678,0.2741 0.3252,0.4882 3.2582,2.3794 2.379,8.8956 3.2525,13.6596 3.5539,2.8964 8.3076,4.5929 9.7569,9.5944 -0.1634,7e-4 -0.1938,-0.1318 -0.3251,-0.1622 -3.6542,-1.4952 -6.6504,-3.649 -10.4072,-5.0413 -4.0791,-1.6675 -8.4721,-3.0204 -12.6844,-4.5536 0.0508,-0.2198 0.2311,-0.3106 0.1629,-0.6504 -0.0265,-3.0614 1.0453,-5.0252 2.1137,-6.9927 z"
     class="fil1" /><path
     style="fill:#134d87"
     inkscape:connector-curvature="0"
     id="path4172"
     d="m 141.345,59.6012 c 3.1254,-0.7081 7.6728,1.1538 10.895,1.9515 -0.6541,0.1049 -1.7292,-0.2113 -2.1137,0.1631 0.1912,0.025 0.4614,-0.0285 0.4877,0.1622 -1.703,-0.2597 -4.3654,-0.3088 -5.6916,0.3255 -0.2257,-0.3708 -1.1321,-0.0608 -1.626,-0.1632 0,0.1632 0,0.3255 0,0.4884 -0.4455,-1.0188 -0.6976,-2.2299 -1.1385,-3.2523 -0.3097,0.0697 -0.4089,0.3502 -0.8129,0.3248 z"
     class="fil1" /><path
     style="fill:#0c3b6b"
     inkscape:connector-curvature="0"
     id="path4174"
     d="m 206.392,69.5211 c 2.7318,3.2852 4.4105,7.6238 6.017,12.0338 -1.8494,-3.3546 -3.0743,-7.3334 -6.8301,-8.7816 -0.2086,-0.6249 -0.8329,0.1082 -0.976,-0.6502 0.2328,0.0388 0.2745,0.2676 0.4886,0.3253 -0.0378,-1.3177 -0.3247,-2.3867 -0.4886,-3.5776 0.6148,0.096 1.4251,0.8441 1.7891,0.6503 z"
     class="fil0" /><path
     style="fill:#134d87"
     inkscape:connector-curvature="0"
     id="path4176"
     d="m 126.221,79.2782 c 4.0181,-4.1126 8.5122,-8.6167 12.196,-12.5217 -0.6412,0.7678 -1.0797,1.739 -1.4631,2.7646 0.4044,0.025 0.5031,-0.2553 0.8131,-0.3255 -3.54,3.6701 -7.4131,7.0063 -11.546,10.0826 z"
     class="fil1" /><path
     style="fill:#134d87"
     inkscape:connector-curvature="0"
     id="path4178"
     d="m 117.114,84.9698 c 0.4199,-0.5563 0.9075,-1.044 1.4638,-1.4636 0.728,0.8455 1.7287,2.2804 2.4394,2.602 -0.6653,-1.0157 -1.1577,-2.2037 -1.7893,-3.2523 0.4281,-0.1685 0.5481,-0.6449 0.976,-0.8131 0.5884,0.2249 0.5982,1.0279 1.1383,1.3008 0.007,-0.2237 -0.0766,-0.3572 -0.1628,-0.4877 1.0233,-0.0067 1.1926,-0.8677 2.1144,-0.976 -2.7289,4.4771 -4.3557,11.4759 -2.7644,18.376 -1.3851,-1.4879 -2.4351,-3.3112 -3.7407,-4.8785 0.0702,-0.3634 0.8018,-0.0659 1.1384,-0.1622 -0.4676,-1.4299 -0.8599,-2.9347 -1.4636,-4.2285 0.9986,0.8998 2.2539,2.9496 3.0896,4.553 -0.4613,-2.574 -1.6738,-5.8054 -4.2277,-6.8298 -0.0633,-0.4245 -0.0832,-0.8918 -0.3253,-1.1384 1.0391,-1.3455 2.3202,-2.4494 4.0654,-3.0893 0.0769,-0.5111 -0.4377,-0.43 -0.4877,-0.8132 -0.5861,0.3353 -0.8774,0.9653 -1.4638,1.3008 z"
     class="fil1" /><path
     style="fill:#134d87"
     inkscape:connector-curvature="0"
     id="path4180"
     d="m 209.969,97.1665 c 2.0578,6.1317 -0.7517,11.9645 -4.7159,13.8221 3.7856,-3.1709 2.4344,-9.6455 2.7646,-16.0989 -3.5862,-5.5208 -4.3287,-13.8845 -7.8061,-19.5141 -0.026,-1.6196 -0.2554,-4.2449 -0.1625,-6.5048 1.3553,0.7591 2.4452,1.783 3.7401,2.6016 0.2625,0.2254 0.5151,0.461 0.8131,0.6507 0.1431,0.7584 0.7674,0.0253 0.976,0.6502 -1.0661,2.3532 0.0703,8.0307 1.1387,10.4074 0.1505,2.4522 1.3964,5.2161 1.7886,7.9684 -0.4542,-0.7378 -0.702,-1.6834 -0.976,-2.6016 0.4363,2.6 1.4865,5.9936 2.4394,8.619 z"
     class="fil1" /><path
     style="fill:#0c3b6b"
     inkscape:connector-curvature="0"
     id="path4182"
     d="m 193.22,81.7176 c 6.4549,2.2715 11.3877,6.0658 13.6598,12.5216 -1.7363,-2.5462 -3.9757,-4.59 -6.9931,-5.8542 -2.0997,-1.044 -4.0791,-2.2087 -5.6914,-3.7405 -0.8345,-0.4665 -0.9032,-1.6985 -0.9753,-2.9269 z"
     class="fil0" /><path
     style="fill:#2160a1"
     inkscape:connector-curvature="0"
     id="path4184"
     d="m 84.916,83.669 c 0.7424,-2.8358 1.7904,-5.3645 2.6022,-8.1312 1.0301,0 2.0596,0 3.0895,0 -1.8312,2.6681 -3.8748,5.9906 -5.6917,8.1312 z"
     class="fil2" /><path
     style="fill:#134d87"
     inkscape:connector-curvature="0"
     id="path4186"
     d="m 180.21,106.273 c 0.3319,-0.3728 1.3506,-0.0588 1.9513,-0.1625 -0.4045,-3.6643 -1.5282,-7.4646 -1.7885,-10.7328 2.4354,0.1042 4.5227,-0.1392 6.8301,-0.1622 0,-2.1687 0,-4.3368 0,-6.5053 -1.6543,-0.7848 -3.3838,-1.4948 -5.0416,-2.2764 -1.9282,-1.7575 -4.1519,-3.2204 -6.0164,-5.0412 1.1049,-0.6487 2.3966,-1.6571 3.5777,-1.301 -1.4387,-0.4596 -2.5871,-2.0735 -3.2525,-2.7644 1.2452,0.0016 2.2606,0.2324 3.2525,0.4878 4.8938,0.9058 9.7049,1.8947 13.4974,3.9029 0.0721,1.2284 0.1408,2.4604 0.9753,2.9269 -0.2321,-0.0386 -0.2743,-0.2676 -0.4879,-0.3252 -0.5511,0.985 -2.445,1.4327 -2.1138,2.7646 -0.9329,-1.1815 -1.7457,-2.4828 -2.6021,-3.7403 -4.0059,0.0485 -6.4149,-2.3664 -9.2689,-2.9268 3.6964,2.2659 7.1399,4.7849 9.9197,7.9682 -0.0546,0 -0.1081,0 -0.1627,0 0.2505,2.297 1.6554,4.8486 2.6016,6.9924 0.1206,3.1848 -0.8582,6.6005 -0.976,10.082 0.1003,0.2261 0.6266,0.0249 0.6509,0.3255 -0.5179,-0.1387 -0.6172,0.1417 -0.8133,0.3253 l 6.18,20.4897 4.7152,6.0167 c -1.749,7.6282 -3.7929,14.9623 -5.6912,22.4419 -2.3853,0 -4.7701,0 -7.1553,0 l -2.4394,-9.7576 5.204,-0.325 0.4879,3.4151 c 1.1202,-6.7397 2.6581,-13.0617 4.228,-19.3519 -1.6409,-4.5383 -3.6883,-8.6706 -5.2034,-13.3345 -0.386,0.4492 0.2215,1.2891 0,2.1139 -0.7466,-1.042 -0.6667,-2.9109 -0.976,-4.3905 -0.1037,-1.9021 -0.6457,-3.3654 -0.813,-5.204 -1.7114,-1.7309 -3.7074,-5.9212 -5.3663,-8.7812 0.6868,3.3243 2.7425,6.6889 3.5777,10.4075 -1.6393,-2.047 -3.4915,-3.8809 -7.481,-3.5776 z"
     class="fil1" /><path
     style="fill:#2160a1"
     inkscape:connector-curvature="0"
     id="path4188"
     d="m 164.437,81.3923 c 0.054,0 0.1081,0 0.1623,0 -0.9101,2.1295 -3.958,4.9289 -5.6919,7.3176 -0.8092,0.2103 -1.7232,-1.5804 -1.7886,-2.1141 2.3982,-1.776 4.8574,-3.4897 7.3182,-5.2035 z"
     class="fil2" /><path
     style="fill:#134d87"
     inkscape:connector-curvature="0"
     id="path4190"
     d="m 147.036,108.549 c -1.0617,-0.1336 -2.5814,-0.6674 -3.4146,-0.4878 1.2501,1.1344 2.6324,2.137 3.7399,3.4148 -0.5522,-0.2063 -0.6162,-0.9019 -1.3008,-0.9757 -0.8534,0.5023 -1.7489,0.9616 -2.6022,1.4639 -0.5623,-0.4136 -0.4702,-1.4814 -1.1382,-1.7891 -0.3471,1.5402 0.6473,1.7376 0.9759,2.602 -2.1325,-0.2051 -3.6669,1.515 -5.2039,2.4394 0,-0.1087 0,-0.2172 0,-0.3255 1.0597,-1.7591 0.7334,-4.904 1.3008,-7.1553 2.5403,-1.1995 4.8687,-2.6118 7.3176,-3.9028 -0.1119,0.6543 0.1558,0.9284 0.1632,1.4638 -0.0296,0.4584 -0.7735,0.2026 -0.651,0.813 0.2365,0.0885 0.8406,-0.1903 0.8133,0.1625 -0.4001,0.5172 -0.0748,1.6947 0,2.2768 z"
     class="fil1" /><path
     style="fill:#134d87"
     inkscape:connector-curvature="0"
     id="path4192"
     d="m 100.365,82.2054 c -0.2824,0.6388 -0.5814,1.2612 -0.9752,1.7891 0.4995,0.7468 1.289,1.2039 1.7885,1.9509 -0.6932,-0.445 -1.0957,-1.1805 -1.7885,-1.626 -2.6466,4.7799 -5.3823,9.4707 -7.8059,14.4732 -0.3694,0.1726 -0.062,1.0217 -0.1626,1.4633 -0.7786,-4.4794 0.6833,-11.1994 -2.7645,-13.0092 0.9075,7.2232 2.1072,14.1543 2.9271,21.4653 0.4958,-1.6897 -0.2136,-3.5794 0,-5.5287 2.8237,0.5367 4.191,2.53 6.5043,3.5777 0.1161,2.7176 -0.2696,4.9335 -0.1623,7.6429 2.2605,2.3609 7.1288,2.9347 7.9683,6.1793 -1.1569,-0.2157 -2.508,-1.5989 -3.5777,-2.4394 -3.0532,1.9335 -5.6898,4.2841 -8.7812,6.1799 -0.3578,-0.4012 -0.3615,-1.1566 -0.6506,-1.6262 -2.168,0 -4.336,0 -6.5047,0 0.5734,2.0277 1.3946,3.8092 1.9515,5.8538 -1.2265,1.4586 -5.4528,2.1244 -6.3423,4.2286 -1.1089,2.6231 0,7.8237 0,11.3827 0,4.1494 0.1322,7.8751 -0.1623,11.0583 0,-2.385 0,-4.7701 0,-7.1555 0,-8.4556 0,-16.9119 0,-25.3679 -2.0597,0 -4.12,0 -6.1798,0 -0.0541,0 -0.1083,0 -0.1623,0 0,4.6616 0,9.3233 0,13.985 -2.0005,1.252 -4.1705,2.3341 -6.1798,3.5777 0.0346,-0.1826 0.1805,-0.2528 0.3254,-0.3253 -0.2233,-3.7958 2.6452,-9.2256 0,-11.3836 0.0137,-2.2084 0.4139,-4.0306 0.4876,-6.1791 -1.6426,-0.1546 -3.5903,-0.2819 -5.2035,0 -1.0407,-0.0979 -1.2133,-1.0638 -1.7886,-1.6261 1.9372,-4.7842 4.3873,-9.0557 6.1791,-13.9851 0.3356,0.4768 0.4538,1.1722 0.6508,1.7885 0.9165,-1.1971 1.5064,-2.7216 2.2768,-4.0654 5.9503,-0.3376 11.6576,-0.9176 17.725,-1.1383 -0.2329,-1.3392 -0.6268,-2.517 -0.9754,-3.7402 -1.4612,-4.937 -2.5605,-11.0977 -4.3907,-15.1234 0.0894,-0.29 0.0835,-0.6754 0.3249,-0.8132 1.8168,-2.1406 3.8604,-5.4631 5.6917,-8.1311 -1.0299,0 -2.0594,0 -3.0896,0 4.6359,-1.1663 6.0883,2.2593 7.6427,4.7159 1.2525,-0.219 2.4337,0.4899 3.4154,0 -0.5223,-0.673 -1.6458,-1.6038 -1.6262,-2.2765 3.2121,1.2865 6.4464,2.5514 8.7816,4.7158 -1.5639,-0.7131 -2.6651,-1.8886 -4.2286,-2.6017 -0.6698,0.6312 -1.6369,0.9647 -2.1136,1.7886 0.3797,0.0536 0.6717,0.1955 0.9752,0.3254 z m 94.8064,83.0978 c 1.3254,0.7338 2.821,1.298 3.7401,2.4391 -2.5915,1.2574 -5.1054,2.5918 -7.6428,3.9032 -0.1578,1.2521 -0.3674,2.4519 -0.6509,3.5772 0.2863,0.094 0.9552,-0.1964 0.9761,0.1631 -2.3172,0.5497 -11.6041,-2.3517 -11.3838,0.813 0.0902,-3.5781 0.1775,-6.5623 -1.4629,-8.9441 0.1579,-0.004 0.1256,-0.1992 0.1623,-0.3256 5.3436,0.5704 10.4343,-3.7809 16.2619,-1.6259 z m 32.6864,-116.11 c 20.1934,3.338 32.2534,15.6563 31.7101,39.1913 -0.0541,0 -0.1082,0 -0.1622,0 0,-0.3792 0,-0.7587 0,-1.1383 -3.6876,-0.812 -7.769,-1.2296 -11.5461,-1.9514 3.0513,-5.8931 2.5256,-15.3623 4.2279,-22.6041 C 246.6155,55.5869 238.94,50.6868 227.8578,49.1932 Z M 148.5,133.9176 c 1.1355,0.3279 1.8724,1.0548 2.9272,1.4631 0,1.3013 0,2.6021 0,3.903 0,5.2579 0,10.5162 0,15.7743 2.1137,0 4.228,0 6.3418,0 0,-5.3127 0,-10.6249 0,-15.9366 3.6175,1.1003 10.7491,9.3444 10.0182,5.6191 l -4.3264,-22.0434 c -0.8991,-4.5825 4.4415,-0.2851 5.1639,-0.4215 0.4137,0.8863 3.9701,24.8088 4.3223,25.757 l 0.786,-3.6017 5.1222,0.2707 c -0.8165,3.358 -1.7624,7.1303 -2.7101,10.3564 -2.223,0 -4.4449,0 -6.6679,0 -1.7768,5.1773 6.181,6.9738 5.8547,10.4075 -0.2434,2.5645 -5.3138,0.4195 -7.9682,0.813 -2.4102,0.3568 -3.713,2.2051 -4.7161,2.7646 -4.7164,-0.3796 -10.1362,-0.0545 -15.1235,-0.1632 -3.0784,-5.8017 -6.0423,-11.1983 -2.6016,-18.701 1.0647,-5.5476 2.3773,-10.8486 3.5775,-16.2613 z m -65.535,39.1911 c -5.3263,5.2977 -9.1161,12.1324 -16.2615,15.6108 -4.8434,-3.0167 -8.9306,-6.7896 -12.522,-11.0579 2.7149,-6.2297 7.9747,-11.3226 10.5703,-18.2127 0.2691,1.5191 0.2075,3.3696 0.3255,5.0406 5.1127,3.0182 9.9363,6.3257 15.1233,9.2689 0.838,-0.2999 2.2842,0.008 2.7644,-0.6497 z m 11.0579,-2.9273 c -0.4242,0.8224 -1.1343,1.3586 -1.463,2.2763 2.8777,-0.2654 5.6077,-0.6793 8.6184,-0.8127 0.0125,-0.2833 -0.0362,-0.5059 -0.1626,-0.6505 1.1956,1.5685 1.8976,3.6312 3.0895,5.2038 -4.0861,9.2484 -10.9327,15.7358 -18.7006,21.3027 -0.7692,-0.2069 -1.5083,-0.444 -2.2768,-0.6507 6.2135,-4.4103 11.8345,-9.4133 14.7981,-17.0744 -1.8311,-1.3672 -3.7718,-2.6249 -5.5291,-4.0658 0.6838,1.7013 1.5962,3.1745 2.4392,4.7159 -2.1088,3.5284 -6.1741,5.1007 -10.8951,6.0166 2.0591,-6.7212 6.5379,-11.0238 10.082,-16.2612 z m 10.733,0.9757 c 3.8667,-0.3074 7.5976,-0.7499 11.3834,-1.1386 1.4818,1.6623 2.5999,3.6876 3.5777,5.8545 -7.1377,3.0533 -9.91,10.4714 -14.9611,15.611 0,2.5476 0,5.0958 0,7.6432 -1.2921,-9.9109 2.1018,-16.545 4.0653,-23.742 l -4.0653,-4.2281 z M 63.6135,35.5331 c 3.1621,2.5292 6.1927,5.1906 9.1067,7.9681 0.1255,2.6191 -0.2445,4.7428 -0.1628,7.3179 -4.3623,-1.6007 -8.7547,-4.0378 -12.8469,-5.3663 -3.2064,-1.835 -6.687,-4.2623 -9.7569,-5.6915 C 46.1037,36.2382 42.4428,32.5277 38.57,29.0282 31.931,27.5026 24.896,26.0943 16.6169,27.0769 c -1.0183,0.6498 -3.7336,2.0633 -3.2525,2.6018 -2.3524,0.7919 -4.1462,3.0081 -6.1792,3.5776 2.9604,-3.3273 6.5119,-6.0638 9.7569,-9.1064 20.2761,-0.9248 31.7144,6.9881 46.6714,11.3832 z m 24.718,32.0353 c -0.9038,-0.5593 -1.237,-1.6899 -2.1138,-2.2762 0.993,2.0424 2.0359,4.0346 3.0894,6.0171 -0.5179,1.3791 -0.8571,2.9372 -1.7886,3.9028 -0.0682,-0.962 -0.5826,-1.4776 -0.6508,-2.4398 -1.3208,2.2022 -1.7804,5.2667 -2.7647,7.8059 -1.5929,-0.9002 -2.9598,-2.0272 -4.5529,-2.9267 0.4305,3.6347 0.8387,7.2911 1.3009,10.895 -0.9971,-0.7914 -3.3597,-0.218 -4.7163,-0.6505 -2.0161,2.1036 -3.9562,4.2823 -4.8782,7.4805 -0.5446,-0.5941 -0.6521,-1.6247 -1.1385,-2.2768 2.7684,-5.4171 5.6127,-10.7577 8.2935,-16.2615 0.342,0.2001 0.6343,0.4496 0.9763,0.65 0.2699,-0.8713 -0.4477,-3.0169 0,-4.0653 0.1985,0.4925 0.6201,-0.1149 0.8128,-0.1623 1.9382,0.0943 4.5739,-0.5212 6.5049,-0.976 -1.3363,-1.3467 -0.4574,-6.3683 -1.1386,-7.3174 0.111,-0.5088 0.4955,-0.274 0.6508,0 0.7201,0.8509 1.4189,1.7251 2.1138,2.6012 z M 66.8658,86.9203 c 0.8609,-0.8197 2.0273,-1.3339 3.09,-1.9515 -0.259,-1.4214 -0.1218,-3.2388 -1.1386,-3.9029 0.3781,0.1103 0.4354,0.5404 0.8132,0.6508 1.6144,-0.6087 2.7391,-1.7056 4.2281,-2.4395 -0.7146,-1.2915 -0.3252,-3.6862 -1.6259,-4.3904 1.7848,-0.3291 3.631,-0.5966 5.3662,-0.9763 -2.3527,6.1037 -4.9548,11.9575 -7.4808,17.8883 0.297,-2.4354 0.641,-4.7592 0.1629,-7.1553 -0.4973,0.9121 -1.7707,1.0478 -2.439,1.7891 -0.4858,0.0026 -0.5535,0.423 -0.9761,0.4877 z M 81.5014,58.1372 c 0.3399,0.0931 0.4641,0.4031 0.9756,0.3251 0.0277,-0.2433 -0.0576,-0.6001 0.163,-0.6504 0,0.271 0,0.5416 0,0.8131 0.6755,0.354 1.7261,0.3333 2.6018,0.4877 0,0.2169 0,0.4334 0,0.6505 0,0.6502 0,1.3008 0,1.9516 -11.6275,5.5553 -22.9627,11.4041 -34.638,16.912 3.0966,0.0062 6.3241,-1.2649 9.7574,-1.4637 0,0.0546 0,0.1087 0,0.1628 -12.7571,0.5779 -19.9375,6.7321 -25.5311,14.4729 2.4145,-4.5778 4.4182,-9.5671 8.1307,-12.8465 -0.2707,0 -0.5417,0 -0.813,0 9.0816,-2.031 15.4214,-6.8031 23.5794,-9.7577 -0.7073,-0.3763 -2.1117,-0.0559 -3.0895,-0.1623 6.5198,-3.4003 13.1242,-6.7148 19.8393,-9.9196 0.0257,-0.6219 -0.6638,-0.5287 -0.9756,-0.8133 0,-0.0541 0,-0.1081 0,-0.1622 z m 28.2958,60.9816 c 1.1164,0.261 2.249,1.2971 3.2522,1.1381 -0.8392,0.8957 -1.8654,1.6039 -2.7645,2.4396 1.7353,0.1073 3.9019,-0.2158 5.3661,0.1625 -0.009,0.0989 -0.0242,0.1922 -0.1624,0.1622 -1.8435,-0.3782 -4.3899,-0.0545 -6.5045,-0.1622 -1.1487,2.9708 -1.9045,6.3348 -3.0899,9.2689 -0.0433,-0.932 -0.9073,-1.0437 -0.976,-1.9513 1.1182,-2.3515 2.7027,-5.1027 3.4154,-7.3176 -0.7124,0.8614 -1.5882,2.4211 -2.2768,2.7646 0.4126,-3.0022 2.0675,-4.763 3.7404,-6.5048 z m -33.9876,-2.4396 0,0 c 4.44,6.6484 10.7103,-7.7382 2.1142,-6.3416 -2.3998,0.3896 -3.6871,3.9859 -2.1142,6.3416 z"
     class="fil1" /><path
     style="fill:#2160a1"
     inkscape:connector-curvature="0"
     id="path4194"
     d="m 88.9819,99.6056 c -2.5161,-2.7963 -7.2373,-3.3878 -12.1965,-3.7404 -1.7042,2.6867 -2.9509,5.8312 -4.5532,8.6189 -0.7702,1.3437 -1.3602,2.8683 -2.2768,4.0654 -0.197,-0.6163 -0.315,-1.3116 -0.6508,-1.7886 -0.645,-3.6977 2.4996,-7.7805 1.9516,-11.3835 0.9219,-3.1981 2.8621,-5.3768 4.8782,-7.4804 1.3566,0.4324 3.7191,-0.1409 4.7162,0.6505 0.3186,1.7416 0.3598,3.7597 0.6505,5.5291 0.8875,-3.341 2.0171,-6.4391 3.0901,-9.5944 1.8301,4.0257 2.9294,10.1863 4.3907,15.1234 z"
     class="fil2" /><path
     style="fill:#2160a1"
     inkscape:connector-curvature="0"
     id="path4196"
     d="m 113.049,90.499 c -1.7812,0.5497 -1.59,3.0719 -1.7891,5.2038 -0.7226,-0.8493 -1.7977,-1.3462 -2.2761,-2.4393 0.6604,-0.5321 1.8334,-0.5517 2.2761,-1.3015 -4.2379,-1.1277 -7.6923,-3.0398 -10.0819,-6.0167 -0.4996,-0.747 -1.2891,-1.204 -1.7886,-1.9508 0.3938,-0.528 0.6928,-1.1504 0.9753,-1.7891 3.2235,0.8965 6.3653,2.7413 9.4321,3.2522 -0.4491,-0.3144 -1.6088,-0.7698 -1.4635,-1.1383 2.547,0.5427 5.019,1.1605 7.6429,1.626 0.3274,-0.3767 0.5916,-0.8172 1.1382,-0.9755 0.5864,-0.3355 0.8777,-0.9655 1.4638,-1.3008 0.05,0.3832 0.5646,0.3021 0.4877,0.8132 -1.7452,0.6399 -3.0263,1.7438 -4.0654,3.0893 -0.6027,1.0239 -1.5812,1.6714 -1.9515,2.9275 z"
     class="fil2" /><path
     style="fill:#2160a1"
     inkscape:connector-curvature="0"
     id="path4198"
     d="m 91.5836,98.7925 c 0.919,-0.273 2.0017,-0.3836 3.0895,-0.4882 2.4095,2.686 5.6334,4.5572 6.3423,8.9444 0.1254,-3.9407 -0.1034,-8.2346 0.4877,-11.709 1.6375,0.8566 3.6793,1.3082 5.3661,2.1144 0.6801,4.6371 0.7498,9.0721 -0.65,12.8467 0.4835,3.0099 3.0677,6.2551 2.1141,9.107 -2.7885,-8.9202 -10.3833,-13.034 -16.9123,-18.2136 0,-0.3795 0,-0.7588 0,-1.1383 0.1006,-0.4416 -0.2069,-1.2907 0.1626,-1.4634 z"
     class="fil2" /><path
     style="fill:#134d87"
     inkscape:connector-curvature="0"
     id="path4200"
     d="m 122.318,108.549 c -0.4689,0.0196 -1.0648,-0.0888 -1.3008,0.1624 -0.2945,0.0487 0.1642,0.6842 0.325,0.8129 -0.3854,0.5905 -1.3915,0.5604 -1.7891,1.1386 0,0.271 0,0.5424 0,0.8131 -0.054,0 -0.1081,0 -0.1623,0 -1.5169,0.3984 -3.9447,4.0647 -5.6919,5.8541 1.1035,-2.3123 3.3387,-4.8999 4.7159,-7.4803 -0.6274,-0.4568 -1.3808,-0.7872 -2.1139,-1.1384 0.0939,-1.0447 0.7936,-1.4827 0.9754,-2.4392 -0.5122,-0.6255 -1.595,-0.6811 -1.9509,-1.4633 0.5746,-0.0762 0.8898,-0.411 1.3009,-0.6508 1.6327,1.1323 3.5714,2.8246 5.0409,3.5776 -1.801,-2.2184 -5.9926,-3.7523 -5.5285,-7.1549 2.7963,1.8131 6.292,3.7866 6.1793,7.9682 z"
     class="fil1" /><path
     style="fill:#0c3b6b"
     inkscape:connector-curvature="0"
     id="path4202"
     d="m 187.691,109.85 c -0.8352,-3.7186 -2.8909,-7.0832 -3.5777,-10.4075 1.6589,2.86 3.6549,7.0503 5.3663,8.7812 0.1673,1.8386 0.7093,3.3019 0.813,5.204 -0.5235,-0.669 -0.5072,-1.8779 -1.3011,-2.2764 -0.3545,0.0897 -0.2959,1.424 -0.6504,0.9755 -0.2185,-0.7574 -0.3312,-1.6201 -0.6501,-2.2768 z"
     class="fil0" /><path
     style="fill:#134d87"
     inkscape:connector-curvature="0"
     id="path4204"
     d="m 267.861,154.896 c -0.271,-14.7982 -0.271,-30.7348 0,-45.533 2.0055,0 4.0115,0 6.0171,0 0,5.1495 0,10.2993 0,15.4488 0,0.5959 0.0235,1.9242 0.0235,2.5201 -0.0541,0 -0.6274,-0.7316 -0.6815,-0.7316 -0.8592,-2.6104 -3.5131,-2.9297 -5.3591,-4.553 0,10.9498 0,21.8992 0,32.8487 z"
     class="fil1" /><path
     style="fill:#134d87"
     inkscape:connector-curvature="0"
     id="path4206"
     d="m 277.781,128.551 c -0.8627,-0.9641 -2.6297,-1.4096 -3.9375,-1.3998 2.6162,-6.6939 13.8106,-6.5033 17.435,-2.1777 5.125,6.1175 1.1608,20.0207 2.4394,30.0848 l -6.5051,0 c -1.4482,-10.1952 4.9825,-30.7266 -8.9438,-26.8323 -0.1195,0.1518 -0.2963,0.2461 -0.488,0.325 z m 9.5947,26.3444 0,0 z"
     class="fil1" /><path
     style="fill:#0c3b6b"
     inkscape:connector-curvature="0"
     id="path4208"
     d="m 173.542,145.301 c 1.6973,-7.843 3.7941,-15.2861 5.8542,-22.7663 2.2771,0 4.5531,0 6.8303,0 1.8955,7.428 4.0013,14.6454 5.529,22.4413 0,0.271 0,0.5422 0,0.8131 -1.6596,-0.2374 -4.3216,0.5276 -5.204,-0.4881 -1.2763,-5.4986 -2.7904,-10.761 -3.7399,-16.5865 l -4.0651,16.4242 -5.2045,0.1623 z"
     class="fil0" /><path
     style="fill:#2160a1"
     inkscape:connector-curvature="0"
     id="path4210"
     d="m 250.949,150.017 -2.7092,1.5861 c 1.6273,1.4629 3.0913,2.3674 5.799,3.2924 -4.5232,1.3296 -11.6103,0.7444 -14.7981,-1.3008 0,-2.0598 0,-4.1196 0,-6.18 3.1719,1.5979 6.5902,2.9509 11.7083,2.6023 z"
     class="fil2" /><path
     style="fill:#2160a1"
     inkscape:connector-curvature="0"
     id="path4212"
     d="m 212.735,155.131 c 1.6872,-2.9122 3.0651,-5.9406 1.3002,-8.2039 3.465,6.8782 14.6381,1.4019 12.0335,-7.3176 -2.1514,0.0164 -4.1513,0.1845 -6.1793,0.3252 l 12.5138,-4.4833 c 0,-15.5244 -0.016,17.8161 0.008,19.607 -1.518,0 -3.0356,0 -4.553,0 -0.4853,-1.4663 -0.8402,-3.0637 -1.3012,-4.5536 -2.196,3.3894 -5.0067,6.6253 -13.8217,4.6262 z"
     class="fil2" /><path
     style="fill:#2160a1"
     inkscape:connector-curvature="0"
     id="path4214"
     d="m 195.171,165.303 c 11.5551,2.6777 8.745,24.5424 -5.3667,21.6276 0.6508,0 1.3007,0 1.9515,0 2.1626,-3.7791 1.1855,-7.5338 -0.1623,-11.545 -0.0209,-0.3595 -0.6898,-0.0691 -0.9761,-0.1631 0.2835,-1.1253 0.4931,-2.3251 0.6509,-3.5772 2.5374,-1.3114 5.0513,-2.6458 7.6428,-3.9032 -0.9191,-1.1411 -2.4147,-1.7053 -3.7401,-2.4391 z m 52.6882,-80.0079 c -8.9776,-2.9183 -15.5756,1.1012 -22.9293,3.2522 -6.1233,-1.7358 -12.1653,-3.5544 -18.2129,-5.3667 -1.0684,-2.3768 -2.2047,-8.0542 -1.1387,-10.4075 3.7558,1.4482 4.9808,5.4271 6.8303,8.7817 -1.6067,-4.4101 -3.2853,-8.7487 -6.0172,-12.0339 -1.2543,-3.4069 -3.5527,-5.7706 -5.2038,-8.7817 -0.2576,-0.8802 -0.4824,-1.7934 -0.6504,-2.7643 6.3659,-4.9098 14.7789,-10.046 27.3202,-8.7814 11.0822,1.4936 18.7577,6.3937 24.2297,13.4975 -1.7023,7.2418 -1.1766,16.711 -4.2279,22.6041 z M 85.5662,64.968 c -1.6303,2.9227 -3.5854,5.5207 -5.3663,8.2934 -0.1927,0.0474 -0.6143,0.6548 -0.8128,0.1623 0.1092,-1.2999 0.6035,-2.2149 0.8128,-3.415 -0.9555,1.2125 -1.5436,2.7932 -2.6018,3.9026 -1.7352,0.3797 -3.5814,0.6472 -5.3662,0.9763 -3.8644,0.8518 -8.05,1.3822 -11.8714,2.2763 -3.4333,0.1988 -6.6608,1.4699 -9.7574,1.4637 11.6753,-5.5079 23.0105,-11.3567 34.638,-16.912 0,-0.6508 0,-1.3014 0,-1.9516 -0.1302,2.2587 1.793,3.2154 0.9759,5.204 -0.1553,-0.274 -0.5398,-0.5088 -0.6508,0 z M 59.7098,45.4536 c 4.4058,2.4248 8.4606,5.1994 12.8469,7.6428 0,-0.7588 0,-1.5177 0,-2.2765 -0.0817,-2.5751 0.2883,-4.6988 0.1628,-7.3179 -2.914,-2.7775 -5.9446,-5.4389 -9.1067,-7.9681 6.749,5.2845 12.9298,11.1374 19.5143,16.5869 -0.2198,1.8402 -0.1759,3.9438 -0.4878,5.6919 -0.2206,0.0503 -0.1353,0.4071 -0.163,0.6504 -0.5115,0.078 -0.6357,-0.232 -0.9756,-0.3251 -3.0743,-1.4792 -5.8582,-3.2483 -8.7812,-4.879 -1.8112,0.953 -3.3384,2.1905 -5.0413,3.2528 -10.4797,-2.0422 -20.7284,-4.3145 -31.0602,-6.5052 1.7984,-1.1297 3.1414,-1.4859 5.3667,-1.6261 4.5489,-0.6007 10.3549,0.0562 11.383,-4.0654 -1.1352,-1.6288 -2.2532,-3.2753 -3.9028,-4.3908 0.1518,0.0995 0.6001,0.3785 0.488,-0.1622 3.0699,1.4292 6.5505,3.8565 9.7569,5.6915 z m 65.6978,99.3596 c 1.0516,6.7478 12.6066,6.2898 17.4001,3.0899 0.3768,0.6534 0.0567,2.0029 0.1628,2.927 0,0.9213 0,1.8431 0,2.7645 -8.5967,4.6371 -22.6789,1.6858 -23.7425,-7.643 1.8891,0.1418 4.2077,-0.6621 6.1796,-0.9759 0,-0.0541 0,-0.1086 0,-0.1625 z m 38.5398,-15.9367 c -3.1619,0.9034 -4.9067,3.2235 -5.8535,6.3423 -1.1675,-0.6586 -3.3353,0.4439 -5.0415,0.3253 -0.5015,1.2868 -1.0154,2.5619 -1.6259,3.7399 0,-1.3008 0,-2.6017 0,-3.903 0,-2.1677 0,-4.3365 0,-6.5045 0,-2.0595 0,-4.1194 0,-6.1792 1.5487,0.2938 4.294,-0.6084 5.0411,0.4877 -1.022,-0.7125 -3.3267,-0.1429 -4.8788,-0.3252 0.1085,1.952 -0.2158,4.3356 0.1632,6.0167 1.5325,-0.9604 3.3239,-1.6628 5.0415,-2.4391 0,-0.2171 0,-0.4336 0,-0.6508 0.3397,0.69 0.214,1.8456 0.4873,2.6021 1.4149,-1.9462 2.7961,-3.9255 4.8781,-5.2037 0.5736,-0.0226 0.7269,-0.4656 1.3012,-0.4877 0.227,1.9952 -0.5124,4.9572 0.4873,6.1792 z M 49.3024,103.9962 c -0.0088,0.2077 -0.2081,0.2249 -0.1622,0.4877 4.6654,5.4163 9.2794,10.8852 13.9851,16.262 0.5753,0.5623 0.7479,1.5282 1.7886,1.6261 -3.4638,0.9265 -5.0868,3.6947 -7.1553,6.0167 -0.1595,-2.0085 -0.5214,-3.8152 -0.8132,-5.6914 -1.6263,0 -3.2523,0 -4.8784,0 0,10.787 0,21.5735 0,32.3611 2.1139,0 4.2282,0 6.342,0 0.2651,-12.0028 -3.0657,-29.2788 11.2208,-26.1819 0,-0.1081 0,-0.2164 0,-0.3254 2.6452,2.158 -0.2233,7.5878 0,11.3836 -0.1449,0.0725 -0.2908,0.1427 -0.3254,0.3253 -1.8458,1.0265 -3.6612,2.0846 -5.5291,3.0893 0.4254,5.2669 0.7869,10.5973 0.9759,16.0999 -2.5956,6.8901 -7.8554,11.983 -10.5703,18.2127 -6.4438,-7.3245 -11.1195,-16.4172 -13.6598,-27.645 -3.6503,-17.5397 0.9642,-35.8629 8.7813,-46.0207 z m 26.3441,48.1347 c 1.8398,-0.9255 4.147,-2.7909 6.1798,-4.0657 0,2.3854 0,4.7705 0,7.1555 l -6.3421,0 0.1623,-3.0898 z m 33.4993,-10.7329 c -1.4978,4.6818 -3.2144,9.1445 -4.7159,13.8227 -2.331,0 -4.6613,0 -6.9924,0 -1.8762,-5.7671 -3.9233,-11.3624 -5.8542,-17.0749 0.1319,0.0308 0.1623,0.1634 0.3251,0.1629 0.7998,-2.7782 1.7063,-5.4493 2.7646,-7.9685 0.3259,-0.0222 0.756,1.1051 0.813,0.3249 1.9991,6.0241 4.1815,11.8636 5.5291,18.5387 0.6416,-4.3995 1.9206,-8.1616 3.2525,-11.871 0.9542,1.9246 3.2589,3.3453 4.8782,4.0652 z"
     class="fil2" /><path
     style="fill:#134d87"
     inkscape:connector-curvature="0"
     id="path4216"
     d="m 140.043,52.7714 c -0.577,0.3984 -0.9642,0.9873 -1.6263,1.3012 -0.054,0 -0.1081,0 -0.1622,0 -1.1306,1.6335 -2.9254,2.6033 -4.2285,4.0655 -0.6029,0.6991 -1.9775,1.488 -2.1136,2.1138 0,0.1084 0,0.2172 0,0.3253 -2.9111,0.5579 -5.2648,1.6736 -8.1308,2.2768 0.5716,-1.5967 1.3338,-3.0029 1.7886,-4.7159 1.7153,-0.3992 3.0203,-1.2081 4.3904,-1.9516 2.8812,-0.1068 7.3007,-3.2088 10.0824,-3.4151 z"
     class="fil1" /><path
     style="fill:#134d87"
     inkscape:connector-curvature="0"
     id="path4218"
     d="m 130.449,63.8295 c 1.9798,-0.947 3.8526,-2.0015 6.017,-2.7645 -0.9275,-0.5362 -2.8316,-0.0952 -3.9031,-0.4878 3.1534,0.299 5.1207,-0.0803 7.8051,-0.4876 -0.8072,3.745 -5.6495,3.4565 -9.919,3.7399 z"
     class="fil1" /><path
     style="fill:#2160a1"
     inkscape:connector-curvature="0"
     id="path4220"
     d="m 70.1176,91.7998 c -2.3896,3.5863 -2.2493,8.3747 -1.4631,13.172 -3.6061,-5.0273 1.407,-12.8521 -0.813,-18.5383 0.6683,-0.7412 1.9418,-0.877 2.439,-1.789 0.4781,2.396 0.1342,4.7198 -0.1629,7.1553 z"
     class="fil2" /><path
     style="fill:#2160a1"
     inkscape:connector-curvature="0"
     id="path4222"
     d="m 171.916,101.882 c 1.0751,-0.0989 1.6675,0.2845 2.7644,0.1631 -0.2224,2.6076 0.2109,4.5593 0.976,6.179 -4.7349,2.1089 -5.5172,7.3684 -8.6185,10.8958 -0.6475,-0.7078 -0.5991,-2.1116 -0.9755,-3.0897 1.4038,-0.9814 2.8497,-1.9206 4.0651,-3.0898 -0.0936,-1.0988 -0.5787,-1.8063 -0.6508,-2.9272 1.2256,-2.2978 1.6769,-5.3701 2.4393,-8.1312 z m -55.6148,6.8301 c 0.7331,0.3511 1.4864,0.6815 2.114,1.1383 -1.3773,2.5805 -3.6126,5.1681 -4.716,7.4804 1.7472,-1.7895 4.175,-5.4557 5.6919,-5.8541 0.031,1.061 -0.5716,1.4883 -0.6505,2.4397 1.5427,-0.2467 2.7589,-0.8189 4.2281,-1.1386 -0.7758,1.5608 -2.1221,5.3538 -5.0413,5.8538 -0.034,-0.3236 0.6892,-0.6945 0.3255,-0.8128 -1.5964,0.9519 -3.8339,1.2616 -5.204,2.4392 -1.0032,0.159 -2.1358,-0.8771 -3.2522,-1.1381 1.1053,-2.2558 3.1877,-4.401 4.0654,-6.3421 -0.5477,0.7018 -1.3581,1.9996 -1.9515,2.1139 1.4796,-2.0437 2.7224,-4.3245 4.3906,-6.1796 z m 14.1481,13.4972 c 0.4384,-0.3748 1.5683,-0.0578 2.2764,-0.1623 0.304,-1.7567 1.3626,-3.623 1.4638,-5.0414 -0.048,0.145 -0.4405,0.712 -0.4878,0.3252 0.1338,-0.4593 -0.2296,-0.421 -0.1632,-0.813 1.5609,-0.4991 2.944,-1.1758 4.5536,-1.6261 0,0.1083 0,0.2168 0,0.3255 -0.7485,2.5576 -1.7544,4.8587 -2.6021,7.3175 0.1264,0.0368 0.321,0.004 0.3253,0.1629 -1.6105,-0.3407 -3.3099,-0.5928 -5.366,-0.4883 z m 16.5868,-15.9365 c 1.7809,0.3335 3.5311,0.697 5.041,1.3013 0.2831,1.289 0.6538,2.4901 0.813,3.9026 -0.5966,0.8667 -1.2639,1.663 -1.9511,2.4397 -0.8993,-1.812 -2.0697,-3.3515 -2.9269,-5.2043 -0.4971,0.1175 -0.593,-0.1661 -0.976,-0.1625 -0.0748,-0.5821 -0.4001,-1.7596 0,-2.2768 z m 2.6021,-4.0654 c 0.7867,1.6525 1.6593,3.2194 2.2763,5.0414 -1.6699,-0.6609 -3.443,-1.2189 -5.0406,-1.9515 -0.007,-0.5353 -0.2752,-0.8096 -0.1634,-1.4638 0,-0.0543 0,-0.1084 0,-0.1623 -0.0436,-0.8403 2.1785,-1.4287 2.9277,-1.4638 z m -2.2768,9.2693 c 1.0007,0.7883 1.9912,1.5862 2.7645,2.6018 -2.0257,-0.4139 -4.0136,-0.8649 -6.1799,-1.1381 -0.1443,-0.3435 -0.4946,-0.4807 -0.4876,-0.9755 0.8533,-0.5022 1.7488,-0.9617 2.6022,-1.464 0.6846,0.0739 0.7485,0.7694 1.3008,0.9758 z m -10.2453,-9.2693 c 1.0855,0.287 2.5961,1.5114 3.5777,2.4391 -0.2865,0.1471 -0.5039,0.364 -0.6505,0.6508 -3.1466,2.4367 -3.9169,8.1164 -6.6671,10.4075 0.018,-0.3074 0.538,-0.1128 0.4878,-0.4876 -0.046,-0.2632 0.1536,-0.2801 0.1622,-0.4877 -1.9816,-0.0782 -4.4936,0.3742 -5.3659,-0.8131 1.5215,-0.376 1.9286,-1.8661 2.1137,-3.5777 -0.6568,2.411 -4.4436,3.0445 -5.2035,0.3249 0.4877,0 0.976,0 1.4637,0 0.316,-0.714 0.4051,-1.6545 0.4876,-2.6017 -0.3373,0.4758 -0.6255,1.0002 -0.6506,1.7885 -0.4789,0.2801 -1.3199,0.198 -1.6261,0.6505 -0.7724,-0.6367 -1.4773,-1.3413 -2.114,-2.1137 2.7369,-1.8612 5.9116,-4.9971 8.2938,-5.6921 0.4566,0.8988 0.761,1.9494 1.3008,2.7644 0,-0.9212 0,-1.8425 0,-2.7644 0.6697,0.128 0.8345,-0.2495 1.4638,-0.1623 0.5736,1.2145 0.7107,2.8659 1.3005,4.0653 0.3942,-1.2323 0.7556,-2.497 0.6508,-4.2277 0.2855,-0.094 0.9554,0.1962 0.9753,-0.163 z m 52.5258,-13.8223 c 1.3644,1.1833 2.7443,2.3506 3.903,3.7402 -0.6459,0.9259 -0.9756,2.1686 -1.464,3.2523 -0.9463,-2.1438 -2.3511,-4.6956 -2.6017,-6.9925 0.0546,0 0.1081,0 0.1627,0 z m 10.2445,0 c -3.2588,-0.4947 -4.1248,1.4039 -5.8537,2.4392 -0.7483,-1.3116 -1.6369,-2.4827 -2.4393,-3.7403 -0.3313,-1.3319 1.5626,-1.7795 2.1136,-2.7645 0.2136,0.0574 0.2558,0.2865 0.488,0.3251 1.6123,1.5318 3.5917,2.6966 5.6914,3.7405 z m -25.206,7.9678 c -1.851,0.0088 -3.7275,0.0422 -5.2037,-0.3248 0.0309,-3.6083 -0.2839,-6.871 -0.1623,-10.5704 -1.526,1.1848 -4.2521,3.4446 -5.3668,5.0414 1.2651,-0.6872 2.5487,-1.3544 4.0663,-1.789 -0.9423,2.1397 0.941,4.934 1.1376,7.4806 -1.203,0.1189 -1.9857,-0.1822 -3.0891,-0.1626 -0.298,-2.0328 -2.3132,-2.349 -3.4154,-3.5777 0.1738,1.2356 0.5973,2.2218 0.8133,3.4149 -1.4478,-1.8587 -2.889,-3.724 -4.0656,-5.854 1.9829,-2.7872 3.843,-5.6977 5.6917,-8.6188 0.0548,0 0.1083,0 0.1629,0 2.8975,0.3005 5.5144,0.8816 8.293,1.3007 0.0547,0 0.1082,0 0.1629,0 0,0.1082 0,0.2169 0,0.3254 0.2156,4.4483 0.9404,9.2467 0.9752,13.3343 z"
     class="fil2" /><path
     style="fill:#134d87"
     inkscape:connector-curvature="0"
     id="path4224"
     d="m 156.794,125.787 c -0.159,-0.8177 -0.3438,-1.608 -0.3258,-2.6017 -0.7472,-1.096 -3.4925,-0.1938 -5.0411,-0.4877 0,2.0599 0,4.1197 0,6.1793 -1.274,0.5146 -2.6874,0.8904 -3.9032,1.4637 -0.1447,0.1265 -0.367,0.1749 -0.6498,0.1626 1.2202,-1.845 -0.6814,-3.5508 0.9753,-5.3662 2.7187,-1.1846 4.476,-3.3297 6.0166,-5.6923 -2.757,-1.4702 -5.1996,-3.2564 -10.082,-2.6016 0.1037,-0.601 -0.2106,-1.6196 0.1623,-1.9514 4.5352,0.344 8.0076,1.75 10.2454,4.3908 0.124,-0.5807 0.4194,-0.9901 0.8126,-1.3008 2.219,1.3587 5.0512,2.1047 7.1553,3.5776 0,0.5419 0,1.0836 0,1.626 -2.0822,1.2783 -3.4634,3.2576 -4.8782,5.2038 -0.2733,-0.7566 -0.1477,-1.9122 -0.4874,-2.6021 z"
     class="fil1" /><path
     style="fill:#0c3b6b"
     inkscape:connector-curvature="0"
     id="path4226"
     d="m 277.781,128.551 c -6.1934,3.7803 -2.8947,17.0529 -3.7404,26.1818 l -6.1794,0.1626 c 0,-10.9495 -0.164,-21.9218 -0.164,-32.8716 1.846,1.6233 5.1595,1.9655 6.0187,4.5759 l 0.1835,0.321 0.3041,-0.4833 c 1.3078,-0.01 2.7148,1.1495 3.5775,2.1136 z"
     class="fil0" /><path
     style="fill:#07284b"
     inkscape:connector-curvature="0"
     id="path4228"
     d="m 239.403,132.617 c -0.6176,-4.3019 0.9744,-7.6599 3.9028,-8.9437 0.7511,1.9591 1.4713,3.9489 2.1143,6.017 0,0.325 0,0.6505 0,0.9754 -1.9723,0.5832 -4.1158,1.837 -6.0171,1.9513 z"
     class="fil3" /><path
     style="fill:#07284b"
     inkscape:connector-curvature="0"
     id="path4230"
     d="m 142.971,150.83 c -0.1062,-0.9241 0.2141,-2.2736 -0.1628,-2.927 -4.7934,3.1998 -16.3485,3.658 -17.4,-3.0899 -0.4258,-1.2544 -0.7016,-2.6594 -0.6505,-4.3906 6.5043,0 13.0096,0 19.5141,0 -0.1287,-2.7444 0.3073,-6.053 -0.3255,-8.2939 0.2116,-1.2522 1.9212,-1.0057 2.9278,-1.4635 0,-0.0542 0,-0.1083 0,-0.1623 0.2828,0.0123 0.5051,-0.0361 0.6498,-0.1626 0.4306,0.8162 0.3859,2.1084 0.4885,3.2522 0.131,0.1397 0.4453,0.0966 0.4875,0.3255 -1.2002,5.4127 -2.5128,10.7136 -3.5775,16.2613 -0.3462,0.5213 -1.2408,0.4939 -1.9514,0.6508 z"
     class="fil3" /><path
     style="fill:#134d87"
     inkscape:connector-curvature="0"
     id="path4232"
     d="m 211.921,137.333 c -0.009,0.0995 -0.0243,0.1927 -0.1629,0.1629 1.7389,1.1878 4.0972,1.7567 5.8547,2.927 -2.3515,1.0092 -3.985,2.7366 -3.5777,6.5045 1.7649,2.2633 2.0123,5.5439 0.3252,8.4562 -8.3252,-0.2179 -9.4588,-15.4779 -2.4393,-18.0506 z"
     class="fil1" /><path
     style="fill:#2160a1"
     inkscape:connector-curvature="0"
     id="path4234"
     d="m 287.376,146.44 c 2.2596,-0.9926 4.0757,-2.4285 6.1793,-3.5777 0,4.0113 0,8.0225 0,12.0338 -2.0601,0 -4.1197,0 -6.1793,0 0,-2.8189 0,-5.6374 0,-8.4561 z"
     class="fil2" /><path
     style="fill:#07284b"
     inkscape:connector-curvature="0"
     id="path4236"
     d="m 210.88,137.84 c 2.0956,-1.9952 9.8777,-2.5109 15.188,-2.6213 2.6378,-9.429 -9.1404,-9.1768 -13.4974,-5.529 -0.8797,-1.3973 -1.3125,-3.2404 -2.1138,-4.7162 6.0392,-4.6191 22.0357,-4.5221 21.7911,5.5293 0,1.68 0.1178,3.2275 0.158,5.1603 l -12.5172,4.2715 -2.2765,0.4879 -6.7322,-2.5825 z"
     class="fil3" /><path
     style="fill:#07284b"
     inkscape:connector-curvature="0"
     id="path4238"
     d="m 197.123,126.6 c 0.3369,-1.3431 0.7771,-2.5836 0.9753,-4.0653 2.0596,0 4.1197,0 6.1793,0 -0.6644,3.5095 -1.7632,6.5838 -2.4394,10.082 -0.5849,0.8235 -2.4675,-0.7511 -3.4147,-1.1376 -0.399,-1.6612 -1.1074,-3.0127 -1.3005,-4.8791 z"
     class="fil3" /><path
     style="fill:#67a7e6"
     inkscape:connector-curvature="0"
     id="path4240"
     d="m 156.468,123.185 c -0.018,0.9937 0.1669,1.784 0.3259,2.6016 0,0.2172 0,0.4337 0,0.6508 -1.7176,0.7763 -3.509,1.4787 -5.0415,2.4391 -0.379,-1.6811 -0.0547,-4.0647 -0.1632,-6.0167 1.5521,0.1823 3.8568,-0.3873 4.8788,0.3252 z m -91.5538,-0.813 c 1.6132,-0.2819 3.5609,-0.1546 5.2035,0 -0.0737,2.1485 -0.4739,3.9707 -0.4876,6.1791 0,0.109 0,0.2173 0,0.3254 -14.2865,-3.0969 -10.9557,14.1791 -11.2208,26.1819 -2.1138,0 -4.2281,0 -6.342,0 0,-10.7876 0,-21.5741 0,-32.3611 1.6261,0 3.2521,0 4.8784,0 0.2918,1.8762 0.6537,3.6829 0.8132,5.6914 2.0685,-2.322 3.6915,-5.0902 7.1553,-6.0167 z m 86.5127,16.912 c 0.6105,-1.178 1.1244,-2.4531 1.6259,-3.7399 1.7062,0.1186 3.874,-0.9839 5.0415,-0.3253 -0.4451,0.9636 -0.3076,2.5114 -0.3256,3.903 0,5.3118 0,10.6238 0,15.9366 -2.1137,0 -4.228,0 -6.3418,0 0,-5.2582 0,-10.5164 0,-15.7744 z m -31.7101,-8.6189 c 0.5624,-1.5514 1.3712,-2.8558 2.2762,-4.0653 0.054,0 0.1088,0 0.1629,0 1.7603,-2.4677 4.5772,-3.8784 8.2936,-4.3908 2.0561,-0.1045 3.7555,0.1476 5.366,0.4883 4.361,1.4933 6.9689,4.7399 8.1307,9.4314 0.6327,2.2408 0.1968,5.5495 0.3254,8.2939 -6.5044,0 -13.0097,0 -19.514,0 -0.051,1.7311 0.2248,3.1362 0.6504,4.3906 0,0.0539 0,0.1084 0,0.1625 -1.9719,0.3138 -4.2905,1.1177 -6.1796,0.9759 -1.2822,-4.4349 -1.0596,-11.3535 0.4884,-15.2865 z m 5.0408,4.879 0,0 c 4.4988,0 8.9983,0 13.4973,0 1.5086,-11.0495 -14.643,-9.9384 -13.4973,0 z m -9.9199,-10.5706 c -0.3175,0.4956 -0.346,1.2803 -0.6502,1.7891 -1.7467,4.812 -3.5125,9.6054 -5.0414,14.6354 -1.6193,-0.7199 -3.924,-2.1406 -4.8782,-4.0652 0.586,-1.691 1.2245,-3.3286 1.626,-5.2041 1.1854,-2.9341 1.9412,-6.2981 3.0899,-9.2689 2.1146,0.1077 4.661,-0.216 6.5045,0.1622 -0.3221,0.5455 -0.5345,1.1998 -0.6506,1.9515 z m -39.1909,-2.2762 c 2.0598,0 4.1201,0 6.1798,0 0,8.456 0,16.9123 0,25.3679 -2.0328,1.2748 -4.34,3.1402 -6.1798,4.0657 0,-9.8116 0,-19.6226 0,-29.4336 z m 2.2767,-12.3589 c 4.5667,-0.7419 5.4559,3.489 4.1347,6.1356 -1.1658,2.3351 -4.1676,3.3224 -6.2489,0.206 -1.5729,-2.3557 -0.2856,-5.952 2.1142,-6.3416 z m 10.4077,18.2127 c -0.5569,-2.0446 -1.3781,-3.8261 -1.9515,-5.8538 2.1687,0 4.3367,0 6.5047,0 0.2891,0.4696 0.2928,1.225 0.6506,1.6262 0.4771,2.2875 1.2445,4.2839 1.9513,6.3416 -0.057,0.7802 -0.4871,-0.3471 -0.813,-0.3249 -1.0583,2.5192 -1.9648,5.1903 -2.7646,7.9685 -0.1628,5e-4 -0.1932,-0.1321 -0.3251,-0.1629 -0.9369,-3.3453 -2.1213,-6.4433 -3.2524,-9.5947 z"
     class="fil4" /></svg>
