<?xml version="1.0" standalone="no"?>
<!DOCTYPE svg PUBLIC "-//W3C//DTD SVG 1.1//EN" "http://www.w3.org/Graphics/SVG/1.1/DTD/svg11.dtd" >
<svg xmlns="http://www.w3.org/2000/svg" xmlns:xlink="http://www.w3.org/1999/xlink" version="1.1">
<metadata>
Created by FontForge 20170731 at Wed Aug 22 19:17:03 2007
 By Aleksey,,,
Copyright (c) Tomas Brousil, 2007. All rights reserved.
</metadata>
<defs>
<font id="Purista-Medium" horiz-adv-x="662" >
  <font-face 
    font-family="Purista"
    font-weight="400"
    font-stretch="normal"
    units-per-em="1000"
    panose-1="0 0 0 0 0 0 0 0 0 0"
    ascent="800"
    descent="-200"
    x-height="520"
    cap-height="700"
    bbox="-100 -210 1063 1075"
    underline-thickness="50"
    underline-position="-200"
    unicode-range="U+0020-FB02"
  />
<missing-glyph horiz-adv-x="0" 
 />
    <glyph glyph-name="ff" unicode="ff" horiz-adv-x="660" 
d="M520 601v-81h140v-67h-140v-453h-77v453h-245v-453h-78v453h-120v67h120v79q0 64 39 102.5t102 38.5h77v-67h-68q-33 0 -52.5 -19.5t-19.5 -52.5v-81h245v79q0 64 38.5 102.5t101.5 38.5h77v-67h-67q-34 0 -53.5 -19.5t-19.5 -52.5z" />
    <glyph glyph-name="fi" unicode="fi" horiz-adv-x="590" 
d="M443 0v453h-245v-453h-78v453h-120v67h120v79q0 64 39 102.5t102 38.5h77v-67h-68q-33 0 -52.5 -19.5t-19.5 -52.5v-81h322v-520h-77zM443 628v112h77v-112h-77z" />
    <glyph glyph-name="fl" unicode="fl" horiz-adv-x="590" 
d="M198 601v-81h140v-67h-140v-453h-78v453h-120v67h120v79q0 64 39 102.5t102 38.5h259v-740h-77v673h-173q-33 0 -52.5 -19.5t-19.5 -52.5z" />
    <glyph glyph-name=".notdef" horiz-adv-x="0" 
 />
    <glyph glyph-name=".null" horiz-adv-x="0" 
 />
    <glyph glyph-name="nonmarkingreturn" horiz-adv-x="333" 
 />
    <glyph glyph-name="space" unicode=" " horiz-adv-x="300" 
 />
    <glyph glyph-name="exclam" unicode="!" horiz-adv-x="258" 
d="M168 700v-505h-78v505h78zM168 113v-113h-78v113h78z" />
    <glyph glyph-name="quotedbl" unicode="&#x22;" horiz-adv-x="365" 
d="M80 448l-10 252h88l-10 -252h-68zM218 448l-10 252h87l-10 -252h-67z" />
    <glyph glyph-name="numbersign" unicode="#" horiz-adv-x="731" 
d="M357 0l58 184h-206l-58 -184h-69l59 184h-121v63h141l66 207h-119v62h139l59 184h69l-59 -184h206l59 184h68l-59 -184h121v-62h-141l-66 -207h119v-63h-139l-59 -184h-68zM296 454l-67 -207h206l67 207h-206z" />
    <glyph glyph-name="dollar" unicode="$" horiz-adv-x="622" 
d="M272 -100v100h-53q-67 0 -108 41t-41 108v61h83v-57q0 -37 21.5 -59t58.5 -22h156q37 0 58.5 22t21.5 59v81q0 37 -21.5 59t-58.5 22h-170q-67 0 -108 41t-41 108v87q0 67 41 108t108 41h53v100h77v-100h54q67 0 108 -41t41 -108v-61h-83v58q0 37 -21.5 58.5t-58.5 21.5
h-156q-37 0 -58.5 -21.5t-21.5 -58.5v-81q0 -37 21.5 -58.5t58.5 -21.5h170q67 0 108 -41t41 -108v-89q0 -67 -41 -108t-108 -41h-54v-100h-77z" />
    <glyph glyph-name="percent" unicode="%" horiz-adv-x="763" 
d="M247 436v178q0 18 -10.5 28t-27.5 10h-67q-17 0 -27.5 -10t-10.5 -28v-178q0 -17 10.5 -27.5t27.5 -10.5h67q17 0 27.5 10.5t10.5 27.5zM301 424q0 -33 -20.5 -53.5t-53.5 -20.5h-103q-33 0 -53.5 20.5t-20.5 53.5v202q0 34 20.5 54t53.5 20h103q33 0 53.5 -20t20.5 -54
v-202zM659 86v178q0 18 -10.5 28t-27.5 10h-67q-17 0 -27.5 -10t-10.5 -28v-178q0 -17 10.5 -27.5t27.5 -10.5h67q17 0 27.5 10.5t10.5 27.5zM713 74q0 -33 -20.5 -53.5t-53.5 -20.5h-103q-33 0 -53.5 20.5t-20.5 53.5v202q0 34 20.5 54t53.5 20h103q33 0 53.5 -20t20.5 -54
v-202zM106 0l482 700h69l-482 -700h-69z" />
    <glyph glyph-name="ampersand" unicode="&#x26;" horiz-adv-x="627" 
d="M537 315v-315h-61l-9 41q-42 -41 -107 -41h-141q-67 0 -108 41t-41 108v66q0 49 24.5 85.5t66.5 50.5q-40 15 -63 51t-23 85v64q0 67 41 108t108 41h164q67 0 108 -41t41 -108v-53h-82v50q0 37 -22 58.5t-59 21.5h-136q-37 0 -58.5 -21.5t-21.5 -58.5v-81
q0 -37 21.5 -58.5t58.5 -21.5h389v-72h-90zM374 72q37 0 59 22t22 59v162h-222q-37 0 -58.5 -22t-21.5 -59v-81q0 -37 21.5 -59t58.5 -22h141z" />
    <glyph glyph-name="quotesingle" unicode="'" horiz-adv-x="228" 
d="M80 448l-10 252h88l-10 -252h-68z" />
    <glyph glyph-name="parenleft" unicode="(" horiz-adv-x="297" 
d="M277 835v-72h-44q-37 0 -58.5 -21.5t-21.5 -58.5v-665q0 -37 21.5 -59t58.5 -22h44v-72h-58q-67 0 -108 41t-41 108v672q0 67 41 108t108 41h58z" />
    <glyph glyph-name="parenright" unicode=")" horiz-adv-x="297" 
d="M20 -135v72h44q37 0 59 22t22 59v665q0 37 -22 58.5t-59 21.5h-44v72h59q66 0 107 -41t41 -108v-672q0 -67 -41 -108t-107 -41h-59z" />
    <glyph glyph-name="asterisk" unicode="*" horiz-adv-x="460" 
d="M30 532l18 55l160 -60l-7 173h57l-6 -172l160 59l18 -54l-164 -47l106 -134l-46 -33l-96 143l-96 -143l-46 33l105 134z" />
    <glyph glyph-name="plus" unicode="+" horiz-adv-x="512" 
d="M220 384v198h71v-198h191v-67h-191v-196h-71v196h-190v67h190z" />
    <glyph glyph-name="comma" unicode="," horiz-adv-x="228" 
d="M70 -115v238h88l-30 -238h-58z" />
    <glyph glyph-name="hyphen" unicode="-" horiz-adv-x="259" 
d="M30 230v67h199v-67h-199z" />
    <glyph glyph-name="period" unicode="." horiz-adv-x="228" 
d="M70 0v123h88v-123h-88z" />
    <glyph glyph-name="slash" unicode="/" horiz-adv-x="311" 
d="M-40 -135l322 970h69l-322 -970h-69z" />
    <glyph glyph-name="zero" unicode="0" horiz-adv-x="622" 
d="M469 153v395q0 37 -21.5 58.5t-58.5 21.5h-156q-37 0 -58.5 -21.5t-21.5 -58.5v-395q0 -37 21.5 -59t58.5 -22h156q37 0 58.5 22t21.5 59zM552 149q0 -67 -41 -108t-108 -41h-184q-67 0 -108 41t-41 108v402q0 67 41 108t108 41h184q67 0 108 -41t41 -108v-402z" />
    <glyph glyph-name="one" unicode="1" horiz-adv-x="343" 
d="M273 700v-700h-83v616l-155 -111v84l155 111h83z" />
    <glyph glyph-name="two" unicode="2" horiz-adv-x="602" 
d="M483 370l-304 -298h353v-72h-462v72l356 346q24 22 24 61v69q0 37 -22 58.5t-59 21.5h-136q-37 0 -58.5 -21.5t-21.5 -58.5v-93h-83v96q0 67 41 108t108 41h165q66 0 107 -41t41 -108v-66q0 -71 -49 -115z" />
    <glyph glyph-name="three" unicode="3" horiz-adv-x="607" 
d="M255 315v72h114q37 0 59 21.5t22 58.5v81q0 37 -22 58.5t-59 21.5h-136q-37 0 -58.5 -21.5t-21.5 -58.5v-73h-83v76q0 67 41 108t108 41h164q67 0 108 -41t41 -108v-64q0 -49 -23 -85t-62 -51q42 -14 66 -50.5t24 -85.5v-66q0 -67 -41 -108t-108 -41h-169q-67 0 -108 41
t-41 108v77h83v-73q0 -37 21.5 -59t58.5 -22h141q37 0 59 22t22 59v81q0 37 -22 59t-59 22h-119z" />
    <glyph glyph-name="four" unicode="4" horiz-adv-x="582" 
d="M399 0v139h-379v72l377 489h85v-489h80v-72h-80v-139h-83zM110 211h289v375z" />
    <glyph glyph-name="five" unicode="5" horiz-adv-x="602" 
d="M70 264v436h442v-72h-359v-225q39 29 93 29h137q67 0 108 -41t41 -108v-134q0 -67 -41 -108t-108 -41h-164q-67 0 -108 41t-41 108v36h83v-32q0 -37 21.5 -59t58.5 -22h136q37 0 59 22t22 59v126q0 37 -22 59t-59 22h-136q-35 0 -56.5 -19.5t-23.5 -54.5v-22h-83z" />
    <glyph glyph-name="six" unicode="6" horiz-adv-x="602" 
d="M153 548v-175q39 29 93 29h137q67 0 108 -41t41 -108v-104q0 -67 -41 -108t-108 -41h-164q-67 0 -108 41t-41 108v402q0 67 41 108t108 41h164q67 0 108 -41t41 -108v-61h-82v58q0 37 -22 58.5t-59 21.5h-136q-37 0 -58.5 -21.5t-21.5 -58.5zM369 72q37 0 59 22t22 59v96
q0 37 -22 59t-59 22h-136q-35 0 -56.5 -19.5t-23.5 -54.5v-103q0 -37 21.5 -59t58.5 -22h136z" />
    <glyph glyph-name="seven" unicode="7" horiz-adv-x="542" 
d="M111 0l310 628h-386v72h472v-72l-310 -628h-86z" />
    <glyph glyph-name="eight" unicode="8" horiz-adv-x="622" 
d="M219 0q-67 0 -108 41t-41 108v66q0 50 24.5 86t66.5 50q-40 15 -63 51t-23 85v64q0 67 41 108t108 41h174q67 0 108 -41t41 -108v-64q0 -49 -23 -85t-62 -51q42 -14 66 -50t24 -86v-66q0 -67 -41 -108t-108 -41h-184zM389 315h-156q-37 0 -58.5 -22t-21.5 -59v-81
q0 -37 21.5 -59t58.5 -22h156q37 0 59 22t22 59v81q0 37 -22 59t-59 22zM384 628h-146q-37 0 -58.5 -21.5t-21.5 -58.5v-81q0 -37 21.5 -58.5t58.5 -21.5h146q37 0 59 21.5t22 58.5v81q0 37 -22 58.5t-59 21.5z" />
    <glyph glyph-name="nine" unicode="9" horiz-adv-x="602" 
d="M369 72q37 0 59 22t22 59v160q-38 -29 -94 -29h-137q-67 0 -108 41t-41 108v118q0 67 41 108t108 41h165q66 0 107 -41t41 -108v-402q0 -67 -41 -108t-107 -41h-165q-67 0 -108 41t-41 108v51h83v-47q0 -37 21.5 -59t58.5 -22h136zM233 628q-37 0 -58.5 -21.5
t-21.5 -58.5v-112q0 -37 21.5 -58.5t58.5 -21.5h136q37 0 59 21.5t22 58.5v112q0 37 -22 58.5t-59 21.5h-136z" />
    <glyph glyph-name="colon" unicode=":" horiz-adv-x="228" 
d="M70 0v123h88v-123h-88zM70 398v122h88v-122h-88z" />
    <glyph glyph-name="semicolon" unicode=";" horiz-adv-x="228" 
d="M70 398v122h88v-122h-88zM70 -115v238h88l-30 -238h-58z" />
    <glyph glyph-name="less" unicode="&#x3c;" horiz-adv-x="512" 
d="M482 140l-452 177v68l452 177v-74l-368 -137l368 -136v-75z" />
    <glyph glyph-name="equal" unicode="=" horiz-adv-x="512" 
d="M30 509h452v-67h-452v67zM30 259h452v-67h-452v67z" />
    <glyph glyph-name="greater" unicode="&#x3e;" horiz-adv-x="512" 
d="M30 562l452 -177v-68l-452 -177v75l368 136l-368 137v74z" />
    <glyph glyph-name="question" unicode="?" horiz-adv-x="627" 
d="M258 195v48q0 64 39 102.5t102 38.5h8q33 0 52.5 19.5t19.5 53.5v104q0 33 -19.5 52.5t-52.5 19.5h-187q-33 0 -52.5 -19.5t-19.5 -52.5v-71h-78v69q0 64 39 102.5t102 38.5h205q63 0 102 -38.5t39 -102.5v-101q0 -63 -39 -102t-102 -39h-8q-33 0 -52.5 -19.5
t-19.5 -52.5v-50h-78zM336 113v-113h-78v113h78z" />
    <glyph glyph-name="at" unicode="@" horiz-adv-x="1039" 
d="M767 0q-66 0 -100.5 36t-32.5 95l-106 -90q-47 -41 -115 -41q-67 0 -100 41t-22 107l40 223q11 67 59 108t116 41h75q84 0 108 -64l11 64h78l-67 -379q-7 -40 10.5 -63.5t54.5 -23.5q41 0 73 32.5t49.5 81t26.5 96.5t9 88q0 143 -88.5 226t-244.5 83q-136 0 -249 -64
t-180 -182t-67 -267q0 -143 89 -226t245 -83q124 0 229 54l19 -47q-117 -56 -248 -56q-182 0 -285.5 96t-103.5 262q0 163 74.5 292.5t199.5 199.5t277 70q181 0 284.5 -96t103.5 -262q0 -87 -23.5 -165t-75.5 -132.5t-123 -54.5zM435 67q37 0 63 23l148 125l29 161
q5 35 -13.5 56t-53.5 21h-105q-37 0 -62.5 -21.5t-32.5 -58.5l-39 -225q-7 -37 11 -59t55 -22z" />
    <glyph glyph-name="A" unicode="A" horiz-adv-x="618" 
d="M360 700l258 -700h-87l-66 180h-314l-66 -180h-85l259 700h101zM308 612l-135 -360h270z" />
    <glyph glyph-name="B" unicode="B" horiz-adv-x="622" 
d="M577 551v-64q0 -49 -23 -85t-63 -51q42 -14 66.5 -50.5t24.5 -86.5v-65q0 -67 -41 -108t-108 -41h-363v700h358q67 0 108 -41t41 -108zM499 153v81q0 37 -21.5 59t-58.5 22h-266v-243h266q37 0 58.5 22t21.5 59zM494 467v81q0 37 -21.5 58.5t-58.5 21.5h-261v-241h261
q37 0 58.5 21.5t21.5 58.5z" />
    <glyph glyph-name="C" unicode="C" 
d="M592 475h-83v73q0 37 -21.5 58.5t-58.5 21.5h-196q-37 0 -58.5 -21.5t-21.5 -58.5v-395q0 -37 21.5 -59t58.5 -22h196q37 0 58.5 22t21.5 59v72h83v-76q0 -67 -41 -108t-108 -41h-224q-67 0 -108 41t-41 108v402q0 67 41 108t108 41h224q67 0 108 -41t41 -108v-76z" />
    <glyph glyph-name="D" unicode="D" 
d="M509 153v395q0 37 -21.5 58.5t-58.5 21.5h-276v-556h276q37 0 58.5 22t21.5 59zM592 149q0 -67 -41 -108t-108 -41h-373v700h373q67 0 108 -41t41 -108v-402z" />
    <glyph glyph-name="E" unicode="E" horiz-adv-x="562" 
d="M70 0v700h452v-72h-369v-241h319v-72h-319v-243h369v-72h-452z" />
    <glyph glyph-name="F" unicode="F" horiz-adv-x="502" 
d="M70 0v700h432v-72h-349v-261h299v-72h-299v-295h-83z" />
    <glyph glyph-name="G" unicode="G" 
d="M592 356v-356h-62l-9 41q-41 -41 -108 -41h-194q-67 0 -108 41t-41 108v402q0 67 41 108t108 41h224q67 0 108 -41t41 -108v-66h-83v63q0 37 -21.5 58.5t-58.5 21.5h-196q-37 0 -58.5 -21.5t-21.5 -58.5v-395q0 -37 21.5 -59t58.5 -22h196q37 0 58.5 22t21.5 59v131h-220
v72h303z" />
    <glyph glyph-name="H" unicode="H" 
d="M509 0v315h-356v-315h-83v700h83v-313h356v313h83v-700h-83z" />
    <glyph glyph-name="I" unicode="I" horiz-adv-x="223" 
d="M70 0v700h83v-700h-83z" />
    <glyph glyph-name="J" unicode="J" horiz-adv-x="597" 
d="M444 700h83v-559q0 -63 -39 -102t-102 -39h-210q-63 0 -102 39t-39 102v84h83v-80q0 -34 19.5 -53.5t52.5 -19.5h182q33 0 52.5 19.5t19.5 53.5v555z" />
    <glyph glyph-name="K" unicode="K" horiz-adv-x="584" 
d="M470 0l-317 342v-342h-83v700h83v-341l316 341h103l-319 -344l330 -356h-113z" />
    <glyph glyph-name="L" unicode="L" horiz-adv-x="542" 
d="M70 0v700h83v-628h369v-72h-452z" />
    <glyph glyph-name="M" unicode="M" horiz-adv-x="742" 
d="M590 0v537l-219 -409l-218 409v-537h-83v700h80l221 -414l221 414h80v-700h-82z" />
    <glyph glyph-name="N" unicode="N" 
d="M514 0l-361 549v-549h-83v700h78l361 -548v548h83v-700h-78z" />
    <glyph glyph-name="O" unicode="O" 
d="M509 153v395q0 37 -21.5 58.5t-58.5 21.5h-196q-37 0 -58.5 -21.5t-21.5 -58.5v-395q0 -37 21.5 -59t58.5 -22h196q37 0 58.5 22t21.5 59zM592 149q0 -67 -41 -108t-108 -41h-224q-67 0 -108 41t-41 108v402q0 67 41 108t108 41h224q67 0 108 -41t41 -108v-402z" />
    <glyph glyph-name="P" unicode="P" horiz-adv-x="597" 
d="M479 417v131q0 37 -21.5 58.5t-58.5 21.5h-246v-291h246q37 0 58.5 21.5t21.5 58.5zM562 414q0 -67 -41 -108t-108 -41h-260v-265h-83v700h343q67 0 108 -41t41 -108v-137z" />
    <glyph glyph-name="Q" unicode="Q" 
d="M290 -140v140h-71q-67 0 -108 41t-41 108v402q0 67 41 108t108 41h224q67 0 108 -41t41 -108v-402q0 -67 -41 -108t-108 -41h-70v-140h-83zM509 153v395q0 37 -21.5 58.5t-58.5 21.5h-196q-37 0 -58.5 -21.5t-21.5 -58.5v-395q0 -37 21.5 -59t58.5 -22h196q37 0 58.5 22
t21.5 59z" />
    <glyph glyph-name="R" unicode="R" horiz-adv-x="622" 
d="M572 414q0 -60 -33 -99.5t-89 -47.5l122 -267h-91l-117 265h-211v-265h-83v700h353q67 0 108 -41t41 -108v-137zM489 417v131q0 37 -21.5 58.5t-58.5 21.5h-256v-291h256q37 0 58.5 21.5t21.5 58.5z" />
    <glyph glyph-name="S" unicode="S" horiz-adv-x="652" 
d="M433 387q67 0 108 -41t41 -108v-89q0 -67 -41 -108t-108 -41h-214q-67 0 -108 41t-41 108v61h83v-57q0 -37 21.5 -59t58.5 -22h186q37 0 58.5 22t21.5 59v81q0 37 -21.5 59t-58.5 22h-200q-67 0 -108 41t-41 108v87q0 67 41 108t108 41h214q67 0 108 -41t41 -108v-61h-83
v58q0 37 -21.5 58.5t-58.5 21.5h-186q-37 0 -58.5 -21.5t-21.5 -58.5v-81q0 -37 21.5 -58.5t58.5 -21.5h200z" />
    <glyph glyph-name="T" unicode="T" horiz-adv-x="565" 
d="M0 628v72h565v-72h-241v-628h-83v628h-241z" />
    <glyph glyph-name="U" unicode="U" 
d="M509 700h83v-551q0 -67 -41 -108t-108 -41h-224q-67 0 -108 41t-41 108v551h83v-547q0 -37 21.5 -59t58.5 -22h196q37 0 58.5 22t21.5 59v547z" />
    <glyph glyph-name="V" unicode="V" horiz-adv-x="613" 
d="M259 0l-259 700h87l221 -598l221 598h84l-258 -700h-96z" />
    <glyph glyph-name="W" unicode="W" horiz-adv-x="860" 
d="M186 0l-189 700h85l154 -586l155 586h80l155 -586l154 586h82l-188 -700h-94l-150 550l-150 -550h-94z" />
    <glyph glyph-name="X" unicode="X" horiz-adv-x="617" 
d="M491 0l-185 282l-185 -282h-93l232 348l-232 352h98l184 -282l186 282h93l-233 -348l233 -352h-98z" />
    <glyph glyph-name="Y" unicode="Y" horiz-adv-x="612" 
d="M347 268v-268h-82v268l-260 432h98l204 -349l206 349h94z" />
    <glyph glyph-name="Z" unicode="Z" horiz-adv-x="607" 
d="M50 72l409 556h-409v72h507v-72l-409 -556h409v-72h-507v72z" />
    <glyph glyph-name="bracketleft" unicode="[" horiz-adv-x="297" 
d="M277 835v-72h-124v-826h124v-72h-207v970h207z" />
    <glyph glyph-name="backslash" unicode="\" horiz-adv-x="311" 
d="M29 835l322 -970h-69l-322 970h69z" />
    <glyph glyph-name="bracketright" unicode="]" horiz-adv-x="297" 
d="M20 -135v72h125v826h-125v72h207v-970h-207z" />
    <glyph glyph-name="asciicircum" unicode="^" horiz-adv-x="509" 
d="M214 844h81l184 -470h-82l-144 388l-145 -388h-78z" />
    <glyph glyph-name="underscore" unicode="_" horiz-adv-x="510" 
d="M505 -67h-500v57h500v-57z" />
    <glyph glyph-name="grave" unicode="`" horiz-adv-x="222" 
d="M202 580h-62l-120 160h81z" />
    <glyph glyph-name="a" unicode="a" horiz-adv-x="536" 
d="M466 0h-60l-8 37q-37 -37 -100 -37h-112q-63 0 -102 39t-39 102v13q0 64 39 102.5t102 38.5h112q52 0 91 -29v115q0 33 -19.5 52.5t-53.5 19.5h-101q-33 0 -52.5 -19.5t-19.5 -52.5v-26h-78v24q0 64 39 102.5t102 38.5h120q63 0 101.5 -38.5t38.5 -102.5v-379zM316 67
q32 0 51.5 17.5t21.5 48.5v34q-2 31 -21.5 48.5t-51.5 17.5h-121q-33 0 -52.5 -19.5t-19.5 -52.5v-21q0 -34 19.5 -53.5t52.5 -19.5h121z" />
    <glyph glyph-name="b" unicode="b" horiz-adv-x="551" 
d="M70 0v740h78v-253q39 33 98 33h96q68 0 108.5 -41t40.5 -108v-222q0 -67 -41 -108t-108 -41h-96q-69 0 -109 42l-7 -42h-60zM228 453q-35 0 -56.5 -19.5t-23.5 -53.5v-232q0 -37 21.5 -59t58.5 -22h105q37 0 59 22t22 59v225q0 37 -22 58.5t-59 21.5h-105z" />
    <glyph glyph-name="c" unicode="c" horiz-adv-x="531" 
d="M404 175h77v-26q0 -67 -41 -108t-108 -41h-123q-67 0 -108 41t-41 108v222q0 67 41 108t108 41h123q68 0 108.5 -41t40.5 -108v-26h-77v28q0 37 -22 58.5t-59 21.5h-105q-37 0 -58.5 -21.5t-21.5 -58.5v-225q0 -37 21.5 -59t58.5 -22h105q37 0 59 22t22 59v27z" />
    <glyph glyph-name="d" unicode="d" horiz-adv-x="551" 
d="M481 740v-740h-60l-7 42q-40 -42 -109 -42h-96q-67 0 -108 41t-41 108v222q0 67 41 108t108 41h96q58 0 99 -33v253h77zM404 373q0 37 -22 58.5t-59 21.5h-105q-37 0 -58.5 -21.5t-21.5 -58.5v-225q0 -37 21.5 -59t58.5 -22h105q35 0 57 20t24 54v232z" />
    <glyph glyph-name="e" unicode="e" horiz-adv-x="541" 
d="M404 165h77v-16q0 -67 -41 -108t-108 -41h-123q-67 0 -108 41t-41 108v222q0 67 41 108t108 41h123q68 0 108.5 -41t40.5 -108v-136h-343v-87q0 -37 21.5 -59t58.5 -22h105q37 0 59 22t22 59v17zM138 373v-76h266v76q0 37 -22 58.5t-59 21.5h-105q-37 0 -58.5 -21.5
t-21.5 -58.5z" />
    <glyph glyph-name="f" unicode="f" horiz-adv-x="338" 
d="M198 601v-81h140v-67h-140v-453h-78v453h-120v67h120v79q0 64 39 102.5t102 38.5h77v-67h-68q-33 0 -52.5 -19.5t-19.5 -52.5z" />
    <glyph glyph-name="g" unicode="g" horiz-adv-x="551" 
d="M481 520v-571q0 -67 -41 -108t-107 -41h-124q-67 0 -108 41t-41 108v16h78v-18q0 -37 21.5 -58.5t58.5 -21.5h105q37 0 59 21.5t22 58.5v86q-41 -33 -99 -33h-96q-67 0 -108 41t-41 108v222q0 67 41 108t108 41h96q67 0 108 -41l8 41h60zM138 373v-225q0 -37 21.5 -59
t58.5 -22h105q37 0 59 22t22 59v225q0 37 -22 58.5t-59 21.5h-105q-37 0 -58.5 -21.5t-21.5 -58.5z" />
    <glyph glyph-name="h" unicode="h" horiz-adv-x="561" 
d="M491 0h-77v373q0 37 -22 58.5t-59 21.5h-105q-35 0 -56.5 -19.5t-23.5 -53.5v-380h-78v740h78v-253q39 33 98 33h96q68 0 108.5 -41t40.5 -108v-371z" />
    <glyph glyph-name="i" unicode="i" horiz-adv-x="218" 
d="M70 0v520h78v-520h-78zM70 595v113h78v-113h-78z" />
    <glyph glyph-name="j" unicode="j" horiz-adv-x="218" 
d="M70 -200v720h78v-720h-78zM70 595v113h78v-113h-78z" />
    <glyph glyph-name="k" unicode="k" horiz-adv-x="484" 
d="M394 0l-246 252v-252h-78v740h78v-472l242 252h98l-244 -254l261 -266h-111z" />
    <glyph glyph-name="l" unicode="l" horiz-adv-x="218" 
d="M70 0v740h78v-740h-78z" />
    <glyph glyph-name="m" unicode="m" horiz-adv-x="811" 
d="M444 0h-77v373q0 37 -22 58.5t-59 21.5h-58q-37 0 -58.5 -21.5t-21.5 -58.5v-373h-78v520h60l7 -42q40 42 109 42h49q82 0 123 -59q40 59 122 59h52q67 0 108 -41t41 -108v-371h-78v373q0 37 -21.5 58.5t-58.5 21.5h-58q-37 0 -59 -21.5t-22 -58.5v-373z" />
    <glyph glyph-name="n" unicode="n" horiz-adv-x="561" 
d="M491 0h-77v373q0 37 -22 58.5t-59 21.5h-105q-37 0 -58.5 -21.5t-21.5 -58.5v-373h-78v520h60l7 -42q40 42 109 42h96q68 0 108.5 -41t40.5 -108v-371z" />
    <glyph glyph-name="o" unicode="o" horiz-adv-x="541" 
d="M404 148v225q0 37 -22 58.5t-59 21.5h-105q-37 0 -58.5 -21.5t-21.5 -58.5v-225q0 -37 21.5 -59t58.5 -22h105q37 0 59 22t22 59zM481 149q0 -67 -41 -108t-108 -41h-123q-67 0 -108 41t-41 108v222q0 67 41 108t108 41h123q68 0 108.5 -41t40.5 -108v-222z" />
    <glyph glyph-name="p" unicode="p" horiz-adv-x="551" 
d="M70 -200v720h60l7 -42q40 42 109 42h96q68 0 108.5 -41t40.5 -108v-222q0 -67 -41 -108t-108 -41h-96q-60 0 -98 32v-232h-78zM414 148v225q0 37 -22 58.5t-59 21.5h-105q-35 0 -56.5 -19.5t-23.5 -53.5v-239q2 -34 23.5 -54t56.5 -20h105q37 0 59 22t22 59z" />
    <glyph glyph-name="q" unicode="q" horiz-adv-x="551" 
d="M481 520v-720h-77v233q-41 -33 -99 -33h-96q-67 0 -108 41t-41 108v222q0 67 41 108t108 41h96q69 0 109 -42l7 42h60zM138 373v-225q0 -37 21.5 -59t58.5 -22h105q35 0 57 20t24 54v239q-2 34 -24 53.5t-57 19.5h-105q-37 0 -58.5 -21.5t-21.5 -58.5z" />
    <glyph glyph-name="r" unicode="r" horiz-adv-x="350" 
d="M350 520v-67h-122q-37 0 -58.5 -21.5t-21.5 -58.5v-373h-78v520h60l7 -42q40 42 109 42h104z" />
    <glyph glyph-name="s" unicode="s" horiz-adv-x="541" 
d="M341 294q63 0 101.5 -38.5t38.5 -102.5v-12q0 -63 -38.5 -102t-101.5 -39h-140q-63 0 -102 39t-39 102v22h78v-23q0 -34 19.5 -53.5t52.5 -19.5h121q34 0 53.5 20t19.5 53v19q0 34 -19.5 53.5t-53.5 19.5h-125q-63 0 -102 39t-39 102v6q0 64 39 102.5t102 38.5h129
q64 0 102.5 -38.5t38.5 -102.5v-21h-77v23q0 33 -19.5 52.5t-53.5 19.5h-111q-33 0 -52.5 -19.5t-19.5 -52.5v-14q0 -34 19.5 -53.5t52.5 -19.5h126z" />
    <glyph glyph-name="t" unicode="t" horiz-adv-x="338" 
d="M0 453v67h130v160l78 22v-182h130v-67h-130v-453h-78v453h-130z" />
    <glyph glyph-name="u" unicode="u" horiz-adv-x="561" 
d="M70 520h78v-372q0 -37 21.5 -59t58.5 -22h105q35 0 57 19.5t24 53.5v380h77v-520h-60l-7 42q-40 -42 -109 -42h-96q-67 0 -108 41t-41 108v371z" />
    <glyph glyph-name="v" unicode="v" horiz-adv-x="531" 
d="M312 0h-93l-199 520h83l165 -433l165 433h78z" />
    <glyph glyph-name="w" unicode="w" horiz-adv-x="788" 
d="M269 0h-87l-162 520h80l130 -425l128 425h77l128 -425l130 425h75l-162 -520h-87l-125 403z" />
    <glyph glyph-name="x" unicode="x" horiz-adv-x="516" 
d="M397 0l-141 201l-141 -201h-87l185 258l-185 262h92l140 -201l142 201h87l-186 -258l186 -262h-92z" />
    <glyph glyph-name="y" unicode="y" horiz-adv-x="531" 
d="M235 -200h-83l77 200h-10l-199 520h83l165 -434l165 434h78z" />
    <glyph glyph-name="z" unicode="z" horiz-adv-x="486" 
d="M40 67l310 386h-310v67h406v-67l-310 -386h310v-67h-406v67z" />
    <glyph glyph-name="braceleft" unicode="{" horiz-adv-x="337" 
d="M110 14v220q0 36 -21 58t-57 22h-32v72h32q36 0 57 22.5t21 58.5v219q0 67 41 108t107 41h59v-72h-44q-37 0 -59 -21.5t-22 -58.5v-197q0 -49 -22.5 -84.5t-62.5 -51.5q39 -15 62 -51t23 -84v-197q0 -37 22 -59t59 -22h44v-72h-59q-66 0 -107 41t-41 108z" />
    <glyph glyph-name="bar" unicode="|" horiz-adv-x="210" 
d="M70 -135v970h70v-970h-70z" />
    <glyph glyph-name="braceright" unicode="}" horiz-adv-x="337" 
d="M227 686v-219q0 -37 21 -59t57 -22h32v-72h-32q-36 0 -57 -22t-21 -58v-220q0 -67 -41 -108t-107 -41h-59v72h44q37 0 59 22t22 59v197q0 48 23 84t62 51q-40 16 -62.5 51.5t-22.5 84.5v197q0 37 -22 58.5t-59 21.5h-44v72h59q66 0 107 -41t41 -108z" />
    <glyph glyph-name="asciitilde" unicode="~" horiz-adv-x="512" 
d="M190 358q-16 11 -34.5 7.5t-28.5 -21.5l-35 -58l-47 23l37 64q21 38 58.5 49t75.5 -11l111 -64q18 -12 36 -8t29 22l28 47l48 -23l-30 -52q-22 -39 -60 -50t-77 11z" />
    <glyph glyph-name="nbspace" unicode="&#xa0;" horiz-adv-x="300" 
 />
    <glyph glyph-name="exclamdown" unicode="&#xa1;" horiz-adv-x="258" 
d="M90 -180v505h78v-505h-78zM90 408v112h78v-112h-78z" />
    <glyph glyph-name="cent" unicode="&#xa2;" horiz-adv-x="546" 
d="M235 80v100h-36q-67 0 -108 41.5t-41 107.5v222q0 68 41.5 108.5t107.5 40.5h36v100h77v-100h35q67 0 108 -41t41 -108v-26h-77v28q0 37 -22 58.5t-59 21.5h-130q-36 0 -58 -21.5t-22 -58.5v-225q0 -37 22 -59t58 -22h130q37 0 59 22t22 59v27h77v-26q0 -67 -40.5 -108
t-108.5 -41h-35v-100h-77z" />
    <glyph glyph-name="sterling" unicode="&#xa3;" horiz-adv-x="628" 
d="M30 316v62h108v173q0 67 41 108t108 41h136q67 0 108 -41t41 -108v-61h-83v58q0 37 -21.5 58.5t-58.5 21.5h-108q-37 0 -58.5 -21.5t-21.5 -58.5v-170h210v-62h-210v-244h357v-72h-548v72h108v244h-108z" />
    <glyph glyph-name="currency" unicode="&#xa4;" horiz-adv-x="637" 
d="M59 351q0 92 51 161l-96 97l47 47l96 -97q66 52 161 52q94 0 160 -52l101 101l48 -47l-101 -101q52 -68 52 -161q0 -95 -52 -161l97 -96l-47 -47l-97 96q-69 -51 -161 -51q-97 0 -161 52l-99 -99l-48 47l99 99q-50 67 -50 160zM136 351q0 -85 51 -138.5t131 -53.5
t131 53.5t51 138.5t-51 139t-131 54t-131 -54t-51 -139z" />
    <glyph glyph-name="yen" unicode="&#xa5;" horiz-adv-x="612" 
d="M76 330v62h116l-187 308h98l204 -349l206 349h94l-188 -308h117v-62h-151l-38 -62v-42h189v-62h-189v-164h-82v164h-189v62h189v42l-38 62h-151z" />
    <glyph glyph-name="brokenbar" unicode="&#xa6;" horiz-adv-x="210" 
d="M70 469v366h70v-366h-70zM70 -135v366h70v-366h-70z" />
    <glyph glyph-name="section" unicode="&#xa7;" horiz-adv-x="596" 
d="M526 247q0 -79 -57 -118q57 -38 57 -117v-71q0 -64 -38.5 -102.5t-101.5 -38.5h-170q-63 0 -102 38.5t-39 102.5v36h78v-38q0 -33 19.5 -52.5t52.5 -19.5h151q34 0 53.5 19.5t19.5 52.5v74q0 34 -19.5 53.5t-53.5 19.5h-165q-63 0 -102 38.5t-39 102.5v27q0 79 57 117
q-57 38 -57 118v70q0 64 39 102.5t102 38.5h169q64 0 102.5 -38.5t38.5 -102.5v-36h-77v38q0 33 -19.5 52.5t-53.5 19.5h-151q-33 0 -52.5 -19.5t-19.5 -52.5v-74q0 -33 19.5 -52.5t52.5 -19.5h166q63 0 101.5 -39t38.5 -102v-27zM376 348h-156q-33 0 -52.5 -20t-19.5 -53
v-49q0 -34 19.5 -53.5t52.5 -19.5h162q31 2 49 21.5t18 51.5v49q0 33 -19.5 53t-53.5 20z" />
    <glyph glyph-name="dieresis" unicode="&#xa8;" horiz-adv-x="323" 
d="M20 590v108h68v-108h-68zM225 590v108h68v-108h-68z" />
    <glyph glyph-name="copyright" unicode="&#xa9;" horiz-adv-x="880" 
d="M135 350q0 -141 83.5 -225.5t221.5 -84.5q139 0 222 84.5t83 225.5q0 142 -83 226.5t-222 84.5q-138 0 -221.5 -84.5t-83.5 -226.5zM80 350q0 164 98 262t262 98t262 -98t98 -262t-98 -262t-262 -98t-262 98t-98 262zM553 293h55v-37q0 -50 -30.5 -81t-80.5 -31h-114
q-50 0 -80.5 31t-30.5 81v189q0 50 30.5 80.5t80.5 30.5h114q50 0 80.5 -30.5t30.5 -80.5v-32h-55v29q0 30 -18 48t-47 18h-96q-29 0 -47 -18t-18 -48v-184q0 -30 18 -47.5t47 -17.5h96q29 0 47 17.5t18 47.5v35z" />
    <glyph glyph-name="ordfeminine" unicode="&#xaa;" horiz-adv-x="303" 
d="M278 388h-43l-5 22q-24 -22 -60 -22h-60q-38 0 -61.5 23.5t-23.5 61.5v8q0 38 23.5 61t61.5 23h60q31 0 54 -18v64q0 19 -11 30.5t-30 11.5h-51q-19 0 -30 -11.5t-11 -30.5v-10h-54v15q0 38 23.5 61t61.5 23h72q38 0 61 -23t23 -61v-228zM183 433q19 0 30 11.5t11 30.5
v11q-2 17 -12.5 27.5t-28.5 10.5h-63q-19 0 -30 -11.5t-11 -30.5v-7q0 -19 11 -30.5t30 -11.5h63z" />
    <glyph glyph-name="guillemotleft" unicode="&#xab;" horiz-adv-x="436" 
d="M227 66l-207 160v68l207 160v-79l-140 -115l140 -113v-81zM406 66l-207 160v68l207 160v-79l-141 -115l141 -113v-81z" />
    <glyph glyph-name="logicalnot" unicode="&#xac;" horiz-adv-x="512" 
d="M30 384h452v-263h-70v196h-382v67z" />
    <glyph glyph-name="registered" unicode="&#xae;" horiz-adv-x="366" 
d="M30 547q0 70 41.5 111.5t111.5 41.5t111.5 -41.5t41.5 -111.5t-41.5 -111.5t-111.5 -41.5t-111.5 41.5t-41.5 111.5zM56 547q0 -59 34.5 -94t92.5 -35t92.5 35t34.5 94t-34.5 94.5t-92.5 35.5t-92.5 -35.5t-34.5 -94.5zM250 561q0 -33 -30 -38l30 -63h-32l-29 63h-41v-63
h-29v175h94q17 0 27 -10t10 -27v-37zM220 567v25q0 17 -16 17h-56v-59h56q16 0 16 17z" />
    <glyph glyph-name="macron" unicode="&#xaf;" horiz-adv-x="332" 
d="M20 619v57h292v-57h-292z" />
    <glyph glyph-name="degree" unicode="&#xb0;" horiz-adv-x="323" 
d="M25 574q0 60 38 98t99 38q60 0 98 -38t38 -98q0 -61 -38 -99t-98 -38q-61 0 -99 38t-38 99zM77 574q0 -38 23.5 -61.5t61.5 -23.5t61 23.5t23 61.5t-23.5 61.5t-60.5 23.5q-38 0 -61.5 -23.5t-23.5 -61.5z" />
    <glyph glyph-name="plusminus" unicode="&#xb1;" horiz-adv-x="512" 
d="M220 414v198h71v-198h191v-67h-191v-196h-71v196h-190v67h190zM30 67h452v-67h-452v67z" />
    <glyph glyph-name="uni00B2" unicode="&#xb2;" horiz-adv-x="346" 
d="M104 614v-36h-54v48q0 34 20.5 54t54.5 20h97q33 0 53.5 -20t20.5 -54v-28q0 -35 -25 -58l-148 -142h173v-48h-246v48l181 174q12 12 12 28v14q0 18 -10.5 28t-27.5 10h-63q-17 0 -27.5 -10t-10.5 -28z" />
    <glyph glyph-name="uni00B3" unicode="&#xb3;" horiz-adv-x="351" 
d="M145 500v49h62q18 0 28 10.5t10 27.5v27q0 18 -10.5 28t-27.5 10h-65q-17 0 -27.5 -10t-10.5 -28v-24h-54v36q0 34 20.5 54t54.5 20h99q34 0 54 -20t20 -54v-35q0 -48 -37 -66q40 -18 40 -67v-34q0 -33 -20.5 -53.5t-53.5 -20.5h-102q-34 0 -54.5 20.5t-20.5 53.5v36h54
v-24q0 -17 10.5 -27.5t27.5 -10.5h68q17 0 27 10.5t10 27.5v26q0 38 -37 38h-65z" />
    <glyph glyph-name="acute" unicode="&#xb4;" horiz-adv-x="222" 
d="M83 580h-63l101 160h82z" />
    <glyph glyph-name="mu" unicode="&#xb5;" horiz-adv-x="561" 
d="M70 520h78v-372q0 -37 21.5 -59t58.5 -22h105q35 0 57 19.5t24 53.5v380h77v-520h-60l-7 42q-40 -42 -109 -42h-96q-41 0 -71 15v-215h-78v720z" />
    <glyph glyph-name="paragraph" unicode="&#xb6;" horiz-adv-x="635" 
d="M565 700v-700h-82v628h-70v-628h-83v305h-146q-67 0 -108 41t-41 108v97q0 67 41 108t108 41h381zM118 548v-91q0 -37 21.5 -58.5t58.5 -21.5h132v251h-132q-37 0 -58.5 -21.5t-21.5 -58.5z" />
    <glyph glyph-name="periodcentered" unicode="&#xb7;" horiz-adv-x="228" 
d="M70 289v123h88v-123h-88z" />
    <glyph glyph-name="cedilla" unicode="&#xb8;" horiz-adv-x="165" 
d="M92 -200h-72l55 80l-55 80h72l53 -80z" />
    <glyph glyph-name="uni00B9" unicode="&#xb9;" horiz-adv-x="232" 
d="M182 700v-350h-54v296l-78 -56v55l78 55h54z" />
    <glyph glyph-name="ordmasculine" unicode="&#xba;" horiz-adv-x="303" 
d="M224 482v124q0 22 -12.5 34.5t-33.5 12.5h-53q-21 0 -33.5 -12.5t-12.5 -34.5v-124q0 -22 12.5 -34.5t33.5 -12.5h53q21 0 33.5 12.5t12.5 34.5zM278 478q0 -40 -25 -65t-65 -25h-74q-40 0 -64.5 25t-24.5 65v133q0 40 24.5 64.5t64.5 24.5h74q40 0 65 -24.5t25 -64.5
v-133z" />
    <glyph glyph-name="guillemotright" unicode="&#xbb;" horiz-adv-x="436" 
d="M209 454l207 -160v-68l-207 -160v80l140 114l-140 114v80zM30 454l207 -160v-68l-207 -160v80l141 114l-141 114v80z" />
    <glyph glyph-name="onequarter" unicode="&#xbc;" horiz-adv-x="695" 
d="M177 700v-350h-54v296l-78 -56v55l78 55h54zM556 0v69h-191v49l190 232h55v-232h40v-49h-40v-69h-54zM423 118h133v159zM57 0l482 700h69l-482 -700h-69z" />
    <glyph glyph-name="onehalf" unicode="&#xbd;" horiz-adv-x="704" 
d="M177 700v-350h-54v296l-78 -56v55l78 55h54zM57 0l482 700h69l-482 -700h-69zM467 264v-36h-54v48q0 34 20.5 54t54.5 20h97q33 0 53.5 -20t20.5 -54v-28q0 -35 -25 -58l-148 -142h173v-48h-246v48l181 174q12 12 12 28v14q0 18 -10.5 28t-27.5 10h-63q-17 0 -27.5 -10
t-10.5 -28z" />
    <glyph glyph-name="threequarters" unicode="&#xbe;" horiz-adv-x="739" 
d="M600 0v69h-191v49l190 232h55v-232h40v-49h-40v-69h-54zM467 118h133v159zM101 0l482 700h69l-482 -700h-69zM140 500v49h62q18 0 28 10.5t10 27.5v27q0 18 -10.5 28t-27.5 10h-65q-17 0 -27.5 -10t-10.5 -28v-24h-54v36q0 34 20.5 54t54.5 20h99q34 0 54 -20t20 -54v-35
q0 -48 -37 -66q40 -18 40 -67v-34q0 -33 -20.5 -53.5t-53.5 -20.5h-102q-34 0 -54.5 20.5t-20.5 53.5v36h54v-24q0 -17 10.5 -27.5t27.5 -10.5h68q17 0 27 10.5t10 27.5v26q0 38 -37 38h-65z" />
    <glyph glyph-name="questiondown" unicode="&#xbf;" horiz-adv-x="627" 
d="M291 325h78v-48q0 -63 -39 -102t-102 -39h-8q-33 0 -52.5 -19.5t-19.5 -52.5v-105q0 -33 19.5 -52.5t52.5 -19.5h187q33 0 52.5 19.5t19.5 52.5v71h78v-69q0 -64 -39 -102.5t-102 -38.5h-205q-63 0 -102 38.5t-39 102.5v101q0 64 39 102.5t102 38.5h8q33 0 52.5 19.5
t19.5 53.5v49zM291 408v112h78v-112h-78z" />
    <glyph glyph-name="Agrave" unicode="&#xc0;" horiz-adv-x="618" 
d="M360 700l258 -700h-87l-66 180h-314l-66 -180h-85l259 700h101zM308 612l-135 -360h270zM368 740h-67l-110 145h86z" />
    <glyph glyph-name="Aacute" unicode="&#xc1;" horiz-adv-x="618" 
d="M360 700l258 -700h-87l-66 180h-314l-66 -180h-85l259 700h101zM308 612l-135 -360h270zM318 740h-68l92 145h86z" />
    <glyph glyph-name="Acircumflex" unicode="&#xc2;" horiz-adv-x="618" 
d="M360 700l258 -700h-87l-66 180h-314l-66 -180h-85l259 700h101zM308 612l-135 -360h270zM352 885l113 -145h-73l-84 104l-84 -104h-71l113 145h86z" />
    <glyph glyph-name="Atilde" unicode="&#xc3;" horiz-adv-x="618" 
d="M360 700l258 -700h-87l-66 180h-314l-66 -180h-85l259 700h101zM308 612l-135 -360h270zM243 816q-17 11 -35 7.5t-28 -21.5l-35 -58l-48 23l37 64q22 38 59.5 49t75.5 -11l111 -64q18 -12 35.5 -8t29.5 22l28 47l47 -23l-30 -52q-22 -39 -59.5 -50t-76.5 11z" />
    <glyph glyph-name="Adieresis" unicode="&#xc4;" horiz-adv-x="618" 
d="M360 700l258 -700h-87l-66 180h-314l-66 -180h-85l259 700h101zM308 612l-135 -360h270zM153 743v107h68v-107h-68zM398 743v107h68v-107h-68z" />
    <glyph glyph-name="Aring" unicode="&#xc5;" horiz-adv-x="618" 
d="M360 700l258 -700h-87l-66 180h-314l-66 -180h-85l259 700h101zM308 612l-135 -360h270zM208 814q0 43 28 69.5t73 26.5t73.5 -26.5t28.5 -69.5t-28.5 -69.5t-73.5 -26.5t-73 26.5t-28 69.5zM255 814q0 -27 14.5 -42.5t39.5 -15.5t39.5 15.5t14.5 42.5t-14.5 42.5
t-39.5 15.5t-39.5 -15.5t-14.5 -42.5z" />
    <glyph glyph-name="AE" unicode="&#xc6;" horiz-adv-x="1028" 
d="M0 0l480 700h498v-72h-369v-241h319v-72h-319v-243h369v-72h-452v180h-308l-125 -180h-93zM257 252h269v382z" />
    <glyph glyph-name="Ccedilla" unicode="&#xc7;" 
d="M592 475h-83v73q0 37 -21.5 58.5t-58.5 21.5h-196q-37 0 -58.5 -21.5t-21.5 -58.5v-395q0 -37 21.5 -59t58.5 -22h196q37 0 58.5 22t21.5 59v72h83v-76q0 -67 -41 -108t-108 -41h-224q-67 0 -108 41t-41 108v402q0 67 41 108t108 41h224q67 0 108 -41t41 -108v-76z
M350 -200h-72l55 80l-55 80h72l53 -80z" />
    <glyph glyph-name="Egrave" unicode="&#xc8;" horiz-adv-x="562" 
d="M339 740h-67l-110 145h86zM70 0v700h452v-72h-369v-241h319v-72h-319v-243h369v-72h-452z" />
    <glyph glyph-name="Eacute" unicode="&#xc9;" horiz-adv-x="562" 
d="M290 740h-68l92 145h86zM70 0v700h452v-72h-369v-241h319v-72h-319v-243h369v-72h-452z" />
    <glyph glyph-name="Ecircumflex" unicode="&#xca;" horiz-adv-x="562" 
d="M70 0v700h452v-72h-369v-241h319v-72h-319v-243h369v-72h-452zM324 885l113 -145h-73l-84 104l-84 -104h-71l113 145h86z" />
    <glyph glyph-name="Edieresis" unicode="&#xcb;" horiz-adv-x="562" 
d="M124 743v107h68v-107h-68zM369 743v107h68v-107h-68zM70 0v700h452v-72h-369v-241h319v-72h-319v-243h369v-72h-452z" />
    <glyph glyph-name="Igrave" unicode="&#xcc;" horiz-adv-x="223" 
d="M70 0v700h83v-700h-83zM150 740h-67l-110 145h86z" />
    <glyph glyph-name="Iacute" unicode="&#xcd;" horiz-adv-x="223" 
d="M70 0v700h83v-700h-83zM140 740h-68l92 145h86z" />
    <glyph glyph-name="Icircumflex" unicode="&#xce;" horiz-adv-x="223" 
d="M70 0v700h83v-700h-83zM155 885l113 -145h-73l-84 104l-84 -104h-71l113 145h86z" />
    <glyph glyph-name="Idieresis" unicode="&#xcf;" horiz-adv-x="223" 
d="M70 0v700h83v-700h-83zM-45 743v107h68v-107h-68zM200 743v107h68v-107h-68z" />
    <glyph glyph-name="Eth" unicode="&#xd0;" 
d="M0 322v57h70v321h373q67 0 108 -41t41 -108v-402q0 -67 -41 -108t-108 -41h-373v322h-70zM509 153v395q0 37 -21.5 58.5t-58.5 21.5h-276v-249h179v-57h-179v-250h276q37 0 58.5 22t21.5 59z" />
    <glyph glyph-name="Ntilde" unicode="&#xd1;" 
d="M265 816q-17 11 -35 7.5t-28 -21.5l-35 -58l-48 23l37 64q22 38 59.5 49t75.5 -11l111 -64q18 -12 35.5 -8t29.5 22l28 47l47 -23l-30 -52q-22 -39 -59.5 -50t-76.5 11zM514 0l-361 549v-549h-83v700h78l361 -548v548h83v-700h-78z" />
    <glyph glyph-name="Ograve" unicode="&#xd2;" 
d="M389 740h-67l-110 145h86zM509 153v395q0 37 -21.5 58.5t-58.5 21.5h-196q-37 0 -58.5 -21.5t-21.5 -58.5v-395q0 -37 21.5 -59t58.5 -22h196q37 0 58.5 22t21.5 59zM592 149q0 -67 -41 -108t-108 -41h-224q-67 0 -108 41t-41 108v402q0 67 41 108t108 41h224
q67 0 108 -41t41 -108v-402z" />
    <glyph glyph-name="Oacute" unicode="&#xd3;" 
d="M340 740h-68l92 145h86zM509 153v395q0 37 -21.5 58.5t-58.5 21.5h-196q-37 0 -58.5 -21.5t-21.5 -58.5v-395q0 -37 21.5 -59t58.5 -22h196q37 0 58.5 22t21.5 59zM592 149q0 -67 -41 -108t-108 -41h-224q-67 0 -108 41t-41 108v402q0 67 41 108t108 41h224q67 0 108 -41
t41 -108v-402z" />
    <glyph glyph-name="Ocircumflex" unicode="&#xd4;" 
d="M509 153v395q0 37 -21.5 58.5t-58.5 21.5h-196q-37 0 -58.5 -21.5t-21.5 -58.5v-395q0 -37 21.5 -59t58.5 -22h196q37 0 58.5 22t21.5 59zM592 149q0 -67 -41 -108t-108 -41h-224q-67 0 -108 41t-41 108v402q0 67 41 108t108 41h224q67 0 108 -41t41 -108v-402zM374 885
l113 -145h-73l-84 104l-84 -104h-71l113 145h86z" />
    <glyph glyph-name="Otilde" unicode="&#xd5;" 
d="M265 816q-17 11 -35 7.5t-28 -21.5l-35 -58l-48 23l37 64q22 38 59.5 49t75.5 -11l111 -64q18 -12 35.5 -8t29.5 22l28 47l47 -23l-30 -52q-22 -39 -59.5 -50t-76.5 11zM509 153v395q0 37 -21.5 58.5t-58.5 21.5h-196q-37 0 -58.5 -21.5t-21.5 -58.5v-395q0 -37 21.5 -59
t58.5 -22h196q37 0 58.5 22t21.5 59zM592 149q0 -67 -41 -108t-108 -41h-224q-67 0 -108 41t-41 108v402q0 67 41 108t108 41h224q67 0 108 -41t41 -108v-402z" />
    <glyph glyph-name="Odieresis" unicode="&#xd6;" 
d="M174 743v107h68v-107h-68zM419 743v107h68v-107h-68zM509 153v395q0 37 -21.5 58.5t-58.5 21.5h-196q-37 0 -58.5 -21.5t-21.5 -58.5v-395q0 -37 21.5 -59t58.5 -22h196q37 0 58.5 22t21.5 59zM592 149q0 -67 -41 -108t-108 -41h-224q-67 0 -108 41t-41 108v402
q0 67 41 108t108 41h224q67 0 108 -41t41 -108v-402z" />
    <glyph glyph-name="multiply" unicode="&#xd7;" horiz-adv-x="512" 
d="M255 399l161 161l48 -47l-162 -162l158 -157l-47 -47l-158 157l-160 -159l-48 47l160 160l-156 157l47 47z" />
    <glyph glyph-name="Oslash" unicode="&#xd8;" 
d="M59 -59l56 96q-45 40 -45 112v402q0 67 41 108t108 41h224q22 0 50 -7l56 97l53 -31l-56 -96q46 -41 46 -112v-402q0 -67 -41 -108t-108 -41h-224q-30 0 -51 7l-56 -97zM509 153v395q0 19 -8 37l-294 -510q12 -3 26 -3h196q37 0 58.5 22t21.5 59zM153 153q0 -22 7 -37
l294 509q-12 3 -25 3h-196q-37 0 -58.5 -21.5t-21.5 -58.5v-395z" />
    <glyph glyph-name="Ugrave" unicode="&#xd9;" 
d="M389 740h-67l-110 145h86zM509 700h83v-551q0 -67 -41 -108t-108 -41h-224q-67 0 -108 41t-41 108v551h83v-547q0 -37 21.5 -59t58.5 -22h196q37 0 58.5 22t21.5 59v547z" />
    <glyph glyph-name="Uacute" unicode="&#xda;" 
d="M340 740h-68l92 145h86zM509 700h83v-551q0 -67 -41 -108t-108 -41h-224q-67 0 -108 41t-41 108v551h83v-547q0 -37 21.5 -59t58.5 -22h196q37 0 58.5 22t21.5 59v547z" />
    <glyph glyph-name="Ucircumflex" unicode="&#xdb;" 
d="M509 700h83v-551q0 -67 -41 -108t-108 -41h-224q-67 0 -108 41t-41 108v551h83v-547q0 -37 21.5 -59t58.5 -22h196q37 0 58.5 22t21.5 59v547zM374 885l113 -145h-73l-84 104l-84 -104h-71l113 145h86z" />
    <glyph glyph-name="Udieresis" unicode="&#xdc;" 
d="M174 743v107h68v-107h-68zM419 743v107h68v-107h-68zM509 700h83v-551q0 -67 -41 -108t-108 -41h-224q-67 0 -108 41t-41 108v551h83v-547q0 -37 21.5 -59t58.5 -22h196q37 0 58.5 22t21.5 59v547z" />
    <glyph glyph-name="Yacute" unicode="&#xdd;" horiz-adv-x="612" 
d="M347 268v-268h-82v268l-260 432h98l204 -349l206 349h94zM315 740h-68l92 145h86z" />
    <glyph glyph-name="Thorn" unicode="&#xde;" horiz-adv-x="597" 
d="M479 285v130q0 37 -21.5 59t-58.5 22h-246v-292h246q37 0 58.5 22t21.5 59zM562 281q0 -67 -41 -108t-108 -41h-260v-132h-83v700h83v-132h260q67 0 108 -41t41 -108v-138z" />
    <glyph glyph-name="germandbls" unicode="&#xdf;" horiz-adv-x="576" 
d="M238 0v67h120q37 0 59 22t22 59v134q0 37 -22 58.5t-59 21.5h-90v67h85q37 0 59 22t22 59v83q0 37 -22 58.5t-59 21.5h-133q-33 0 -52.5 -19.5t-19.5 -52.5v-601h-78v599q0 64 39 102.5t102 38.5h151q67 0 108 -41t41 -108v-59q0 -49 -23 -85t-62 -51q42 -14 66 -50.5
t24 -85.5v-111q0 -67 -41 -108t-108 -41h-129z" />
    <glyph glyph-name="agrave" unicode="&#xe0;" horiz-adv-x="536" 
d="M466 0h-60l-8 37q-37 -37 -100 -37h-112q-63 0 -102 39t-39 102v13q0 64 39 102.5t102 38.5h112q52 0 91 -29v115q0 33 -19.5 52.5t-53.5 19.5h-101q-33 0 -52.5 -19.5t-19.5 -52.5v-26h-78v24q0 64 39 102.5t102 38.5h120q63 0 101.5 -38.5t38.5 -102.5v-379zM316 67
q32 0 51.5 17.5t21.5 48.5v34q-2 31 -21.5 48.5t-51.5 17.5h-121q-33 0 -52.5 -19.5t-19.5 -52.5v-21q0 -34 19.5 -53.5t52.5 -19.5h121zM319 580h-62l-120 160h81z" />
    <glyph glyph-name="aacute" unicode="&#xe1;" horiz-adv-x="536" 
d="M466 0h-60l-8 37q-37 -37 -100 -37h-112q-63 0 -102 39t-39 102v13q0 64 39 102.5t102 38.5h112q52 0 91 -29v115q0 33 -19.5 52.5t-53.5 19.5h-101q-33 0 -52.5 -19.5t-19.5 -52.5v-26h-78v24q0 64 39 102.5t102 38.5h120q63 0 101.5 -38.5t38.5 -102.5v-379zM316 67
q32 0 51.5 17.5t21.5 48.5v34q-2 31 -21.5 48.5t-51.5 17.5h-121q-33 0 -52.5 -19.5t-19.5 -52.5v-21q0 -34 19.5 -53.5t52.5 -19.5h121zM280 580h-63l101 160h82z" />
    <glyph glyph-name="acircumflex" unicode="&#xe2;" horiz-adv-x="536" 
d="M466 0h-60l-8 37q-37 -37 -100 -37h-112q-63 0 -102 39t-39 102v13q0 64 39 102.5t102 38.5h112q52 0 91 -29v115q0 33 -19.5 52.5t-53.5 19.5h-101q-33 0 -52.5 -19.5t-19.5 -52.5v-26h-78v24q0 64 39 102.5t102 38.5h120q63 0 101.5 -38.5t38.5 -102.5v-379zM316 67
q32 0 51.5 17.5t21.5 48.5v34q-2 31 -21.5 48.5t-51.5 17.5h-121q-33 0 -52.5 -19.5t-19.5 -52.5v-21q0 -34 19.5 -53.5t52.5 -19.5h121zM306 740l108 -160h-72l-75 111l-75 -111h-70l108 160h76z" />
    <glyph glyph-name="atilde" unicode="&#xe3;" horiz-adv-x="536" 
d="M466 0h-60l-8 37q-37 -37 -100 -37h-112q-63 0 -102 39t-39 102v13q0 64 39 102.5t102 38.5h112q52 0 91 -29v115q0 33 -19.5 52.5t-53.5 19.5h-101q-33 0 -52.5 -19.5t-19.5 -52.5v-26h-78v24q0 64 39 102.5t102 38.5h120q63 0 101.5 -38.5t38.5 -102.5v-379zM316 67
q32 0 51.5 17.5t21.5 48.5v34q-2 31 -21.5 48.5t-51.5 17.5h-121q-33 0 -52.5 -19.5t-19.5 -52.5v-21q0 -34 19.5 -53.5t52.5 -19.5h121zM215 671q-16 12 -34.5 8.5t-28.5 -20.5l-37 -57l-46 27l40 62q23 37 61 45.5t75 -14.5l79 -52q40 -26 66 13l30 46l45 -27l-32 -51
q-24 -38 -62.5 -46.5t-76.5 14.5z" />
    <glyph glyph-name="adieresis" unicode="&#xe4;" horiz-adv-x="536" 
d="M466 0h-60l-8 37q-37 -37 -100 -37h-112q-63 0 -102 39t-39 102v13q0 64 39 102.5t102 38.5h112q52 0 91 -29v115q0 33 -19.5 52.5t-53.5 19.5h-101q-33 0 -52.5 -19.5t-19.5 -52.5v-26h-78v24q0 64 39 102.5t102 38.5h120q63 0 101.5 -38.5t38.5 -102.5v-379zM316 67
q32 0 51.5 17.5t21.5 48.5v34q-2 31 -21.5 48.5t-51.5 17.5h-121q-33 0 -52.5 -19.5t-19.5 -52.5v-21q0 -34 19.5 -53.5t52.5 -19.5h121zM131 590v108h68v-108h-68zM336 590v108h68v-108h-68z" />
    <glyph glyph-name="aring" unicode="&#xe5;" horiz-adv-x="536" 
d="M466 0h-60l-8 37q-37 -37 -100 -37h-112q-63 0 -102 39t-39 102v13q0 64 39 102.5t102 38.5h112q52 0 91 -29v115q0 33 -19.5 52.5t-53.5 19.5h-101q-33 0 -52.5 -19.5t-19.5 -52.5v-26h-78v24q0 64 39 102.5t102 38.5h120q63 0 101.5 -38.5t38.5 -102.5v-379zM316 67
q32 0 51.5 17.5t21.5 48.5v34q-2 31 -21.5 48.5t-51.5 17.5h-121q-33 0 -52.5 -19.5t-19.5 -52.5v-21q0 -34 19.5 -53.5t52.5 -19.5h121zM166 654q0 43 28 69.5t73 26.5t73.5 -26.5t28.5 -69.5t-28.5 -69.5t-73.5 -26.5t-73 26.5t-28 69.5zM213 654q0 -27 14.5 -42.5
t39.5 -15.5t39.5 15.5t14.5 42.5t-14.5 42.5t-39.5 15.5t-39.5 -15.5t-14.5 -42.5z" />
    <glyph glyph-name="ae" unicode="&#xe6;" horiz-adv-x="870" 
d="M732 165h78v-16q0 -67 -41 -108t-108 -41h-108q-87 0 -127 64q-37 -64 -120 -64h-120q-63 0 -102 39t-39 102v13q0 64 39 102.5t102 38.5h112q52 0 91 -29v115q0 33 -19.5 52.5t-53.5 19.5h-101q-33 0 -52.5 -19.5t-19.5 -52.5v-26h-78v24q0 64 39 102.5t102 38.5h104
q80 0 119 -60q39 60 124 60h108q67 0 108 -41t41 -108v-136h-344v-87q0 -37 22 -59t59 -22h105q37 0 58.5 22t21.5 59v17zM316 67q34 0 53.5 19.5t19.5 53.5v21q0 33 -19.5 52.5t-53.5 19.5h-121q-33 0 -52.5 -19.5t-19.5 -52.5v-21q0 -34 19.5 -53.5t52.5 -19.5h121z
M466 373v-76h266v76q0 37 -21.5 58.5t-58.5 21.5h-105q-37 0 -59 -21.5t-22 -58.5z" />
    <glyph glyph-name="ccedilla" unicode="&#xe7;" horiz-adv-x="531" 
d="M404 175h77v-26q0 -67 -41 -108t-108 -41h-123q-67 0 -108 41t-41 108v222q0 67 41 108t108 41h123q68 0 108.5 -41t40.5 -108v-26h-77v28q0 37 -22 58.5t-59 21.5h-105q-37 0 -58.5 -21.5t-21.5 -58.5v-225q0 -37 21.5 -59t58.5 -22h105q37 0 59 22t22 59v27zM295 -200
h-72l55 80l-55 80h72l53 -80z" />
    <glyph glyph-name="egrave" unicode="&#xe8;" horiz-adv-x="541" 
d="M404 165h77v-16q0 -67 -41 -108t-108 -41h-123q-67 0 -108 41t-41 108v222q0 67 41 108t108 41h123q68 0 108.5 -41t40.5 -108v-136h-343v-87q0 -37 21.5 -59t58.5 -22h105q37 0 59 22t22 59v17zM138 373v-76h266v76q0 37 -22 58.5t-59 21.5h-105q-37 0 -58.5 -21.5
t-21.5 -58.5zM321 580h-62l-120 160h81z" />
    <glyph glyph-name="eacute" unicode="&#xe9;" horiz-adv-x="541" 
d="M282 580h-63l101 160h82zM404 165h77v-16q0 -67 -41 -108t-108 -41h-123q-67 0 -108 41t-41 108v222q0 67 41 108t108 41h123q68 0 108.5 -41t40.5 -108v-136h-343v-87q0 -37 21.5 -59t58.5 -22h105q37 0 59 22t22 59v17zM138 373v-76h266v76q0 37 -22 58.5t-59 21.5
h-105q-37 0 -58.5 -21.5t-21.5 -58.5z" />
    <glyph glyph-name="ecircumflex" unicode="&#xea;" horiz-adv-x="541" 
d="M308 740l108 -160h-72l-75 111l-75 -111h-70l108 160h76zM404 165h77v-16q0 -67 -41 -108t-108 -41h-123q-67 0 -108 41t-41 108v222q0 67 41 108t108 41h123q68 0 108.5 -41t40.5 -108v-136h-343v-87q0 -37 21.5 -59t58.5 -22h105q37 0 59 22t22 59v17zM138 373v-76h266
v76q0 37 -22 58.5t-59 21.5h-105q-37 0 -58.5 -21.5t-21.5 -58.5z" />
    <glyph glyph-name="edieresis" unicode="&#xeb;" horiz-adv-x="541" 
d="M134 590v108h68v-108h-68zM339 590v108h68v-108h-68zM404 165h77v-16q0 -67 -41 -108t-108 -41h-123q-67 0 -108 41t-41 108v222q0 67 41 108t108 41h123q68 0 108.5 -41t40.5 -108v-136h-343v-87q0 -37 21.5 -59t58.5 -22h105q37 0 59 22t22 59v17zM138 373v-76h266v76
q0 37 -22 58.5t-59 21.5h-105q-37 0 -58.5 -21.5t-21.5 -58.5z" />
    <glyph glyph-name="igrave" unicode="&#xec;" horiz-adv-x="218" 
d="M70 0v520h78v-520h-78zM150 580h-62l-120 160h81z" />
    <glyph glyph-name="iacute" unicode="&#xed;" horiz-adv-x="218" 
d="M131 580h-63l101 160h82zM70 0v520h78v-520h-78z" />
    <glyph glyph-name="icircumflex" unicode="&#xee;" horiz-adv-x="218" 
d="M148 740l108 -160h-72l-75 111l-75 -111h-70l108 160h76zM70 0v520h78v-520h-78z" />
    <glyph glyph-name="idieresis" unicode="&#xef;" horiz-adv-x="218" 
d="M-27 590v108h68v-108h-68zM178 590v108h68v-108h-68zM70 0v520h78v-520h-78z" />
    <glyph glyph-name="eth" unicode="&#xf0;" horiz-adv-x="551" 
d="M187 740h103l62 -66l98 57l24 -41l-88 -51l46 -48q49 -51 49 -115v-327q0 -67 -41 -108t-107 -41h-124q-67 0 -108 41t-41 108v152q0 67 41 108t108 41h96q58 0 99 -33v65q0 38 -24 61l-58 59l-101 -58l-23 41l90 52zM404 303q0 37 -22 58.5t-59 21.5h-105
q-37 0 -58.5 -21.5t-21.5 -58.5v-155q0 -37 21.5 -59t58.5 -22h105q37 0 59 22t22 59v155z" />
    <glyph glyph-name="ntilde" unicode="&#xf1;" horiz-adv-x="561" 
d="M491 0h-77v373q0 37 -22 58.5t-59 21.5h-105q-37 0 -58.5 -21.5t-21.5 -58.5v-373h-78v520h60l7 -42q40 42 109 42h96q68 0 108.5 -41t40.5 -108v-371zM228 671q-16 12 -34.5 8.5t-28.5 -20.5l-37 -57l-46 27l40 62q23 37 61 45.5t75 -14.5l79 -52q40 -26 66 13l30 46
l45 -27l-32 -51q-24 -38 -62.5 -46.5t-76.5 14.5z" />
    <glyph glyph-name="ograve" unicode="&#xf2;" horiz-adv-x="541" 
d="M404 148v225q0 37 -22 58.5t-59 21.5h-105q-37 0 -58.5 -21.5t-21.5 -58.5v-225q0 -37 21.5 -59t58.5 -22h105q37 0 59 22t22 59zM481 149q0 -67 -41 -108t-108 -41h-123q-67 0 -108 41t-41 108v222q0 67 41 108t108 41h123q68 0 108.5 -41t40.5 -108v-222zM321 580h-62
l-120 160h81z" />
    <glyph glyph-name="oacute" unicode="&#xf3;" horiz-adv-x="541" 
d="M282 580h-63l101 160h82zM404 148v225q0 37 -22 58.5t-59 21.5h-105q-37 0 -58.5 -21.5t-21.5 -58.5v-225q0 -37 21.5 -59t58.5 -22h105q37 0 59 22t22 59zM481 149q0 -67 -41 -108t-108 -41h-123q-67 0 -108 41t-41 108v222q0 67 41 108t108 41h123q68 0 108.5 -41
t40.5 -108v-222z" />
    <glyph glyph-name="ocircumflex" unicode="&#xf4;" horiz-adv-x="541" 
d="M308 740l108 -160h-72l-75 111l-75 -111h-70l108 160h76zM404 148v225q0 37 -22 58.5t-59 21.5h-105q-37 0 -58.5 -21.5t-21.5 -58.5v-225q0 -37 21.5 -59t58.5 -22h105q37 0 59 22t22 59zM481 149q0 -67 -41 -108t-108 -41h-123q-67 0 -108 41t-41 108v222q0 67 41 108
t108 41h123q68 0 108.5 -41t40.5 -108v-222z" />
    <glyph glyph-name="otilde" unicode="&#xf5;" horiz-adv-x="541" 
d="M404 148v225q0 37 -22 58.5t-59 21.5h-105q-37 0 -58.5 -21.5t-21.5 -58.5v-225q0 -37 21.5 -59t58.5 -22h105q37 0 59 22t22 59zM481 149q0 -67 -41 -108t-108 -41h-123q-67 0 -108 41t-41 108v222q0 67 41 108t108 41h123q68 0 108.5 -41t40.5 -108v-222zM218 671
q-16 12 -34.5 8.5t-28.5 -20.5l-37 -57l-46 27l40 62q23 37 61 45.5t75 -14.5l79 -52q40 -26 66 13l30 46l45 -27l-32 -51q-24 -38 -62.5 -46.5t-76.5 14.5z" />
    <glyph glyph-name="odieresis" unicode="&#xf6;" horiz-adv-x="541" 
d="M134 590v108h68v-108h-68zM339 590v108h68v-108h-68zM404 148v225q0 37 -22 58.5t-59 21.5h-105q-37 0 -58.5 -21.5t-21.5 -58.5v-225q0 -37 21.5 -59t58.5 -22h105q37 0 59 22t22 59zM481 149q0 -67 -41 -108t-108 -41h-123q-67 0 -108 41t-41 108v222q0 67 41 108
t108 41h123q68 0 108.5 -41t40.5 -108v-222z" />
    <glyph glyph-name="divide" unicode="&#xf7;" horiz-adv-x="512" 
d="M30 384h452v-67h-452v67zM213 66v123h87v-123h-87zM213 513v122h87v-122h-87z" />
    <glyph glyph-name="oslash" unicode="&#xf8;" horiz-adv-x="541" 
d="M481 149q0 -67 -41 -108t-108 -41h-123q-27 0 -53 8l-42 -73l-46 26l41 72q-49 41 -49 116v222q0 67 41 108t108 41h123q27 0 54 -8l42 73l46 -26l-42 -73q49 -41 49 -115v-222zM404 148v225q0 25 -12 45l-200 -348q12 -3 26 -3h105q37 0 59 22t22 59zM138 148
q0 -26 11 -46l201 347q-12 4 -27 4h-105q-37 0 -58.5 -21.5t-21.5 -58.5v-225z" />
    <glyph glyph-name="ugrave" unicode="&#xf9;" horiz-adv-x="561" 
d="M70 520h78v-372q0 -37 21.5 -59t58.5 -22h105q35 0 57 19.5t24 53.5v380h77v-520h-60l-7 42q-40 -42 -109 -42h-96q-67 0 -108 41t-41 108v371zM351 580h-62l-120 160h81z" />
    <glyph glyph-name="uacute" unicode="&#xfa;" horiz-adv-x="561" 
d="M272 580h-63l101 160h82zM70 520h78v-372q0 -37 21.5 -59t58.5 -22h105q35 0 57 19.5t24 53.5v380h77v-520h-60l-7 42q-40 -42 -109 -42h-96q-67 0 -108 41t-41 108v371z" />
    <glyph glyph-name="ucircumflex" unicode="&#xfb;" horiz-adv-x="561" 
d="M318 740l108 -160h-72l-75 111l-75 -111h-70l108 160h76zM70 520h78v-372q0 -37 21.5 -59t58.5 -22h105q35 0 57 19.5t24 53.5v380h77v-520h-60l-7 42q-40 -42 -109 -42h-96q-67 0 -108 41t-41 108v371z" />
    <glyph glyph-name="udieresis" unicode="&#xfc;" horiz-adv-x="561" 
d="M144 590v108h68v-108h-68zM349 590v108h68v-108h-68zM70 520h78v-372q0 -37 21.5 -59t58.5 -22h105q35 0 57 19.5t24 53.5v380h77v-520h-60l-7 42q-40 -42 -109 -42h-96q-67 0 -108 41t-41 108v371z" />
    <glyph glyph-name="yacute" unicode="&#xfd;" horiz-adv-x="531" 
d="M235 -200h-83l77 200h-10l-199 520h83l165 -434l165 434h78zM277 580h-63l101 160h82z" />
    <glyph glyph-name="thorn" unicode="&#xfe;" horiz-adv-x="551" 
d="M70 -200v940h78v-253q39 33 98 33h96q68 0 108.5 -41t40.5 -108v-222q0 -67 -41 -108t-108 -41h-96q-60 0 -98 32v-232h-78zM414 148v225q0 37 -22 58.5t-59 21.5h-105q-35 0 -56.5 -19.5t-23.5 -53.5v-232q0 -37 21.5 -59t58.5 -22h105q37 0 59 22t22 59z" />
    <glyph glyph-name="ydieresis" unicode="&#xff;" horiz-adv-x="531" 
d="M235 -200h-83l77 200h-10l-199 520h83l165 -434l165 434h78zM128 590v108h68v-108h-68zM333 590v108h68v-108h-68z" />
    <glyph glyph-name="Amacron" unicode="&#x100;" horiz-adv-x="618" 
d="M360 700l258 -700h-87l-66 180h-314l-66 -180h-85l259 700h101zM308 612l-135 -360h270zM143 774v57h332v-57h-332z" />
    <glyph glyph-name="amacron" unicode="&#x101;" horiz-adv-x="536" 
d="M466 0h-60l-8 37q-37 -37 -100 -37h-112q-63 0 -102 39t-39 102v13q0 64 39 102.5t102 38.5h112q52 0 91 -29v115q0 33 -19.5 52.5t-53.5 19.5h-101q-33 0 -52.5 -19.5t-19.5 -52.5v-26h-78v24q0 64 39 102.5t102 38.5h120q63 0 101.5 -38.5t38.5 -102.5v-379zM316 67
q32 0 51.5 17.5t21.5 48.5v34q-2 31 -21.5 48.5t-51.5 17.5h-121q-33 0 -52.5 -19.5t-19.5 -52.5v-21q0 -34 19.5 -53.5t52.5 -19.5h121zM121 619v57h292v-57h-292z" />
    <glyph glyph-name="Abreve" unicode="&#x102;" horiz-adv-x="618" 
d="M360 700l258 -700h-87l-66 180h-314l-66 -180h-85l259 700h101zM308 612l-135 -360h270zM168 885h59q0 -52 20 -74t63 -22q42 0 61.5 22t19.5 74h59q0 -79 -35 -113t-105 -34q-71 0 -106.5 34.5t-35.5 112.5z" />
    <glyph glyph-name="abreve" unicode="&#x103;" horiz-adv-x="536" 
d="M466 0h-60l-8 37q-37 -37 -100 -37h-112q-63 0 -102 39t-39 102v13q0 64 39 102.5t102 38.5h112q52 0 91 -29v115q0 33 -19.5 52.5t-53.5 19.5h-101q-33 0 -52.5 -19.5t-19.5 -52.5v-26h-78v24q0 64 39 102.5t102 38.5h120q63 0 101.5 -38.5t38.5 -102.5v-379zM316 67
q32 0 51.5 17.5t21.5 48.5v34q-2 31 -21.5 48.5t-51.5 17.5h-121q-33 0 -52.5 -19.5t-19.5 -52.5v-21q0 -34 19.5 -53.5t52.5 -19.5h121zM137 740h59q0 -55 16.5 -79.5t56.5 -24.5t56 24.5t16 79.5h58q0 -81 -31 -118t-99 -37t-100 37t-32 118z" />
    <glyph glyph-name="Aogonek" unicode="&#x104;" horiz-adv-x="618" 
d="M360 700l258 -700h-18l-36 -53q-14 -20 -14 -41q0 -20 12.5 -33t34.5 -13h52v-60h-73q-39 0 -66 26t-27 65q0 37 28 78l20 31l-66 180h-314l-66 -180h-85l259 700h101zM308 612l-135 -360h270z" />
    <glyph glyph-name="aogonek" unicode="&#x105;" horiz-adv-x="536" 
d="M466 379v-379h1l-36 -53q-14 -20 -14 -41q0 -20 12.5 -33t34.5 -13h52v-60h-73q-39 0 -66 26t-27 65q0 37 28 78l26 39l-6 29q-37 -37 -100 -37h-112q-63 0 -102 39t-39 102v13q0 64 39 102.5t102 38.5h112q52 0 91 -29v115q0 33 -19.5 52.5t-53.5 19.5h-101
q-33 0 -52.5 -19.5t-19.5 -52.5v-26h-78v24q0 64 39 102.5t102 38.5h120q63 0 101.5 -38.5t38.5 -102.5zM316 67q32 0 51.5 17.5t21.5 48.5v34q-2 31 -21.5 48.5t-51.5 17.5h-121q-33 0 -52.5 -19.5t-19.5 -52.5v-21q0 -34 19.5 -53.5t52.5 -19.5h121z" />
    <glyph glyph-name="Cacute" unicode="&#x106;" 
d="M592 475h-83v73q0 37 -21.5 58.5t-58.5 21.5h-196q-37 0 -58.5 -21.5t-21.5 -58.5v-395q0 -37 21.5 -59t58.5 -22h196q37 0 58.5 22t21.5 59v72h83v-76q0 -67 -41 -108t-108 -41h-224q-67 0 -108 41t-41 108v402q0 67 41 108t108 41h224q67 0 108 -41t41 -108v-76z
M340 740h-68l92 145h86z" />
    <glyph glyph-name="cacute" unicode="&#x107;" horiz-adv-x="531" 
d="M277 580h-63l101 160h82zM404 175h77v-26q0 -67 -41 -108t-108 -41h-123q-67 0 -108 41t-41 108v222q0 67 41 108t108 41h123q68 0 108.5 -41t40.5 -108v-26h-77v28q0 37 -22 58.5t-59 21.5h-105q-37 0 -58.5 -21.5t-21.5 -58.5v-225q0 -37 21.5 -59t58.5 -22h105
q37 0 59 22t22 59v27z" />
    <glyph glyph-name="Ccircumflex" unicode="&#x108;" 
d="M592 475h-83v73q0 37 -21.5 58.5t-58.5 21.5h-196q-37 0 -58.5 -21.5t-21.5 -58.5v-395q0 -37 21.5 -59t58.5 -22h196q37 0 58.5 22t21.5 59v72h83v-76q0 -67 -41 -108t-108 -41h-224q-67 0 -108 41t-41 108v402q0 67 41 108t108 41h224q67 0 108 -41t41 -108v-76z
M374 885l113 -145h-73l-84 104l-84 -104h-71l113 145h86z" />
    <glyph glyph-name="ccircumflex" unicode="&#x109;" horiz-adv-x="531" 
d="M303 740l108 -160h-72l-75 111l-75 -111h-70l108 160h76zM404 175h77v-26q0 -67 -41 -108t-108 -41h-123q-67 0 -108 41t-41 108v222q0 67 41 108t108 41h123q68 0 108.5 -41t40.5 -108v-26h-77v28q0 37 -22 58.5t-59 21.5h-105q-37 0 -58.5 -21.5t-21.5 -58.5v-225
q0 -37 21.5 -59t58.5 -22h105q37 0 59 22t22 59v27z" />
    <glyph glyph-name="Cdotaccent" unicode="&#x10a;" 
d="M292 740v113h78v-113h-78zM592 475h-83v73q0 37 -21.5 58.5t-58.5 21.5h-196q-37 0 -58.5 -21.5t-21.5 -58.5v-395q0 -37 21.5 -59t58.5 -22h196q37 0 58.5 22t21.5 59v72h83v-76q0 -67 -41 -108t-108 -41h-224q-67 0 -108 41t-41 108v402q0 67 41 108t108 41h224
q67 0 108 -41t41 -108v-76z" />
    <glyph glyph-name="cdotaccent" unicode="&#x10b;" horiz-adv-x="531" 
d="M404 175h77v-26q0 -67 -41 -108t-108 -41h-123q-67 0 -108 41t-41 108v222q0 67 41 108t108 41h123q68 0 108.5 -41t40.5 -108v-26h-77v28q0 37 -22 58.5t-59 21.5h-105q-37 0 -58.5 -21.5t-21.5 -58.5v-225q0 -37 21.5 -59t58.5 -22h105q37 0 59 22t22 59v27zM226 595
v113h78v-113h-78z" />
    <glyph glyph-name="Ccaron" unicode="&#x10c;" 
d="M592 475h-83v73q0 37 -21.5 58.5t-58.5 21.5h-196q-37 0 -58.5 -21.5t-21.5 -58.5v-395q0 -37 21.5 -59t58.5 -22h196q37 0 58.5 22t21.5 59v72h83v-76q0 -67 -41 -108t-108 -41h-224q-67 0 -108 41t-41 108v402q0 67 41 108t108 41h224q67 0 108 -41t41 -108v-76z
M288 740l-113 145h73l84 -103l84 103h71l-113 -145h-86z" />
    <glyph glyph-name="ccaron" unicode="&#x10d;" horiz-adv-x="531" 
d="M227 580l-108 160h72l75 -111l75 111h70l-108 -160h-76zM404 175h77v-26q0 -67 -41 -108t-108 -41h-123q-67 0 -108 41t-41 108v222q0 67 41 108t108 41h123q68 0 108.5 -41t40.5 -108v-26h-77v28q0 37 -22 58.5t-59 21.5h-105q-37 0 -58.5 -21.5t-21.5 -58.5v-225
q0 -37 21.5 -59t58.5 -22h105q37 0 59 22t22 59v27z" />
    <glyph glyph-name="Dcaron" unicode="&#x10e;" 
d="M288 740l-113 145h73l84 -103l84 103h71l-113 -145h-86zM509 153v395q0 37 -21.5 58.5t-58.5 21.5h-276v-556h276q37 0 58.5 22t21.5 59zM592 149q0 -67 -41 -108t-108 -41h-373v700h373q67 0 108 -41t41 -108v-402z" />
    <glyph glyph-name="dcaron" unicode="&#x10f;" horiz-adv-x="581" 
d="M531 580l17 200h73l-43 -200h-47zM481 740v-740h-60l-7 42q-40 -42 -109 -42h-96q-67 0 -108 41t-41 108v222q0 67 41 108t108 41h96q58 0 99 -33v253h77zM404 373q0 37 -22 58.5t-59 21.5h-105q-37 0 -58.5 -21.5t-21.5 -58.5v-225q0 -37 21.5 -59t58.5 -22h105
q35 0 57 20t24 54v232z" />
    <glyph glyph-name="Dcroat" unicode="&#x110;" 
d="M0 322v57h70v321h373q67 0 108 -41t41 -108v-402q0 -67 -41 -108t-108 -41h-373v322h-70zM509 153v395q0 37 -21.5 58.5t-58.5 21.5h-276v-249h179v-57h-179v-250h276q37 0 58.5 22t21.5 59z" />
    <glyph glyph-name="dcroat" unicode="&#x111;" horiz-adv-x="551" 
d="M481 740v-81h70v-57h-70v-602h-60l-7 42q-40 -42 -109 -42h-96q-67 0 -108 41t-41 108v222q0 67 41 108t108 41h96q58 0 99 -33v115h-145v57h145v81h77zM404 373q0 37 -22 58.5t-59 21.5h-105q-37 0 -58.5 -21.5t-21.5 -58.5v-225q0 -37 21.5 -59t58.5 -22h105
q35 0 57 20t24 54v232z" />
    <glyph glyph-name="Emacron" unicode="&#x112;" horiz-adv-x="562" 
d="M114 774v57h332v-57h-332zM70 0v700h452v-72h-369v-241h319v-72h-319v-243h369v-72h-452z" />
    <glyph glyph-name="emacron" unicode="&#x113;" horiz-adv-x="541" 
d="M404 165h77v-16q0 -67 -41 -108t-108 -41h-123q-67 0 -108 41t-41 108v222q0 67 41 108t108 41h123q68 0 108.5 -41t40.5 -108v-136h-343v-87q0 -37 21.5 -59t58.5 -22h105q37 0 59 22t22 59v17zM138 373v-76h266v76q0 37 -22 58.5t-59 21.5h-105q-37 0 -58.5 -21.5
t-21.5 -58.5zM124 619v57h292v-57h-292z" />
    <glyph glyph-name="Ebreve" unicode="&#x114;" horiz-adv-x="562" 
d="M140 885h59q0 -52 20 -74t63 -22q42 0 61.5 22t19.5 74h59q0 -79 -35 -113t-105 -34q-71 0 -106.5 34.5t-35.5 112.5zM70 0v700h452v-72h-369v-241h319v-72h-319v-243h369v-72h-452z" />
    <glyph glyph-name="ebreve" unicode="&#x115;" horiz-adv-x="541" 
d="M404 165h77v-16q0 -67 -41 -108t-108 -41h-123q-67 0 -108 41t-41 108v222q0 67 41 108t108 41h123q68 0 108.5 -41t40.5 -108v-136h-343v-87q0 -37 21.5 -59t58.5 -22h105q37 0 59 22t22 59v17zM138 373v-76h266v76q0 37 -22 58.5t-59 21.5h-105q-37 0 -58.5 -21.5
t-21.5 -58.5zM139 740h59q0 -55 16.5 -79.5t56.5 -24.5t56 24.5t16 79.5h58q0 -81 -31 -118t-99 -37t-100 37t-32 118z" />
    <glyph glyph-name="Edotaccent" unicode="&#x116;" horiz-adv-x="562" 
d="M242 740v113h78v-113h-78zM70 0v700h452v-72h-369v-241h319v-72h-319v-243h369v-72h-452z" />
    <glyph glyph-name="edotaccent" unicode="&#x117;" horiz-adv-x="541" 
d="M404 165h77v-16q0 -67 -41 -108t-108 -41h-123q-67 0 -108 41t-41 108v222q0 67 41 108t108 41h123q68 0 108.5 -41t40.5 -108v-136h-343v-87q0 -37 21.5 -59t58.5 -22h105q37 0 59 22t22 59v17zM138 373v-76h266v76q0 37 -22 58.5t-59 21.5h-105q-37 0 -58.5 -21.5
t-21.5 -58.5zM231 595v113h78v-113h-78z" />
    <glyph glyph-name="Eogonek" unicode="&#x118;" horiz-adv-x="562" 
d="M70 0v700h452v-72h-369v-241h319v-72h-319v-243h369v-72h-50l-36 -53q-14 -20 -14 -41q0 -20 12.5 -33t34.5 -13h52v-60h-73q-39 0 -66 26t-27 65q0 37 28 78l20 31h-333z" />
    <glyph glyph-name="eogonek" unicode="&#x119;" horiz-adv-x="541" 
d="M404 165h77v-16q0 -58 -32 -98l-70 -104q-14 -20 -14 -41q0 -20 12.5 -33t34.5 -13h52v-60h-73q-39 0 -66 26t-27 65q0 37 28 78l20 31h-137q-67 0 -108 41t-41 108v222q0 67 41 108t108 41h123q68 0 108.5 -41t40.5 -108v-136h-343v-87q0 -37 21.5 -59t58.5 -22h105
q37 0 59 22t22 59v17zM138 373v-76h266v76q0 37 -22 58.5t-59 21.5h-105q-37 0 -58.5 -21.5t-21.5 -58.5z" />
    <glyph glyph-name="Ecaron" unicode="&#x11a;" horiz-adv-x="562" 
d="M238 740l-113 145h73l84 -103l84 103h71l-113 -145h-86zM70 0v700h452v-72h-369v-241h319v-72h-319v-243h369v-72h-452z" />
    <glyph glyph-name="ecaron" unicode="&#x11b;" horiz-adv-x="541" 
d="M232 580l-108 160h72l75 -111l75 111h70l-108 -160h-76zM404 165h77v-16q0 -67 -41 -108t-108 -41h-123q-67 0 -108 41t-41 108v222q0 67 41 108t108 41h123q68 0 108.5 -41t40.5 -108v-136h-343v-87q0 -37 21.5 -59t58.5 -22h105q37 0 59 22t22 59v17zM138 373v-76h266
v76q0 37 -22 58.5t-59 21.5h-105q-37 0 -58.5 -21.5t-21.5 -58.5z" />
    <glyph glyph-name="Gcircumflex" unicode="&#x11c;" 
d="M592 356v-356h-62l-9 41q-41 -41 -108 -41h-194q-67 0 -108 41t-41 108v402q0 67 41 108t108 41h224q67 0 108 -41t41 -108v-66h-83v63q0 37 -21.5 58.5t-58.5 21.5h-196q-37 0 -58.5 -21.5t-21.5 -58.5v-395q0 -37 21.5 -59t58.5 -22h196q37 0 58.5 22t21.5 59v131h-220
v72h303zM374 885l113 -145h-73l-84 104l-84 -104h-71l113 145h86z" />
    <glyph glyph-name="gcircumflex" unicode="&#x11d;" horiz-adv-x="551" 
d="M313 740l108 -160h-72l-75 111l-75 -111h-70l108 160h76zM481 520v-571q0 -67 -41 -108t-107 -41h-124q-67 0 -108 41t-41 108v16h78v-18q0 -37 21.5 -58.5t58.5 -21.5h105q37 0 59 21.5t22 58.5v86q-41 -33 -99 -33h-96q-67 0 -108 41t-41 108v222q0 67 41 108t108 41
h96q67 0 108 -41l8 41h60zM138 373v-225q0 -37 21.5 -59t58.5 -22h105q37 0 59 22t22 59v225q0 37 -22 58.5t-59 21.5h-105q-37 0 -58.5 -21.5t-21.5 -58.5z" />
    <glyph glyph-name="Gbreve" unicode="&#x11e;" 
d="M190 885h59q0 -52 20 -74t63 -22q42 0 61.5 22t19.5 74h59q0 -79 -35 -113t-105 -34q-71 0 -106.5 34.5t-35.5 112.5zM592 356v-356h-62l-9 41q-41 -41 -108 -41h-194q-67 0 -108 41t-41 108v402q0 67 41 108t108 41h224q67 0 108 -41t41 -108v-66h-83v63
q0 37 -21.5 58.5t-58.5 21.5h-196q-37 0 -58.5 -21.5t-21.5 -58.5v-395q0 -37 21.5 -59t58.5 -22h196q37 0 58.5 22t21.5 59v131h-220v72h303z" />
    <glyph glyph-name="gbreve" unicode="&#x11f;" horiz-adv-x="551" 
d="M481 520v-571q0 -67 -41 -108t-107 -41h-124q-67 0 -108 41t-41 108v16h78v-18q0 -37 21.5 -58.5t58.5 -21.5h105q37 0 59 21.5t22 58.5v86q-41 -33 -99 -33h-96q-67 0 -108 41t-41 108v222q0 67 41 108t108 41h96q67 0 108 -41l8 41h60zM138 373v-225q0 -37 21.5 -59
t58.5 -22h105q37 0 59 22t22 59v225q0 37 -22 58.5t-59 21.5h-105q-37 0 -58.5 -21.5t-21.5 -58.5zM144 740h59q0 -55 16.5 -79.5t56.5 -24.5t56 24.5t16 79.5h58q0 -81 -31 -118t-99 -37t-100 37t-32 118z" />
    <glyph glyph-name="Gdotaccent" unicode="&#x120;" 
d="M292 740v113h78v-113h-78zM592 356v-356h-62l-9 41q-41 -41 -108 -41h-194q-67 0 -108 41t-41 108v402q0 67 41 108t108 41h224q67 0 108 -41t41 -108v-66h-83v63q0 37 -21.5 58.5t-58.5 21.5h-196q-37 0 -58.5 -21.5t-21.5 -58.5v-395q0 -37 21.5 -59t58.5 -22h196
q37 0 58.5 22t21.5 59v131h-220v72h303z" />
    <glyph glyph-name="gdotaccent" unicode="&#x121;" horiz-adv-x="551" 
d="M481 520v-571q0 -67 -41 -108t-107 -41h-124q-67 0 -108 41t-41 108v16h78v-18q0 -37 21.5 -58.5t58.5 -21.5h105q37 0 59 21.5t22 58.5v86q-41 -33 -99 -33h-96q-67 0 -108 41t-41 108v222q0 67 41 108t108 41h96q67 0 108 -41l8 41h60zM138 373v-225q0 -37 21.5 -59
t58.5 -22h105q37 0 59 22t22 59v225q0 37 -22 58.5t-59 21.5h-105q-37 0 -58.5 -21.5t-21.5 -58.5zM236 595v113h78v-113h-78z" />
    <glyph glyph-name="Gcommaaccent" unicode="&#x122;" 
d="M290 -200l10 140h72l-27 -140h-55zM592 356v-356h-62l-9 41q-41 -41 -108 -41h-194q-67 0 -108 41t-41 108v402q0 67 41 108t108 41h224q67 0 108 -41t41 -108v-66h-83v63q0 37 -21.5 58.5t-58.5 21.5h-196q-37 0 -58.5 -21.5t-21.5 -58.5v-395q0 -37 21.5 -59t58.5 -22
h196q37 0 58.5 22t21.5 59v131h-220v72h303z" />
    <glyph glyph-name="gcommaaccent" unicode="&#x123;" horiz-adv-x="551" 
d="M315 740l-10 -140h-72l27 140h55zM481 520v-571q0 -67 -41 -108t-107 -41h-124q-67 0 -108 41t-41 108v16h78v-18q0 -37 21.5 -58.5t58.5 -21.5h105q37 0 59 21.5t22 58.5v86q-41 -33 -99 -33h-96q-67 0 -108 41t-41 108v222q0 67 41 108t108 41h96q67 0 108 -41l8 41h60
zM138 373v-225q0 -37 21.5 -59t58.5 -22h105q37 0 59 22t22 59v225q0 37 -22 58.5t-59 21.5h-105q-37 0 -58.5 -21.5t-21.5 -58.5z" />
    <glyph glyph-name="Hcircumflex" unicode="&#x124;" 
d="M509 0v315h-356v-315h-83v700h83v-313h356v313h83v-700h-83zM374 885l113 -145h-73l-84 104l-84 -104h-71l113 145h86z" />
    <glyph glyph-name="hcircumflex" unicode="&#x125;" horiz-adv-x="561" 
d="M491 0h-77v373q0 37 -22 58.5t-59 21.5h-105q-35 0 -56.5 -19.5t-23.5 -53.5v-380h-78v740h78v-253q39 33 98 33h96q68 0 108.5 -41t40.5 -108v-371zM154 925l113 -145h-73l-84 104l-84 -104h-71l113 145h86z" />
    <glyph glyph-name="Hbar" unicode="&#x126;" 
d="M20 514v57h50v129h83v-129h356v129h83v-129h50v-57h-50v-514h-83v315h-356v-315h-83v514h-50zM153 387h356v127h-356v-127z" />
    <glyph glyph-name="hbar" unicode="&#x127;" horiz-adv-x="561" 
d="M0 602v57h70v81h78v-81h144v-57h-144v-115q39 33 98 33h96q68 0 108.5 -41t40.5 -108v-371h-77v373q0 37 -22 58.5t-59 21.5h-105q-35 0 -56.5 -19.5t-23.5 -53.5v-380h-78v602h-70z" />
    <glyph glyph-name="Itilde" unicode="&#x128;" horiz-adv-x="223" 
d="M70 0v700h83v-700h-83zM46 817q-17 11 -35 7.5t-28 -21.5l-35 -58l-48 23l37 64q22 38 59.5 49t75.5 -11l111 -64q18 -12 35.5 -8t29.5 22l28 47l47 -23l-30 -52q-22 -39 -59.5 -50t-76.5 11z" />
    <glyph glyph-name="itilde" unicode="&#x129;" horiz-adv-x="218" 
d="M70 0v520h78v-520h-78zM57 671q-16 12 -34.5 8.5t-28.5 -20.5l-37 -57l-46 27l40 62q23 37 61 45.5t75 -14.5l79 -52q40 -26 66 13l30 46l45 -27l-32 -51q-24 -38 -62.5 -46.5t-76.5 14.5z" />
    <glyph glyph-name="Imacron" unicode="&#x12a;" horiz-adv-x="223" 
d="M70 0v700h83v-700h-83zM-55 774v57h332v-57h-332z" />
    <glyph glyph-name="imacron" unicode="&#x12b;" horiz-adv-x="218" 
d="M70 0v520h78v-520h-78zM-37 619v57h292v-57h-292z" />
    <glyph glyph-name="Ibreve" unicode="&#x12c;" horiz-adv-x="223" 
d="M70 0v700h83v-700h-83zM-29 885h59q0 -52 20 -74t63 -22q42 0 61.5 22t19.5 74h59q0 -79 -35 -113t-105 -34q-71 0 -106.5 34.5t-35.5 112.5z" />
    <glyph glyph-name="ibreve" unicode="&#x12d;" horiz-adv-x="218" 
d="M70 0v520h78v-520h-78zM-22 740h59q0 -55 16.5 -79.5t56.5 -24.5t56 24.5t16 79.5h58q0 -81 -31 -118t-99 -37t-100 37t-32 118z" />
    <glyph glyph-name="Iogonek" unicode="&#x12e;" horiz-adv-x="223" 
d="M70 0v700h83v-700l-36 -53q-14 -20 -14 -41q0 -20 12.5 -33t34.5 -13h52v-60h-73q-39 0 -66 26t-27 65q0 37 28 78l20 31h-14z" />
    <glyph glyph-name="iogonek" unicode="&#x12f;" horiz-adv-x="218" 
d="M70 0v520h78v-520l-36 -53q-14 -20 -14 -41q0 -20 12.5 -33t34.5 -13h52v-60h-73q-39 0 -66 26t-27 65q0 37 28 78l20 31h-9zM70 595v113h78v-113h-78z" />
    <glyph glyph-name="Idotaccent" unicode="&#x130;" horiz-adv-x="223" 
d="M70 0v700h83v-700h-83zM72 740v113h78v-113h-78z" />
    <glyph glyph-name="dotlessi" unicode="&#x131;" horiz-adv-x="218" 
d="M70 0v520h78v-520h-78z" />
    <glyph glyph-name="IJ" unicode="&#x132;" horiz-adv-x="819" 
d="M70 0v700h83v-700h-83zM666 700h83v-559q0 -63 -39 -102t-102 -39h-210q-63 0 -102 39t-39 102v84h83v-80q0 -34 19.5 -53.5t52.5 -19.5h182q33 0 52.5 19.5t19.5 53.5v555z" />
    <glyph glyph-name="ij" unicode="&#x133;" horiz-adv-x="435" 
d="M70 0v520h78v-520h-78zM70 595v113h78v-113h-78zM287 -200v720h78v-720h-78zM287 595v113h78v-113h-78z" />
    <glyph glyph-name="Jcircumflex" unicode="&#x134;" horiz-adv-x="597" 
d="M444 700h83v-559q0 -63 -39 -102t-102 -39h-210q-63 0 -102 39t-39 102v84h83v-80q0 -34 19.5 -53.5t52.5 -19.5h182q33 0 52.5 19.5t19.5 53.5v555zM530 885l113 -145h-73l-84 104l-84 -104h-71l113 145h86z" />
    <glyph glyph-name="jcircumflex" unicode="&#x135;" horiz-adv-x="218" 
d="M70 -200v720h78v-720h-78zM148 740l108 -160h-72l-75 111l-75 -111h-70l108 160h76z" />
    <glyph glyph-name="Kcommaaccent" unicode="&#x136;" horiz-adv-x="584" 
d="M251 -200l10 140h72l-27 -140h-55zM470 0l-317 342v-342h-83v700h83v-341l316 341h103l-319 -344l330 -356h-113z" />
    <glyph glyph-name="kcommaaccent" unicode="&#x137;" horiz-adv-x="484" 
d="M200 -200l10 140h72l-27 -140h-55zM394 0l-246 252v-252h-78v740h78v-472l242 252h98l-244 -254l261 -266h-111z" />
    <glyph glyph-name="kgreenlandic" unicode="&#x138;" horiz-adv-x="484" 
d="M394 0l-246 252v-252h-78v520h78v-252l242 252h98l-244 -254l261 -266h-111z" />
    <glyph glyph-name="Lacute" unicode="&#x139;" horiz-adv-x="542" 
d="M138 740h-68l92 145h86zM70 0v700h83v-628h369v-72h-452z" />
    <glyph glyph-name="lacute" unicode="&#x13a;" horiz-adv-x="218" 
d="M130 780h-68l92 145h86zM70 0v740h78v-740h-78z" />
    <glyph glyph-name="Lcommaaccent" unicode="&#x13b;" horiz-adv-x="542" 
d="M230 -200l10 140h72l-27 -140h-55zM70 0v700h83v-628h369v-72h-452z" />
    <glyph glyph-name="lcommaaccent" unicode="&#x13c;" horiz-adv-x="218" 
d="M68 -200l10 140h72l-27 -140h-55zM70 0v740h78v-740h-78z" />
    <glyph glyph-name="Lcaron" unicode="&#x13d;" horiz-adv-x="542" 
d="M222 580l17 200h73l-43 -200h-47zM70 0v700h83v-628h369v-72h-452z" />
    <glyph glyph-name="lcaron" unicode="&#x13e;" horiz-adv-x="248" 
d="M197 580l17 200h73l-43 -200h-47zM70 0v740h78v-740h-78z" />
    <glyph glyph-name="Ldot" unicode="&#x13f;" horiz-adv-x="542" 
d="M70 0v700h83v-628h369v-72h-452zM273 294v113h78v-113h-78z" />
    <glyph glyph-name="ldot" unicode="&#x140;" horiz-adv-x="340" 
d="M70 0v740h78v-740h-78zM235 289v123h88v-123h-88z" />
    <glyph glyph-name="Lslash" unicode="&#x141;" horiz-adv-x="582" 
d="M20 286v67l90 22v325h83v-304l165 42v-68l-165 -41v-257h369v-72h-452v308z" />
    <glyph glyph-name="lslash" unicode="&#x142;" horiz-adv-x="298" 
d="M20 286v67l90 29v358h78v-332l90 30v-68l-90 -29v-341h-78v315z" />
    <glyph glyph-name="Nacute" unicode="&#x143;" 
d="M340 740h-68l92 145h86zM514 0l-361 549v-549h-83v700h78l361 -548v548h83v-700h-78z" />
    <glyph glyph-name="nacute" unicode="&#x144;" horiz-adv-x="561" 
d="M292 580h-63l101 160h82zM491 0h-77v373q0 37 -22 58.5t-59 21.5h-105q-37 0 -58.5 -21.5t-21.5 -58.5v-373h-78v520h60l7 -42q40 42 109 42h96q68 0 108.5 -41t40.5 -108v-371z" />
    <glyph glyph-name="Ncommaaccent" unicode="&#x145;" 
d="M290 -200l10 140h72l-27 -140h-55zM514 0l-361 549v-549h-83v700h78l361 -548v548h83v-700h-78z" />
    <glyph glyph-name="ncommaaccent" unicode="&#x146;" horiz-adv-x="561" 
d="M239 -200l10 140h72l-27 -140h-55zM491 0h-77v373q0 37 -22 58.5t-59 21.5h-105q-37 0 -58.5 -21.5t-21.5 -58.5v-373h-78v520h60l7 -42q40 42 109 42h96q68 0 108.5 -41t40.5 -108v-371z" />
    <glyph glyph-name="Ncaron" unicode="&#x147;" 
d="M288 740l-113 145h73l84 -103l84 103h71l-113 -145h-86zM514 0l-361 549v-549h-83v700h78l361 -548v548h83v-700h-78z" />
    <glyph glyph-name="ncaron" unicode="&#x148;" horiz-adv-x="561" 
d="M242 580l-108 160h72l75 -111l75 111h70l-108 -160h-76zM491 0h-77v373q0 37 -22 58.5t-59 21.5h-105q-37 0 -58.5 -21.5t-21.5 -58.5v-373h-78v520h60l7 -42q40 42 109 42h96q68 0 108.5 -41t40.5 -108v-371z" />
    <glyph glyph-name="napostrophe" unicode="&#x149;" horiz-adv-x="561" 
d="M70 600l10 140h72l-27 -140h-55zM491 0h-77v373q0 37 -22 58.5t-59 21.5h-105q-37 0 -58.5 -21.5t-21.5 -58.5v-373h-78v520h60l7 -42q40 42 109 42h96q68 0 108.5 -41t40.5 -108v-371z" />
    <glyph glyph-name="Eng" unicode="&#x14a;" 
d="M509 9l-356 540v-549h-83v700h78l361 -548v548h83v-900h-83v209z" />
    <glyph glyph-name="eng" unicode="&#x14b;" horiz-adv-x="561" 
d="M491 -200h-77v573q0 37 -22 58.5t-59 21.5h-105q-37 0 -58.5 -21.5t-21.5 -58.5v-373h-78v520h60l7 -42q40 42 109 42h96q68 0 108.5 -41t40.5 -108v-571z" />
    <glyph glyph-name="Omacron" unicode="&#x14c;" 
d="M164 774v57h332v-57h-332zM509 153v395q0 37 -21.5 58.5t-58.5 21.5h-196q-37 0 -58.5 -21.5t-21.5 -58.5v-395q0 -37 21.5 -59t58.5 -22h196q37 0 58.5 22t21.5 59zM592 149q0 -67 -41 -108t-108 -41h-224q-67 0 -108 41t-41 108v402q0 67 41 108t108 41h224
q67 0 108 -41t41 -108v-402z" />
    <glyph glyph-name="omacron" unicode="&#x14d;" horiz-adv-x="541" 
d="M124 619v57h292v-57h-292zM404 148v225q0 37 -22 58.5t-59 21.5h-105q-37 0 -58.5 -21.5t-21.5 -58.5v-225q0 -37 21.5 -59t58.5 -22h105q37 0 59 22t22 59zM481 149q0 -67 -41 -108t-108 -41h-123q-67 0 -108 41t-41 108v222q0 67 41 108t108 41h123q68 0 108.5 -41
t40.5 -108v-222z" />
    <glyph glyph-name="Obreve" unicode="&#x14e;" 
d="M190 885h59q0 -52 20 -74t63 -22q42 0 61.5 22t19.5 74h59q0 -79 -35 -113t-105 -34q-71 0 -106.5 34.5t-35.5 112.5zM509 153v395q0 37 -21.5 58.5t-58.5 21.5h-196q-37 0 -58.5 -21.5t-21.5 -58.5v-395q0 -37 21.5 -59t58.5 -22h196q37 0 58.5 22t21.5 59zM592 149
q0 -67 -41 -108t-108 -41h-224q-67 0 -108 41t-41 108v402q0 67 41 108t108 41h224q67 0 108 -41t41 -108v-402z" />
    <glyph glyph-name="obreve" unicode="&#x14f;" horiz-adv-x="541" 
d="M404 148v225q0 37 -22 58.5t-59 21.5h-105q-37 0 -58.5 -21.5t-21.5 -58.5v-225q0 -37 21.5 -59t58.5 -22h105q37 0 59 22t22 59zM481 149q0 -67 -41 -108t-108 -41h-123q-67 0 -108 41t-41 108v222q0 67 41 108t108 41h123q68 0 108.5 -41t40.5 -108v-222zM139 740h59
q0 -55 16.5 -79.5t56.5 -24.5t56 24.5t16 79.5h58q0 -81 -31 -118t-99 -37t-100 37t-32 118z" />
    <glyph glyph-name="Ohungarumlaut" unicode="&#x150;" 
d="M509 153v395q0 37 -21.5 58.5t-58.5 21.5h-196q-37 0 -58.5 -21.5t-21.5 -58.5v-395q0 -37 21.5 -59t58.5 -22h196q37 0 58.5 22t21.5 59zM592 149q0 -67 -41 -108t-108 -41h-224q-67 0 -108 41t-41 108v402q0 67 41 108t108 41h224q67 0 108 -41t41 -108v-402zM232 740
h-63l101 145h82zM433 740h-63l101 145h82z" />
    <glyph glyph-name="ohungarumlaut" unicode="&#x151;" horiz-adv-x="541" 
d="M199 580h-55l92 160h74zM366 580h-60l92 160h79zM404 148v225q0 37 -22 58.5t-59 21.5h-105q-37 0 -58.5 -21.5t-21.5 -58.5v-225q0 -37 21.5 -59t58.5 -22h105q37 0 59 22t22 59zM481 149q0 -67 -41 -108t-108 -41h-123q-67 0 -108 41t-41 108v222q0 67 41 108t108 41
h123q68 0 108.5 -41t40.5 -108v-222z" />
    <glyph glyph-name="OE" unicode="&#x152;" horiz-adv-x="1011" 
d="M509 0v30q-39 -30 -96 -30h-194q-67 0 -108 41t-41 108v402q0 67 41 108t108 41h194q57 0 96 -31v31h452v-72h-369v-241h319v-72h-319v-243h369v-72h-452zM509 153v402q-2 34 -23.5 53.5t-56.5 19.5h-196q-37 0 -58.5 -21.5t-21.5 -58.5v-395q0 -37 21.5 -59t58.5 -22
h196q37 0 58.5 22t21.5 59z" />
    <glyph glyph-name="oe" unicode="&#x153;" horiz-adv-x="885" 
d="M747 165h78v-16q0 -67 -41 -108t-108 -41h-108q-92 0 -126 74q-34 -74 -125 -74h-108q-67 0 -108 41t-41 108v222q0 67 41 108t108 41h108q91 0 125 -73q16 34 49 53.5t77 19.5h108q67 0 108 -41t41 -108v-136h-344v-87q0 -37 22 -59t59 -22h105q37 0 58.5 22t21.5 59v17
zM404 148v225q0 37 -22 58.5t-59 21.5h-105q-37 0 -58.5 -21.5t-21.5 -58.5v-225q0 -37 21.5 -59t58.5 -22h105q37 0 59 22t22 59zM481 373v-76h266v76q0 37 -21.5 58.5t-58.5 21.5h-105q-37 0 -59 -21.5t-22 -58.5z" />
    <glyph glyph-name="Racute" unicode="&#x154;" horiz-adv-x="622" 
d="M572 414q0 -60 -33 -99.5t-89 -47.5l122 -267h-91l-117 265h-211v-265h-83v700h353q67 0 108 -41t41 -108v-137zM489 417v131q0 37 -21.5 58.5t-58.5 21.5h-256v-291h256q37 0 58.5 21.5t21.5 58.5zM310 740h-68l92 145h86z" />
    <glyph glyph-name="racute" unicode="&#x155;" horiz-adv-x="350" 
d="M187 580h-63l101 160h82zM350 520v-67h-122q-37 0 -58.5 -21.5t-21.5 -58.5v-373h-78v520h60l7 -42q40 42 109 42h104z" />
    <glyph glyph-name="Rcommaaccent" unicode="&#x156;" horiz-adv-x="622" 
d="M270 -200l10 140h72l-27 -140h-55zM572 414q0 -60 -33 -99.5t-89 -47.5l122 -267h-91l-117 265h-211v-265h-83v700h353q67 0 108 -41t41 -108v-137zM489 417v131q0 37 -21.5 58.5t-58.5 21.5h-256v-291h256q37 0 58.5 21.5t21.5 58.5z" />
    <glyph glyph-name="rcommaaccent" unicode="&#x157;" horiz-adv-x="350" 
d="M66 -200l10 140h72l-27 -140h-55zM350 520v-67h-122q-37 0 -58.5 -21.5t-21.5 -58.5v-373h-78v520h60l7 -42q40 42 109 42h104z" />
    <glyph glyph-name="Rcaron" unicode="&#x158;" horiz-adv-x="622" 
d="M268 740l-113 145h73l84 -103l84 103h71l-113 -145h-86zM572 414q0 -60 -33 -99.5t-89 -47.5l122 -267h-91l-117 265h-211v-265h-83v700h353q67 0 108 -41t41 -108v-137zM489 417v131q0 37 -21.5 58.5t-58.5 21.5h-256v-291h256q37 0 58.5 21.5t21.5 58.5z" />
    <glyph glyph-name="rcaron" unicode="&#x159;" horiz-adv-x="350" 
d="M137 580l-108 160h72l75 -111l75 111h70l-108 -160h-76zM350 520v-67h-122q-37 0 -58.5 -21.5t-21.5 -58.5v-373h-78v520h60l7 -42q40 42 109 42h104z" />
    <glyph glyph-name="Sacute" unicode="&#x15a;" horiz-adv-x="652" 
d="M433 387q67 0 108 -41t41 -108v-89q0 -67 -41 -108t-108 -41h-214q-67 0 -108 41t-41 108v61h83v-57q0 -37 21.5 -59t58.5 -22h186q37 0 58.5 22t21.5 59v81q0 37 -21.5 59t-58.5 22h-200q-67 0 -108 41t-41 108v87q0 67 41 108t108 41h214q67 0 108 -41t41 -108v-61h-83
v58q0 37 -21.5 58.5t-58.5 21.5h-186q-37 0 -58.5 -21.5t-21.5 -58.5v-81q0 -37 21.5 -58.5t58.5 -21.5h200zM335 740h-68l92 145h86z" />
    <glyph glyph-name="sacute" unicode="&#x15b;" horiz-adv-x="541" 
d="M282 580h-63l101 160h82zM341 294q63 0 101.5 -38.5t38.5 -102.5v-12q0 -63 -38.5 -102t-101.5 -39h-140q-63 0 -102 39t-39 102v22h78v-23q0 -34 19.5 -53.5t52.5 -19.5h121q34 0 53.5 20t19.5 53v19q0 34 -19.5 53.5t-53.5 19.5h-125q-63 0 -102 39t-39 102v6
q0 64 39 102.5t102 38.5h129q64 0 102.5 -38.5t38.5 -102.5v-21h-77v23q0 33 -19.5 52.5t-53.5 19.5h-111q-33 0 -52.5 -19.5t-19.5 -52.5v-14q0 -34 19.5 -53.5t52.5 -19.5h126z" />
    <glyph glyph-name="Scircumflex" unicode="&#x15c;" horiz-adv-x="652" 
d="M433 387q67 0 108 -41t41 -108v-89q0 -67 -41 -108t-108 -41h-214q-67 0 -108 41t-41 108v61h83v-57q0 -37 21.5 -59t58.5 -22h186q37 0 58.5 22t21.5 59v81q0 37 -21.5 59t-58.5 22h-200q-67 0 -108 41t-41 108v87q0 67 41 108t108 41h214q67 0 108 -41t41 -108v-61h-83
v58q0 37 -21.5 58.5t-58.5 21.5h-186q-37 0 -58.5 -21.5t-21.5 -58.5v-81q0 -37 21.5 -58.5t58.5 -21.5h200zM369 885l113 -145h-73l-84 104l-84 -104h-71l113 145h86z" />
    <glyph glyph-name="scircumflex" unicode="&#x15d;" horiz-adv-x="541" 
d="M308 740l108 -160h-72l-75 111l-75 -111h-70l108 160h76zM341 294q63 0 101.5 -38.5t38.5 -102.5v-12q0 -63 -38.5 -102t-101.5 -39h-140q-63 0 -102 39t-39 102v22h78v-23q0 -34 19.5 -53.5t52.5 -19.5h121q34 0 53.5 20t19.5 53v19q0 34 -19.5 53.5t-53.5 19.5h-125
q-63 0 -102 39t-39 102v6q0 64 39 102.5t102 38.5h129q64 0 102.5 -38.5t38.5 -102.5v-21h-77v23q0 33 -19.5 52.5t-53.5 19.5h-111q-33 0 -52.5 -19.5t-19.5 -52.5v-14q0 -34 19.5 -53.5t52.5 -19.5h126z" />
    <glyph glyph-name="Scedilla" unicode="&#x15e;" horiz-adv-x="652" 
d="M433 387q67 0 108 -41t41 -108v-89q0 -67 -41 -108t-108 -41h-214q-67 0 -108 41t-41 108v61h83v-57q0 -37 21.5 -59t58.5 -22h186q37 0 58.5 22t21.5 59v81q0 37 -21.5 59t-58.5 22h-200q-67 0 -108 41t-41 108v87q0 67 41 108t108 41h214q67 0 108 -41t41 -108v-61h-83
v58q0 37 -21.5 58.5t-58.5 21.5h-186q-37 0 -58.5 -21.5t-21.5 -58.5v-81q0 -37 21.5 -58.5t58.5 -21.5h200zM335 -200h-72l55 80l-55 80h72l53 -80z" />
    <glyph glyph-name="scedilla" unicode="&#x15f;" horiz-adv-x="541" 
d="M341 294q63 0 101.5 -38.5t38.5 -102.5v-12q0 -63 -38.5 -102t-101.5 -39h-140q-63 0 -102 39t-39 102v22h78v-23q0 -34 19.5 -53.5t52.5 -19.5h121q34 0 53.5 20t19.5 53v19q0 34 -19.5 53.5t-53.5 19.5h-125q-63 0 -102 39t-39 102v6q0 64 39 102.5t102 38.5h129
q64 0 102.5 -38.5t38.5 -102.5v-21h-77v23q0 33 -19.5 52.5t-53.5 19.5h-111q-33 0 -52.5 -19.5t-19.5 -52.5v-14q0 -34 19.5 -53.5t52.5 -19.5h126zM300 -200h-72l55 80l-55 80h72l53 -80z" />
    <glyph glyph-name="Scaron" unicode="&#x160;" horiz-adv-x="652" 
d="M433 387q67 0 108 -41t41 -108v-89q0 -67 -41 -108t-108 -41h-214q-67 0 -108 41t-41 108v61h83v-57q0 -37 21.5 -59t58.5 -22h186q37 0 58.5 22t21.5 59v81q0 37 -21.5 59t-58.5 22h-200q-67 0 -108 41t-41 108v87q0 67 41 108t108 41h214q67 0 108 -41t41 -108v-61h-83
v58q0 37 -21.5 58.5t-58.5 21.5h-186q-37 0 -58.5 -21.5t-21.5 -58.5v-81q0 -37 21.5 -58.5t58.5 -21.5h200zM283 740l-113 145h73l84 -103l84 103h71l-113 -145h-86z" />
    <glyph glyph-name="scaron" unicode="&#x161;" horiz-adv-x="541" 
d="M232 580l-108 160h72l75 -111l75 111h70l-108 -160h-76zM341 294q63 0 101.5 -38.5t38.5 -102.5v-12q0 -63 -38.5 -102t-101.5 -39h-140q-63 0 -102 39t-39 102v22h78v-23q0 -34 19.5 -53.5t52.5 -19.5h121q34 0 53.5 20t19.5 53v19q0 34 -19.5 53.5t-53.5 19.5h-125
q-63 0 -102 39t-39 102v6q0 64 39 102.5t102 38.5h129q64 0 102.5 -38.5t38.5 -102.5v-21h-77v23q0 33 -19.5 52.5t-53.5 19.5h-111q-33 0 -52.5 -19.5t-19.5 -52.5v-14q0 -34 19.5 -53.5t52.5 -19.5h126z" />
    <glyph glyph-name="Tcommaaccent" unicode="&#x162;" horiz-adv-x="565" 
d="M241 -200l10 140h72l-27 -140h-55zM0 628v72h565v-72h-241v-628h-83v628h-241z" />
    <glyph glyph-name="tcommaaccent" unicode="&#x163;" horiz-adv-x="338" 
d="M128 -200l10 140h72l-27 -140h-55zM0 453v67h130v160l78 22v-182h130v-67h-130v-453h-78v453h-130z" />
    <glyph glyph-name="Tcaron" unicode="&#x164;" horiz-adv-x="565" 
d="M239 740l-113 145h73l84 -103l84 103h71l-113 -145h-86zM0 628v72h565v-72h-241v-628h-83v628h-241z" />
    <glyph glyph-name="tcaron" unicode="&#x165;" horiz-adv-x="338" 
d="M257 580l17 200h73l-43 -200h-47zM0 453v67h130v160l78 22v-182h130v-67h-130v-453h-78v453h-130z" />
    <glyph glyph-name="Tbar" unicode="&#x166;" horiz-adv-x="565" 
d="M0 628v72h565v-72h-241v-259h104v-57h-104v-312h-83v312h-105v57h105v259h-241z" />
    <glyph glyph-name="tbar" unicode="&#x167;" horiz-adv-x="338" 
d="M0 453v67h130v160l78 22v-182h130v-67h-130v-120h106v-57h-106v-276h-78v276h-108v57h108v120h-130z" />
    <glyph glyph-name="Utilde" unicode="&#x168;" 
d="M265 816q-17 11 -35 7.5t-28 -21.5l-35 -58l-48 23l37 64q22 38 59.5 49t75.5 -11l111 -64q18 -12 35.5 -8t29.5 22l28 47l47 -23l-30 -52q-22 -39 -59.5 -50t-76.5 11zM509 700h83v-551q0 -67 -41 -108t-108 -41h-224q-67 0 -108 41t-41 108v551h83v-547q0 -37 21.5 -59
t58.5 -22h196q37 0 58.5 22t21.5 59v547z" />
    <glyph glyph-name="utilde" unicode="&#x169;" horiz-adv-x="561" 
d="M70 520h78v-372q0 -37 21.5 -59t58.5 -22h105q35 0 57 19.5t24 53.5v380h77v-520h-60l-7 42q-40 -42 -109 -42h-96q-67 0 -108 41t-41 108v371zM228 671q-16 12 -34.5 8.5t-28.5 -20.5l-37 -57l-46 27l40 62q23 37 61 45.5t75 -14.5l79 -52q40 -26 66 13l30 46l45 -27
l-32 -51q-24 -38 -62.5 -46.5t-76.5 14.5z" />
    <glyph glyph-name="Umacron" unicode="&#x16a;" 
d="M164 774v57h332v-57h-332zM509 700h83v-551q0 -67 -41 -108t-108 -41h-224q-67 0 -108 41t-41 108v551h83v-547q0 -37 21.5 -59t58.5 -22h196q37 0 58.5 22t21.5 59v547z" />
    <glyph glyph-name="umacron" unicode="&#x16b;" horiz-adv-x="561" 
d="M70 520h78v-372q0 -37 21.5 -59t58.5 -22h105q35 0 57 19.5t24 53.5v380h77v-520h-60l-7 42q-40 -42 -109 -42h-96q-67 0 -108 41t-41 108v371zM134 619v57h292v-57h-292z" />
    <glyph glyph-name="Ubreve" unicode="&#x16c;" 
d="M190 885h59q0 -52 20 -74t63 -22q42 0 61.5 22t19.5 74h59q0 -79 -35 -113t-105 -34q-71 0 -106.5 34.5t-35.5 112.5zM509 700h83v-551q0 -67 -41 -108t-108 -41h-224q-67 0 -108 41t-41 108v551h83v-547q0 -37 21.5 -59t58.5 -22h196q37 0 58.5 22t21.5 59v547z" />
    <glyph glyph-name="ubreve" unicode="&#x16d;" horiz-adv-x="561" 
d="M70 520h78v-372q0 -37 21.5 -59t58.5 -22h105q35 0 57 19.5t24 53.5v380h77v-520h-60l-7 42q-40 -42 -109 -42h-96q-67 0 -108 41t-41 108v371zM149 740h59q0 -55 16.5 -79.5t56.5 -24.5t56 24.5t16 79.5h58q0 -81 -31 -118t-99 -37t-100 37t-32 118z" />
    <glyph glyph-name="Uring" unicode="&#x16e;" 
d="M509 700h83v-551q0 -67 -41 -108t-108 -41h-224q-67 0 -108 41t-41 108v551h83v-547q0 -37 21.5 -59t58.5 -22h196q37 0 58.5 22t21.5 59v547zM229 814q0 43 28 69.5t73 26.5t73.5 -26.5t28.5 -69.5t-28.5 -69.5t-73.5 -26.5t-73 26.5t-28 69.5zM276 814
q0 -27 14.5 -42.5t39.5 -15.5t39.5 15.5t14.5 42.5t-14.5 42.5t-39.5 15.5t-39.5 -15.5t-14.5 -42.5z" />
    <glyph glyph-name="uring" unicode="&#x16f;" horiz-adv-x="561" 
d="M179 654q0 43 28 69.5t73 26.5t73.5 -26.5t28.5 -69.5t-28.5 -69.5t-73.5 -26.5t-73 26.5t-28 69.5zM226 654q0 -27 14.5 -42.5t39.5 -15.5t39.5 15.5t14.5 42.5t-14.5 42.5t-39.5 15.5t-39.5 -15.5t-14.5 -42.5zM70 520h78v-372q0 -37 21.5 -59t58.5 -22h105
q35 0 57 19.5t24 53.5v380h77v-520h-60l-7 42q-40 -42 -109 -42h-96q-67 0 -108 41t-41 108v371z" />
    <glyph glyph-name="Uhungarumlaut" unicode="&#x170;" 
d="M509 700h83v-551q0 -67 -41 -108t-108 -41h-224q-67 0 -108 41t-41 108v551h83v-547q0 -37 21.5 -59t58.5 -22h196q37 0 58.5 22t21.5 59v547zM232 740h-63l101 145h82zM433 740h-63l101 145h82z" />
    <glyph glyph-name="uhungarumlaut" unicode="&#x171;" horiz-adv-x="561" 
d="M70 520h78v-372q0 -37 21.5 -59t58.5 -22h105q35 0 57 19.5t24 53.5v380h77v-520h-60l-7 42q-40 -42 -109 -42h-96q-67 0 -108 41t-41 108v371zM189 580h-55l92 160h74zM356 580h-60l92 160h79z" />
    <glyph glyph-name="Uogonek" unicode="&#x172;" 
d="M509 700h83v-551q0 -67 -41 -108t-108 -41h-58l-36 -53q-14 -20 -14 -41q0 -20 12.5 -33t34.5 -13h52v-60h-73q-39 0 -66 26t-27 65q0 37 28 78l20 31h-97q-67 0 -108 41t-41 108v551h83v-547q0 -37 21.5 -59t58.5 -22h196q37 0 58.5 22t21.5 59v547z" />
    <glyph glyph-name="uogonek" unicode="&#x173;" horiz-adv-x="561" 
d="M70 520h78v-372q0 -37 21.5 -59t58.5 -22h105q35 0 57 19.5t24 53.5v380h77v-520l-36 -53q-14 -20 -14 -41q0 -20 12.5 -33t34.5 -13h52v-60h-73q-39 0 -66 26t-27 65q0 37 28 78l27 41l-5 32q-40 -42 -109 -42h-96q-67 0 -108 41t-41 108v371z" />
    <glyph glyph-name="Wcircumflex" unicode="&#x174;" horiz-adv-x="860" 
d="M186 0l-189 700h85l154 -586l155 586h80l155 -586l154 586h82l-188 -700h-94l-150 550l-150 -550h-94zM473 885l113 -145h-73l-84 104l-84 -104h-71l113 145h86z" />
    <glyph glyph-name="wcircumflex" unicode="&#x175;" horiz-adv-x="788" 
d="M431 740l108 -160h-72l-75 111l-75 -111h-70l108 160h76zM269 0h-87l-162 520h80l130 -425l128 425h77l128 -425l130 425h75l-162 -520h-87l-125 403z" />
    <glyph glyph-name="Ycircumflex" unicode="&#x176;" horiz-adv-x="612" 
d="M347 268v-268h-82v268l-260 432h98l204 -349l206 349h94zM349 885l113 -145h-73l-84 104l-84 -104h-71l113 145h86z" />
    <glyph glyph-name="ycircumflex" unicode="&#x177;" horiz-adv-x="531" 
d="M235 -200h-83l77 200h-10l-199 520h83l165 -434l165 434h78zM303 740l108 -160h-72l-75 111l-75 -111h-70l108 160h76z" />
    <glyph glyph-name="Ydieresis" unicode="&#x178;" horiz-adv-x="612" 
d="M347 268v-268h-82v268l-260 432h98l204 -349l206 349h94zM149 743v107h68v-107h-68zM394 743v107h68v-107h-68z" />
    <glyph glyph-name="Zacute" unicode="&#x179;" horiz-adv-x="607" 
d="M50 72l409 556h-409v72h507v-72l-409 -556h409v-72h-507v72zM312 740h-68l92 145h86z" />
    <glyph glyph-name="zacute" unicode="&#x17a;" horiz-adv-x="486" 
d="M255 580h-63l101 160h82zM40 67l310 386h-310v67h406v-67l-310 -386h310v-67h-406v67z" />
    <glyph glyph-name="Zdotaccent" unicode="&#x17b;" horiz-adv-x="607" 
d="M264 740v113h78v-113h-78zM50 72l409 556h-409v72h507v-72l-409 -556h409v-72h-507v72z" />
    <glyph glyph-name="zdotaccent" unicode="&#x17c;" horiz-adv-x="486" 
d="M40 67l310 386h-310v67h406v-67l-310 -386h310v-67h-406v67zM204 595v113h78v-113h-78z" />
    <glyph glyph-name="Zcaron" unicode="&#x17d;" horiz-adv-x="607" 
d="M260 740l-113 145h73l84 -103l84 103h71l-113 -145h-86zM50 72l409 556h-409v72h507v-72l-409 -556h409v-72h-507v72z" />
    <glyph glyph-name="zcaron" unicode="&#x17e;" horiz-adv-x="486" 
d="M205 580l-108 160h72l75 -111l75 111h70l-108 -160h-76zM40 67l310 386h-310v67h406v-67l-310 -386h310v-67h-406v67z" />
    <glyph glyph-name="florin" unicode="&#x192;" horiz-adv-x="438" 
d="M170 44v289h-120v67h120v159q0 64 39 102.5t102 38.5h77v-67h-68q-33 0 -52.5 -19.5t-19.5 -52.5v-161h140v-67h-140v-288q0 -64 -39 -102.5t-102 -38.5h-57v67h48q33 0 52.5 19.5t19.5 53.5z" />
    <glyph glyph-name="Aringacute" unicode="&#x1fa;" horiz-adv-x="618" 
d="M360 700l258 -700h-87l-66 180h-314l-66 -180h-85l259 700h101zM308 612l-135 -360h270zM305 930h-68l92 145h86zM208 814q0 43 28 69.5t73 26.5t73.5 -26.5t28.5 -69.5t-28.5 -69.5t-73.5 -26.5t-73 26.5t-28 69.5zM255 814q0 -27 14.5 -42.5t39.5 -15.5t39.5 15.5
t14.5 42.5t-14.5 42.5t-39.5 15.5t-39.5 -15.5t-14.5 -42.5z" />
    <glyph glyph-name="AEacute" unicode="&#x1fc;" horiz-adv-x="1028" 
d="M588 740h-68l92 145h86zM0 0l480 700h498v-72h-369v-241h319v-72h-319v-243h369v-72h-452v180h-308l-125 -180h-93zM257 252h269v382z" />
    <glyph glyph-name="aeacute" unicode="&#x1fd;" horiz-adv-x="870" 
d="M437 580h-63l101 160h82zM732 165h78v-16q0 -67 -41 -108t-108 -41h-108q-87 0 -127 64q-37 -64 -120 -64h-120q-63 0 -102 39t-39 102v13q0 64 39 102.5t102 38.5h112q52 0 91 -29v115q0 33 -19.5 52.5t-53.5 19.5h-101q-33 0 -52.5 -19.5t-19.5 -52.5v-26h-78v24
q0 64 39 102.5t102 38.5h104q80 0 119 -60q39 60 124 60h108q67 0 108 -41t41 -108v-136h-344v-87q0 -37 22 -59t59 -22h105q37 0 58.5 22t21.5 59v17zM316 67q34 0 53.5 19.5t19.5 53.5v21q0 33 -19.5 52.5t-53.5 19.5h-121q-33 0 -52.5 -19.5t-19.5 -52.5v-21
q0 -34 19.5 -53.5t52.5 -19.5h121zM466 373v-76h266v76q0 37 -21.5 58.5t-58.5 21.5h-105q-37 0 -59 -21.5t-22 -58.5z" />
    <glyph glyph-name="Oslashacute" unicode="&#x1fe;" 
d="M59 -59l56 96q-45 40 -45 112v402q0 67 41 108t108 41h224q22 0 50 -7l56 97l53 -31l-56 -96q46 -41 46 -112v-402q0 -67 -41 -108t-108 -41h-224q-30 0 -51 7l-56 -97zM509 153v395q0 19 -8 37l-294 -510q12 -3 26 -3h196q37 0 58.5 22t21.5 59zM153 153q0 -22 7 -37
l294 509q-12 3 -25 3h-196q-37 0 -58.5 -21.5t-21.5 -58.5v-395zM340 740h-68l92 145h86z" />
    <glyph glyph-name="oslashacute" unicode="&#x1ff;" horiz-adv-x="541" 
d="M481 149q0 -67 -41 -108t-108 -41h-123q-27 0 -53 8l-42 -73l-46 26l41 72q-49 41 -49 116v222q0 67 41 108t108 41h123q27 0 54 -8l42 73l46 -26l-42 -73q49 -41 49 -115v-222zM404 148v225q0 25 -12 45l-200 -348q12 -3 26 -3h105q37 0 59 22t22 59zM138 148
q0 -26 11 -46l201 347q-12 4 -27 4h-105q-37 0 -58.5 -21.5t-21.5 -58.5v-225zM282 580h-63l101 160h82z" />
    <glyph glyph-name="Scommaaccent" unicode="&#x218;" horiz-adv-x="652" 
d="M285 -200l10 140h72l-27 -140h-55zM433 387q67 0 108 -41t41 -108v-89q0 -67 -41 -108t-108 -41h-214q-67 0 -108 41t-41 108v61h83v-57q0 -37 21.5 -59t58.5 -22h186q37 0 58.5 22t21.5 59v81q0 37 -21.5 59t-58.5 22h-200q-67 0 -108 41t-41 108v87q0 67 41 108t108 41
h214q67 0 108 -41t41 -108v-61h-83v58q0 37 -21.5 58.5t-58.5 21.5h-186q-37 0 -58.5 -21.5t-21.5 -58.5v-81q0 -37 21.5 -58.5t58.5 -21.5h200z" />
    <glyph glyph-name="scommaaccent" unicode="&#x219;" horiz-adv-x="541" 
d="M229 -200l10 140h72l-27 -140h-55zM341 294q63 0 101.5 -38.5t38.5 -102.5v-12q0 -63 -38.5 -102t-101.5 -39h-140q-63 0 -102 39t-39 102v22h78v-23q0 -34 19.5 -53.5t52.5 -19.5h121q34 0 53.5 20t19.5 53v19q0 34 -19.5 53.5t-53.5 19.5h-125q-63 0 -102 39t-39 102v6
q0 64 39 102.5t102 38.5h129q64 0 102.5 -38.5t38.5 -102.5v-21h-77v23q0 33 -19.5 52.5t-53.5 19.5h-111q-33 0 -52.5 -19.5t-19.5 -52.5v-14q0 -34 19.5 -53.5t52.5 -19.5h126z" />
    <glyph glyph-name="circumflex" unicode="&#x2c6;" horiz-adv-x="332" 
d="M204 740l108 -160h-72l-75 111l-75 -111h-70l108 160h76z" />
    <glyph glyph-name="caron" unicode="&#x2c7;" horiz-adv-x="332" 
d="M128 580l-108 160h72l75 -111l75 111h70l-108 -160h-76z" />
    <glyph glyph-name="breve" unicode="&#x2d8;" horiz-adv-x="302" 
d="M20 740h59q0 -55 16.5 -79.5t56.5 -24.5t56 24.5t16 79.5h58q0 -81 -31 -118t-99 -37t-100 37t-32 118z" />
    <glyph glyph-name="dotaccent" unicode="&#x2d9;" horiz-adv-x="118" 
d="M20 595v113h78v-113h-78z" />
    <glyph glyph-name="ring" unicode="&#x2da;" horiz-adv-x="232" 
d="M15 654q0 43 28 69.5t73 26.5t73.5 -26.5t28.5 -69.5t-28.5 -69.5t-73.5 -26.5t-73 26.5t-28 69.5zM62 654q0 -27 14.5 -42.5t39.5 -15.5t39.5 15.5t14.5 42.5t-14.5 42.5t-39.5 15.5t-39.5 -15.5t-14.5 -42.5z" />
    <glyph glyph-name="ogonek" unicode="&#x2db;" horiz-adv-x="216" 
d="M79 16l58 -16l-36 -53q-14 -20 -14 -41q0 -20 12.5 -33t34.5 -13h52v-60h-73q-39 0 -66 26t-27 65q0 37 28 78z" />
    <glyph glyph-name="tilde" unicode="&#x2dc;" horiz-adv-x="436" 
d="M166 671q-16 12 -34.5 8.5t-28.5 -20.5l-37 -57l-46 27l40 62q23 37 61 45.5t75 -14.5l79 -52q40 -26 66 13l30 46l45 -27l-32 -51q-24 -38 -62.5 -46.5t-76.5 14.5z" />
    <glyph glyph-name="hungarumlaut" unicode="&#x2dd;" horiz-adv-x="373" 
d="M75 580h-55l92 160h74zM242 580h-60l92 160h79z" />
    <glyph glyph-name="uni03A9" unicode="&#x3a9;" 
d="M185 72l-65 66q-50 45 -50 115v298q0 67 41 108t108 41h224q67 0 108 -41t41 -108v-298q0 -70 -50 -115l-65 -66h115v-72h-214v72l108 104q23 22 23 61v311q0 37 -21.5 58.5t-58.5 21.5h-196q-37 0 -58.5 -21.5t-21.5 -58.5v-311q0 -39 23 -61l108 -104v-72h-214v72h115z
" />
    <glyph glyph-name="pi" unicode="&#x3c0;" horiz-adv-x="536" 
d="M148 453v-453h-78v453h-70v67h536v-67h-70v-453h-77v453h-241z" />
    <glyph glyph-name="Wgrave" unicode="&#x1e80;" horiz-adv-x="860" 
d="M493 740h-67l-110 145h86zM186 0l-189 700h85l154 -586l155 586h80l155 -586l154 586h82l-188 -700h-94l-150 550l-150 -550h-94z" />
    <glyph glyph-name="wgrave" unicode="&#x1e81;" horiz-adv-x="788" 
d="M269 0h-87l-162 520h80l130 -425l128 425h77l128 -425l130 425h75l-162 -520h-87l-125 403zM464 580h-62l-120 160h81z" />
    <glyph glyph-name="Wacute" unicode="&#x1e82;" horiz-adv-x="860" 
d="M434 740h-68l92 145h86zM186 0l-189 700h85l154 -586l155 586h80l155 -586l154 586h82l-188 -700h-94l-150 550l-150 -550h-94z" />
    <glyph glyph-name="wacute" unicode="&#x1e83;" horiz-adv-x="788" 
d="M386 580h-63l101 160h82zM269 0h-87l-162 520h80l130 -425l128 425h77l128 -425l130 425h75l-162 -520h-87l-125 403z" />
    <glyph glyph-name="Wdieresis" unicode="&#x1e84;" horiz-adv-x="860" 
d="M273 743v107h68v-107h-68zM518 743v107h68v-107h-68zM186 0l-189 700h85l154 -586l155 586h80l155 -586l154 586h82l-188 -700h-94l-150 550l-150 -550h-94z" />
    <glyph glyph-name="wdieresis" unicode="&#x1e85;" horiz-adv-x="788" 
d="M257 590v108h68v-108h-68zM462 590v108h68v-108h-68zM269 0h-87l-162 520h80l130 -425l128 425h77l128 -425l130 425h75l-162 -520h-87l-125 403z" />
    <glyph glyph-name="Ygrave" unicode="&#x1ef2;" horiz-adv-x="612" 
d="M347 268v-268h-82v268l-260 432h98l204 -349l206 349h94zM364 740h-67l-110 145h86z" />
    <glyph glyph-name="ygrave" unicode="&#x1ef3;" horiz-adv-x="531" 
d="M235 -200h-83l77 200h-10l-199 520h83l165 -434l165 434h78zM316 580h-62l-120 160h81z" />
    <glyph glyph-name="endash" unicode="&#x2013;" horiz-adv-x="510" 
d="M5 230v67h500v-67h-500z" />
    <glyph glyph-name="emdash" unicode="&#x2014;" horiz-adv-x="1010" 
d="M5 230v67h1000v-67h-1000z" />
    <glyph glyph-name="quoteleft" unicode="&#x2018;" horiz-adv-x="228" 
d="M158 798v-238h-88l30 238h58z" />
    <glyph glyph-name="quoteright" unicode="&#x2019;" horiz-adv-x="228" 
d="M70 560v238h88l-30 -238h-58z" />
    <glyph glyph-name="quotesinglbase" unicode="&#x201a;" horiz-adv-x="228" 
d="M70 -115v238h88l-30 -238h-58z" />
    <glyph glyph-name="quotedblleft" unicode="&#x201c;" horiz-adv-x="365" 
d="M295 798v-238h-87l30 238h57zM158 798v-238h-88l30 238h58z" />
    <glyph glyph-name="quotedblright" unicode="&#x201d;" horiz-adv-x="365" 
d="M70 560v238h88l-30 -238h-58zM208 560v238h87l-30 -238h-57z" />
    <glyph glyph-name="quotedblbase" unicode="&#x201e;" horiz-adv-x="365" 
d="M70 -115v238h88l-30 -238h-58zM208 -115v238h87l-30 -238h-57z" />
    <glyph glyph-name="dagger" unicode="&#x2020;" horiz-adv-x="539" 
d="M311 -60h-83l10 475l-218 -10v72l218 -10l-10 233h83l-10 -233l218 10v-72l-218 10z" />
    <glyph glyph-name="daggerdbl" unicode="&#x2021;" horiz-adv-x="539" 
d="M228 320l10 130l-218 -10v72l218 -10l-10 198h83l-10 -198l218 10v-72l-218 10l10 -130l-10 -129l218 10v-72l-218 10l10 -199h-83l10 199l-218 -10v72l218 -10z" />
    <glyph glyph-name="bullet" unicode="&#x2022;" horiz-adv-x="304" 
d="M35 350q0 52 32.5 84.5t84.5 32.5t84.5 -32.5t32.5 -84.5t-32.5 -84.5t-84.5 -32.5t-84.5 32.5t-32.5 84.5z" />
    <glyph glyph-name="ellipsis" unicode="&#x2026;" horiz-adv-x="863" 
d="M70 0v123h88v-123h-88zM388 0v123h87v-123h-87zM705 0v123h88v-123h-88z" />
    <glyph glyph-name="perthousand" unicode="&#x2030;" horiz-adv-x="1113" 
d="M247 436v178q0 18 -10.5 28t-27.5 10h-67q-17 0 -27.5 -10t-10.5 -28v-178q0 -17 10.5 -27.5t27.5 -10.5h67q17 0 27.5 10.5t10.5 27.5zM301 424q0 -33 -20.5 -53.5t-53.5 -20.5h-103q-33 0 -53.5 20.5t-20.5 53.5v202q0 34 20.5 54t53.5 20h103q33 0 53.5 -20t20.5 -54
v-202zM659 86v178q0 18 -10.5 28t-27.5 10h-67q-17 0 -27.5 -10t-10.5 -28v-178q0 -17 10.5 -27.5t27.5 -10.5h67q17 0 27.5 10.5t10.5 27.5zM713 74q0 -33 -20.5 -53.5t-53.5 -20.5h-103q-33 0 -53.5 20.5t-20.5 53.5v202q0 34 20.5 54t53.5 20h103q33 0 53.5 -20t20.5 -54
v-202zM106 0l482 700h69l-482 -700h-69zM1009 86v178q0 38 -37 38h-68q-37 0 -37 -38v-178q0 -17 10 -27.5t27 -10.5h68q17 0 27 10.5t10 27.5zM1063 74q0 -33 -20 -53.5t-54 -20.5h-102q-33 0 -53.5 20.5t-20.5 53.5v202q0 34 20.5 54t53.5 20h102q34 0 54 -20t20 -54v-202
z" />
    <glyph glyph-name="guilsinglleft" unicode="&#x2039;" horiz-adv-x="257" 
d="M227 66l-207 160v68l207 160v-79l-140 -115l140 -113v-81z" />
    <glyph glyph-name="guilsinglright" unicode="&#x203a;" horiz-adv-x="257" 
d="M25 454l207 -160v-68l-207 -160v80l141 114l-141 114v80z" />
    <glyph glyph-name="fraction" unicode="&#x2044;" horiz-adv-x="592" 
d="M20 0l482 700h70l-482 -700h-70z" />
    <glyph glyph-name="Euro" unicode="&#x20ac;" horiz-adv-x="632" 
d="M30 402v62h70v87q0 67 41 108t108 41h184q67 0 108 -41t41 -108v-76h-83v73q0 37 -21.5 58.5t-58.5 21.5h-156q-37 0 -58.5 -21.5t-21.5 -58.5v-84h211v-62h-211v-104h211v-62h-211v-83q0 -37 21.5 -59t58.5 -22h156q37 0 58.5 22t21.5 59v72h83v-76q0 -67 -41 -108
t-108 -41h-184q-67 0 -108 41t-41 108v87h-70v62h70v104h-70z" />
    <glyph glyph-name="trademark" unicode="&#x2122;" horiz-adv-x="733" 
d="M25 652v48h295v-48h-120v-302h-54v302h-121zM624 350v254l-109 -196l-109 196v-254h-54v350h53l110 -198l110 198h53v-350h-54z" />
    <glyph glyph-name="arrowleft" unicode="&#x2190;" horiz-adv-x="953" 
d="M933 347h-762l328 -328l-55 -55l-424 424l424 424l55 -54l-328 -328h762v-83z" />
    <glyph glyph-name="arrowup" unicode="&#x2191;" horiz-adv-x="888" 
d="M403 -68v762l-328 -328l-55 55l424 424l424 -424l-54 -55l-328 328v-762h-83z" />
    <glyph glyph-name="arrowright" unicode="&#x2192;" horiz-adv-x="953" 
d="M20 430h762l-328 328l55 54l424 -424l-424 -424l-55 55l328 328h-762v83z" />
    <glyph glyph-name="arrowdown" unicode="&#x2193;" horiz-adv-x="888" 
d="M486 846v-762l328 328l54 -55l-424 -424l-424 424l55 55l328 -328v762h83z" />
    <glyph glyph-name="uni2196" unicode="&#x2196;" horiz-adv-x="715" 
d="M637 26l-540 538v-464h-77v600h600v-77h-464l539 -539z" />
    <glyph glyph-name="uni2197" unicode="&#x2197;" horiz-adv-x="715" 
d="M618 564l-540 -538l-58 58l539 539h-464v77h600v-600h-77v464z" />
    <glyph glyph-name="uni2198" unicode="&#x2198;" horiz-adv-x="715" 
d="M78 675l540 -539v464h77v-600h-600v77h464l-539 540z" />
    <glyph glyph-name="uni2199" unicode="&#x2199;" horiz-adv-x="715" 
d="M97 136l540 539l58 -58l-539 -540h464v-77h-600v600h77v-464z" />
    <glyph glyph-name="partialdiff" unicode="&#x2202;" horiz-adv-x="551" 
d="M187 740h103l142 -149q49 -51 49 -115v-327q0 -67 -41 -108t-107 -41h-124q-67 0 -108 41t-41 108v152q0 67 41 108t108 41h96q58 0 99 -33v65q0 38 -24 61zM323 67q37 0 59 22t22 59v162q-2 34 -24 53.5t-57 19.5h-105q-37 0 -58.5 -21.5t-21.5 -58.5v-155
q0 -37 21.5 -59t58.5 -22h105z" />
    <glyph glyph-name="emptyset" unicode="&#x2205;" horiz-adv-x="637" 
d="M59 351q0 115 72 187.5t187 72.5q92 0 161 -51l100 100l48 -47l-100 -100q51 -69 51 -162q0 -115 -72.5 -187t-187.5 -72q-95 0 -162 50l-98 -97l-48 47l98 98q-49 68 -49 161zM500 351q0 61 -28 108l-265 -265q46 -35 111 -35q80 0 131 53.5t51 138.5zM136 351
q0 -62 27 -107l265 265q-48 35 -110 35q-80 0 -131 -54t-51 -139z" />
    <glyph glyph-name="Delta" unicode="&#x2206;" horiz-adv-x="618" 
d="M360 700l258 -700h-618l259 700h101zM308 611l-201 -539h401z" />
    <glyph glyph-name="product" unicode="&#x220f;" 
d="M509 0v628h-356v-628h-83v700h522v-700h-83z" />
    <glyph glyph-name="summation" unicode="&#x2211;" horiz-adv-x="562" 
d="M355 372v-44l-187 -256h354v-72h-452v72l204 278l-204 278v72h452v-72h-354z" />
    <glyph glyph-name="minus" unicode="&#x2212;" horiz-adv-x="512" 
d="M30 384h452v-67h-452v67z" />
    <glyph glyph-name="radical" unicode="&#x221a;" horiz-adv-x="613" 
d="M259 0l-170 453h-89v67h147l161 -433l226 613h79l-258 -700h-96z" />
    <glyph glyph-name="infinity" unicode="&#x221e;" horiz-adv-x="618" 
d="M383 243l-74 70l-74 -70q-43 -43 -93 -43q-54 0 -88 33t-34 88v60q0 55 34 88t88 33q50 0 93 -43l74 -70l74 70q43 43 93 43q54 0 88 -33t34 -88v-60q0 -55 -34 -88t-88 -33q-50 0 -93 43zM408 406l-59 -55l59 -55q31 -31 62 -31q29 0 47.5 18.5t18.5 47.5v40
q0 29 -18.5 47.5t-47.5 18.5q-31 0 -62 -31zM148 265q31 0 62 31l58 55l-58 55q-31 31 -62 31q-29 0 -47.5 -18.5t-18.5 -47.5v-40q0 -29 18.5 -47.5t47.5 -18.5z" />
    <glyph glyph-name="integral" unicode="&#x222b;" horiz-adv-x="338" 
d="M70 -61l115 660q11 64 57 102.5t109 38.5h77l-12 -67h-68q-33 0 -56 -19.5t-29 -52.5l-115 -660q-11 -64 -57 -102.5t-109 -38.5h-77l12 67h67q34 0 57 19.5t29 52.5z" />
    <glyph glyph-name="approxequal" unicode="&#x2248;" horiz-adv-x="512" 
d="M190 459q-16 11 -34.5 7.5t-28.5 -21.5l-35 -58l-47 23l37 64q21 38 58.5 49t75.5 -11l111 -64q18 -12 36 -8t29 22l28 47l48 -23l-30 -52q-22 -39 -60 -50t-77 11zM190 264q-16 11 -34.5 7.5t-28.5 -21.5l-35 -58l-47 23l37 64q21 38 58.5 49t75.5 -11l111 -64
q18 -12 36 -8t29 22l28 47l48 -23l-30 -52q-22 -39 -60 -50t-77 11z" />
    <glyph glyph-name="notequal" unicode="&#x2260;" horiz-adv-x="512" 
d="M30 259h161l61 183h-222v67h244l48 145h69l-49 -145h140v-67h-162l-60 -183h222v-67h-244l-48 -144h-68l47 144h-139v67z" />
    <glyph glyph-name="lessequal" unicode="&#x2264;" horiz-adv-x="512" 
d="M482 155l-452 177v68l452 177v-74l-368 -137l368 -136v-75zM30 67h452v-67h-452v67z" />
    <glyph glyph-name="greaterequal" unicode="&#x2265;" horiz-adv-x="512" 
d="M30 577l452 -177v-68l-452 -177v75l368 136l-368 137v74zM30 67h452v-67h-452v67z" />
    <glyph glyph-name="commaaccent" unicode="&#xf6c3;" horiz-adv-x="122" 
d="M20 -200l10 140h72l-27 -140h-55z" />
    <glyph glyph-name="CR" horiz-adv-x="0" 
 />
    <glyph glyph-name="iacute_jacute" horiz-adv-x="435" 
d="M288 -200v720h77v-720h-77zM348 580h-62l101 160h81zM70 0v520h78v-520h-78zM131 580h-63l101 160h82z" />
    <glyph glyph-name="publish" horiz-adv-x="880" 
d="M135 350q0 -141 83.5 -225.5t221.5 -84.5q139 0 222 84.5t83 225.5q0 142 -83 226.5t-222 84.5q-138 0 -221.5 -84.5t-83.5 -226.5zM80 350q0 164 98 262t262 98t262 -98t98 -262t-98 -262t-262 -98t-262 98t-98 262zM292 144v412h225q50 0 80.5 -30.5t30.5 -80.5v-59
q0 -50 -30.5 -81t-80.5 -31h-170v-130h-55zM508 508h-161v-185h161q29 0 47 17.5t18 47.5v54q0 30 -18 48t-47 18z" />
    <glyph glyph-name="questiondown.cap" horiz-adv-x="627" 
d="M291 505h78v-48q0 -63 -39 -102t-102 -39h-8q-33 0 -52.5 -19.5t-19.5 -52.5v-104q0 -34 19.5 -53.5t52.5 -19.5h187q33 0 52.5 19.5t19.5 53.5v70h78v-69q0 -63 -39 -102t-102 -39h-205q-63 0 -102 39t-39 102v101q0 64 39 102.5t102 38.5h8q33 0 52.5 19.5t19.5 53.5
v49zM291 588v112h78v-112h-78z" />
    <glyph glyph-name="exclamdown.cap" horiz-adv-x="258" 
d="M90 0v505h78v-505h-78zM90 588v112h78v-112h-78z" />
    <glyph glyph-name="guillemotleft.cap" horiz-adv-x="436" 
d="M227 156l-207 160v68l207 160v-79l-140 -115l140 -113v-81zM406 156l-207 160v68l207 160v-79l-141 -115l141 -113v-81z" />
    <glyph glyph-name="guillemotright.cap" horiz-adv-x="436" 
d="M209 544l207 -160v-68l-207 -160v80l140 114l-140 114v80zM30 544l207 -160v-68l-207 -160v80l141 114l-141 114v80z" />
    <glyph glyph-name="guilsinglleft.cap" horiz-adv-x="257" 
d="M227 156l-207 160v68l207 160v-79l-140 -115l140 -113v-81z" />
    <glyph glyph-name="guilsinglright.cap" horiz-adv-x="257" 
d="M25 544l207 -160v-68l-207 -160v80l141 114l-141 114v80z" />
    <glyph glyph-name="emdash.cap" horiz-adv-x="1010" 
d="M5 317v67h1000v-67h-1000z" />
    <glyph glyph-name="endash.cap" horiz-adv-x="510" 
d="M5 317v67h500v-67h-500z" />
    <glyph glyph-name="hyphen.cap" horiz-adv-x="259" 
d="M30 317v67h199v-67h-199z" />
    <glyph glyph-name="at.cap" horiz-adv-x="1039" 
d="M767 100q-66 0 -100.5 36t-32.5 95l-106 -90q-47 -41 -115 -41q-67 0 -100 41t-22 107l40 223q11 67 59 108t116 41h75q84 0 108 -64l11 64h78l-67 -379q-7 -40 10.5 -63.5t54.5 -23.5q41 0 73 32.5t49.5 81t26.5 96.5t9 88q0 143 -88.5 226t-244.5 83q-136 0 -249 -64
t-180 -182t-67 -267q0 -143 89 -226t245 -83q124 0 229 54l19 -47q-117 -56 -248 -56q-182 0 -285.5 96t-103.5 262q0 163 74.5 292.5t199.5 199.5t277 70q181 0 284.5 -96t103.5 -262q0 -87 -23.5 -165t-75.5 -132.5t-123 -54.5zM435 167q37 0 63 23l148 125l29 161
q5 35 -13.5 56t-53.5 21h-105q-37 0 -62.5 -21.5t-32.5 -58.5l-39 -225q-7 -37 11 -59t55 -22z" />
    <glyph glyph-name="caron.alt" horiz-adv-x="130" 
d="M20 580l17 200h73l-43 -200h-47z" />
    <glyph glyph-name="acute.cap" horiz-adv-x="218" 
d="M88 740h-68l92 145h86z" />
    <glyph glyph-name="breve.cap" horiz-adv-x="322" 
d="M20 885h59q0 -52 20 -74t63 -22q42 0 61.5 22t19.5 74h59q0 -79 -35 -113t-105 -34q-71 0 -106.5 34.5t-35.5 112.5z" />
    <glyph glyph-name="caron.cap" horiz-adv-x="352" 
d="M133 740l-113 145h73l84 -103l84 103h71l-113 -145h-86z" />
    <glyph glyph-name="circumflex.cap" horiz-adv-x="352" 
d="M219 885l113 -145h-73l-84 104l-84 -104h-71l113 145h86z" />
    <glyph glyph-name="dieresis.cap" horiz-adv-x="353" 
d="M20 743v107h68v-107h-68zM265 743v107h68v-107h-68z" />
    <glyph glyph-name="dotaccent.cap" horiz-adv-x="118" 
d="M20 740v113h78v-113h-78z" />
    <glyph glyph-name="grave.cap" horiz-adv-x="218" 
d="M198 740h-67l-110 145h86z" />
    <glyph glyph-name="hungarumlaut.cap" horiz-adv-x="424" 
d="M83 740h-63l101 145h82zM284 740h-63l101 145h82z" />
    <glyph glyph-name="macron.cap" horiz-adv-x="372" 
d="M20 774v57h332v-57h-332z" />
    <glyph glyph-name="ring.cap" horiz-adv-x="232" 
d="M15 814q0 43 28 69.5t73 26.5t73.5 -26.5t28.5 -69.5t-28.5 -69.5t-73.5 -26.5t-73 26.5t-28 69.5zM62 814q0 -27 14.5 -42.5t39.5 -15.5t39.5 15.5t14.5 42.5t-14.5 42.5t-39.5 15.5t-39.5 -15.5t-14.5 -42.5z" />
    <glyph glyph-name="tilde.cap" horiz-adv-x="463" 
d="M166 816q-17 11 -35 7.5t-28 -21.5l-35 -58l-48 23l37 64q22 38 59.5 49t75.5 -11l111 -64q18 -12 35.5 -8t29.5 22l28 47l47 -23l-30 -52q-22 -39 -59.5 -50t-76.5 11z" />
    <glyph glyph-name="arrowleft.alt" horiz-adv-x="740" 
d="M720 309h-549l222 -222l-55 -55l-318 318l318 318l55 -54l-222 -222h549v-83z" />
    <glyph glyph-name="arrowright.alt" horiz-adv-x="740" 
d="M20 392h549l-222 222l55 54l318 -318l-318 -318l-55 55l222 222h-549v83z" />
    <glyph glyph-name="arrowup.alt" horiz-adv-x="676" 
d="M297 0v549l-222 -222l-55 55l318 318l318 -318l-54 -55l-222 222v-549h-83z" />
    <glyph glyph-name="arrowdown.alt" horiz-adv-x="676" 
d="M380 700v-549l222 222l54 -55l-318 -318l-318 318l55 55l222 -222v549h83z" />
    <glyph glyph-name="uni2196.alt" horiz-adv-x="564" 
d="M485 73l-388 388v-314h-77v450h450v-76h-314l388 -389z" />
    <glyph glyph-name="uni2197.alt" horiz-adv-x="564" 
d="M468 461l-389 -388l-59 59l388 389h-314v76h450v-450h-76v314z" />
    <glyph glyph-name="uni2198.alt" horiz-adv-x="564" 
d="M79 571l389 -388v314h76v-450h-450v77h314l-388 388z" />
    <glyph glyph-name="uni2199.alt" horiz-adv-x="564" 
d="M97 183l388 388l59 -59l-388 -388h314v-77h-450v450h77v-314z" />
    </font>
</defs>
</svg>
