<?xml version="1.0" standalone="no"?>
<!DOCTYPE svg PUBLIC "-//W3C//DTD SVG 1.1//EN" "http://www.w3.org/Graphics/SVG/1.1/DTD/svg11.dtd" >
<svg xmlns="http://www.w3.org/2000/svg" xmlns:xlink="http://www.w3.org/1999/xlink" version="1.1">
<metadata>
Created by FontForge 20170731 at Tue Aug 21 17:48:30 2007
 By Aleksey,,,
Copyright (c) Tomas Brousil, 2007. All rights reserved.
</metadata>
<defs>
<font id="Purista-SemiBold" horiz-adv-x="670" >
  <font-face 
    font-family="Purista SemiBold"
    font-weight="600"
    font-stretch="normal"
    units-per-em="1000"
    panose-1="0 0 0 0 0 0 0 0 0 0"
    ascent="800"
    descent="-200"
    x-height="520"
    cap-height="700"
    bbox="-95 -210 1109 1080"
    underline-thickness="50"
    underline-position="-200"
    unicode-range="U+0020-FB02"
  />
<missing-glyph horiz-adv-x="0" 
 />
    <glyph glyph-name="ff" unicode="ff" horiz-adv-x="690" 
d="M555 593v-73h135v-96h-135v-424h-111v424h-218v-424h-111v424h-115v96h115v71q0 67 41 108t107 41h98v-96h-83q-25 0 -38.5 -13.5t-13.5 -37.5v-73h218v71q0 67 41 108t107 41h98v-96h-84q-24 0 -37.5 -13.5t-13.5 -37.5z" />
    <glyph glyph-name="fi" unicode="fi" horiz-adv-x="620" 
d="M444 0v424h-218v-424h-111v424h-115v96h115v71q0 67 41 108t107 41h98v-96h-83q-25 0 -38.5 -13.5t-13.5 -37.5v-73h329v-520h-111zM444 611v129h111v-129h-111z" />
    <glyph glyph-name="fl" unicode="fl" horiz-adv-x="620" 
d="M226 593v-73h135v-96h-135v-424h-111v424h-115v96h115v71q0 67 41 108t107 41h292v-740h-111v644h-166q-25 0 -38.5 -13.5t-13.5 -37.5z" />
    <glyph glyph-name=".notdef" horiz-adv-x="0" 
 />
    <glyph glyph-name=".null" horiz-adv-x="0" 
 />
    <glyph glyph-name="nonmarkingreturn" horiz-adv-x="333" 
 />
    <glyph glyph-name="space" unicode=" " horiz-adv-x="300" 
 />
    <glyph glyph-name="exclam" unicode="!" horiz-adv-x="281" 
d="M196 700v-492h-111v492h111zM196 129v-129h-111v129h111z" />
    <glyph glyph-name="quotedbl" unicode="&#x22;" horiz-adv-x="428" 
d="M80 434l-15 266h126l-15 -266h-96zM251 434l-15 266h127l-15 -266h-97z" />
    <glyph glyph-name="numbersign" unicode="#" horiz-adv-x="731" 
d="M332 0l57 179h-157l-57 -179h-98l57 179h-114v89h142l53 164h-107v89h136l57 179h98l-58 -179h158l57 179h98l-57 -179h114v-89h-143l-53 -164h108v-89h-136l-57 -179h-98zM313 432l-53 -164h158l52 164h-157z" />
    <glyph glyph-name="dollar" unicode="$" horiz-adv-x="630" 
d="M259 -100v100h-41q-68 0 -110.5 42t-42.5 111v62h119v-56q0 -26 14.5 -40.5t40.5 -14.5h152q26 0 40.5 14.5t14.5 40.5v85q0 26 -15 40.5t-40 14.5h-174q-68 0 -110 42t-42 111v95q0 69 42 111t110 42h42v100h111v-100h42q68 0 110.5 -42t42.5 -111v-62h-119v56
q0 26 -14.5 41t-40.5 15h-152q-26 0 -40.5 -15t-14.5 -41v-83q0 -26 14.5 -41t40.5 -15h174q68 0 110 -42t42 -111v-96q0 -69 -42 -111t-110 -42h-43v-100h-111z" />
    <glyph glyph-name="percent" unicode="%" horiz-adv-x="794" 
d="M239 444v162q0 27 -26 27h-61q-26 0 -26 -27v-162q0 -26 26 -26h61q26 0 26 26zM315 426q0 -34 -20.5 -55t-55.5 -21h-113q-34 0 -55 21t-21 55v198q0 34 21 55t55 21h113q35 0 55.5 -21t20.5 -55v-198zM668 94v162q0 27 -26 27h-60q-26 0 -26 -27v-162q0 -26 26 -26h60
q26 0 26 26zM744 76q0 -34 -21 -55t-55 -21h-112q-34 0 -55 21t-21 55v198q0 34 21 55t55 21h112q34 0 55 -21t21 -55v-198zM107 0l482 700h98l-481 -700h-99z" />
    <glyph glyph-name="ampersand" unicode="&#x26;" horiz-adv-x="638" 
d="M548 299v-299h-88l-15 47q-40 -47 -115 -47h-113q-68 0 -110 42.5t-42 110.5v62q0 47 21.5 82.5t58.5 52.5q-36 18 -56.5 53.5t-20.5 82.5v61q0 69 42 111t111 42h174q68 0 110.5 -42t42.5 -111v-58h-119v52q0 26 -14.5 41t-40.5 15h-132q-26 0 -41 -15t-15 -41v-83
q0 -26 15 -41t41 -15h396v-103h-90zM374 104q25 0 40 14t15 36v145h-190q-25 0 -40 -14.5t-15 -40.5v-85q0 -26 14.5 -40.5t40.5 -14.5h135z" />
    <glyph glyph-name="quotesingle" unicode="'" horiz-adv-x="256" 
d="M80 434l-15 266h126l-15 -266h-96z" />
    <glyph glyph-name="parenleft" unicode="(" horiz-adv-x="309" 
d="M289 835v-103h-50q-26 0 -40.5 -15t-14.5 -41v-652q0 -26 14.5 -41t40.5 -15h50v-103h-72q-68 0 -110 42t-42 111v664q0 69 42 111t110 42h72z" />
    <glyph glyph-name="parenright" unicode=")" horiz-adv-x="309" 
d="M20 -135v103h50q26 0 40.5 15t14.5 41v652q0 26 -14.5 41t-40.5 15h-50v103h72q68 0 110 -42t42 -111v-664q0 -69 -42 -111t-110 -42h-72z" />
    <glyph glyph-name="asterisk" unicode="*" horiz-adv-x="466" 
d="M30 521l25 77l147 -59l-9 161h80l-10 -159l149 58l24 -77l-152 -40l100 -122l-65 -47l-86 136l-87 -136l-65 47l100 121z" />
    <glyph glyph-name="plus" unicode="+" horiz-adv-x="512" 
d="M205 399v183h101v-183h176v-96h-176v-182h-101v182h-175v96h175z" />
    <glyph glyph-name="comma" unicode="," horiz-adv-x="256" 
d="M65 -115v259h126l-45 -259h-81z" />
    <glyph glyph-name="hyphen" unicode="-" horiz-adv-x="276" 
d="M30 214v96h216v-96h-216z" />
    <glyph glyph-name="period" unicode="." horiz-adv-x="256" 
d="M65 0v144h126v-144h-126z" />
    <glyph glyph-name="slash" unicode="/" horiz-adv-x="330" 
d="M-45 -135l322 970h98l-322 -970h-98z" />
    <glyph glyph-name="zero" unicode="0" horiz-adv-x="630" 
d="M446 159v382q0 26 -14.5 41t-40.5 15h-152q-26 0 -40.5 -15t-14.5 -41v-382q0 -26 14.5 -40.5t40.5 -14.5h152q26 0 40.5 14.5t14.5 40.5zM565 153q0 -68 -42.5 -110.5t-110.5 -42.5h-195q-68 0 -110 42.5t-42 110.5v394q0 69 42 111t110 42h195q68 0 110.5 -42
t42.5 -111v-394z" />
    <glyph glyph-name="one" unicode="1" horiz-adv-x="371" 
d="M306 700v-700h-118v580l-155 -111v120l155 111h118z" />
    <glyph glyph-name="two" unicode="2" horiz-adv-x="610" 
d="M491 355l-269 -251h323v-104h-480v104l345 321q16 15 16 42v74q0 26 -14.5 41t-40.5 15h-132q-26 0 -40.5 -15t-14.5 -41v-98h-119v104q0 69 42.5 111t110.5 42h175q68 0 110 -42t42 -111v-70q0 -73 -54 -122z" />
    <glyph glyph-name="three" unicode="3" horiz-adv-x="613" 
d="M265 299v103h106q26 0 40.5 15t14.5 41v83q0 26 -14.5 41t-40.5 15h-132q-26 0 -40.5 -15t-14.5 -41v-78h-119v84q0 69 42.5 111t110.5 42h174q69 0 111 -42t42 -111v-61q0 -98 -78 -136q38 -17 59.5 -52t21.5 -83v-62q0 -69 -42.5 -111t-110.5 -42h-177q-68 0 -110.5 42
t-42.5 111v85h119v-79q0 -26 14.5 -40.5t40.5 -14.5h135q26 0 40.5 14.5t14.5 40.5v85q0 26 -14.5 40.5t-40.5 14.5h-109z" />
    <glyph glyph-name="four" unicode="4" horiz-adv-x="600" 
d="M381 0v123h-361v103l359 474h121v-474h80v-103h-80v-123h-119zM148 226h233v309z" />
    <glyph glyph-name="five" unicode="5" horiz-adv-x="610" 
d="M65 266v434h460v-103h-341v-181q40 29 95 29h113q69 0 111 -42t42 -111v-139q0 -68 -42 -110.5t-111 -42.5h-174q-68 0 -110.5 42.5t-42.5 110.5v45h119v-39q0 -26 14.5 -40.5t40.5 -14.5h132q55 0 55 55v127q0 55 -55 55h-132q-26 0 -40.5 -14.5t-14.5 -40.5v-20h-119z
" />
    <glyph glyph-name="six" unicode="6" horiz-adv-x="610" 
d="M184 541v-160q40 29 95 29h113q69 0 111 -42t42 -111v-104q0 -68 -42 -110.5t-111 -42.5h-175q-68 0 -110 42.5t-42 110.5v394q0 69 42 111t110 42h175q69 0 111 -42t42 -111v-62h-119v56q0 26 -14.5 41t-40.5 15h-132q-26 0 -40.5 -15t-14.5 -41zM371 104q55 0 55 55v92
q0 55 -55 55h-132q-52 0 -55 -50v-97q0 -26 14.5 -40.5t40.5 -14.5h132z" />
    <glyph glyph-name="seven" unicode="7" horiz-adv-x="560" 
d="M94 0l305 597h-361v103h484v-103l-305 -597h-123z" />
    <glyph glyph-name="eight" unicode="8" horiz-adv-x="630" 
d="M218 0q-68 0 -110.5 42.5t-42.5 110.5v62q0 48 21 83t59 52q-36 18 -56.5 53.5t-20.5 82.5v61q0 69 42 111t111 42h189q68 0 110.5 -42t42.5 -111v-61q0 -97 -78 -136q38 -17 59 -52t21 -83v-62q0 -68 -42 -110.5t-111 -42.5h-194zM391 299h-152q-25 0 -40 -14.5
t-15 -40.5v-85q0 -26 14.5 -40.5t40.5 -14.5h152q55 0 55 55v85q0 26 -14.5 40.5t-40.5 14.5zM389 597h-147q-26 0 -41 -15t-15 -41v-83q0 -26 15 -41t41 -15h147q26 0 40.5 15t14.5 41v83q0 26 -14.5 41t-40.5 15z" />
    <glyph glyph-name="nine" unicode="9" horiz-adv-x="610" 
d="M371 104q55 0 55 55v142q-39 -28 -94 -28h-114q-68 0 -110.5 42t-42.5 111v121q0 69 42.5 111t110.5 42h175q68 0 110 -42t42 -111v-394q0 -69 -42 -111t-110 -42h-175q-68 0 -110.5 42t-42.5 111v47h119v-41q0 -26 14.5 -40.5t40.5 -14.5h132zM239 597q-26 0 -40.5 -15
t-14.5 -41v-109q0 -26 14.5 -41t40.5 -15h132q25 0 39 13.5t16 37.5v114q0 26 -14.5 41t-40.5 15h-132z" />
    <glyph glyph-name="colon" unicode=":" horiz-adv-x="256" 
d="M65 0v144h126v-144h-126zM65 376v144h126v-144h-126z" />
    <glyph glyph-name="semicolon" unicode=";" horiz-adv-x="256" 
d="M65 376v144h126v-144h-126zM65 -115v259h126l-45 -259h-81z" />
    <glyph glyph-name="less" unicode="&#x3c;" horiz-adv-x="512" 
d="M482 130l-452 173v97l452 172v-107l-331 -114l331 -114v-107z" />
    <glyph glyph-name="equal" unicode="=" horiz-adv-x="512" 
d="M30 524h452v-96h-452v96zM30 274h452v-96h-452v96z" />
    <glyph glyph-name="greater" unicode="&#x3e;" horiz-adv-x="512" 
d="M30 572l452 -172v-97l-452 -173v107l332 114l-332 114v107z" />
    <glyph glyph-name="question" unicode="?" horiz-adv-x="632" 
d="M248 208v42q0 67 40.5 108t107.5 41h9q24 0 37.5 13.5t13.5 37.5v103q0 24 -13.5 37.5t-37.5 13.5h-177q-25 0 -38.5 -13.5t-13.5 -37.5v-68h-111v66q0 67 41 108t107 41h205q67 0 108 -41t41 -108v-99q0 -68 -40.5 -108.5t-108.5 -40.5h-8q-24 0 -37.5 -13.5
t-13.5 -38.5v-43h-111zM359 129v-129h-111v129h111z" />
    <glyph glyph-name="at" unicode="@" horiz-adv-x="1039" 
d="M756 0q-64 0 -101 31.5t-43 83.5l-86 -73q-50 -42 -119 -42q-68 0 -102 42t-22 110l38 215q12 69 61.5 111t118.5 42h61q74 0 103 -50l10 50h111l-65 -372q-6 -33 7 -52t42 -19q59 0 100.5 85t41.5 190q0 133 -83 210.5t-228 77.5q-199 0 -336 -138t-137 -354
q0 -133 82.5 -210.5t228.5 -77.5q121 0 221 53l27 -67q-117 -56 -248 -56q-182 0 -285.5 96t-103.5 262q0 163 74.5 292.5t199.5 199.5t277 70q181 0 284.5 -96t103.5 -262q0 -148 -65 -250t-168 -102zM440 96q24 0 44 15l139 118l26 145q2 23 -10 36.5t-37 13.5h-105
q-26 0 -43 -14.5t-21 -40.5l-39 -218q-5 -26 7.5 -40.5t38.5 -14.5z" />
    <glyph glyph-name="A" unicode="A" horiz-adv-x="633" 
d="M389 700l244 -700h-125l-55 164h-276l-56 -164h-121l244 700h145zM314 574l-106 -307h212z" />
    <glyph glyph-name="B" unicode="B" horiz-adv-x="635" 
d="M592 547v-61q0 -97 -78 -136q38 -17 59.5 -52t21.5 -83v-62q0 -68 -42.5 -110.5t-110.5 -42.5h-377v700h374q69 0 111 -42t42 -111zM476 159v85q0 26 -15 40.5t-40 14.5h-237v-195h237q26 0 40.5 14.5t14.5 40.5zM474 458v83q0 26 -15 41t-41 15h-234v-195h234
q26 0 41 15t15 41z" />
    <glyph glyph-name="C" unicode="C" 
d="M605 463h-119v78q0 26 -14.5 41t-40.5 15h-192q-26 0 -40.5 -15t-14.5 -41v-382q0 -26 14.5 -40.5t40.5 -14.5h192q26 0 40.5 14.5t14.5 40.5v79h119v-85q0 -68 -42.5 -110.5t-110.5 -42.5h-235q-68 0 -110 42.5t-42 110.5v394q0 69 42 111t110 42h235q68 0 110.5 -42
t42.5 -111v-84z" />
    <glyph glyph-name="D" unicode="D" 
d="M486 159v382q0 26 -14.5 41t-40.5 15h-247v-493h247q26 0 40.5 14.5t14.5 40.5zM605 153q0 -68 -42.5 -110.5t-110.5 -42.5h-387v700h387q68 0 110.5 -42t42.5 -111v-394z" />
    <glyph glyph-name="E" unicode="E" horiz-adv-x="575" 
d="M65 0v700h470v-103h-351v-195h301v-103h-301v-195h351v-104h-470z" />
    <glyph glyph-name="F" unicode="F" horiz-adv-x="515" 
d="M65 0v700h450v-103h-331v-220h281v-103h-281v-274h-119z" />
    <glyph glyph-name="G" unicode="G" 
d="M605 372v-372h-88l-15 47q-42 -47 -115 -47h-170q-68 0 -110 42.5t-42 110.5v394q0 69 42 111t110 42h235q68 0 110.5 -42t42.5 -111v-69h-119v63q0 26 -14.5 41t-40.5 15h-192q-26 0 -40.5 -15t-14.5 -41v-382q0 -26 14.5 -40.5t40.5 -14.5h192q24 0 39 13t16 37v114
h-184v104h303z" />
    <glyph glyph-name="H" unicode="H" 
d="M486 0v299h-302v-299h-119v700h119v-298h302v298h119v-700h-119z" />
    <glyph glyph-name="I" unicode="I" horiz-adv-x="249" 
d="M65 0v700h119v-700h-119z" />
    <glyph glyph-name="J" unicode="J" horiz-adv-x="607" 
d="M424 700h118v-551q0 -67 -41 -108t-108 -41h-212q-67 0 -107.5 41t-40.5 108v89h118v-83q0 -24 13.5 -37.5t38.5 -13.5h169q25 0 38.5 13.5t13.5 37.5v545z" />
    <glyph glyph-name="K" unicode="K" horiz-adv-x="614" 
d="M461 0l-277 339v-339h-119v700h119v-339l277 339h143l-281 -344l291 -356h-153z" />
    <glyph glyph-name="L" unicode="L" horiz-adv-x="555" 
d="M65 0v700h119v-596h351v-104h-470z" />
    <glyph glyph-name="M" unicode="M" horiz-adv-x="750" 
d="M566 0v466l-191 -360l-191 360v-466h-119v700h115l195 -368l195 368h115v-700h-119z" />
    <glyph glyph-name="N" unicode="N" 
d="M494 0l-310 482v-482h-119v700h111l310 -482v482h119v-700h-111z" />
    <glyph glyph-name="O" unicode="O" 
d="M486 159v382q0 26 -14.5 41t-40.5 15h-192q-26 0 -40.5 -15t-14.5 -41v-382q0 -26 14.5 -40.5t40.5 -14.5h192q26 0 40.5 14.5t14.5 40.5zM605 153q0 -68 -42.5 -110.5t-110.5 -42.5h-235q-68 0 -110 42.5t-42 110.5v394q0 69 42 111t110 42h235q68 0 110.5 -42
t42.5 -111v-394z" />
    <glyph glyph-name="P" unicode="P" horiz-adv-x="612" 
d="M461 408v133q0 26 -14.5 41t-40.5 15h-222v-245h222q26 0 40.5 15t14.5 41zM580 402q0 -69 -42.5 -111t-110.5 -42h-243v-249h-119v700h362q68 0 110.5 -42t42.5 -111v-145z" />
    <glyph glyph-name="Q" unicode="Q" 
d="M276 -140v140h-59q-68 0 -110 42.5t-42 110.5v394q0 69 42 111t110 42h235q68 0 110.5 -42t42.5 -111v-394q0 -68 -42.5 -110.5t-110.5 -42.5h-57v-140h-119zM486 159v382q0 26 -14.5 41t-40.5 15h-192q-26 0 -40.5 -15t-14.5 -41v-382q0 -26 14.5 -40.5t40.5 -14.5h192
q26 0 40.5 14.5t14.5 40.5z" />
    <glyph glyph-name="R" unicode="R" horiz-adv-x="630" 
d="M585 402q0 -59 -31.5 -99t-84.5 -51l116 -252h-130l-109 249h-162v-249h-119v700h367q68 0 110.5 -42t42.5 -111v-145zM466 408v133q0 26 -14.5 41t-40.5 15h-227v-245h227q26 0 40.5 15t14.5 41z" />
    <glyph glyph-name="S" unicode="S" horiz-adv-x="660" 
d="M443 402q68 0 110 -42t42 -111v-96q0 -69 -42 -111t-110 -42h-225q-68 0 -110.5 42t-42.5 111v62h119v-56q0 -26 14.5 -40.5t40.5 -14.5h182q26 0 40.5 14.5t14.5 40.5v85q0 26 -15 40.5t-40 14.5h-204q-68 0 -110 42t-42 111v95q0 69 42 111t110 42h225q68 0 110.5 -42
t42.5 -111v-62h-119v56q0 26 -14.5 41t-40.5 15h-182q-26 0 -40.5 -15t-14.5 -41v-83q0 -26 14.5 -41t40.5 -15h204z" />
    <glyph glyph-name="T" unicode="T" horiz-adv-x="563" 
d="M0 597v103h563v-103h-222v-597h-119v597h-222z" />
    <glyph glyph-name="U" unicode="U" 
d="M486 700h119v-547q0 -68 -42.5 -110.5t-110.5 -42.5h-235q-68 0 -110 42.5t-42 110.5v547h119v-541q0 -26 14.5 -40.5t40.5 -14.5h192q26 0 40.5 14.5t14.5 40.5v541z" />
    <glyph glyph-name="V" unicode="V" horiz-adv-x="626" 
d="M244 0l-244 700h125l189 -552l190 552h122l-244 -700h-138z" />
    <glyph glyph-name="W" unicode="W" horiz-adv-x="866" 
d="M175 0l-179 700h122l128 -535l132 535h115l130 -535l129 535h118l-179 -700h-134l-124 483l-124 -483h-134z" />
    <glyph glyph-name="X" unicode="X" horiz-adv-x="642" 
d="M479 0l-161 253l-162 -253h-135l231 347l-231 353h142l160 -252l164 252h134l-231 -347l231 -353h-142z" />
    <glyph glyph-name="Y" unicode="Y" horiz-adv-x="635" 
d="M377 257v-257h-119v257l-256 443h142l176 -323l178 323h134z" />
    <glyph glyph-name="Z" unicode="Z" horiz-adv-x="627" 
d="M55 104l376 493h-376v103h517v-103l-375 -493h375v-104h-517v104z" />
    <glyph glyph-name="bracketleft" unicode="[" horiz-adv-x="309" 
d="M289 835v-103h-105v-764h105v-103h-224v970h224z" />
    <glyph glyph-name="backslash" unicode="\" horiz-adv-x="330" 
d="M53 835l322 -970h-98l-322 970h98z" />
    <glyph glyph-name="bracketright" unicode="]" horiz-adv-x="309" 
d="M20 -135v103h105v764h-105v103h224v-970h-224z" />
    <glyph glyph-name="asciicircum" unicode="^" horiz-adv-x="526" 
d="M206 844h114l176 -470h-116l-120 352l-119 -352h-111z" />
    <glyph glyph-name="underscore" unicode="_" horiz-adv-x="510" 
d="M505 -91h-500v81h500v-81z" />
    <glyph glyph-name="grave" unicode="`" horiz-adv-x="248" 
d="M228 580h-88l-120 160h116z" />
    <glyph glyph-name="a" unicode="a" horiz-adv-x="546" 
d="M481 0h-85l-14 44q-41 -44 -111 -44h-79q-67 0 -108 41t-41 108v7q0 67 41 108t108 41h79q59 0 98 -33v101q0 24 -13.5 37.5t-37.5 13.5h-90q-25 0 -38.5 -13.5t-13.5 -37.5v-23h-111v21q0 67 41 108t108 41h118q67 0 108 -41t41 -108v-371zM318 96q48 0 51 46v23
q0 25 -13.5 38.5t-37.5 13.5h-113q-24 0 -37.5 -13.5t-13.5 -38.5v-18q0 -24 13.5 -37.5t37.5 -13.5h113z" />
    <glyph glyph-name="b" unicode="b" horiz-adv-x="558" 
d="M65 0v740h111v-255q41 35 103 35h71q69 0 111 -42t42 -111v-214q0 -68 -42 -110.5t-111 -42.5h-71q-74 0 -116 47l-13 -47h-85zM232 424q-53 0 -56 -50v-223q0 -26 15 -40.5t41 -14.5h105q25 0 40 15t15 40v218q0 26 -14.5 40.5t-40.5 14.5h-105z" />
    <glyph glyph-name="c" unicode="c" horiz-adv-x="538" 
d="M382 185h111v-32q0 -68 -42 -110.5t-111 -42.5h-133q-68 0 -110 42.5t-42 110.5v214q0 69 42 111t110 42h133q69 0 111 -42t42 -111v-32h-111v34q0 26 -14.5 40.5t-40.5 14.5h-105q-26 0 -41 -14.5t-15 -40.5v-218q0 -26 15 -40.5t41 -14.5h105q25 0 40 15t15 40v34z" />
    <glyph glyph-name="d" unicode="d" horiz-adv-x="558" 
d="M493 740v-740h-85l-14 47q-42 -47 -114 -47h-72q-69 0 -111 42.5t-42 110.5v214q0 69 42 111t111 42h72q61 0 102 -35v255h111zM382 369q0 26 -14.5 40.5t-40.5 14.5h-105q-26 0 -41 -14.5t-15 -40.5v-218q0 -26 15 -40.5t41 -14.5h105q24 0 39 13.5t16 36.5v223z" />
    <glyph glyph-name="e" unicode="e" horiz-adv-x="548" 
d="M382 170h111v-17q0 -68 -42 -110.5t-111 -42.5h-133q-68 0 -110 42.5t-42 110.5v214q0 69 42 111t110 42h133q69 0 111 -42t42 -111v-147h-327v-69q0 -26 15 -40.5t41 -14.5h105q25 0 40 15t15 40v19zM166 369v-60h216v60q0 26 -14.5 40.5t-40.5 14.5h-105
q-26 0 -41 -14.5t-15 -40.5z" />
    <glyph glyph-name="f" unicode="f" horiz-adv-x="361" 
d="M226 593v-73h135v-96h-135v-424h-111v424h-115v96h115v71q0 67 41 108t107 41h98v-96h-83q-25 0 -38.5 -13.5t-13.5 -37.5z" />
    <glyph glyph-name="g" unicode="g" horiz-adv-x="558" 
d="M493 520v-567q0 -69 -42 -111t-110 -42h-133q-69 0 -111 42t-42 111v17h111v-19q0 -26 15 -40.5t41 -14.5h105q25 0 40 15t15 40v84q-40 -35 -102 -35h-72q-69 0 -111 42.5t-42 110.5v214q0 69 42 111t111 42h72q72 0 114 -47l14 47h85zM166 369v-218q0 -26 15 -40.5
t41 -14.5h105q25 0 40 15t15 40v218q0 26 -14.5 40.5t-40.5 14.5h-105q-26 0 -41 -14.5t-15 -40.5z" />
    <glyph glyph-name="h" unicode="h" horiz-adv-x="568" 
d="M503 0h-111v369q0 26 -14.5 40.5t-40.5 14.5h-105q-26 0 -41 -14.5t-15 -40.5v-369h-111v740h111v-255q41 35 103 35h71q69 0 111 -42t42 -111v-367z" />
    <glyph glyph-name="i" unicode="i" horiz-adv-x="241" 
d="M65 0v520h111v-520h-111zM65 595v129h111v-129h-111z" />
    <glyph glyph-name="j" unicode="j" horiz-adv-x="241" 
d="M65 -200v720h111v-720h-111zM65 595v129h111v-129h-111z" />
    <glyph glyph-name="k" unicode="k" horiz-adv-x="512" 
d="M386 0l-210 250v-250h-111v740h111v-471l207 251h134l-210 -253l225 -267h-146z" />
    <glyph glyph-name="l" unicode="l" horiz-adv-x="241" 
d="M65 0v740h111v-740h-111z" />
    <glyph glyph-name="m" unicode="m" horiz-adv-x="818" 
d="M465 0h-112v369q0 55 -55 55h-66q-26 0 -41 -14.5t-15 -40.5v-369h-111v520h85l13 -47q42 47 116 47h33q83 0 126 -60q42 60 125 60h37q69 0 111 -42t42 -111v-367h-111v369q0 26 -15 40.5t-41 14.5h-66q-55 0 -55 -55v-369z" />
    <glyph glyph-name="n" unicode="n" horiz-adv-x="568" 
d="M503 0h-111v369q0 26 -14.5 40.5t-40.5 14.5h-105q-53 0 -56 -50v-374h-111v520h85l13 -47q42 47 116 47h71q69 0 111 -42t42 -111v-367z" />
    <glyph glyph-name="o" unicode="o" horiz-adv-x="548" 
d="M382 151v218q0 26 -14.5 40.5t-40.5 14.5h-105q-26 0 -41 -14.5t-15 -40.5v-218q0 -26 15 -40.5t41 -14.5h105q25 0 40 15t15 40zM493 153q0 -68 -42 -110.5t-111 -42.5h-133q-68 0 -110 42.5t-42 110.5v214q0 69 42 111t110 42h133q69 0 111 -42t42 -111v-214z" />
    <glyph glyph-name="p" unicode="p" horiz-adv-x="558" 
d="M65 -200v720h85l13 -47q42 47 116 47h71q69 0 111 -42t42 -111v-214q0 -68 -42 -110.5t-111 -42.5h-71q-62 0 -103 35v-235h-111zM392 151v218q0 26 -14.5 40.5t-40.5 14.5h-105q-53 0 -56 -50v-223q0 -26 15 -40.5t41 -14.5h105q25 0 40 15t15 40z" />
    <glyph glyph-name="q" unicode="q" horiz-adv-x="558" 
d="M493 520v-720h-111v235q-40 -35 -102 -35h-72q-69 0 -111 42.5t-42 110.5v214q0 69 42 111t111 42h72q72 0 114 -47l14 47h85zM166 369v-218q0 -26 15 -40.5t41 -14.5h105q25 0 40 15t15 40v218q0 26 -14.5 40.5t-40.5 14.5h-105q-26 0 -41 -14.5t-15 -40.5z" />
    <glyph glyph-name="r" unicode="r" horiz-adv-x="370" 
d="M370 520v-96h-138q-26 0 -41 -14.5t-15 -40.5v-369h-111v520h85l13 -47q42 47 116 47h91z" />
    <glyph glyph-name="s" unicode="s" horiz-adv-x="548" 
d="M345 306q66 0 107 -41t41 -108v-8q0 -67 -41 -108t-107 -41h-141q-67 0 -108 41t-41 108v20h111v-22q0 -24 13.5 -37.5t38.5 -13.5h113q24 0 37.5 14t13.5 38v18q0 24 -13.5 38t-37.5 14h-123q-66 0 -107 41t-41 108v4q0 67 41 108t107 41h131q67 0 108 -41t41 -108v-20
h-111v22q0 24 -13.5 37.5t-37.5 13.5h-103q-25 0 -38.5 -13.5t-13.5 -37.5v-16q0 -24 13.5 -37.5t38.5 -13.5h122z" />
    <glyph glyph-name="t" unicode="t" horiz-adv-x="361" 
d="M0 424v96h125v150l111 33v-183h125v-96h-125v-424h-111v424h-125z" />
    <glyph glyph-name="u" unicode="u" horiz-adv-x="568" 
d="M65 520h111v-369q0 -26 15 -40.5t41 -14.5h105q24 0 39 13.5t16 36.5v374h111v-520h-85l-14 47q-42 -47 -114 -47h-72q-69 0 -111 42t-42 111v367z" />
    <glyph glyph-name="v" unicode="v" horiz-adv-x="528" 
d="M330 0h-132l-188 520h119l138 -395l139 395h112z" />
    <glyph glyph-name="w" unicode="w" horiz-adv-x="771" 
d="M287 0h-126l-151 520h115l105 -384l104 384h111l103 -384l106 384h107l-151 -520h-125l-100 353z" />
    <glyph glyph-name="x" unicode="x" horiz-adv-x="531" 
d="M377 0l-114 176l-117 -176h-125l180 257l-180 263h132l115 -176l117 176h124l-180 -258l180 -262h-132z" />
    <glyph glyph-name="y" unicode="y" horiz-adv-x="528" 
d="M258 -200h-119l72 200h-13l-188 520h119l139 -396l138 396h112z" />
    <glyph glyph-name="z" unicode="z" horiz-adv-x="496" 
d="M40 96l278 328h-278v96h416v-96l-278 -328h278v-96h-416v96z" />
    <glyph glyph-name="braceleft" unicode="{" horiz-adv-x="339" 
d="M95 18v225q0 26 -14.5 41t-39.5 15h-41v103h41q25 0 39.5 14.5t14.5 40.5v225q0 69 42 111t110 42h72v-103h-50q-26 0 -40.5 -15t-14.5 -41v-191q0 -47 -21 -82.5t-57 -52.5q36 -17 57 -52.5t21 -82.5v-191q0 -26 14.5 -41t40.5 -15h50v-103h-72q-68 0 -110 42t-42 111z
" />
    <glyph glyph-name="bar" unicode="|" horiz-adv-x="230" 
d="M65 -135v970h100v-970h-100z" />
    <glyph glyph-name="braceright" unicode="}" horiz-adv-x="339" 
d="M244 682v-225q0 -26 14.5 -40.5t39.5 -14.5h41v-104h-41q-25 0 -39.5 -14.5t-14.5 -40.5v-225q0 -69 -42 -111t-110 -42h-72v103h50q26 0 40.5 15t14.5 41v191q0 47 21 82.5t57 52.5q-36 17 -57 52.5t-21 82.5v191q0 26 -14.5 41t-40.5 15h-50v103h72q68 0 110 -42
t42 -111z" />
    <glyph glyph-name="asciitilde" unicode="~" horiz-adv-x="512" 
d="M182 344q-30 17 -46 -12l-30 -55l-67 32l33 62q22 43 62.5 56.5t83.5 -8.5l115 -60q30 -18 47 12l26 49l67 -31l-29 -58q-22 -42 -62.5 -55.5t-84.5 7.5z" />
    <glyph glyph-name="nbspace" unicode="&#xa0;" horiz-adv-x="300" 
 />
    <glyph glyph-name="exclamdown" unicode="&#xa1;" horiz-adv-x="281" 
d="M85 -180v493h111v-493h-111zM85 391v129h111v-129h-111z" />
    <glyph glyph-name="cent" unicode="&#xa2;" horiz-adv-x="551" 
d="M220 80v100h-23q-69 0 -110.5 42.5t-41.5 110.5v214q0 70 42.5 111.5t109.5 41.5h23v100h111v-100h22q69 0 111 -42t42 -111v-32h-112v34q0 55 -55 55h-127q-26 0 -41 -14.5t-15 -40.5v-218q0 -26 15.5 -40.5t40.5 -14.5h127q55 0 55 55v34h112v-32q0 -68 -42 -110.5
t-111 -42.5h-22v-100h-111z" />
    <glyph glyph-name="sterling" unicode="&#xa3;" horiz-adv-x="618" 
d="M25 304v89h96v154q0 69 42 111t110 42h144q68 0 110.5 -42t42.5 -111v-62h-119v56q0 26 -14.5 41t-40.5 15h-101q-26 0 -41 -15t-15 -41v-148h187v-89h-187v-200h334v-104h-548v104h96v200h-96z" />
    <glyph glyph-name="currency" unicode="&#xa4;" horiz-adv-x="647" 
d="M57 351q0 88 44 154l-93 93l68 68l93 -94q65 45 154 45q87 0 153 -44l97 97l69 -68l-98 -97q45 -65 45 -154t-45 -154l94 -93l-68 -68l-93 94q-65 -45 -154 -45q-88 0 -155 45l-95 -96l-68 68l96 96q-44 66 -44 153zM168 351q0 -75 43.5 -122.5t111.5 -47.5t111.5 47.5
t43.5 122.5t-43.5 122.5t-111.5 47.5t-111.5 -47.5t-43.5 -122.5z" />
    <glyph glyph-name="yen" unicode="&#xa5;" horiz-adv-x="635" 
d="M77 314v89h99l-174 297h142l176 -323l178 323h134l-173 -297h99v-89h-147l-34 -57v-22h181v-88h-181v-147h-119v147h-181v88h181v22l-33 57h-148z" />
    <glyph glyph-name="brokenbar" unicode="&#xa6;" horiz-adv-x="230" 
d="M65 469v366h100v-366h-100zM65 -135v366h100v-366h-100z" />
    <glyph glyph-name="section" unicode="&#xa7;" horiz-adv-x="603" 
d="M538 253q0 -75 -50 -116q50 -41 50 -116v-72q0 -67 -41 -108t-107 -41h-171q-67 0 -108 41t-41 108v42h111v-44q0 -24 13.5 -37.5t38.5 -13.5h143q24 0 37.5 13.5t13.5 37.5v76q0 24 -13.5 37.5t-37.5 13.5h-163q-66 0 -107 41t-41 108v24q0 75 49 116q-49 41 -49 116v72
q0 67 41 108t107 41h171q67 0 108 -41t41 -108v-42h-111v44q0 24 -13.5 37.5t-37.5 13.5h-143q-25 0 -38.5 -13.5t-13.5 -37.5v-75q0 -52 52 -52h162q66 0 107 -41t41 -108v-24zM376 330h-148q-52 0 -52 -52v-56q0 -24 13.5 -38t38.5 -14h152q22 2 34.5 15.5t12.5 36.5v56
q0 25 -13.5 38.5t-37.5 13.5z" />
    <glyph glyph-name="dieresis" unicode="&#xa8;" horiz-adv-x="356" 
d="M20 588v121h96v-121h-96zM225 588v121h96v-121h-96z" />
    <glyph glyph-name="copyright" unicode="&#xa9;" horiz-adv-x="880" 
d="M158 350q0 -132 77 -211t205 -79t205.5 79t77.5 211t-77.5 211t-205.5 79t-205 -79t-77 -211zM80 350q0 164 98 262t262 98t262 -98t98 -262t-98 -262t-262 -98t-262 98t-98 262zM532 294h77v-44q0 -48 -29 -77.5t-77 -29.5h-127q-47 0 -76 29.5t-29 77.5v200
q0 48 29 77.5t76 29.5h127q48 0 77 -29.5t29 -77.5v-41h-77v37q0 43 -43 43h-98q-20 0 -31.5 -11.5t-11.5 -31.5v-192q0 -20 12 -31.5t31 -11.5h98q20 0 31.5 11.5t11.5 31.5v40z" />
    <glyph glyph-name="ordfeminine" unicode="&#xaa;" horiz-adv-x="308" 
d="M285 388h-59l-9 26q-23 -26 -66 -26h-39q-40 0 -64.5 24.5t-24.5 64.5v5q0 40 24.5 64.5t64.5 24.5h39q36 0 59 -20v53q0 30 -30 30h-39q-30 0 -30 -30v-6h-75v13q0 40 24.5 64.5t64.5 24.5h72q39 0 63.5 -24.5t24.5 -64.5v-223zM180 450q27 0 30 26v7q0 30 -30 30h-52
q-30 0 -30 -30v-3q0 -30 30 -30h52z" />
    <glyph glyph-name="guillemotleft" unicode="&#xab;" horiz-adv-x="480" 
d="M240 56l-220 154v100l220 154v-112l-127 -92l127 -91v-113zM450 56l-220 154v100l220 154v-112l-127 -92l127 -91v-113z" />
    <glyph glyph-name="logicalnot" unicode="&#xac;" horiz-adv-x="512" 
d="M30 399h452v-278h-101v182h-351v96z" />
    <glyph glyph-name="registered" unicode="&#xae;" horiz-adv-x="366" 
d="M30 547q0 70 41.5 111.5t111.5 41.5t111.5 -41.5t41.5 -111.5t-41.5 -111.5t-111.5 -41.5t-111.5 41.5t-41.5 111.5zM64 547q0 -55 32.5 -88.5t86.5 -33.5t86.5 33.5t32.5 88.5q0 56 -32.5 89t-86.5 33t-86.5 -33t-32.5 -89zM253 557q0 -30 -27 -38l27 -59h-42l-26 58
h-31v-58h-39v175h100q17 0 27.5 -10.5t10.5 -27.5v-40zM214 566v22q0 13 -12 13h-48v-48h48q12 0 12 13z" />
    <glyph glyph-name="macron" unicode="&#xaf;" horiz-adv-x="342" 
d="M20 607v81h302v-81h-302z" />
    <glyph glyph-name="degree" unicode="&#xb0;" horiz-adv-x="338" 
d="M23 564q0 64 40.5 105t105.5 41t105.5 -41t40.5 -105t-40.5 -105t-105.5 -41t-105.5 41t-40.5 105zM96 564q0 -33 20 -53.5t53 -20.5q32 0 52.5 20.5t20.5 53.5t-20.5 53t-52.5 20q-33 0 -53 -20t-20 -53z" />
    <glyph glyph-name="plusminus" unicode="&#xb1;" horiz-adv-x="512" 
d="M205 444v183h101v-183h176v-96h-176v-182h-101v182h-175v96h175zM30 96h452v-96h-452v96z" />
    <glyph glyph-name="uni00B2" unicode="&#xb2;" horiz-adv-x="358" 
d="M126 606v-35h-76v53q0 34 21 55t56 21h104q35 0 56 -21t21 -55v-33q0 -36 -27 -61l-128 -112h154v-68h-257v68l174 156q8 8 8 20v12q0 27 -26 27h-54q-26 0 -26 -27z" />
    <glyph glyph-name="uni00B3" unicode="&#xb3;" horiz-adv-x="360" 
d="M154 491v68h53q26 0 26 26v21q0 27 -26 27h-55q-26 0 -26 -27v-21h-76v39q0 34 21 55t56 21h106q34 0 55 -21t21 -55v-32q0 -48 -37 -67q38 -19 38 -67v-32q0 -34 -21 -55t-55 -21h-107q-35 0 -56 21t-21 55v39h76v-21q0 -26 26 -26h56q27 0 27 26v20q0 27 -27 27h-54z
" />
    <glyph glyph-name="acute" unicode="&#xb4;" horiz-adv-x="248" 
d="M108 580h-88l92 160h116z" />
    <glyph glyph-name="mu" unicode="&#xb5;" horiz-adv-x="568" 
d="M65 520h111v-374q2 -23 16.5 -36.5t39.5 -13.5h105q25 0 40 15t15 40v369h111v-520h-85l-14 47q-42 -47 -114 -47h-72q-25 0 -42 4v-204h-111v720z" />
    <glyph glyph-name="paragraph" unicode="&#xb6;" horiz-adv-x="675" 
d="M610 700v-700h-119v597h-65v-597h-118v289h-122q-69 0 -111 42t-42 111v105q0 69 42 111t111 42h424zM151 541v-93q0 -26 15 -41t41 -15h101v205h-101q-26 0 -41 -15t-15 -41z" />
    <glyph glyph-name="periodcentered" unicode="&#xb7;" horiz-adv-x="256" 
d="M65 279v143h126v-143h-126z" />
    <glyph glyph-name="cedilla" unicode="&#xb8;" horiz-adv-x="194" 
d="M123 -200h-103l55 80l-55 80h103l51 -80z" />
    <glyph glyph-name="uni00B9" unicode="&#xb9;" horiz-adv-x="253" 
d="M203 700v-350h-75v274l-78 -56v77l78 55h75z" />
    <glyph glyph-name="ordmasculine" unicode="&#xba;" horiz-adv-x="308" 
d="M210 487v115q0 32 -32 32h-48q-32 0 -32 -32v-115q0 -33 32 -33h48q32 0 32 33zM285 480q0 -41 -25 -66.5t-66 -25.5h-80q-41 0 -66 25.5t-25 66.5v128q0 41 25 66.5t66 25.5h80q41 0 66 -25.5t25 -66.5v-128z" />
    <glyph glyph-name="guillemotright" unicode="&#xbb;" horiz-adv-x="480" 
d="M240 464l220 -154v-100l-220 -154v112l127 92l-127 91v113zM30 464l220 -154v-100l-220 -154v112l127 92l-127 91v113z" />
    <glyph glyph-name="onequarter" unicode="&#xbc;" horiz-adv-x="708" 
d="M196 700v-350h-75v274l-78 -56v77l78 55h75zM550 0v61h-181v68l180 221h77v-221h40v-68h-40v-61h-76zM450 129h100v119zM51 0l481 700h99l-482 -700h-98z" />
    <glyph glyph-name="onehalf" unicode="&#xbd;" horiz-adv-x="723" 
d="M196 700v-350h-75v274l-78 -56v77l78 55h75zM51 0l481 700h99l-482 -700h-98zM499 256v-35h-76v53q0 34 21 55t56 21h104q35 0 56 -21t21 -55v-33q0 -36 -27 -61l-128 -112h154v-68h-257v68l174 156q8 8 8 20v12q0 27 -26 27h-54q-26 0 -26 -27z" />
    <glyph glyph-name="threequarters" unicode="&#xbe;" horiz-adv-x="752" 
d="M594 0v61h-181v68l180 221h77v-221h40v-68h-40v-61h-76zM494 129h100v119zM95 0l481 700h99l-482 -700h-98zM147 491v68h52q27 0 27 26v21q0 27 -26 27h-55q-26 0 -26 -27v-21h-76v39q0 34 21 55t55 21h106q35 0 55.5 -21t20.5 -55v-32q0 -47 -36 -67q37 -19 37 -67v-32
q0 -34 -21 -55t-55 -21h-107q-34 0 -55 21t-21 55v39h76v-21q0 -26 26 -26h56q26 0 26 26v20q0 27 -26 27h-54z" />
    <glyph glyph-name="questiondown" unicode="&#xbf;" horiz-adv-x="632" 
d="M274 313h111v-42q0 -67 -41 -108t-107 -41h-9q-52 0 -52 -52v-103q0 -24 13.5 -37.5t38.5 -13.5h177q24 0 37.5 13.5t13.5 37.5v68h111v-66q0 -67 -40.5 -108t-107.5 -41h-205q-67 0 -108 41t-41 108v100q0 67 41 108t108 41h8q25 0 38.5 13.5t13.5 37.5v44zM274 391v129
h111v-129h-111z" />
    <glyph glyph-name="Agrave" unicode="&#xc0;" horiz-adv-x="633" 
d="M389 700l244 -700h-125l-55 164h-276l-56 -164h-121l244 700h145zM314 574l-106 -307h212zM392 740h-95l-115 145h123z" />
    <glyph glyph-name="Aacute" unicode="&#xc1;" horiz-adv-x="633" 
d="M389 700l244 -700h-125l-55 164h-276l-56 -164h-121l244 700h145zM314 574l-106 -307h212zM336 740h-95l87 145h124z" />
    <glyph glyph-name="Acircumflex" unicode="&#xc2;" horiz-adv-x="633" 
d="M389 700l244 -700h-125l-55 164h-276l-56 -164h-121l244 700h145zM314 574l-106 -307h212zM378 885l104 -145h-103l-64 87l-65 -87h-100l104 145h124z" />
    <glyph glyph-name="Atilde" unicode="&#xc3;" horiz-adv-x="633" 
d="M389 700l244 -700h-125l-55 164h-276l-56 -164h-121l244 700h145zM314 574l-106 -307h212zM242 804q-30 17 -46 -12l-30 -55l-67 32l33 62q22 43 62.5 56.5t83.5 -8.5l115 -60q31 -19 47 12l26 49l68 -31l-30 -58q-22 -42 -62.5 -55.5t-84.5 7.5z" />
    <glyph glyph-name="Adieresis" unicode="&#xc4;" horiz-adv-x="633" 
d="M389 700l244 -700h-125l-55 164h-276l-56 -164h-121l244 700h145zM314 574l-106 -307h212zM146 744v121h96v-121h-96zM391 744v121h96v-121h-96z" />
    <glyph glyph-name="Aring" unicode="&#xc5;" horiz-adv-x="633" 
d="M389 700l244 -700h-125l-55 164h-276l-56 -164h-121l244 700h145zM314 574l-106 -307h212zM207 817q0 45 30.5 73t78.5 28q49 0 79 -28t30 -73t-30 -73t-79 -28q-48 0 -78.5 28t-30.5 73zM273 817q0 -49 43 -49t43 49t-43 49t-43 -49z" />
    <glyph glyph-name="AE" unicode="&#xc6;" horiz-adv-x="1025" 
d="M0 0l433 700h537v-103h-351v-195h301v-103h-301v-195h351v-104h-469v164h-267l-101 -164h-133zM289 267h212v338z" />
    <glyph glyph-name="Ccedilla" unicode="&#xc7;" 
d="M605 463h-119v78q0 26 -14.5 41t-40.5 15h-192q-26 0 -40.5 -15t-14.5 -41v-382q0 -26 14.5 -40.5t40.5 -14.5h192q26 0 40.5 14.5t14.5 40.5v79h119v-85q0 -68 -42.5 -110.5t-110.5 -42.5h-235q-68 0 -110 42.5t-42 110.5v394q0 69 42 111t110 42h235q68 0 110.5 -42
t42.5 -111v-84zM366 -200h-103l55 80l-55 80h103l51 -80z" />
    <glyph glyph-name="Egrave" unicode="&#xc8;" horiz-adv-x="575" 
d="M362 740h-95l-115 145h123zM65 0v700h470v-103h-351v-195h301v-103h-301v-195h351v-104h-470z" />
    <glyph glyph-name="Eacute" unicode="&#xc9;" horiz-adv-x="575" 
d="M307 740h-95l87 145h124zM65 0v700h470v-103h-351v-195h301v-103h-301v-195h351v-104h-470z" />
    <glyph glyph-name="Ecircumflex" unicode="&#xca;" horiz-adv-x="575" 
d="M65 0v700h470v-103h-351v-195h301v-103h-301v-195h351v-104h-470zM349 885l104 -145h-103l-64 87l-65 -87h-100l104 145h124z" />
    <glyph glyph-name="Edieresis" unicode="&#xcb;" horiz-adv-x="575" 
d="M116 744v121h96v-121h-96zM361 744v121h96v-121h-96zM65 0v700h470v-103h-351v-195h301v-103h-301v-195h351v-104h-470z" />
    <glyph glyph-name="Igrave" unicode="&#xcc;" horiz-adv-x="249" 
d="M65 0v700h119v-700h-119zM180 740h-95l-115 145h123z" />
    <glyph glyph-name="Iacute" unicode="&#xcd;" horiz-adv-x="249" 
d="M65 0v700h119v-700h-119zM164 740h-95l87 145h124z" />
    <glyph glyph-name="Icircumflex" unicode="&#xce;" horiz-adv-x="249" 
d="M65 0v700h119v-700h-119zM187 885l104 -145h-103l-64 87l-65 -87h-100l104 145h124z" />
    <glyph glyph-name="Idieresis" unicode="&#xcf;" horiz-adv-x="249" 
d="M65 0v700h119v-700h-119zM-46 744v121h96v-121h-96zM199 744v121h96v-121h-96z" />
    <glyph glyph-name="Eth" unicode="&#xd0;" 
d="M0 310v81h65v309h387q68 0 110.5 -42t42.5 -111v-394q0 -68 -42.5 -110.5t-110.5 -42.5h-387v310h-65zM486 159v382q0 26 -14.5 41t-40.5 15h-247v-206h158v-81h-158v-206h247q26 0 40.5 14.5t14.5 40.5z" />
    <glyph glyph-name="Ntilde" unicode="&#xd1;" 
d="M260 804q-30 17 -46 -12l-30 -55l-67 32l33 62q22 43 62.5 56.5t83.5 -8.5l115 -60q31 -19 47 12l26 49l68 -31l-30 -58q-22 -42 -62.5 -55.5t-84.5 7.5zM494 0l-310 482v-482h-119v700h111l310 -482v482h119v-700h-111z" />
    <glyph glyph-name="Ograve" unicode="&#xd2;" 
d="M410 740h-95l-115 145h123zM486 159v382q0 26 -14.5 41t-40.5 15h-192q-26 0 -40.5 -15t-14.5 -41v-382q0 -26 14.5 -40.5t40.5 -14.5h192q26 0 40.5 14.5t14.5 40.5zM605 153q0 -68 -42.5 -110.5t-110.5 -42.5h-235q-68 0 -110 42.5t-42 110.5v394q0 69 42 111t110 42
h235q68 0 110.5 -42t42.5 -111v-394z" />
    <glyph glyph-name="Oacute" unicode="&#xd3;" 
d="M355 740h-95l87 145h124zM486 159v382q0 26 -14.5 41t-40.5 15h-192q-26 0 -40.5 -15t-14.5 -41v-382q0 -26 14.5 -40.5t40.5 -14.5h192q26 0 40.5 14.5t14.5 40.5zM605 153q0 -68 -42.5 -110.5t-110.5 -42.5h-235q-68 0 -110 42.5t-42 110.5v394q0 69 42 111t110 42h235
q68 0 110.5 -42t42.5 -111v-394z" />
    <glyph glyph-name="Ocircumflex" unicode="&#xd4;" 
d="M486 159v382q0 26 -14.5 41t-40.5 15h-192q-26 0 -40.5 -15t-14.5 -41v-382q0 -26 14.5 -40.5t40.5 -14.5h192q26 0 40.5 14.5t14.5 40.5zM605 153q0 -68 -42.5 -110.5t-110.5 -42.5h-235q-68 0 -110 42.5t-42 110.5v394q0 69 42 111t110 42h235q68 0 110.5 -42
t42.5 -111v-394zM397 885l104 -145h-103l-64 87l-65 -87h-100l104 145h124z" />
    <glyph glyph-name="Otilde" unicode="&#xd5;" 
d="M260 804q-30 17 -46 -12l-30 -55l-67 32l33 62q22 43 62.5 56.5t83.5 -8.5l115 -60q31 -19 47 12l26 49l68 -31l-30 -58q-22 -42 -62.5 -55.5t-84.5 7.5zM486 159v382q0 26 -14.5 41t-40.5 15h-192q-26 0 -40.5 -15t-14.5 -41v-382q0 -26 14.5 -40.5t40.5 -14.5h192
q26 0 40.5 14.5t14.5 40.5zM605 153q0 -68 -42.5 -110.5t-110.5 -42.5h-235q-68 0 -110 42.5t-42 110.5v394q0 69 42 111t110 42h235q68 0 110.5 -42t42.5 -111v-394z" />
    <glyph glyph-name="Odieresis" unicode="&#xd6;" 
d="M164 744v121h96v-121h-96zM409 744v121h96v-121h-96zM486 159v382q0 26 -14.5 41t-40.5 15h-192q-26 0 -40.5 -15t-14.5 -41v-382q0 -26 14.5 -40.5t40.5 -14.5h192q26 0 40.5 14.5t14.5 40.5zM605 153q0 -68 -42.5 -110.5t-110.5 -42.5h-235q-68 0 -110 42.5t-42 110.5
v394q0 69 42 111t110 42h235q68 0 110.5 -42t42.5 -111v-394z" />
    <glyph glyph-name="multiply" unicode="&#xd7;" horiz-adv-x="512" 
d="M255 420l150 150l69 -68l-151 -151l147 -147l-68 -68l-147 148l-150 -150l-68 68l150 149l-147 147l68 68z" />
    <glyph glyph-name="Oslash" unicode="&#xd8;" 
d="M51 -52l55 95q-41 43 -41 110v394q0 69 42 111t110 42h235q1 0 31 -3l58 100l77 -44l-55 -96q42 -42 42 -110v-394q0 -68 -42.5 -110.5t-110.5 -42.5h-235q-17 0 -32 3l-57 -100zM486 159v365l-243 -420h188q26 0 40.5 14.5t14.5 40.5zM184 541v-363l241 419h-186
q-26 0 -40.5 -15t-14.5 -41z" />
    <glyph glyph-name="Ugrave" unicode="&#xd9;" 
d="M410 740h-95l-115 145h123zM486 700h119v-547q0 -68 -42.5 -110.5t-110.5 -42.5h-235q-68 0 -110 42.5t-42 110.5v547h119v-541q0 -26 14.5 -40.5t40.5 -14.5h192q26 0 40.5 14.5t14.5 40.5v541z" />
    <glyph glyph-name="Uacute" unicode="&#xda;" 
d="M355 740h-95l87 145h124zM486 700h119v-547q0 -68 -42.5 -110.5t-110.5 -42.5h-235q-68 0 -110 42.5t-42 110.5v547h119v-541q0 -26 14.5 -40.5t40.5 -14.5h192q26 0 40.5 14.5t14.5 40.5v541z" />
    <glyph glyph-name="Ucircumflex" unicode="&#xdb;" 
d="M486 700h119v-547q0 -68 -42.5 -110.5t-110.5 -42.5h-235q-68 0 -110 42.5t-42 110.5v547h119v-541q0 -26 14.5 -40.5t40.5 -14.5h192q26 0 40.5 14.5t14.5 40.5v541zM397 885l104 -145h-103l-64 87l-65 -87h-100l104 145h124z" />
    <glyph glyph-name="Udieresis" unicode="&#xdc;" 
d="M164 744v121h96v-121h-96zM409 744v121h96v-121h-96zM486 700h119v-547q0 -68 -42.5 -110.5t-110.5 -42.5h-235q-68 0 -110 42.5t-42 110.5v547h119v-541q0 -26 14.5 -40.5t40.5 -14.5h192q26 0 40.5 14.5t14.5 40.5v541z" />
    <glyph glyph-name="Yacute" unicode="&#xdd;" horiz-adv-x="635" 
d="M377 257v-257h-119v257l-256 443h142l176 -323l178 323h134zM337 740h-95l87 145h124z" />
    <glyph glyph-name="Thorn" unicode="&#xde;" horiz-adv-x="612" 
d="M461 283v134q0 25 -14.5 40t-40.5 15h-222v-244h222q26 0 40.5 14.5t14.5 40.5zM580 277q0 -68 -42.5 -110.5t-110.5 -42.5h-243v-124h-119v700h119v-125h243q68 0 110.5 -42t42.5 -111v-145z" />
    <glyph glyph-name="germandbls" unicode="&#xdf;" horiz-adv-x="581" 
d="M251 0v96h108q26 0 40.5 14.5t14.5 40.5v139q0 26 -14.5 40.5t-40.5 14.5h-83v96h81q25 0 40 14.5t15 40.5v93q0 26 -14.5 40.5t-40.5 14.5h-129q-25 0 -38.5 -13.5t-13.5 -37.5v-593h-111v591q0 67 41 108t107 41h157q69 0 111 -42t42 -111v-59q0 -98 -78 -135
q38 -17 59.5 -52.5t21.5 -82.5v-105q0 -69 -42.5 -111t-110.5 -42h-122z" />
    <glyph glyph-name="agrave" unicode="&#xe0;" horiz-adv-x="546" 
d="M481 0h-85l-14 44q-41 -44 -111 -44h-79q-67 0 -108 41t-41 108v7q0 67 41 108t108 41h79q59 0 98 -33v101q0 24 -13.5 37.5t-37.5 13.5h-90q-25 0 -38.5 -13.5t-13.5 -37.5v-23h-111v21q0 67 41 108t108 41h118q67 0 108 -41t41 -108v-371zM318 96q48 0 51 46v23
q0 25 -13.5 38.5t-37.5 13.5h-113q-24 0 -37.5 -13.5t-13.5 -38.5v-18q0 -24 13.5 -37.5t37.5 -13.5h113zM337 580h-88l-120 160h116z" />
    <glyph glyph-name="aacute" unicode="&#xe1;" horiz-adv-x="546" 
d="M481 0h-85l-14 44q-41 -44 -111 -44h-79q-67 0 -108 41t-41 108v7q0 67 41 108t108 41h79q59 0 98 -33v101q0 24 -13.5 37.5t-37.5 13.5h-90q-25 0 -38.5 -13.5t-13.5 -37.5v-23h-111v21q0 67 41 108t108 41h118q67 0 108 -41t41 -108v-371zM318 96q48 0 51 46v23
q0 25 -13.5 38.5t-37.5 13.5h-113q-24 0 -37.5 -13.5t-13.5 -38.5v-18q0 -24 13.5 -37.5t37.5 -13.5h113zM297 580h-88l92 160h116z" />
    <glyph glyph-name="acircumflex" unicode="&#xe2;" horiz-adv-x="546" 
d="M481 0h-85l-14 44q-41 -44 -111 -44h-79q-67 0 -108 41t-41 108v7q0 67 41 108t108 41h79q59 0 98 -33v101q0 24 -13.5 37.5t-37.5 13.5h-90q-25 0 -38.5 -13.5t-13.5 -37.5v-23h-111v21q0 67 41 108t108 41h118q67 0 108 -41t41 -108v-371zM318 96q48 0 51 46v23
q0 25 -13.5 38.5t-37.5 13.5h-113q-24 0 -37.5 -13.5t-13.5 -38.5v-18q0 -24 13.5 -37.5t37.5 -13.5h113zM327 740l101 -160h-103l-54 90l-55 -90h-100l101 160h110z" />
    <glyph glyph-name="atilde" unicode="&#xe3;" horiz-adv-x="546" 
d="M481 0h-85l-14 44q-41 -44 -111 -44h-79q-67 0 -108 41t-41 108v7q0 67 41 108t108 41h79q59 0 98 -33v101q0 24 -13.5 37.5t-37.5 13.5h-90q-25 0 -38.5 -13.5t-13.5 -37.5v-23h-111v21q0 67 41 108t108 41h118q67 0 108 -41t41 -108v-371zM318 96q48 0 51 46v23
q0 25 -13.5 38.5t-37.5 13.5h-113q-24 0 -37.5 -13.5t-13.5 -38.5v-18q0 -24 13.5 -37.5t37.5 -13.5h113zM214 658q-29 20 -47 -10l-33 -53l-64 38l37 60q25 41 66.5 51.5t82.5 -13.5l77 -48q29 -20 47 10l30 47l64 -37l-33 -55q-25 -42 -66.5 -52.5t-83.5 14.5z" />
    <glyph glyph-name="adieresis" unicode="&#xe4;" horiz-adv-x="546" 
d="M481 0h-85l-14 44q-41 -44 -111 -44h-79q-67 0 -108 41t-41 108v7q0 67 41 108t108 41h79q59 0 98 -33v101q0 24 -13.5 37.5t-37.5 13.5h-90q-25 0 -38.5 -13.5t-13.5 -37.5v-23h-111v21q0 67 41 108t108 41h118q67 0 108 -41t41 -108v-371zM318 96q48 0 51 46v23
q0 25 -13.5 38.5t-37.5 13.5h-113q-24 0 -37.5 -13.5t-13.5 -38.5v-18q0 -24 13.5 -37.5t37.5 -13.5h113zM121 588v121h96v-121h-96zM326 588v121h96v-121h-96z" />
    <glyph glyph-name="aring" unicode="&#xe5;" horiz-adv-x="546" 
d="M481 0h-85l-14 44q-41 -44 -111 -44h-79q-67 0 -108 41t-41 108v7q0 67 41 108t108 41h79q59 0 98 -33v101q0 24 -13.5 37.5t-37.5 13.5h-90q-25 0 -38.5 -13.5t-13.5 -37.5v-23h-111v21q0 67 41 108t108 41h118q67 0 108 -41t41 -108v-371zM318 96q48 0 51 46v23
q0 25 -13.5 38.5t-37.5 13.5h-113q-24 0 -37.5 -13.5t-13.5 -38.5v-18q0 -24 13.5 -37.5t37.5 -13.5h113zM163 654q0 45 30.5 73t78.5 28q49 0 79 -28t30 -73t-30 -73t-79 -28q-48 0 -78.5 28t-30.5 73zM229 654q0 -49 43 -49t43 49t-43 49t-43 -49z" />
    <glyph glyph-name="ae" unicode="&#xe6;" horiz-adv-x="862" 
d="M696 170h111v-17q0 -68 -42 -110.5t-111 -42.5h-110q-80 0 -122 55q-41 -55 -119 -55h-111q-67 0 -108 41t-41 108v7q0 67 41 108t108 41h79q59 0 98 -33v101q0 24 -13.5 37.5t-37.5 13.5h-90q-25 0 -38.5 -13.5t-13.5 -37.5v-23h-111v21q0 67 41 108t108 41h96
q75 0 116 -51q43 51 118 51h110q69 0 111 -42t42 -111v-147h-326v-69q0 -26 14.5 -40.5t40.5 -14.5h105q26 0 40.5 14.5t14.5 40.5v19zM318 96q24 0 37.5 13.5t13.5 37.5v18q0 25 -13.5 38.5t-37.5 13.5h-113q-24 0 -37.5 -13.5t-13.5 -38.5v-18q0 -24 13.5 -37.5
t37.5 -13.5h113zM481 369v-60h215v60q0 55 -55 55h-105q-55 0 -55 -55z" />
    <glyph glyph-name="ccedilla" unicode="&#xe7;" horiz-adv-x="538" 
d="M382 185h111v-32q0 -68 -42 -110.5t-111 -42.5h-133q-68 0 -110 42.5t-42 110.5v214q0 69 42 111t110 42h133q69 0 111 -42t42 -111v-32h-111v34q0 26 -14.5 40.5t-40.5 14.5h-105q-26 0 -41 -14.5t-15 -40.5v-218q0 -26 15 -40.5t41 -14.5h105q25 0 40 15t15 40v34z
M315 -200h-103l55 80l-55 80h103l51 -80z" />
    <glyph glyph-name="egrave" unicode="&#xe8;" horiz-adv-x="548" 
d="M382 170h111v-17q0 -68 -42 -110.5t-111 -42.5h-133q-68 0 -110 42.5t-42 110.5v214q0 69 42 111t110 42h133q69 0 111 -42t42 -111v-147h-327v-69q0 -26 15 -40.5t41 -14.5h105q25 0 40 15t15 40v19zM166 369v-60h216v60q0 26 -14.5 40.5t-40.5 14.5h-105
q-26 0 -41 -14.5t-15 -40.5zM338 580h-88l-120 160h116z" />
    <glyph glyph-name="eacute" unicode="&#xe9;" horiz-adv-x="548" 
d="M298 580h-88l92 160h116zM382 170h111v-17q0 -68 -42 -110.5t-111 -42.5h-133q-68 0 -110 42.5t-42 110.5v214q0 69 42 111t110 42h133q69 0 111 -42t42 -111v-147h-327v-69q0 -26 15 -40.5t41 -14.5h105q25 0 40 15t15 40v19zM166 369v-60h216v60q0 26 -14.5 40.5
t-40.5 14.5h-105q-26 0 -41 -14.5t-15 -40.5z" />
    <glyph glyph-name="ecircumflex" unicode="&#xea;" horiz-adv-x="548" 
d="M328 740l101 -160h-103l-54 90l-55 -90h-100l101 160h110zM382 170h111v-17q0 -68 -42 -110.5t-111 -42.5h-133q-68 0 -110 42.5t-42 110.5v214q0 69 42 111t110 42h133q69 0 111 -42t42 -111v-147h-327v-69q0 -26 15 -40.5t41 -14.5h105q25 0 40 15t15 40v19zM166 369
v-60h216v60q0 26 -14.5 40.5t-40.5 14.5h-105q-26 0 -41 -14.5t-15 -40.5z" />
    <glyph glyph-name="edieresis" unicode="&#xeb;" horiz-adv-x="548" 
d="M123 588v121h96v-121h-96zM328 588v121h96v-121h-96zM382 170h111v-17q0 -68 -42 -110.5t-111 -42.5h-133q-68 0 -110 42.5t-42 110.5v214q0 69 42 111t110 42h133q69 0 111 -42t42 -111v-147h-327v-69q0 -26 15 -40.5t41 -14.5h105q25 0 40 15t15 40v19zM166 369v-60
h216v60q0 26 -14.5 40.5t-40.5 14.5h-105q-26 0 -41 -14.5t-15 -40.5z" />
    <glyph glyph-name="igrave" unicode="&#xec;" horiz-adv-x="241" 
d="M65 0v520h111v-520h-111zM175 580h-88l-120 160h116z" />
    <glyph glyph-name="iacute" unicode="&#xed;" horiz-adv-x="241" 
d="M155 580h-88l92 160h116zM65 0v520h111v-520h-111z" />
    <glyph glyph-name="icircumflex" unicode="&#xee;" horiz-adv-x="241" 
d="M177 740l101 -160h-103l-54 90l-55 -90h-100l101 160h110zM65 0v520h111v-520h-111z" />
    <glyph glyph-name="idieresis" unicode="&#xef;" horiz-adv-x="241" 
d="M-29 588v121h96v-121h-96zM176 588v121h96v-121h-96zM65 0v520h111v-520h-111z" />
    <glyph glyph-name="eth" unicode="&#xf0;" horiz-adv-x="558" 
d="M158 740h147l54 -57l91 53l33 -57l-78 -45l34 -35q54 -56 54 -122v-324q0 -68 -42 -110.5t-110 -42.5h-133q-69 0 -111 42.5t-42 110.5v149q0 69 42 111t111 42h72q61 0 102 -35v67q0 24 -16 42l-52 52l-93 -53l-33 57l78 45zM327 96q25 0 40 15t15 40v153
q0 26 -14.5 40.5t-40.5 14.5h-105q-26 0 -41 -14.5t-15 -40.5v-153q0 -26 15 -40.5t41 -14.5h105z" />
    <glyph glyph-name="ntilde" unicode="&#xf1;" horiz-adv-x="568" 
d="M503 0h-111v369q0 26 -14.5 40.5t-40.5 14.5h-105q-53 0 -56 -50v-374h-111v520h85l13 -47q42 47 116 47h71q69 0 111 -42t42 -111v-367zM225 658q-29 20 -47 -10l-33 -53l-64 38l37 60q25 41 66.5 51.5t82.5 -13.5l77 -48q29 -20 47 10l30 47l64 -37l-33 -55
q-25 -42 -66.5 -52.5t-83.5 14.5z" />
    <glyph glyph-name="ograve" unicode="&#xf2;" horiz-adv-x="548" 
d="M382 151v218q0 26 -14.5 40.5t-40.5 14.5h-105q-26 0 -41 -14.5t-15 -40.5v-218q0 -26 15 -40.5t41 -14.5h105q25 0 40 15t15 40zM493 153q0 -68 -42 -110.5t-111 -42.5h-133q-68 0 -110 42.5t-42 110.5v214q0 69 42 111t110 42h133q69 0 111 -42t42 -111v-214zM338 580
h-88l-120 160h116z" />
    <glyph glyph-name="oacute" unicode="&#xf3;" horiz-adv-x="548" 
d="M298 580h-88l92 160h116zM382 151v218q0 26 -14.5 40.5t-40.5 14.5h-105q-26 0 -41 -14.5t-15 -40.5v-218q0 -26 15 -40.5t41 -14.5h105q25 0 40 15t15 40zM493 153q0 -68 -42 -110.5t-111 -42.5h-133q-68 0 -110 42.5t-42 110.5v214q0 69 42 111t110 42h133
q69 0 111 -42t42 -111v-214z" />
    <glyph glyph-name="ocircumflex" unicode="&#xf4;" horiz-adv-x="548" 
d="M328 740l101 -160h-103l-54 90l-55 -90h-100l101 160h110zM382 151v218q0 26 -14.5 40.5t-40.5 14.5h-105q-26 0 -41 -14.5t-15 -40.5v-218q0 -26 15 -40.5t41 -14.5h105q25 0 40 15t15 40zM493 153q0 -68 -42 -110.5t-111 -42.5h-133q-68 0 -110 42.5t-42 110.5v214
q0 69 42 111t110 42h133q69 0 111 -42t42 -111v-214z" />
    <glyph glyph-name="otilde" unicode="&#xf5;" horiz-adv-x="548" 
d="M382 151v218q0 26 -14.5 40.5t-40.5 14.5h-105q-26 0 -41 -14.5t-15 -40.5v-218q0 -26 15 -40.5t41 -14.5h105q25 0 40 15t15 40zM493 153q0 -68 -42 -110.5t-111 -42.5h-133q-68 0 -110 42.5t-42 110.5v214q0 69 42 111t110 42h133q69 0 111 -42t42 -111v-214zM215 658
q-29 20 -47 -10l-33 -53l-64 38l37 60q25 41 66.5 51.5t82.5 -13.5l77 -48q29 -20 47 10l30 47l64 -37l-33 -55q-25 -42 -66.5 -52.5t-83.5 14.5z" />
    <glyph glyph-name="odieresis" unicode="&#xf6;" horiz-adv-x="548" 
d="M123 588v121h96v-121h-96zM328 588v121h96v-121h-96zM382 151v218q0 26 -14.5 40.5t-40.5 14.5h-105q-26 0 -41 -14.5t-15 -40.5v-218q0 -26 15 -40.5t41 -14.5h105q25 0 40 15t15 40zM493 153q0 -68 -42 -110.5t-111 -42.5h-133q-68 0 -110 42.5t-42 110.5v214
q0 69 42 111t110 42h133q69 0 111 -42t42 -111v-214z" />
    <glyph glyph-name="divide" unicode="&#xf7;" horiz-adv-x="512" 
d="M30 399h452v-96h-452v96zM193 54v143h127v-143h-127zM193 504v144h127v-144h-127z" />
    <glyph glyph-name="oslash" unicode="&#xf8;" horiz-adv-x="548" 
d="M493 153q0 -68 -42 -110.5t-111 -42.5h-133q-22 0 -38 4l-42 -74l-64 37l40 70q-48 43 -48 116v214q0 69 42 111t110 42h133q15 0 39 -4l44 75l64 -38l-41 -71q47 -42 47 -115v-214zM166 146l160 278h-104q-26 0 -41 -14.5t-15 -40.5v-223zM382 151v220l-160 -275h105
q25 0 40 15t15 40z" />
    <glyph glyph-name="ugrave" unicode="&#xf9;" horiz-adv-x="568" 
d="M65 520h111v-369q0 -26 15 -40.5t41 -14.5h105q24 0 39 13.5t16 36.5v374h111v-520h-85l-14 47q-42 -47 -114 -47h-72q-69 0 -111 42t-42 111v367zM378 580h-88l-120 160h116z" />
    <glyph glyph-name="uacute" unicode="&#xfa;" horiz-adv-x="568" 
d="M278 580h-88l92 160h116zM65 520h111v-369q0 -26 15 -40.5t41 -14.5h105q24 0 39 13.5t16 36.5v374h111v-520h-85l-14 47q-42 -47 -114 -47h-72q-69 0 -111 42t-42 111v367z" />
    <glyph glyph-name="ucircumflex" unicode="&#xfb;" horiz-adv-x="568" 
d="M338 740l101 -160h-103l-54 90l-55 -90h-100l101 160h110zM65 520h111v-369q0 -26 15 -40.5t41 -14.5h105q24 0 39 13.5t16 36.5v374h111v-520h-85l-14 47q-42 -47 -114 -47h-72q-69 0 -111 42t-42 111v367z" />
    <glyph glyph-name="udieresis" unicode="&#xfc;" horiz-adv-x="568" 
d="M133 588v121h96v-121h-96zM338 588v121h96v-121h-96zM65 520h111v-369q0 -26 15 -40.5t41 -14.5h105q24 0 39 13.5t16 36.5v374h111v-520h-85l-14 47q-42 -47 -114 -47h-72q-69 0 -111 42t-42 111v367z" />
    <glyph glyph-name="yacute" unicode="&#xfd;" horiz-adv-x="528" 
d="M258 -200h-119l72 200h-13l-188 520h119l139 -396l138 396h112zM288 580h-88l92 160h116z" />
    <glyph glyph-name="thorn" unicode="&#xfe;" horiz-adv-x="558" 
d="M65 -200v940h111v-255q41 35 103 35h71q69 0 111 -42t42 -111v-214q0 -68 -42 -110.5t-111 -42.5h-71q-62 0 -103 35v-235h-111zM392 151v218q0 26 -14.5 40.5t-40.5 14.5h-105q-53 0 -56 -50v-223q0 -26 15 -40.5t41 -14.5h105q25 0 40 15t15 40z" />
    <glyph glyph-name="ydieresis" unicode="&#xff;" horiz-adv-x="528" 
d="M258 -200h-119l72 200h-13l-188 520h119l139 -396l138 396h112zM112 588v121h96v-121h-96zM317 588v121h96v-121h-96z" />
    <glyph glyph-name="Amacron" unicode="&#x100;" horiz-adv-x="633" 
d="M389 700l244 -700h-125l-55 164h-276l-56 -164h-121l244 700h145zM314 574l-106 -307h212zM145 767v81h342v-81h-342z" />
    <glyph glyph-name="amacron" unicode="&#x101;" horiz-adv-x="546" 
d="M481 0h-85l-14 44q-41 -44 -111 -44h-79q-67 0 -108 41t-41 108v7q0 67 41 108t108 41h79q59 0 98 -33v101q0 24 -13.5 37.5t-37.5 13.5h-90q-25 0 -38.5 -13.5t-13.5 -37.5v-23h-111v21q0 67 41 108t108 41h118q67 0 108 -41t41 -108v-371zM318 96q48 0 51 46v23
q0 25 -13.5 38.5t-37.5 13.5h-113q-24 0 -37.5 -13.5t-13.5 -38.5v-18q0 -24 13.5 -37.5t37.5 -13.5h113zM121 607v81h302v-81h-302z" />
    <glyph glyph-name="Abreve" unicode="&#x102;" horiz-adv-x="633" 
d="M389 700l244 -700h-125l-55 164h-276l-56 -164h-121l244 700h145zM314 574l-106 -307h212zM168 885h84q0 -45 15.5 -62t49.5 -17t49.5 17t15.5 62h84q0 -82 -37.5 -116.5t-111.5 -34.5t-111.5 34.5t-37.5 116.5z" />
    <glyph glyph-name="abreve" unicode="&#x103;" horiz-adv-x="546" 
d="M481 0h-85l-14 44q-41 -44 -111 -44h-79q-67 0 -108 41t-41 108v7q0 67 41 108t108 41h79q59 0 98 -33v101q0 24 -13.5 37.5t-37.5 13.5h-90q-25 0 -38.5 -13.5t-13.5 -37.5v-23h-111v21q0 67 41 108t108 41h118q67 0 108 -41t41 -108v-371zM318 96q48 0 51 46v23
q0 25 -13.5 38.5t-37.5 13.5h-113q-24 0 -37.5 -13.5t-13.5 -38.5v-18q0 -24 13.5 -37.5t37.5 -13.5h113zM134 740h84q0 -49 12 -69.5t43 -20.5q32 0 44 21t12 69h83q0 -85 -34 -123.5t-105 -38.5t-105 38.5t-34 123.5z" />
    <glyph glyph-name="Aogonek" unicode="&#x104;" horiz-adv-x="633" 
d="M389 700l244 -700h-28l-35 -50q-10 -14 -10 -31q0 -33 35 -33h54v-86h-85q-40 0 -70 27t-30 69q0 41 31 85l13 19l-55 164h-276l-56 -164h-121l244 700h145zM314 574l-106 -307h212z" />
    <glyph glyph-name="aogonek" unicode="&#x105;" horiz-adv-x="546" 
d="M481 0l-35 -50q-10 -14 -10 -31q0 -33 35 -33h54v-86h-85q-40 0 -70 27t-30 69q0 41 31 85l21 31l-10 32q-41 -44 -111 -44h-79q-67 0 -108 41t-41 108v7q0 67 41 108t108 41h79q59 0 98 -33v101q0 24 -13.5 37.5t-37.5 13.5h-90q-25 0 -38.5 -13.5t-13.5 -37.5v-23h-111
v21q0 67 41 108t108 41h118q67 0 108 -41t41 -108v-371zM318 96q48 0 51 46v23q0 25 -13.5 38.5t-37.5 13.5h-113q-24 0 -37.5 -13.5t-13.5 -38.5v-18q0 -24 13.5 -37.5t37.5 -13.5h113z" />
    <glyph glyph-name="Cacute" unicode="&#x106;" 
d="M605 463h-119v78q0 26 -14.5 41t-40.5 15h-192q-26 0 -40.5 -15t-14.5 -41v-382q0 -26 14.5 -40.5t40.5 -14.5h192q26 0 40.5 14.5t14.5 40.5v79h119v-85q0 -68 -42.5 -110.5t-110.5 -42.5h-235q-68 0 -110 42.5t-42 110.5v394q0 69 42 111t110 42h235q68 0 110.5 -42
t42.5 -111v-84zM355 740h-95l87 145h124z" />
    <glyph glyph-name="cacute" unicode="&#x107;" horiz-adv-x="538" 
d="M293 580h-88l92 160h116zM382 185h111v-32q0 -68 -42 -110.5t-111 -42.5h-133q-68 0 -110 42.5t-42 110.5v214q0 69 42 111t110 42h133q69 0 111 -42t42 -111v-32h-111v34q0 26 -14.5 40.5t-40.5 14.5h-105q-26 0 -41 -14.5t-15 -40.5v-218q0 -26 15 -40.5t41 -14.5h105
q25 0 40 15t15 40v34z" />
    <glyph glyph-name="Ccircumflex" unicode="&#x108;" 
d="M605 463h-119v78q0 26 -14.5 41t-40.5 15h-192q-26 0 -40.5 -15t-14.5 -41v-382q0 -26 14.5 -40.5t40.5 -14.5h192q26 0 40.5 14.5t14.5 40.5v79h119v-85q0 -68 -42.5 -110.5t-110.5 -42.5h-235q-68 0 -110 42.5t-42 110.5v394q0 69 42 111t110 42h235q68 0 110.5 -42
t42.5 -111v-84zM397 885l104 -145h-103l-64 87l-65 -87h-100l104 145h124z" />
    <glyph glyph-name="ccircumflex" unicode="&#x109;" horiz-adv-x="538" 
d="M323 740l101 -160h-103l-54 90l-55 -90h-100l101 160h110zM382 185h111v-32q0 -68 -42 -110.5t-111 -42.5h-133q-68 0 -110 42.5t-42 110.5v214q0 69 42 111t110 42h133q69 0 111 -42t42 -111v-32h-111v34q0 26 -14.5 40.5t-40.5 14.5h-105q-26 0 -41 -14.5t-15 -40.5
v-218q0 -26 15 -40.5t41 -14.5h105q25 0 40 15t15 40v34z" />
    <glyph glyph-name="Cdotaccent" unicode="&#x10a;" 
d="M279 740v129h111v-129h-111zM605 463h-119v78q0 26 -14.5 41t-40.5 15h-192q-26 0 -40.5 -15t-14.5 -41v-382q0 -26 14.5 -40.5t40.5 -14.5h192q26 0 40.5 14.5t14.5 40.5v79h119v-85q0 -68 -42.5 -110.5t-110.5 -42.5h-235q-68 0 -110 42.5t-42 110.5v394q0 69 42 111
t110 42h235q68 0 110.5 -42t42.5 -111v-84z" />
    <glyph glyph-name="cdotaccent" unicode="&#x10b;" horiz-adv-x="538" 
d="M382 185h111v-32q0 -68 -42 -110.5t-111 -42.5h-133q-68 0 -110 42.5t-42 110.5v214q0 69 42 111t110 42h133q69 0 111 -42t42 -111v-32h-111v34q0 26 -14.5 40.5t-40.5 14.5h-105q-26 0 -41 -14.5t-15 -40.5v-218q0 -26 15 -40.5t41 -14.5h105q25 0 40 15t15 40v34z
M213 595v129h111v-129h-111z" />
    <glyph glyph-name="Ccaron" unicode="&#x10c;" 
d="M605 463h-119v78q0 26 -14.5 41t-40.5 15h-192q-26 0 -40.5 -15t-14.5 -41v-382q0 -26 14.5 -40.5t40.5 -14.5h192q26 0 40.5 14.5t14.5 40.5v79h119v-85q0 -68 -42.5 -110.5t-110.5 -42.5h-235q-68 0 -110 42.5t-42 110.5v394q0 69 42 111t110 42h235q68 0 110.5 -42
t42.5 -111v-84zM273 740l-104 145h103l64 -87l65 87h100l-104 -145h-124z" />
    <glyph glyph-name="ccaron" unicode="&#x10d;" horiz-adv-x="538" 
d="M213 580l-101 160h103l54 -90l55 90h100l-101 -160h-110zM382 185h111v-32q0 -68 -42 -110.5t-111 -42.5h-133q-68 0 -110 42.5t-42 110.5v214q0 69 42 111t110 42h133q69 0 111 -42t42 -111v-32h-111v34q0 26 -14.5 40.5t-40.5 14.5h-105q-26 0 -41 -14.5t-15 -40.5
v-218q0 -26 15 -40.5t41 -14.5h105q25 0 40 15t15 40v34z" />
    <glyph glyph-name="Dcaron" unicode="&#x10e;" 
d="M273 740l-104 145h103l64 -87l65 87h100l-104 -145h-124zM486 159v382q0 26 -14.5 41t-40.5 15h-247v-493h247q26 0 40.5 14.5t14.5 40.5zM605 153q0 -68 -42.5 -110.5t-110.5 -42.5h-387v700h387q68 0 110.5 -42t42.5 -111v-394z" />
    <glyph glyph-name="dcaron" unicode="&#x10f;" horiz-adv-x="608" 
d="M538 580l8 200h105l-47 -200h-66zM493 740v-740h-85l-14 47q-42 -47 -114 -47h-72q-69 0 -111 42.5t-42 110.5v214q0 69 42 111t111 42h72q61 0 102 -35v255h111zM382 369q0 26 -14.5 40.5t-40.5 14.5h-105q-26 0 -41 -14.5t-15 -40.5v-218q0 -26 15 -40.5t41 -14.5h105
q24 0 39 13.5t16 36.5v223z" />
    <glyph glyph-name="Dcroat" unicode="&#x110;" 
d="M0 310v81h65v309h387q68 0 110.5 -42t42.5 -111v-394q0 -68 -42.5 -110.5t-110.5 -42.5h-387v310h-65zM486 159v382q0 26 -14.5 41t-40.5 15h-247v-206h158v-81h-158v-206h247q26 0 40.5 14.5t14.5 40.5z" />
    <glyph glyph-name="dcroat" unicode="&#x111;" horiz-adv-x="558" 
d="M493 740v-69h65v-81h-65v-590h-85l-14 47q-42 -47 -114 -47h-72q-69 0 -111 42.5t-42 110.5v214q0 69 42 111t111 42h72q61 0 102 -35v105h-126v81h126v69h111zM382 369q0 26 -14.5 40.5t-40.5 14.5h-105q-26 0 -41 -14.5t-15 -40.5v-218q0 -26 15 -40.5t41 -14.5h105
q24 0 39 13.5t16 36.5v223z" />
    <glyph glyph-name="Emacron" unicode="&#x112;" horiz-adv-x="575" 
d="M116 767v81h342v-81h-342zM65 0v700h470v-103h-351v-195h301v-103h-301v-195h351v-104h-470z" />
    <glyph glyph-name="emacron" unicode="&#x113;" horiz-adv-x="548" 
d="M382 170h111v-17q0 -68 -42 -110.5t-111 -42.5h-133q-68 0 -110 42.5t-42 110.5v214q0 69 42 111t110 42h133q69 0 111 -42t42 -111v-147h-327v-69q0 -26 15 -40.5t41 -14.5h105q25 0 40 15t15 40v19zM166 369v-60h216v60q0 26 -14.5 40.5t-40.5 14.5h-105
q-26 0 -41 -14.5t-15 -40.5zM122 607v81h302v-81h-302z" />
    <glyph glyph-name="Ebreve" unicode="&#x114;" horiz-adv-x="575" 
d="M139 885h84q0 -45 15.5 -62t49.5 -17t49.5 17t15.5 62h84q0 -82 -37.5 -116.5t-111.5 -34.5t-111.5 34.5t-37.5 116.5zM65 0v700h470v-103h-351v-195h301v-103h-301v-195h351v-104h-470z" />
    <glyph glyph-name="ebreve" unicode="&#x115;" horiz-adv-x="548" 
d="M382 170h111v-17q0 -68 -42 -110.5t-111 -42.5h-133q-68 0 -110 42.5t-42 110.5v214q0 69 42 111t110 42h133q69 0 111 -42t42 -111v-147h-327v-69q0 -26 15 -40.5t41 -14.5h105q25 0 40 15t15 40v19zM166 369v-60h216v60q0 26 -14.5 40.5t-40.5 14.5h-105
q-26 0 -41 -14.5t-15 -40.5zM135 740h84q0 -49 12 -69.5t43 -20.5q32 0 44 21t12 69h83q0 -85 -34 -123.5t-105 -38.5t-105 38.5t-34 123.5z" />
    <glyph glyph-name="Edotaccent" unicode="&#x116;" horiz-adv-x="575" 
d="M232 740v129h111v-129h-111zM65 0v700h470v-103h-351v-195h301v-103h-301v-195h351v-104h-470z" />
    <glyph glyph-name="edotaccent" unicode="&#x117;" horiz-adv-x="548" 
d="M382 170h111v-17q0 -68 -42 -110.5t-111 -42.5h-133q-68 0 -110 42.5t-42 110.5v214q0 69 42 111t110 42h133q69 0 111 -42t42 -111v-147h-327v-69q0 -26 15 -40.5t41 -14.5h105q25 0 40 15t15 40v19zM166 369v-60h216v60q0 26 -14.5 40.5t-40.5 14.5h-105
q-26 0 -41 -14.5t-15 -40.5zM218 595v129h111v-129h-111z" />
    <glyph glyph-name="Eogonek" unicode="&#x118;" horiz-adv-x="575" 
d="M65 0v700h470v-103h-351v-195h301v-103h-301v-195h351v-104h-45l-35 -50q-10 -14 -10 -31q0 -33 35 -33h54v-86h-85q-40 0 -70 27t-30 69q0 41 31 85l13 19h-328z" />
    <glyph glyph-name="eogonek" unicode="&#x119;" horiz-adv-x="548" 
d="M382 170h111v-17q0 -53 -25 -90l-79 -113q-11 -14 -11 -30q0 -15 9.5 -24.5t25.5 -9.5h54v-86h-84q-41 0 -70.5 27t-29.5 69q0 41 30 85l12 19h-118q-68 0 -110 42.5t-42 110.5v214q0 69 42 111t110 42h133q69 0 111 -42t42 -111v-147h-327v-69q0 -26 15 -40.5t41 -14.5
h105q25 0 40 15t15 40v19zM166 369v-60h216v60q0 26 -14.5 40.5t-40.5 14.5h-105q-26 0 -41 -14.5t-15 -40.5z" />
    <glyph glyph-name="Ecaron" unicode="&#x11a;" horiz-adv-x="575" 
d="M225 740l-104 145h103l64 -87l65 87h100l-104 -145h-124zM65 0v700h470v-103h-351v-195h301v-103h-301v-195h351v-104h-470z" />
    <glyph glyph-name="ecaron" unicode="&#x11b;" horiz-adv-x="548" 
d="M218 580l-101 160h103l54 -90l55 90h100l-101 -160h-110zM382 170h111v-17q0 -68 -42 -110.5t-111 -42.5h-133q-68 0 -110 42.5t-42 110.5v214q0 69 42 111t110 42h133q69 0 111 -42t42 -111v-147h-327v-69q0 -26 15 -40.5t41 -14.5h105q25 0 40 15t15 40v19zM166 369
v-60h216v60q0 26 -14.5 40.5t-40.5 14.5h-105q-26 0 -41 -14.5t-15 -40.5z" />
    <glyph glyph-name="Gcircumflex" unicode="&#x11c;" 
d="M605 372v-372h-88l-15 47q-42 -47 -115 -47h-170q-68 0 -110 42.5t-42 110.5v394q0 69 42 111t110 42h235q68 0 110.5 -42t42.5 -111v-69h-119v63q0 26 -14.5 41t-40.5 15h-192q-26 0 -40.5 -15t-14.5 -41v-382q0 -26 14.5 -40.5t40.5 -14.5h192q24 0 39 13t16 37v114
h-184v104h303zM397 885l104 -145h-103l-64 87l-65 -87h-100l104 145h124z" />
    <glyph glyph-name="gcircumflex" unicode="&#x11d;" horiz-adv-x="558" 
d="M333 740l101 -160h-103l-54 90l-55 -90h-100l101 160h110zM493 520v-567q0 -69 -42 -111t-110 -42h-133q-69 0 -111 42t-42 111v17h111v-19q0 -26 15 -40.5t41 -14.5h105q25 0 40 15t15 40v84q-40 -35 -102 -35h-72q-69 0 -111 42.5t-42 110.5v214q0 69 42 111t111 42h72
q72 0 114 -47l14 47h85zM166 369v-218q0 -26 15 -40.5t41 -14.5h105q25 0 40 15t15 40v218q0 26 -14.5 40.5t-40.5 14.5h-105q-26 0 -41 -14.5t-15 -40.5z" />
    <glyph glyph-name="Gbreve" unicode="&#x11e;" 
d="M186 885h84q0 -45 15.5 -62t49.5 -17t49.5 17t15.5 62h84q0 -82 -37.5 -116.5t-111.5 -34.5t-111.5 34.5t-37.5 116.5zM605 372v-372h-88l-15 47q-42 -47 -115 -47h-170q-68 0 -110 42.5t-42 110.5v394q0 69 42 111t110 42h235q68 0 110.5 -42t42.5 -111v-69h-119v63
q0 26 -14.5 41t-40.5 15h-192q-26 0 -40.5 -15t-14.5 -41v-382q0 -26 14.5 -40.5t40.5 -14.5h192q24 0 39 13t16 37v114h-184v104h303z" />
    <glyph glyph-name="gbreve" unicode="&#x11f;" horiz-adv-x="558" 
d="M493 520v-567q0 -69 -42 -111t-110 -42h-133q-69 0 -111 42t-42 111v17h111v-19q0 -26 15 -40.5t41 -14.5h105q25 0 40 15t15 40v84q-40 -35 -102 -35h-72q-69 0 -111 42.5t-42 110.5v214q0 69 42 111t111 42h72q72 0 114 -47l14 47h85zM166 369v-218q0 -26 15 -40.5
t41 -14.5h105q25 0 40 15t15 40v218q0 26 -14.5 40.5t-40.5 14.5h-105q-26 0 -41 -14.5t-15 -40.5zM140 740h84q0 -49 12 -69.5t43 -20.5q32 0 44 21t12 69h83q0 -85 -34 -123.5t-105 -38.5t-105 38.5t-34 123.5z" />
    <glyph glyph-name="Gdotaccent" unicode="&#x120;" 
d="M279 740v129h111v-129h-111zM605 372v-372h-88l-15 47q-42 -47 -115 -47h-170q-68 0 -110 42.5t-42 110.5v394q0 69 42 111t110 42h235q68 0 110.5 -42t42.5 -111v-69h-119v63q0 26 -14.5 41t-40.5 15h-192q-26 0 -40.5 -15t-14.5 -41v-382q0 -26 14.5 -40.5t40.5 -14.5
h192q24 0 39 13t16 37v114h-184v104h303z" />
    <glyph glyph-name="gdotaccent" unicode="&#x121;" horiz-adv-x="558" 
d="M493 520v-567q0 -69 -42 -111t-110 -42h-133q-69 0 -111 42t-42 111v17h111v-19q0 -26 15 -40.5t41 -14.5h105q25 0 40 15t15 40v84q-40 -35 -102 -35h-72q-69 0 -111 42.5t-42 110.5v214q0 69 42 111t111 42h72q72 0 114 -47l14 47h85zM166 369v-218q0 -26 15 -40.5
t41 -14.5h105q25 0 40 15t15 40v218q0 26 -14.5 40.5t-40.5 14.5h-105q-26 0 -41 -14.5t-15 -40.5zM223 595v129h111v-129h-111z" />
    <glyph glyph-name="Gcommaaccent" unicode="&#x122;" 
d="M281 -200l5 150h102l-30 -150h-77zM605 372v-372h-88l-15 47q-42 -47 -115 -47h-170q-68 0 -110 42.5t-42 110.5v394q0 69 42 111t110 42h235q68 0 110.5 -42t42.5 -111v-69h-119v63q0 26 -14.5 41t-40.5 15h-192q-26 0 -40.5 -15t-14.5 -41v-382q0 -26 14.5 -40.5
t40.5 -14.5h192q24 0 39 13t16 37v114h-184v104h303z" />
    <glyph glyph-name="gcommaaccent" unicode="&#x123;" horiz-adv-x="558" 
d="M331 740l-5 -150h-102l30 150h77zM493 520v-567q0 -69 -42 -111t-110 -42h-133q-69 0 -111 42t-42 111v17h111v-19q0 -26 15 -40.5t41 -14.5h105q25 0 40 15t15 40v84q-40 -35 -102 -35h-72q-69 0 -111 42.5t-42 110.5v214q0 69 42 111t111 42h72q72 0 114 -47l14 47h85z
M166 369v-218q0 -26 15 -40.5t41 -14.5h105q25 0 40 15t15 40v218q0 26 -14.5 40.5t-40.5 14.5h-105q-26 0 -41 -14.5t-15 -40.5z" />
    <glyph glyph-name="Hcircumflex" unicode="&#x124;" 
d="M486 0v299h-302v-299h-119v700h119v-298h302v298h119v-700h-119zM397 885l104 -145h-103l-64 87l-65 -87h-100l104 145h124z" />
    <glyph glyph-name="hcircumflex" unicode="&#x125;" horiz-adv-x="568" 
d="M503 0h-111v369q0 26 -14.5 40.5t-40.5 14.5h-105q-26 0 -41 -14.5t-15 -40.5v-369h-111v740h111v-255q41 35 103 35h71q69 0 111 -42t42 -111v-367zM186 925l104 -145h-103l-64 87l-65 -87h-100l104 145h124z" />
    <glyph glyph-name="Hbar" unicode="&#x126;" 
d="M20 510v82h45v108h119v-108h302v108h119v-108h45v-82h-45v-510h-119v299h-302v-299h-119v510h-45zM184 402h302v108h-302v-108z" />
    <glyph glyph-name="hbar" unicode="&#x127;" horiz-adv-x="568" 
d="M0 590v81h65v69h111v-69h126v-81h-126v-105q41 35 103 35h71q69 0 111 -42t42 -111v-367h-111v369q0 26 -14.5 40.5t-40.5 14.5h-105q-26 0 -41 -14.5t-15 -40.5v-369h-111v590h-65z" />
    <glyph glyph-name="Itilde" unicode="&#x128;" horiz-adv-x="249" 
d="M65 0v700h119v-700h-119zM50 805q-30 17 -46 -12l-30 -55l-67 32l33 62q22 43 62.5 56.5t83.5 -8.5l115 -60q31 -19 47 12l26 49l68 -31l-30 -58q-22 -42 -62.5 -55.5t-84.5 7.5z" />
    <glyph glyph-name="itilde" unicode="&#x129;" horiz-adv-x="241" 
d="M65 0v520h111v-520h-111zM63 658q-29 20 -47 -10l-33 -53l-64 38l37 60q25 41 66.5 51.5t82.5 -13.5l77 -48q29 -20 47 10l30 47l64 -37l-33 -55q-25 -42 -66.5 -52.5t-83.5 14.5z" />
    <glyph glyph-name="Imacron" unicode="&#x12a;" horiz-adv-x="249" 
d="M65 0v700h119v-700h-119zM-47 767v81h342v-81h-342z" />
    <glyph glyph-name="imacron" unicode="&#x12b;" horiz-adv-x="241" 
d="M65 0v520h111v-520h-111zM-30 607v81h302v-81h-302z" />
    <glyph glyph-name="Ibreve" unicode="&#x12c;" horiz-adv-x="249" 
d="M65 0v700h119v-700h-119zM-24 885h84q0 -45 15.5 -62t49.5 -17t49.5 17t15.5 62h84q0 -82 -37.5 -116.5t-111.5 -34.5t-111.5 34.5t-37.5 116.5z" />
    <glyph glyph-name="ibreve" unicode="&#x12d;" horiz-adv-x="241" 
d="M65 0v520h111v-520h-111zM-18 740h84q0 -49 12 -69.5t43 -20.5q32 0 44 21t12 69h83q0 -85 -34 -123.5t-105 -38.5t-105 38.5t-34 123.5z" />
    <glyph glyph-name="Iogonek" unicode="&#x12e;" horiz-adv-x="249" 
d="M65 0v700h119v-700h-1l-35 -50q-10 -14 -10 -31q0 -33 35 -33h54v-86h-85q-40 0 -70 27t-30 69q0 41 31 85l13 19h-21z" />
    <glyph glyph-name="iogonek" unicode="&#x12f;" horiz-adv-x="241" 
d="M65 0v520h111v-520l-35 -50q-10 -14 -10 -31q0 -33 35 -33h54v-86h-85q-40 0 -70 27t-30 69q0 41 31 85l13 19h-14zM65 595v129h111v-129h-111z" />
    <glyph glyph-name="Idotaccent" unicode="&#x130;" horiz-adv-x="249" 
d="M65 0v700h119v-700h-119zM68 740v129h111v-129h-111z" />
    <glyph glyph-name="dotlessi" unicode="&#x131;" horiz-adv-x="241" 
d="M65 0v520h111v-520h-111z" />
    <glyph glyph-name="IJ" unicode="&#x132;" horiz-adv-x="856" 
d="M65 0v700h119v-700h-119zM672 700h118v-551q0 -67 -41 -108t-108 -41h-212q-67 0 -107.5 41t-40.5 108v89h118v-83q0 -24 13.5 -37.5t38.5 -13.5h169q25 0 38.5 13.5t13.5 37.5v545z" />
    <glyph glyph-name="ij" unicode="&#x133;" horiz-adv-x="483" 
d="M65 0v520h111v-520h-111zM65 595v129h111v-129h-111zM306 -200v720h111v-720h-111zM306 595v129h111v-129h-111z" />
    <glyph glyph-name="Jcircumflex" unicode="&#x134;" horiz-adv-x="607" 
d="M424 700h118v-551q0 -67 -41 -108t-108 -41h-212q-67 0 -107.5 41t-40.5 108v89h118v-83q0 -24 13.5 -37.5t38.5 -13.5h169q25 0 38.5 13.5t13.5 37.5v545zM547 885l104 -145h-103l-64 87l-65 -87h-100l104 145h124z" />
    <glyph glyph-name="jcircumflex" unicode="&#x135;" horiz-adv-x="241" 
d="M65 -200v720h111v-720h-111zM177 740l101 -160h-103l-54 90l-55 -90h-100l101 160h110z" />
    <glyph glyph-name="Kcommaaccent" unicode="&#x136;" horiz-adv-x="614" 
d="M253 -200l5 150h102l-30 -150h-77zM461 0l-277 339v-339h-119v700h119v-339l277 339h143l-281 -344l291 -356h-153z" />
    <glyph glyph-name="kcommaaccent" unicode="&#x137;" horiz-adv-x="512" 
d="M201 -200l5 150h102l-30 -150h-77zM386 0l-210 250v-250h-111v740h111v-471l207 251h134l-210 -253l225 -267h-146z" />
    <glyph glyph-name="kgreenlandic" unicode="&#x138;" horiz-adv-x="512" 
d="M386 0l-210 250v-250h-111v520h111v-251l207 251h134l-210 -253l225 -267h-146z" />
    <glyph glyph-name="Lacute" unicode="&#x139;" horiz-adv-x="555" 
d="M160 740h-95l87 145h124zM65 0v700h119v-596h351v-104h-470z" />
    <glyph glyph-name="lacute" unicode="&#x13a;" horiz-adv-x="241" 
d="M154 780h-95l87 145h124zM65 0v740h111v-740h-111z" />
    <glyph glyph-name="Lcommaaccent" unicode="&#x13b;" horiz-adv-x="555" 
d="M224 -200l5 150h102l-30 -150h-77zM65 0v700h119v-596h351v-104h-470z" />
    <glyph glyph-name="lcommaaccent" unicode="&#x13c;" horiz-adv-x="241" 
d="M67 -200l5 150h102l-30 -150h-77zM65 0v740h111v-740h-111z" />
    <glyph glyph-name="Lcaron" unicode="&#x13d;" horiz-adv-x="555" 
d="M248 580l8 200h105l-47 -200h-66zM65 0v700h119v-596h351v-104h-470z" />
    <glyph glyph-name="lcaron" unicode="&#x13e;" horiz-adv-x="291" 
d="M221 580l8 200h105l-47 -200h-66zM65 0v740h111v-740h-111z" />
    <glyph glyph-name="Ldot" unicode="&#x13f;" horiz-adv-x="555" 
d="M65 0v700h119v-596h351v-104h-470zM284 286v129h111v-129h-111z" />
    <glyph glyph-name="ldot" unicode="&#x140;" horiz-adv-x="385" 
d="M65 0v740h111v-740h-111zM250 279v143h126v-143h-126z" />
    <glyph glyph-name="Lslash" unicode="&#x141;" horiz-adv-x="595" 
d="M20 262v96l85 21v321h119v-290l157 40v-96l-157 -40v-210h351v-104h-470v283z" />
    <glyph glyph-name="lslash" unicode="&#x142;" horiz-adv-x="321" 
d="M20 262v96l85 28v354h111v-318l85 28v-96l-85 -28v-326h-111v290z" />
    <glyph glyph-name="Nacute" unicode="&#x143;" 
d="M355 740h-95l87 145h124zM494 0l-310 482v-482h-119v700h111l310 -482v482h119v-700h-111z" />
    <glyph glyph-name="nacute" unicode="&#x144;" horiz-adv-x="568" 
d="M308 580h-88l92 160h116zM503 0h-111v369q0 26 -14.5 40.5t-40.5 14.5h-105q-53 0 -56 -50v-374h-111v520h85l13 -47q42 47 116 47h71q69 0 111 -42t42 -111v-367z" />
    <glyph glyph-name="Ncommaaccent" unicode="&#x145;" 
d="M281 -200l5 150h102l-30 -150h-77zM494 0l-310 482v-482h-119v700h111l310 -482v482h119v-700h-111z" />
    <glyph glyph-name="ncommaaccent" unicode="&#x146;" horiz-adv-x="568" 
d="M230 -200l5 150h102l-30 -150h-77zM503 0h-111v369q0 26 -14.5 40.5t-40.5 14.5h-105q-53 0 -56 -50v-374h-111v520h85l13 -47q42 47 116 47h71q69 0 111 -42t42 -111v-367z" />
    <glyph glyph-name="Ncaron" unicode="&#x147;" 
d="M273 740l-104 145h103l64 -87l65 87h100l-104 -145h-124zM494 0l-310 482v-482h-119v700h111l310 -482v482h119v-700h-111z" />
    <glyph glyph-name="ncaron" unicode="&#x148;" horiz-adv-x="568" 
d="M228 580l-101 160h103l54 -90l55 90h100l-101 -160h-110zM503 0h-111v369q0 26 -14.5 40.5t-40.5 14.5h-105q-53 0 -56 -50v-374h-111v520h85l13 -47q42 47 116 47h71q69 0 111 -42t42 -111v-367z" />
    <glyph glyph-name="napostrophe" unicode="&#x149;" horiz-adv-x="568" 
d="M65 590l5 150h102l-30 -150h-77zM503 0h-111v369q0 26 -14.5 40.5t-40.5 14.5h-105q-53 0 -56 -50v-374h-111v520h85l13 -47q42 47 116 47h71q69 0 111 -42t42 -111v-367z" />
    <glyph glyph-name="Eng" unicode="&#x14a;" 
d="M486 13l-302 469v-482h-119v700h111l310 -482v482h119v-900h-119v213z" />
    <glyph glyph-name="eng" unicode="&#x14b;" horiz-adv-x="568" 
d="M503 -200h-111v569q0 26 -14.5 40.5t-40.5 14.5h-105q-53 0 -56 -50v-374h-111v520h85l13 -47q42 47 116 47h71q69 0 111 -42t42 -111v-567z" />
    <glyph glyph-name="Omacron" unicode="&#x14c;" 
d="M163 767v81h342v-81h-342zM486 159v382q0 26 -14.5 41t-40.5 15h-192q-26 0 -40.5 -15t-14.5 -41v-382q0 -26 14.5 -40.5t40.5 -14.5h192q26 0 40.5 14.5t14.5 40.5zM605 153q0 -68 -42.5 -110.5t-110.5 -42.5h-235q-68 0 -110 42.5t-42 110.5v394q0 69 42 111t110 42
h235q68 0 110.5 -42t42.5 -111v-394z" />
    <glyph glyph-name="omacron" unicode="&#x14d;" horiz-adv-x="548" 
d="M122 607v81h302v-81h-302zM382 151v218q0 26 -14.5 40.5t-40.5 14.5h-105q-26 0 -41 -14.5t-15 -40.5v-218q0 -26 15 -40.5t41 -14.5h105q25 0 40 15t15 40zM493 153q0 -68 -42 -110.5t-111 -42.5h-133q-68 0 -110 42.5t-42 110.5v214q0 69 42 111t110 42h133
q69 0 111 -42t42 -111v-214z" />
    <glyph glyph-name="Obreve" unicode="&#x14e;" 
d="M186 885h84q0 -45 15.5 -62t49.5 -17t49.5 17t15.5 62h84q0 -82 -37.5 -116.5t-111.5 -34.5t-111.5 34.5t-37.5 116.5zM486 159v382q0 26 -14.5 41t-40.5 15h-192q-26 0 -40.5 -15t-14.5 -41v-382q0 -26 14.5 -40.5t40.5 -14.5h192q26 0 40.5 14.5t14.5 40.5zM605 153
q0 -68 -42.5 -110.5t-110.5 -42.5h-235q-68 0 -110 42.5t-42 110.5v394q0 69 42 111t110 42h235q68 0 110.5 -42t42.5 -111v-394z" />
    <glyph glyph-name="obreve" unicode="&#x14f;" horiz-adv-x="548" 
d="M382 151v218q0 26 -14.5 40.5t-40.5 14.5h-105q-26 0 -41 -14.5t-15 -40.5v-218q0 -26 15 -40.5t41 -14.5h105q25 0 40 15t15 40zM493 153q0 -68 -42 -110.5t-111 -42.5h-133q-68 0 -110 42.5t-42 110.5v214q0 69 42 111t110 42h133q69 0 111 -42t42 -111v-214zM135 740
h84q0 -49 12 -69.5t43 -20.5q32 0 44 21t12 69h83q0 -85 -34 -123.5t-105 -38.5t-105 38.5t-34 123.5z" />
    <glyph glyph-name="Ohungarumlaut" unicode="&#x150;" 
d="M486 159v382q0 26 -14.5 41t-40.5 15h-192q-26 0 -40.5 -15t-14.5 -41v-382q0 -26 14.5 -40.5t40.5 -14.5h192q26 0 40.5 14.5t14.5 40.5zM605 153q0 -68 -42.5 -110.5t-110.5 -42.5h-235q-68 0 -110 42.5t-42 110.5v394q0 69 42 111t110 42h235q68 0 110.5 -42
t42.5 -111v-394zM246 740h-88l92 145h116zM452 740h-88l92 145h116z" />
    <glyph glyph-name="ohungarumlaut" unicode="&#x151;" horiz-adv-x="548" 
d="M211 580h-76l78 160h105zM386 580h-83l78 160h112zM382 151v218q0 26 -14.5 40.5t-40.5 14.5h-105q-26 0 -41 -14.5t-15 -40.5v-218q0 -26 15 -40.5t41 -14.5h105q25 0 40 15t15 40zM493 153q0 -68 -42 -110.5t-111 -42.5h-133q-68 0 -110 42.5t-42 110.5v214
q0 69 42 111t110 42h133q69 0 111 -42t42 -111v-214z" />
    <glyph glyph-name="OE" unicode="&#x152;" horiz-adv-x="1011" 
d="M486 0v32q-40 -32 -99 -32h-170q-68 0 -110 42.5t-42 110.5v394q0 69 42 111t110 42h170q57 0 99 -32v32h470v-103h-351v-195h301v-103h-301v-195h351v-104h-470zM486 159v387q-1 24 -16 37.5t-39 13.5h-192q-26 0 -40.5 -15t-14.5 -41v-382q0 -26 14.5 -40.5t40.5 -14.5
h192q26 0 40.5 14.5t14.5 40.5z" />
    <glyph glyph-name="oe" unicode="&#x153;" horiz-adv-x="875" 
d="M709 170h111v-17q0 -68 -42 -110.5t-111 -42.5h-110q-80 0 -120 59q-38 -59 -120 -59h-110q-68 0 -110 42.5t-42 110.5v214q0 69 42 111t110 42h110q82 0 120 -59q40 59 120 59h110q69 0 111 -42t42 -111v-147h-327v-69q0 -25 14.5 -40t40.5 -15h105q26 0 41 14.5
t15 40.5v19zM382 151v218q0 26 -14.5 40.5t-40.5 14.5h-105q-26 0 -41 -14.5t-15 -40.5v-218q0 -26 15 -40.5t41 -14.5h105q25 0 40 15t15 40zM493 369v-60h216v60q0 26 -15 40.5t-41 14.5h-105q-26 0 -40.5 -14.5t-14.5 -40.5z" />
    <glyph glyph-name="Racute" unicode="&#x154;" horiz-adv-x="630" 
d="M585 402q0 -59 -31.5 -99t-84.5 -51l116 -252h-130l-109 249h-162v-249h-119v700h367q68 0 110.5 -42t42.5 -111v-145zM466 408v133q0 26 -14.5 41t-40.5 15h-227v-245h227q26 0 40.5 15t14.5 41zM325 740h-95l87 145h124z" />
    <glyph glyph-name="racute" unicode="&#x155;" horiz-adv-x="370" 
d="M209 580h-88l92 160h116zM370 520v-96h-138q-26 0 -41 -14.5t-15 -40.5v-369h-111v520h85l13 -47q42 47 116 47h91z" />
    <glyph glyph-name="Rcommaaccent" unicode="&#x156;" horiz-adv-x="630" 
d="M261 -200l5 150h102l-30 -150h-77zM585 402q0 -59 -31.5 -99t-84.5 -51l116 -252h-130l-109 249h-162v-249h-119v700h367q68 0 110.5 -42t42.5 -111v-145zM466 408v133q0 26 -14.5 41t-40.5 15h-227v-245h227q26 0 40.5 15t14.5 41z" />
    <glyph glyph-name="rcommaaccent" unicode="&#x157;" horiz-adv-x="370" 
d="M65 -200l5 150h102l-30 -150h-77zM370 520v-96h-138q-26 0 -41 -14.5t-15 -40.5v-369h-111v520h85l13 -47q42 47 116 47h91z" />
    <glyph glyph-name="Rcaron" unicode="&#x158;" horiz-adv-x="630" 
d="M253 740l-104 145h103l64 -87l65 87h100l-104 -145h-124zM585 402q0 -59 -31.5 -99t-84.5 -51l116 -252h-130l-109 249h-162v-249h-119v700h367q68 0 110.5 -42t42.5 -111v-145zM466 408v133q0 26 -14.5 41t-40.5 15h-227v-245h227q26 0 40.5 15t14.5 41z" />
    <glyph glyph-name="rcaron" unicode="&#x159;" horiz-adv-x="370" 
d="M130 580l-101 160h103l54 -90l55 90h100l-101 -160h-110zM370 520v-96h-138q-26 0 -41 -14.5t-15 -40.5v-369h-111v520h85l13 -47q42 47 116 47h91z" />
    <glyph glyph-name="Sacute" unicode="&#x15a;" horiz-adv-x="660" 
d="M443 402q68 0 110 -42t42 -111v-96q0 -69 -42 -111t-110 -42h-225q-68 0 -110.5 42t-42.5 111v62h119v-56q0 -26 14.5 -40.5t40.5 -14.5h182q26 0 40.5 14.5t14.5 40.5v85q0 26 -15 40.5t-40 14.5h-204q-68 0 -110 42t-42 111v95q0 69 42 111t110 42h225q68 0 110.5 -42
t42.5 -111v-62h-119v56q0 26 -14.5 41t-40.5 15h-182q-26 0 -40.5 -15t-14.5 -41v-83q0 -26 14.5 -41t40.5 -15h204zM350 740h-95l87 145h124z" />
    <glyph glyph-name="sacute" unicode="&#x15b;" horiz-adv-x="548" 
d="M298 580h-88l92 160h116zM345 306q66 0 107 -41t41 -108v-8q0 -67 -41 -108t-107 -41h-141q-67 0 -108 41t-41 108v20h111v-22q0 -24 13.5 -37.5t38.5 -13.5h113q24 0 37.5 14t13.5 38v18q0 24 -13.5 38t-37.5 14h-123q-66 0 -107 41t-41 108v4q0 67 41 108t107 41h131
q67 0 108 -41t41 -108v-20h-111v22q0 24 -13.5 37.5t-37.5 13.5h-103q-25 0 -38.5 -13.5t-13.5 -37.5v-16q0 -24 13.5 -37.5t38.5 -13.5h122z" />
    <glyph glyph-name="Scircumflex" unicode="&#x15c;" horiz-adv-x="660" 
d="M443 402q68 0 110 -42t42 -111v-96q0 -69 -42 -111t-110 -42h-225q-68 0 -110.5 42t-42.5 111v62h119v-56q0 -26 14.5 -40.5t40.5 -14.5h182q26 0 40.5 14.5t14.5 40.5v85q0 26 -15 40.5t-40 14.5h-204q-68 0 -110 42t-42 111v95q0 69 42 111t110 42h225q68 0 110.5 -42
t42.5 -111v-62h-119v56q0 26 -14.5 41t-40.5 15h-182q-26 0 -40.5 -15t-14.5 -41v-83q0 -26 14.5 -41t40.5 -15h204zM392 885l104 -145h-103l-64 87l-65 -87h-100l104 145h124z" />
    <glyph glyph-name="scircumflex" unicode="&#x15d;" horiz-adv-x="548" 
d="M328 740l101 -160h-103l-54 90l-55 -90h-100l101 160h110zM345 306q66 0 107 -41t41 -108v-8q0 -67 -41 -108t-107 -41h-141q-67 0 -108 41t-41 108v20h111v-22q0 -24 13.5 -37.5t38.5 -13.5h113q24 0 37.5 14t13.5 38v18q0 24 -13.5 38t-37.5 14h-123q-66 0 -107 41
t-41 108v4q0 67 41 108t107 41h131q67 0 108 -41t41 -108v-20h-111v22q0 24 -13.5 37.5t-37.5 13.5h-103q-25 0 -38.5 -13.5t-13.5 -37.5v-16q0 -24 13.5 -37.5t38.5 -13.5h122z" />
    <glyph glyph-name="Scedilla" unicode="&#x15e;" horiz-adv-x="660" 
d="M443 402q68 0 110 -42t42 -111v-96q0 -69 -42 -111t-110 -42h-225q-68 0 -110.5 42t-42.5 111v62h119v-56q0 -26 14.5 -40.5t40.5 -14.5h182q26 0 40.5 14.5t14.5 40.5v85q0 26 -15 40.5t-40 14.5h-204q-68 0 -110 42t-42 111v95q0 69 42 111t110 42h225q68 0 110.5 -42
t42.5 -111v-62h-119v56q0 26 -14.5 41t-40.5 15h-182q-26 0 -40.5 -15t-14.5 -41v-83q0 -26 14.5 -41t40.5 -15h204zM356 -200h-103l55 80l-55 80h103l51 -80z" />
    <glyph glyph-name="scedilla" unicode="&#x15f;" horiz-adv-x="548" 
d="M345 306q66 0 107 -41t41 -108v-8q0 -67 -41 -108t-107 -41h-141q-67 0 -108 41t-41 108v20h111v-22q0 -24 13.5 -37.5t38.5 -13.5h113q24 0 37.5 14t13.5 38v18q0 24 -13.5 38t-37.5 14h-123q-66 0 -107 41t-41 108v4q0 67 41 108t107 41h131q67 0 108 -41t41 -108v-20
h-111v22q0 24 -13.5 37.5t-37.5 13.5h-103q-25 0 -38.5 -13.5t-13.5 -37.5v-16q0 -24 13.5 -37.5t38.5 -13.5h122zM320 -200h-103l55 80l-55 80h103l51 -80z" />
    <glyph glyph-name="Scaron" unicode="&#x160;" horiz-adv-x="660" 
d="M443 402q68 0 110 -42t42 -111v-96q0 -69 -42 -111t-110 -42h-225q-68 0 -110.5 42t-42.5 111v62h119v-56q0 -26 14.5 -40.5t40.5 -14.5h182q26 0 40.5 14.5t14.5 40.5v85q0 26 -15 40.5t-40 14.5h-204q-68 0 -110 42t-42 111v95q0 69 42 111t110 42h225q68 0 110.5 -42
t42.5 -111v-62h-119v56q0 26 -14.5 41t-40.5 15h-182q-26 0 -40.5 -15t-14.5 -41v-83q0 -26 14.5 -41t40.5 -15h204zM268 740l-104 145h103l64 -87l65 87h100l-104 -145h-124z" />
    <glyph glyph-name="scaron" unicode="&#x161;" horiz-adv-x="548" 
d="M218 580l-101 160h103l54 -90l55 90h100l-101 -160h-110zM345 306q66 0 107 -41t41 -108v-8q0 -67 -41 -108t-107 -41h-141q-67 0 -108 41t-41 108v20h111v-22q0 -24 13.5 -37.5t38.5 -13.5h113q24 0 37.5 14t13.5 38v18q0 24 -13.5 38t-37.5 14h-123q-66 0 -107 41
t-41 108v4q0 67 41 108t107 41h131q67 0 108 -41t41 -108v-20h-111v22q0 24 -13.5 37.5t-37.5 13.5h-103q-25 0 -38.5 -13.5t-13.5 -37.5v-16q0 -24 13.5 -37.5t38.5 -13.5h122z" />
    <glyph glyph-name="Tcommaaccent" unicode="&#x162;" horiz-adv-x="563" 
d="M227 -200l5 150h102l-30 -150h-77zM0 597v103h563v-103h-222v-597h-119v597h-222z" />
    <glyph glyph-name="tcommaaccent" unicode="&#x163;" horiz-adv-x="361" 
d="M127 -200l5 150h102l-30 -150h-77zM0 424v96h125v150l111 33v-183h125v-96h-125v-424h-111v424h-125z" />
    <glyph glyph-name="Tcaron" unicode="&#x164;" horiz-adv-x="563" 
d="M219 740l-104 145h103l64 -87l65 87h100l-104 -145h-124zM0 597v103h563v-103h-222v-597h-119v597h-222z" />
    <glyph glyph-name="tcaron" unicode="&#x165;" horiz-adv-x="361" 
d="M281 580l8 200h105l-47 -200h-66zM0 424v96h125v150l111 33v-183h125v-96h-125v-424h-111v424h-125z" />
    <glyph glyph-name="Tbar" unicode="&#x166;" horiz-adv-x="563" 
d="M0 597v103h563v-103h-222v-221h91v-81h-91v-295h-119v295h-92v81h92v221h-222z" />
    <glyph glyph-name="tbar" unicode="&#x167;" horiz-adv-x="361" 
d="M0 424v96h125v150l111 33v-183h125v-96h-125v-102h95v-81h-95v-241h-111v241h-96v81h96v102h-125z" />
    <glyph glyph-name="Utilde" unicode="&#x168;" 
d="M260 804q-30 17 -46 -12l-30 -55l-67 32l33 62q22 43 62.5 56.5t83.5 -8.5l115 -60q31 -19 47 12l26 49l68 -31l-30 -58q-22 -42 -62.5 -55.5t-84.5 7.5zM486 700h119v-547q0 -68 -42.5 -110.5t-110.5 -42.5h-235q-68 0 -110 42.5t-42 110.5v547h119v-541
q0 -26 14.5 -40.5t40.5 -14.5h192q26 0 40.5 14.5t14.5 40.5v541z" />
    <glyph glyph-name="utilde" unicode="&#x169;" horiz-adv-x="568" 
d="M65 520h111v-369q0 -26 15 -40.5t41 -14.5h105q24 0 39 13.5t16 36.5v374h111v-520h-85l-14 47q-42 -47 -114 -47h-72q-69 0 -111 42t-42 111v367zM225 658q-29 20 -47 -10l-33 -53l-64 38l37 60q25 41 66.5 51.5t82.5 -13.5l77 -48q29 -20 47 10l30 47l64 -37l-33 -55
q-25 -42 -66.5 -52.5t-83.5 14.5z" />
    <glyph glyph-name="Umacron" unicode="&#x16a;" 
d="M163 767v81h342v-81h-342zM486 700h119v-547q0 -68 -42.5 -110.5t-110.5 -42.5h-235q-68 0 -110 42.5t-42 110.5v547h119v-541q0 -26 14.5 -40.5t40.5 -14.5h192q26 0 40.5 14.5t14.5 40.5v541z" />
    <glyph glyph-name="umacron" unicode="&#x16b;" horiz-adv-x="568" 
d="M65 520h111v-369q0 -26 15 -40.5t41 -14.5h105q24 0 39 13.5t16 36.5v374h111v-520h-85l-14 47q-42 -47 -114 -47h-72q-69 0 -111 42t-42 111v367zM132 607v81h302v-81h-302z" />
    <glyph glyph-name="Ubreve" unicode="&#x16c;" 
d="M186 885h84q0 -45 15.5 -62t49.5 -17t49.5 17t15.5 62h84q0 -82 -37.5 -116.5t-111.5 -34.5t-111.5 34.5t-37.5 116.5zM486 700h119v-547q0 -68 -42.5 -110.5t-110.5 -42.5h-235q-68 0 -110 42.5t-42 110.5v547h119v-541q0 -26 14.5 -40.5t40.5 -14.5h192q26 0 40.5 14.5
t14.5 40.5v541z" />
    <glyph glyph-name="ubreve" unicode="&#x16d;" horiz-adv-x="568" 
d="M65 520h111v-369q0 -26 15 -40.5t41 -14.5h105q24 0 39 13.5t16 36.5v374h111v-520h-85l-14 47q-42 -47 -114 -47h-72q-69 0 -111 42t-42 111v367zM145 740h84q0 -49 12 -69.5t43 -20.5q32 0 44 21t12 69h83q0 -85 -34 -123.5t-105 -38.5t-105 38.5t-34 123.5z" />
    <glyph glyph-name="Uring" unicode="&#x16e;" 
d="M486 700h119v-547q0 -68 -42.5 -110.5t-110.5 -42.5h-235q-68 0 -110 42.5t-42 110.5v547h119v-541q0 -26 14.5 -40.5t40.5 -14.5h192q26 0 40.5 14.5t14.5 40.5v541zM225 817q0 45 30.5 73t78.5 28q49 0 79 -28t30 -73t-30 -73t-79 -28q-48 0 -78.5 28t-30.5 73z
M291 817q0 -49 43 -49t43 49t-43 49t-43 -49z" />
    <glyph glyph-name="uring" unicode="&#x16f;" horiz-adv-x="568" 
d="M174 654q0 45 30.5 73t78.5 28q49 0 79 -28t30 -73t-30 -73t-79 -28q-48 0 -78.5 28t-30.5 73zM240 654q0 -49 43 -49t43 49t-43 49t-43 -49zM65 520h111v-369q0 -26 15 -40.5t41 -14.5h105q24 0 39 13.5t16 36.5v374h111v-520h-85l-14 47q-42 -47 -114 -47h-72
q-69 0 -111 42t-42 111v367z" />
    <glyph glyph-name="Uhungarumlaut" unicode="&#x170;" 
d="M486 700h119v-547q0 -68 -42.5 -110.5t-110.5 -42.5h-235q-68 0 -110 42.5t-42 110.5v547h119v-541q0 -26 14.5 -40.5t40.5 -14.5h192q26 0 40.5 14.5t14.5 40.5v541zM246 740h-88l92 145h116zM452 740h-88l92 145h116z" />
    <glyph glyph-name="uhungarumlaut" unicode="&#x171;" horiz-adv-x="568" 
d="M65 520h111v-369q0 -26 15 -40.5t41 -14.5h105q24 0 39 13.5t16 36.5v374h111v-520h-85l-14 47q-42 -47 -114 -47h-72q-69 0 -111 42t-42 111v367zM191 580h-76l78 160h105zM366 580h-83l78 160h112z" />
    <glyph glyph-name="Uogonek" unicode="&#x172;" 
d="M486 700h119v-547q0 -68 -42.5 -110.5t-110.5 -42.5h-49l-35 -50q-10 -14 -10 -31q0 -33 35 -33h54v-86h-85q-40 0 -70 27t-30 69q0 41 31 85l13 19h-89q-68 0 -110 42.5t-42 110.5v547h119v-541q0 -26 14.5 -40.5t40.5 -14.5h192q26 0 40.5 14.5t14.5 40.5v541z" />
    <glyph glyph-name="uogonek" unicode="&#x173;" horiz-adv-x="568" 
d="M65 520h111v-369q0 -26 15 -40.5t41 -14.5h105q24 0 39 13.5t16 36.5v374h111v-520h-1l-35 -50q-10 -14 -10 -31q0 -33 35 -33h54v-86h-85q-40 0 -70 27t-30 69q0 41 31 85l22 32l-10 34q-42 -47 -114 -47h-72q-69 0 -111 42t-42 111v367z" />
    <glyph glyph-name="Wcircumflex" unicode="&#x174;" horiz-adv-x="866" 
d="M175 0l-179 700h122l128 -535l132 535h115l130 -535l129 535h118l-179 -700h-134l-124 483l-124 -483h-134zM495 885l104 -145h-103l-64 87l-65 -87h-100l104 145h124z" />
    <glyph glyph-name="wcircumflex" unicode="&#x175;" horiz-adv-x="771" 
d="M440 740l101 -160h-103l-54 90l-55 -90h-100l101 160h110zM287 0h-126l-151 520h115l105 -384l104 384h111l103 -384l106 384h107l-151 -520h-125l-100 353z" />
    <glyph glyph-name="Ycircumflex" unicode="&#x176;" horiz-adv-x="635" 
d="M377 257v-257h-119v257l-256 443h142l176 -323l178 323h134zM379 885l104 -145h-103l-64 87l-65 -87h-100l104 145h124z" />
    <glyph glyph-name="ycircumflex" unicode="&#x177;" horiz-adv-x="528" 
d="M258 -200h-119l72 200h-13l-188 520h119l139 -396l138 396h112zM318 740l101 -160h-103l-54 90l-55 -90h-100l101 160h110z" />
    <glyph glyph-name="Ydieresis" unicode="&#x178;" horiz-adv-x="635" 
d="M377 257v-257h-119v257l-256 443h142l176 -323l178 323h134zM146 744v121h96v-121h-96zM391 744v121h96v-121h-96z" />
    <glyph glyph-name="Zacute" unicode="&#x179;" horiz-adv-x="627" 
d="M55 104l376 493h-376v103h517v-103l-375 -493h375v-104h-517v104zM333 740h-95l87 145h124z" />
    <glyph glyph-name="zacute" unicode="&#x17a;" horiz-adv-x="496" 
d="M272 580h-88l92 160h116zM40 96l278 328h-278v96h416v-96l-278 -328h278v-96h-416v96z" />
    <glyph glyph-name="Zdotaccent" unicode="&#x17b;" horiz-adv-x="627" 
d="M258 740v129h111v-129h-111zM55 104l376 493h-376v103h517v-103l-375 -493h375v-104h-517v104z" />
    <glyph glyph-name="zdotaccent" unicode="&#x17c;" horiz-adv-x="496" 
d="M40 96l278 328h-278v96h416v-96l-278 -328h278v-96h-416v96zM192 595v129h111v-129h-111z" />
    <glyph glyph-name="Zcaron" unicode="&#x17d;" horiz-adv-x="627" 
d="M251 740l-104 145h103l64 -87l65 87h100l-104 -145h-124zM55 104l376 493h-376v103h517v-103l-375 -493h375v-104h-517v104z" />
    <glyph glyph-name="zcaron" unicode="&#x17e;" horiz-adv-x="496" 
d="M192 580l-101 160h103l54 -90l55 90h100l-101 -160h-110zM40 96l278 328h-278v96h416v-96l-278 -328h278v-96h-416v96z" />
    <glyph glyph-name="florin" unicode="&#x192;" horiz-adv-x="451" 
d="M160 37v267h-115v96h115v151q0 67 41 108t107 41h98v-96h-83q-25 0 -38.5 -13.5t-13.5 -37.5v-153h135v-96h-135v-265q0 -68 -40.5 -109t-107.5 -41h-78v96h64q24 0 37.5 14t13.5 38z" />
    <glyph glyph-name="Aringacute" unicode="&#x1fa;" horiz-adv-x="633" 
d="M389 700l244 -700h-125l-55 164h-276l-56 -164h-121l244 700h145zM314 574l-106 -307h212zM327 935h-95l87 145h124zM207 817q0 45 30.5 73t78.5 28q49 0 79 -28t30 -73t-30 -73t-79 -28q-48 0 -78.5 28t-30.5 73zM273 817q0 -49 43 -49t43 49t-43 49t-43 -49z" />
    <glyph glyph-name="AEacute" unicode="&#x1fc;" horiz-adv-x="1025" 
d="M609 740h-95l87 145h124zM0 0l433 700h537v-103h-351v-195h301v-103h-301v-195h351v-104h-469v164h-267l-101 -164h-133zM289 267h212v338z" />
    <glyph glyph-name="aeacute" unicode="&#x1fd;" horiz-adv-x="862" 
d="M450 580h-88l92 160h116zM696 170h111v-17q0 -68 -42 -110.5t-111 -42.5h-110q-80 0 -122 55q-41 -55 -119 -55h-111q-67 0 -108 41t-41 108v7q0 67 41 108t108 41h79q59 0 98 -33v101q0 24 -13.5 37.5t-37.5 13.5h-90q-25 0 -38.5 -13.5t-13.5 -37.5v-23h-111v21
q0 67 41 108t108 41h96q75 0 116 -51q43 51 118 51h110q69 0 111 -42t42 -111v-147h-326v-69q0 -26 14.5 -40.5t40.5 -14.5h105q26 0 40.5 14.5t14.5 40.5v19zM318 96q24 0 37.5 13.5t13.5 37.5v18q0 25 -13.5 38.5t-37.5 13.5h-113q-24 0 -37.5 -13.5t-13.5 -38.5v-18
q0 -24 13.5 -37.5t37.5 -13.5h113zM481 369v-60h215v60q0 55 -55 55h-105q-55 0 -55 -55z" />
    <glyph glyph-name="Oslashacute" unicode="&#x1fe;" 
d="M51 -52l55 95q-41 43 -41 110v394q0 69 42 111t110 42h235q1 0 31 -3l58 100l77 -44l-55 -96q42 -42 42 -110v-394q0 -68 -42.5 -110.5t-110.5 -42.5h-235q-17 0 -32 3l-57 -100zM486 159v365l-243 -420h188q26 0 40.5 14.5t14.5 40.5zM184 541v-363l241 419h-186
q-26 0 -40.5 -15t-14.5 -41zM355 740h-95l87 145h124z" />
    <glyph glyph-name="oslashacute" unicode="&#x1ff;" horiz-adv-x="548" 
d="M493 153q0 -68 -42 -110.5t-111 -42.5h-133q-22 0 -38 4l-42 -74l-64 37l40 70q-48 43 -48 116v214q0 69 42 111t110 42h133q15 0 39 -4l44 75l64 -38l-41 -71q47 -42 47 -115v-214zM166 146l160 278h-104q-26 0 -41 -14.5t-15 -40.5v-223zM382 151v220l-160 -275h105
q25 0 40 15t15 40zM298 580h-88l92 160h116z" />
    <glyph glyph-name="Scommaaccent" unicode="&#x218;" horiz-adv-x="660" 
d="M276 -200l5 150h102l-30 -150h-77zM443 402q68 0 110 -42t42 -111v-96q0 -69 -42 -111t-110 -42h-225q-68 0 -110.5 42t-42.5 111v62h119v-56q0 -26 14.5 -40.5t40.5 -14.5h182q26 0 40.5 14.5t14.5 40.5v85q0 26 -15 40.5t-40 14.5h-204q-68 0 -110 42t-42 111v95
q0 69 42 111t110 42h225q68 0 110.5 -42t42.5 -111v-62h-119v56q0 26 -14.5 41t-40.5 15h-182q-26 0 -40.5 -15t-14.5 -41v-83q0 -26 14.5 -41t40.5 -15h204z" />
    <glyph glyph-name="scommaaccent" unicode="&#x219;" horiz-adv-x="548" 
d="M220 -200l5 150h102l-30 -150h-77zM345 306q66 0 107 -41t41 -108v-8q0 -67 -41 -108t-107 -41h-141q-67 0 -108 41t-41 108v20h111v-22q0 -24 13.5 -37.5t38.5 -13.5h113q24 0 37.5 14t13.5 38v18q0 24 -13.5 38t-37.5 14h-123q-66 0 -107 41t-41 108v4q0 67 41 108
t107 41h131q67 0 108 -41t41 -108v-20h-111v22q0 24 -13.5 37.5t-37.5 13.5h-103q-25 0 -38.5 -13.5t-13.5 -37.5v-16q0 -24 13.5 -37.5t38.5 -13.5h122z" />
    <glyph glyph-name="circumflex" unicode="&#x2c6;" horiz-adv-x="352" 
d="M231 740l101 -160h-103l-54 90l-55 -90h-100l101 160h110z" />
    <glyph glyph-name="caron" unicode="&#x2c7;" horiz-adv-x="352" 
d="M121 580l-101 160h103l54 -90l55 90h100l-101 -160h-110z" />
    <glyph glyph-name="breve" unicode="&#x2d8;" horiz-adv-x="318" 
d="M20 740h84q0 -49 12 -69.5t43 -20.5q32 0 44 21t12 69h83q0 -85 -34 -123.5t-105 -38.5t-105 38.5t-34 123.5z" />
    <glyph glyph-name="dotaccent" unicode="&#x2d9;" horiz-adv-x="151" 
d="M20 595v129h111v-129h-111z" />
    <glyph glyph-name="ring" unicode="&#x2da;" horiz-adv-x="242" 
d="M12 654q0 45 30.5 73t78.5 28q49 0 79 -28t30 -73t-30 -73t-79 -28q-48 0 -78.5 28t-30.5 73zM78 654q0 -49 43 -49t43 49t-43 49t-43 -49z" />
    <glyph glyph-name="ogonek" unicode="&#x2db;" horiz-adv-x="240" 
d="M79 22l82 -22l-35 -50q-10 -14 -10 -31q0 -33 35 -33h54v-86h-85q-40 0 -70 27t-30 69q0 41 31 85z" />
    <glyph glyph-name="tilde" unicode="&#x2dc;" horiz-adv-x="444" 
d="M164 658q-29 20 -47 -10l-33 -53l-64 38l37 60q25 41 66.5 51.5t82.5 -13.5l77 -48q29 -20 47 10l30 47l64 -37l-33 -55q-25 -42 -66.5 -52.5t-83.5 14.5z" />
    <glyph glyph-name="hungarumlaut" unicode="&#x2dd;" horiz-adv-x="398" 
d="M96 580h-76l78 160h105zM271 580h-83l78 160h112z" />
    <glyph glyph-name="uni03A9" unicode="&#x3a9;" 
d="M155 104l-36 34q-54 49 -54 121v288q0 69 42 111t110 42h236q68 0 110 -42t42 -111v-288q0 -72 -54 -121l-36 -34h90v-104h-232v104l97 89q16 13 16 42v306q0 26 -14.5 41t-40.5 15h-192q-26 0 -40.5 -15t-14.5 -41v-306q0 -29 16 -42l97 -89v-104h-232v104h90z" />
    <glyph glyph-name="pi" unicode="&#x3c0;" horiz-adv-x="546" 
d="M176 424v-424h-111v424h-65v96h546v-96h-65v-424h-112v424h-193z" />
    <glyph glyph-name="Wgrave" unicode="&#x1e80;" horiz-adv-x="866" 
d="M510 740h-95l-115 145h123zM175 0l-179 700h122l128 -535l132 535h115l130 -535l129 535h118l-179 -700h-134l-124 483l-124 -483h-134z" />
    <glyph glyph-name="wgrave" unicode="&#x1e81;" horiz-adv-x="771" 
d="M287 0h-126l-151 520h115l105 -384l104 384h111l103 -384l106 384h107l-151 -520h-125l-100 353zM469 580h-88l-120 160h116z" />
    <glyph glyph-name="Wacute" unicode="&#x1e82;" horiz-adv-x="866" 
d="M450 740h-95l87 145h124zM175 0l-179 700h122l128 -535l132 535h115l130 -535l129 535h118l-179 -700h-134l-124 483l-124 -483h-134z" />
    <glyph glyph-name="wacute" unicode="&#x1e83;" horiz-adv-x="771" 
d="M390 580h-88l92 160h116zM287 0h-126l-151 520h115l105 -384l104 384h111l103 -384l106 384h107l-151 -520h-125l-100 353z" />
    <glyph glyph-name="Wdieresis" unicode="&#x1e84;" horiz-adv-x="866" 
d="M262 744v121h96v-121h-96zM507 744v121h96v-121h-96zM175 0l-179 700h122l128 -535l132 535h115l130 -535l129 535h118l-179 -700h-134l-124 483l-124 -483h-134z" />
    <glyph glyph-name="wdieresis" unicode="&#x1e85;" horiz-adv-x="771" 
d="M234 588v121h96v-121h-96zM439 588v121h96v-121h-96zM287 0h-126l-151 520h115l105 -384l104 384h111l103 -384l106 384h107l-151 -520h-125l-100 353z" />
    <glyph glyph-name="Ygrave" unicode="&#x1ef2;" horiz-adv-x="635" 
d="M377 257v-257h-119v257l-256 443h142l176 -323l178 323h134zM392 740h-95l-115 145h123z" />
    <glyph glyph-name="ygrave" unicode="&#x1ef3;" horiz-adv-x="528" 
d="M258 -200h-119l72 200h-13l-188 520h119l139 -396l138 396h112zM328 580h-88l-120 160h116z" />
    <glyph glyph-name="endash" unicode="&#x2013;" horiz-adv-x="510" 
d="M5 214v96h500v-96h-500z" />
    <glyph glyph-name="emdash" unicode="&#x2014;" horiz-adv-x="1010" 
d="M5 214v96h1000v-96h-1000z" />
    <glyph glyph-name="quoteleft" unicode="&#x2018;" horiz-adv-x="256" 
d="M191 806v-258h-126l45 258h81z" />
    <glyph glyph-name="quoteright" unicode="&#x2019;" horiz-adv-x="256" 
d="M65 548v258h126l-45 -258h-81z" />
    <glyph glyph-name="quotesinglbase" unicode="&#x201a;" horiz-adv-x="256" 
d="M65 -115v259h126l-45 -259h-81z" />
    <glyph glyph-name="quotedblleft" unicode="&#x201c;" horiz-adv-x="428" 
d="M363 806v-258h-127l45 258h82zM191 806v-258h-126l45 258h81z" />
    <glyph glyph-name="quotedblright" unicode="&#x201d;" horiz-adv-x="428" 
d="M65 548v258h126l-45 -258h-81zM236 548v258h127l-45 -258h-82z" />
    <glyph glyph-name="quotedblbase" unicode="&#x201e;" horiz-adv-x="428" 
d="M65 -115v259h126l-45 -259h-81zM236 -115v259h127l-45 -259h-82z" />
    <glyph glyph-name="dagger" unicode="&#x2020;" horiz-adv-x="549" 
d="M334 -60h-119l15 455l-210 -15v104l210 -15l-15 231h119l-15 -231l210 15v-104l-210 15z" />
    <glyph glyph-name="daggerdbl" unicode="&#x2021;" horiz-adv-x="549" 
d="M215 320l15 113l-210 -15v103l210 -15l-15 194h119l-15 -194l210 15v-103l-210 15l15 -113l-15 -113l210 15v-103l-210 15l15 -194h-119l15 194l-210 -15v103l210 -15z" />
    <glyph glyph-name="bullet" unicode="&#x2022;" horiz-adv-x="338" 
d="M33 350q0 61 38 99t98 38q61 0 99 -38t38 -99q0 -60 -38 -98t-99 -38q-60 0 -98 38t-38 98z" />
    <glyph glyph-name="ellipsis" unicode="&#x2026;" horiz-adv-x="949" 
d="M65 0v144h126v-144h-126zM411 0v144h127v-144h-127zM758 0v144h126v-144h-126z" />
    <glyph glyph-name="perthousand" unicode="&#x2030;" horiz-adv-x="1159" 
d="M239 444v162q0 27 -26 27h-61q-26 0 -26 -27v-162q0 -26 26 -26h61q26 0 26 26zM315 426q0 -34 -20.5 -55t-55.5 -21h-113q-34 0 -55 21t-21 55v198q0 34 21 55t55 21h113q35 0 55.5 -21t20.5 -55v-198zM668 94v162q0 27 -26 27h-60q-26 0 -26 -27v-162q0 -26 26 -26h60
q26 0 26 26zM744 76q0 -34 -21 -55t-55 -21h-112q-34 0 -55 21t-21 55v198q0 34 21 55t55 21h112q34 0 55 -21t21 -55v-198zM107 0l482 700h98l-481 -700h-99zM1033 94v162q0 27 -26 27h-60q-27 0 -27 -27v-162q0 -26 27 -26h60q26 0 26 26zM1109 76q0 -34 -20.5 -55
t-55.5 -21h-113q-34 0 -55 21t-21 55v198q0 34 21 55t55 21h113q35 0 55.5 -21t20.5 -55v-198z" />
    <glyph glyph-name="guilsinglleft" unicode="&#x2039;" horiz-adv-x="270" 
d="M240 56l-220 154v100l220 154v-112l-127 -92l127 -91v-113z" />
    <glyph glyph-name="guilsinglright" unicode="&#x203a;" horiz-adv-x="270" 
d="M23 464l219 -154v-100l-219 -154v112l126 92l-126 91v113z" />
    <glyph glyph-name="fraction" unicode="&#x2044;" horiz-adv-x="620" 
d="M20 0l482 700h98l-482 -700h-98z" />
    <glyph glyph-name="Euro" unicode="&#x20ac;" horiz-adv-x="635" 
d="M25 390v88h65v69q0 69 42 111t110 42h195q68 0 110.5 -42t42.5 -111v-84h-119v78q0 26 -14.5 41t-40.5 15h-152q-26 0 -40.5 -15t-14.5 -41v-63h180v-88h-180v-79h180v-89h-180v-63q0 -26 14.5 -40.5t40.5 -14.5h152q26 0 40.5 14.5t14.5 40.5v79h119v-85
q0 -68 -42.5 -110.5t-110.5 -42.5h-195q-68 0 -110 42.5t-42 110.5v69h-65v89h65v79h-65z" />
    <glyph glyph-name="trademark" unicode="&#x2122;" horiz-adv-x="746" 
d="M23 633v67h297v-67h-111v-283h-76v283h-110zM618 350v216l-95 -166l-96 166v-216h-76v350h74l98 -169l97 169h73v-350h-75z" />
    <glyph glyph-name="arrowleft" unicode="&#x2190;" horiz-adv-x="953" 
d="M933 328h-696l286 -286l-79 -78l-424 424l424 424l79 -78l-286 -286h696v-120z" />
    <glyph glyph-name="arrowup" unicode="&#x2191;" horiz-adv-x="888" 
d="M384 -68v696l-286 -286l-78 79l424 424l424 -424l-78 -79l-286 286v-696h-120z" />
    <glyph glyph-name="arrowright" unicode="&#x2192;" horiz-adv-x="953" 
d="M20 448h696l-286 286l79 78l424 -424l-424 -424l-79 78l286 286h-696v120z" />
    <glyph glyph-name="arrowdown" unicode="&#x2193;" horiz-adv-x="888" 
d="M504 846v-696l286 286l78 -79l-424 -424l-424 424l78 79l286 -286v696h120z" />
    <glyph glyph-name="uni2196" unicode="&#x2196;" horiz-adv-x="727" 
d="M624 13l-493 492v-405h-111v600h600v-111h-404l491 -493z" />
    <glyph glyph-name="uni2197" unicode="&#x2197;" horiz-adv-x="727" 
d="M596 505l-492 -492l-84 83l492 493h-405v111h600v-600h-111v405z" />
    <glyph glyph-name="uni2198" unicode="&#x2198;" horiz-adv-x="727" 
d="M104 687l492 -491v404h111v-600h-600v111h405l-492 493z" />
    <glyph glyph-name="uni2199" unicode="&#x2199;" horiz-adv-x="727" 
d="M131 196l493 491l83 -83l-491 -493h404v-111h-600v600h111v-404z" />
    <glyph glyph-name="partialdiff" unicode="&#x2202;" horiz-adv-x="558" 
d="M158 740h147l134 -141q54 -56 54 -122v-324q0 -68 -42 -110.5t-110 -42.5h-133q-69 0 -111 42.5t-42 110.5v149q0 69 42 111t111 42h72q61 0 102 -35v67q0 24 -16 42zM327 96q25 0 40 15t15 40v158q-1 24 -16 37t-39 13h-105q-26 0 -41 -14.5t-15 -40.5v-153
q0 -26 15 -40.5t41 -14.5h105z" />
    <glyph glyph-name="emptyset" unicode="&#x2205;" horiz-adv-x="647" 
d="M57 351q0 118 74 192t192 74q87 0 153 -44l97 97l69 -68l-97 -97q44 -68 44 -154q0 -118 -74 -192t-192 -74q-87 0 -155 44l-95 -95l-68 68l95 95q-43 68 -43 154zM478 351q0 39 -14 73l-222 -221q36 -22 81 -22q68 0 111.5 47.5t43.5 122.5zM168 351q0 -43 13 -73
l221 221q-35 22 -79 22q-68 0 -111.5 -47.5t-43.5 -122.5z" />
    <glyph glyph-name="Delta" unicode="&#x2206;" horiz-adv-x="633" 
d="M389 700l244 -700h-633l244 700h145zM314 573l-161 -469h323z" />
    <glyph glyph-name="product" unicode="&#x220f;" 
d="M486 0v597h-302v-597h-119v700h540v-700h-119z" />
    <glyph glyph-name="summation" unicode="&#x2211;" horiz-adv-x="575" 
d="M370 382v-63l-163 -215h328v-104h-470v104l188 246l-188 247v103h470v-103h-328z" />
    <glyph glyph-name="minus" unicode="&#x2212;" horiz-adv-x="512" 
d="M30 399h452v-96h-452v96z" />
    <glyph glyph-name="radical" unicode="&#x221a;" horiz-adv-x="626" 
d="M244 0l-149 424h-95v96h178l136 -395l198 575h114l-244 -700h-138z" />
    <glyph glyph-name="infinity" unicode="&#x221e;" horiz-adv-x="623" 
d="M379 236l-68 61l-67 -61q-41 -43 -95 -43q-57 0 -93 35.5t-36 93.5v58q0 58 36 93.5t93 35.5q54 0 95 -43l67 -62l68 62q41 43 95 43q57 0 93 -35.5t36 -93.5v-58q0 -58 -36 -93.5t-93 -35.5q-54 0 -95 43zM412 389l-42 -38l42 -38q25 -27 52 -27q23 0 37.5 14.5
t14.5 37.5v26q0 23 -14.5 37.5t-37.5 14.5q-27 0 -52 -27zM159 286q27 0 52 27l41 38l-41 38q-25 27 -52 27q-23 0 -37.5 -14.5t-14.5 -37.5v-26q0 -23 14.5 -37.5t37.5 -14.5z" />
    <glyph glyph-name="integral" unicode="&#x222b;" horiz-adv-x="361" 
d="M66 -53l113 644q12 67 60 108t114 41h98l-17 -96h-83q-50 0 -60 -51l-113 -644q-12 -67 -60 -108t-115 -41h-98l17 96h84q24 0 40 13.5t20 37.5z" />
    <glyph glyph-name="approxequal" unicode="&#x2248;" horiz-adv-x="512" 
d="M182 447q-29 18 -46 -12l-30 -54l-67 31l33 63q22 43 62.5 56t83.5 -8l115 -61q30 -17 47 13l26 49l67 -32l-29 -57q-22 -43 -62.5 -56.5t-84.5 8.5zM182 244q-29 18 -46 -12l-30 -54l-67 31l33 63q22 43 62.5 56t83.5 -8l115 -61q30 -17 47 13l26 49l67 -32l-29 -57
q-22 -43 -62.5 -56.5t-84.5 8.5z" />
    <glyph glyph-name="notequal" unicode="&#x2260;" horiz-adv-x="512" 
d="M30 274h151l51 154h-202v96h233l44 130h98l-44 -130h121v-96h-152l-51 -154h203v-96h-235l-42 -130h-98l43 130h-120v96z" />
    <glyph glyph-name="lessequal" unicode="&#x2264;" horiz-adv-x="512" 
d="M482 153l-452 172v97l452 173v-107l-331 -114l331 -115v-106zM30 96h452v-96h-452v96z" />
    <glyph glyph-name="greaterequal" unicode="&#x2265;" horiz-adv-x="512" 
d="M30 595l452 -173v-97l-452 -172v106l332 115l-332 114v107zM30 96h452v-96h-452v96z" />
    <glyph glyph-name="commaaccent" unicode="&#xf6c3;" horiz-adv-x="147" 
d="M20 -200l5 150h102l-30 -150h-77z" />
    <glyph glyph-name="CR" horiz-adv-x="0" 
 />
    <glyph glyph-name="iacute_jacute" horiz-adv-x="483" 
d="M306 -200v720h112v-720h-112zM396 580h-88l92 160h116zM65 0v520h111v-520h-111zM155 580h-88l92 160h116z" />
    <glyph glyph-name="publish" horiz-adv-x="880" 
d="M158 350q0 -132 77 -211t205 -79t205.5 79t77.5 211t-77.5 211t-205.5 79t-205 -79t-77 -211zM80 350q0 164 98 262t262 98t262 -98t98 -262t-98 -262t-262 -98t-262 98t-98 262zM291 143v414h233q47 0 76 -29.5t29 -77.5v-72q0 -48 -29 -77.5t-76 -29.5h-156v-128h-77z
M509 489h-141v-150h141q19 0 31 11.5t12 31.5v64q0 20 -11.5 31.5t-31.5 11.5z" />
    <glyph glyph-name="questiondown.cap" horiz-adv-x="632" 
d="M274 493h111v-42q0 -67 -41 -108t-107 -41h-9q-52 0 -52 -52v-103q0 -24 13.5 -37.5t38.5 -13.5h177q24 0 37.5 13.5t13.5 37.5v68h111v-66q0 -67 -40.5 -108t-107.5 -41h-205q-67 0 -108 41t-41 108v100q0 67 41 108t108 41h8q25 0 38.5 13.5t13.5 37.5v44zM274 571v129
h111v-129h-111z" />
    <glyph glyph-name="exclamdown.cap" horiz-adv-x="281" 
d="M85 0v493h111v-493h-111zM85 571v129h111v-129h-111z" />
    <glyph glyph-name="guillemotleft.cap" horiz-adv-x="480" 
d="M240 146l-220 154v100l220 154v-112l-127 -92l127 -91v-113zM450 146l-220 154v100l220 154v-112l-127 -92l127 -91v-113z" />
    <glyph glyph-name="guillemotright.cap" horiz-adv-x="480" 
d="M240 554l220 -154v-100l-220 -154v112l127 92l-127 91v113zM30 554l220 -154v-100l-220 -154v112l127 92l-127 91v113z" />
    <glyph glyph-name="guilsinglleft.cap" horiz-adv-x="270" 
d="M240 146l-220 154v100l220 154v-112l-127 -92l127 -91v-113z" />
    <glyph glyph-name="guilsinglright.cap" horiz-adv-x="270" 
d="M23 554l219 -154v-100l-219 -154v112l126 92l-126 91v113z" />
    <glyph glyph-name="emdash.cap" horiz-adv-x="1010" 
d="M5 303v96h1000v-96h-1000z" />
    <glyph glyph-name="endash.cap" horiz-adv-x="510" 
d="M5 303v96h500v-96h-500z" />
    <glyph glyph-name="hyphen.cap" horiz-adv-x="276" 
d="M30 303v96h216v-96h-216z" />
    <glyph glyph-name="at.cap" horiz-adv-x="1039" 
d="M756 100q-64 0 -101 31.5t-43 83.5l-86 -73q-50 -42 -119 -42q-68 0 -102 42t-22 110l38 215q12 69 61.5 111t118.5 42h61q74 0 103 -50l10 50h111l-65 -372q-6 -33 7 -52t42 -19q59 0 100.5 85t41.5 190q0 133 -83 210.5t-228 77.5q-199 0 -336 -138t-137 -354
q0 -133 82.5 -210.5t228.5 -77.5q121 0 221 53l27 -67q-117 -56 -248 -56q-182 0 -285.5 96t-103.5 262q0 163 74.5 292.5t199.5 199.5t277 70q181 0 284.5 -96t103.5 -262q0 -148 -65 -250t-168 -102zM440 196q24 0 44 15l139 118l26 145q2 23 -10 36.5t-37 13.5h-105
q-26 0 -43 -14.5t-21 -40.5l-39 -218q-5 -26 7.5 -40.5t38.5 -14.5z" />
    <glyph glyph-name="caron.alt" horiz-adv-x="153" 
d="M20 580l8 200h105l-47 -200h-66z" />
    <glyph glyph-name="acute.cap" horiz-adv-x="250" 
d="M115 740h-95l87 145h124z" />
    <glyph glyph-name="breve.cap" horiz-adv-x="338" 
d="M20 885h84q0 -45 15.5 -62t49.5 -17t49.5 17t15.5 62h84q0 -82 -37.5 -116.5t-111.5 -34.5t-111.5 34.5t-37.5 116.5z" />
    <glyph glyph-name="caron.cap" horiz-adv-x="372" 
d="M124 740l-104 145h103l64 -87l65 87h100l-104 -145h-124z" />
    <glyph glyph-name="circumflex.cap" horiz-adv-x="372" 
d="M248 885l104 -145h-103l-64 87l-65 -87h-100l104 145h124z" />
    <glyph glyph-name="dieresis.cap" horiz-adv-x="381" 
d="M20 744v121h96v-121h-96zM265 744v121h96v-121h-96z" />
    <glyph glyph-name="dotaccent.cap" horiz-adv-x="151" 
d="M20 740v129h111v-129h-111z" />
    <glyph glyph-name="grave.cap" horiz-adv-x="250" 
d="M231 740h-95l-115 145h123z" />
    <glyph glyph-name="hungarumlaut.cap" horiz-adv-x="454" 
d="M108 740h-88l92 145h116zM314 740h-88l92 145h116z" />
    <glyph glyph-name="macron.cap" horiz-adv-x="382" 
d="M20 767v81h342v-81h-342z" />
    <glyph glyph-name="ring.cap" horiz-adv-x="242" 
d="M12 817q0 45 30.5 73t78.5 28q49 0 79 -28t30 -73t-30 -73t-79 -28q-48 0 -78.5 28t-30.5 73zM78 817q0 -49 43 -49t43 49t-43 49t-43 -49z" />
    <glyph glyph-name="tilde.cap" horiz-adv-x="475" 
d="M163 804q-30 17 -46 -12l-30 -55l-67 32l33 62q22 43 62.5 56.5t83.5 -8.5l115 -60q31 -19 47 12l26 49l68 -31l-30 -58q-22 -42 -62.5 -55.5t-84.5 7.5z" />
    <glyph glyph-name="arrowleft.alt" horiz-adv-x="740" 
d="M720 290h-483l180 -180l-79 -78l-318 318l318 318l79 -78l-180 -180h483v-120z" />
    <glyph glyph-name="arrowright.alt" horiz-adv-x="740" 
d="M20 410h483l-180 180l79 78l318 -318l-318 -318l-79 78l180 180h-483v120z" />
    <glyph glyph-name="arrowup.alt" horiz-adv-x="676" 
d="M278 0v483l-180 -180l-78 79l318 318l318 -318l-78 -79l-180 180v-483h-120z" />
    <glyph glyph-name="arrowdown.alt" horiz-adv-x="676" 
d="M398 700v-483l180 180l78 -79l-318 -318l-318 318l78 79l180 -180v483h120z" />
    <glyph glyph-name="uni2196.alt" horiz-adv-x="577" 
d="M472 60l-342 342v-255h-110v450h450v-110h-254l341 -342z" />
    <glyph glyph-name="uni2197.alt" horiz-adv-x="577" 
d="M447 402l-342 -342l-85 85l342 342h-255v110h450v-450h-110v255z" />
    <glyph glyph-name="uni2198.alt" horiz-adv-x="577" 
d="M105 584l342 -341v254h110v-450h-450v110h255l-342 342z" />
    <glyph glyph-name="uni2199.alt" horiz-adv-x="577" 
d="M130 243l342 341l85 -85l-341 -342h254v-110h-450v450h110v-254z" />
    </font>
</defs>
</svg>
